<?xml version="1.0" encoding="utf-8" standalone="no"?>
<!DOCTYPE svg PUBLIC "-//W3C//DTD SVG 1.1//EN"
  "http://www.w3.org/Graphics/SVG/1.1/DTD/svg11.dtd">
<svg xmlns:xlink="http://www.w3.org/1999/xlink" width="1080pt" height="432pt" viewBox="0 0 1080 432" xmlns="http://www.w3.org/2000/svg" version="1.1">
 <metadata>
  <rdf:RDF xmlns:dc="http://purl.org/dc/elements/1.1/" xmlns:cc="http://creativecommons.org/ns#" xmlns:rdf="http://www.w3.org/1999/02/22-rdf-syntax-ns#">
   <cc:Work>
    <dc:type rdf:resource="http://purl.org/dc/dcmitype/StillImage"/>
    <dc:date>2024-02-23T11:23:18.769655</dc:date>
    <dc:format>image/svg+xml</dc:format>
    <dc:creator>
     <cc:Agent>
      <dc:title>Matplotlib v3.7.1, https://matplotlib.org/</dc:title>
     </cc:Agent>
    </dc:creator>
   </cc:Work>
  </rdf:RDF>
 </metadata>
 <defs>
  <style type="text/css">*{stroke-linejoin: round; stroke-linecap: butt}</style>
 </defs>
 <g id="figure_1">
  <g id="patch_1">
   <path d="M 0 432 
L 1080 432 
L 1080 0 
L 0 0 
z
" style="fill: #ffffff"/>
  </g>
  <g id="axes_1">
   <g id="patch_2">
    <path d="M 135 384.48 
L 972 384.48 
L 972 51.84 
L 135 51.84 
z
" style="fill: #ffffff"/>
   </g>
   <g id="matplotlib.axis_1">
    <g id="xtick_1">
     <g id="line2d_1">
      <defs>
       <path id="m5892ac27e3" d="M 0 0 
L 0 3.5 
" style="stroke: #000000; stroke-width: 0.8"/>
      </defs>
      <g>
       <use xlink:href="#m5892ac27e3" x="135" y="384.48" style="stroke: #000000; stroke-width: 0.8"/>
      </g>
     </g>
     <g id="text_1">
      <!-- 0 -->
      <g transform="translate(131.81875 399.078438) scale(0.1 -0.1)">
       <defs>
        <path id="DejaVuSans-30" d="M 2034 4250 
Q 1547 4250 1301 3770 
Q 1056 3291 1056 2328 
Q 1056 1369 1301 889 
Q 1547 409 2034 409 
Q 2525 409 2770 889 
Q 3016 1369 3016 2328 
Q 3016 3291 2770 3770 
Q 2525 4250 2034 4250 
z
M 2034 4750 
Q 2819 4750 3233 4129 
Q 3647 3509 3647 2328 
Q 3647 1150 3233 529 
Q 2819 -91 2034 -91 
Q 1250 -91 836 529 
Q 422 1150 422 2328 
Q 422 3509 836 4129 
Q 1250 4750 2034 4750 
z
" transform="scale(0.015625)"/>
       </defs>
       <use xlink:href="#DejaVuSans-30"/>
      </g>
     </g>
    </g>
    <g id="xtick_2">
     <g id="line2d_2">
      <g>
       <use xlink:href="#m5892ac27e3" x="302.4" y="384.48" style="stroke: #000000; stroke-width: 0.8"/>
      </g>
     </g>
     <g id="text_2">
      <!-- 100 -->
      <g transform="translate(292.85625 399.078438) scale(0.1 -0.1)">
       <defs>
        <path id="DejaVuSans-31" d="M 794 531 
L 1825 531 
L 1825 4091 
L 703 3866 
L 703 4441 
L 1819 4666 
L 2450 4666 
L 2450 531 
L 3481 531 
L 3481 0 
L 794 0 
L 794 531 
z
" transform="scale(0.015625)"/>
       </defs>
       <use xlink:href="#DejaVuSans-31"/>
       <use xlink:href="#DejaVuSans-30" x="63.623047"/>
       <use xlink:href="#DejaVuSans-30" x="127.246094"/>
      </g>
     </g>
    </g>
    <g id="xtick_3">
     <g id="line2d_3">
      <g>
       <use xlink:href="#m5892ac27e3" x="469.8" y="384.48" style="stroke: #000000; stroke-width: 0.8"/>
      </g>
     </g>
     <g id="text_3">
      <!-- 200 -->
      <g transform="translate(460.25625 399.078438) scale(0.1 -0.1)">
       <defs>
        <path id="DejaVuSans-32" d="M 1228 531 
L 3431 531 
L 3431 0 
L 469 0 
L 469 531 
Q 828 903 1448 1529 
Q 2069 2156 2228 2338 
Q 2531 2678 2651 2914 
Q 2772 3150 2772 3378 
Q 2772 3750 2511 3984 
Q 2250 4219 1831 4219 
Q 1534 4219 1204 4116 
Q 875 4013 500 3803 
L 500 4441 
Q 881 4594 1212 4672 
Q 1544 4750 1819 4750 
Q 2544 4750 2975 4387 
Q 3406 4025 3406 3419 
Q 3406 3131 3298 2873 
Q 3191 2616 2906 2266 
Q 2828 2175 2409 1742 
Q 1991 1309 1228 531 
z
" transform="scale(0.015625)"/>
       </defs>
       <use xlink:href="#DejaVuSans-32"/>
       <use xlink:href="#DejaVuSans-30" x="63.623047"/>
       <use xlink:href="#DejaVuSans-30" x="127.246094"/>
      </g>
     </g>
    </g>
    <g id="xtick_4">
     <g id="line2d_4">
      <g>
       <use xlink:href="#m5892ac27e3" x="637.2" y="384.48" style="stroke: #000000; stroke-width: 0.8"/>
      </g>
     </g>
     <g id="text_4">
      <!-- 300 -->
      <g transform="translate(627.65625 399.078438) scale(0.1 -0.1)">
       <defs>
        <path id="DejaVuSans-33" d="M 2597 2516 
Q 3050 2419 3304 2112 
Q 3559 1806 3559 1356 
Q 3559 666 3084 287 
Q 2609 -91 1734 -91 
Q 1441 -91 1130 -33 
Q 819 25 488 141 
L 488 750 
Q 750 597 1062 519 
Q 1375 441 1716 441 
Q 2309 441 2620 675 
Q 2931 909 2931 1356 
Q 2931 1769 2642 2001 
Q 2353 2234 1838 2234 
L 1294 2234 
L 1294 2753 
L 1863 2753 
Q 2328 2753 2575 2939 
Q 2822 3125 2822 3475 
Q 2822 3834 2567 4026 
Q 2313 4219 1838 4219 
Q 1578 4219 1281 4162 
Q 984 4106 628 3988 
L 628 4550 
Q 988 4650 1302 4700 
Q 1616 4750 1894 4750 
Q 2613 4750 3031 4423 
Q 3450 4097 3450 3541 
Q 3450 3153 3228 2886 
Q 3006 2619 2597 2516 
z
" transform="scale(0.015625)"/>
       </defs>
       <use xlink:href="#DejaVuSans-33"/>
       <use xlink:href="#DejaVuSans-30" x="63.623047"/>
       <use xlink:href="#DejaVuSans-30" x="127.246094"/>
      </g>
     </g>
    </g>
    <g id="xtick_5">
     <g id="line2d_5">
      <g>
       <use xlink:href="#m5892ac27e3" x="804.6" y="384.48" style="stroke: #000000; stroke-width: 0.8"/>
      </g>
     </g>
     <g id="text_5">
      <!-- 400 -->
      <g transform="translate(795.05625 399.078438) scale(0.1 -0.1)">
       <defs>
        <path id="DejaVuSans-34" d="M 2419 4116 
L 825 1625 
L 2419 1625 
L 2419 4116 
z
M 2253 4666 
L 3047 4666 
L 3047 1625 
L 3713 1625 
L 3713 1100 
L 3047 1100 
L 3047 0 
L 2419 0 
L 2419 1100 
L 313 1100 
L 313 1709 
L 2253 4666 
z
" transform="scale(0.015625)"/>
       </defs>
       <use xlink:href="#DejaVuSans-34"/>
       <use xlink:href="#DejaVuSans-30" x="63.623047"/>
       <use xlink:href="#DejaVuSans-30" x="127.246094"/>
      </g>
     </g>
    </g>
    <g id="xtick_6">
     <g id="line2d_6">
      <g>
       <use xlink:href="#m5892ac27e3" x="972" y="384.48" style="stroke: #000000; stroke-width: 0.8"/>
      </g>
     </g>
     <g id="text_6">
      <!-- 500 -->
      <g transform="translate(962.45625 399.078438) scale(0.1 -0.1)">
       <defs>
        <path id="DejaVuSans-35" d="M 691 4666 
L 3169 4666 
L 3169 4134 
L 1269 4134 
L 1269 2991 
Q 1406 3038 1543 3061 
Q 1681 3084 1819 3084 
Q 2600 3084 3056 2656 
Q 3513 2228 3513 1497 
Q 3513 744 3044 326 
Q 2575 -91 1722 -91 
Q 1428 -91 1123 -41 
Q 819 9 494 109 
L 494 744 
Q 775 591 1075 516 
Q 1375 441 1709 441 
Q 2250 441 2565 725 
Q 2881 1009 2881 1497 
Q 2881 1984 2565 2268 
Q 2250 2553 1709 2553 
Q 1456 2553 1204 2497 
Q 953 2441 691 2322 
L 691 4666 
z
" transform="scale(0.015625)"/>
       </defs>
       <use xlink:href="#DejaVuSans-35"/>
       <use xlink:href="#DejaVuSans-30" x="63.623047"/>
       <use xlink:href="#DejaVuSans-30" x="127.246094"/>
      </g>
     </g>
    </g>
   </g>
   <g id="matplotlib.axis_2">
    <g id="ytick_1">
     <g id="line2d_7">
      <defs>
       <path id="m9c10185fdd" d="M 0 0 
L -3.5 0 
" style="stroke: #000000; stroke-width: 0.8"/>
      </defs>
      <g>
       <use xlink:href="#m9c10185fdd" x="135" y="345.894267" style="stroke: #000000; stroke-width: 0.8"/>
      </g>
     </g>
     <g id="text_7">
      <!-- 350 -->
      <g transform="translate(108.9125 349.693486) scale(0.1 -0.1)">
       <use xlink:href="#DejaVuSans-33"/>
       <use xlink:href="#DejaVuSans-35" x="63.623047"/>
       <use xlink:href="#DejaVuSans-30" x="127.246094"/>
      </g>
     </g>
    </g>
    <g id="ytick_2">
     <g id="line2d_8">
      <g>
       <use xlink:href="#m9c10185fdd" x="135" y="306.66083" style="stroke: #000000; stroke-width: 0.8"/>
      </g>
     </g>
     <g id="text_8">
      <!-- 400 -->
      <g transform="translate(108.9125 310.460049) scale(0.1 -0.1)">
       <use xlink:href="#DejaVuSans-34"/>
       <use xlink:href="#DejaVuSans-30" x="63.623047"/>
       <use xlink:href="#DejaVuSans-30" x="127.246094"/>
      </g>
     </g>
    </g>
    <g id="ytick_3">
     <g id="line2d_9">
      <g>
       <use xlink:href="#m9c10185fdd" x="135" y="267.427393" style="stroke: #000000; stroke-width: 0.8"/>
      </g>
     </g>
     <g id="text_9">
      <!-- 450 -->
      <g transform="translate(108.9125 271.226612) scale(0.1 -0.1)">
       <use xlink:href="#DejaVuSans-34"/>
       <use xlink:href="#DejaVuSans-35" x="63.623047"/>
       <use xlink:href="#DejaVuSans-30" x="127.246094"/>
      </g>
     </g>
    </g>
    <g id="ytick_4">
     <g id="line2d_10">
      <g>
       <use xlink:href="#m9c10185fdd" x="135" y="228.193956" style="stroke: #000000; stroke-width: 0.8"/>
      </g>
     </g>
     <g id="text_10">
      <!-- 500 -->
      <g transform="translate(108.9125 231.993175) scale(0.1 -0.1)">
       <use xlink:href="#DejaVuSans-35"/>
       <use xlink:href="#DejaVuSans-30" x="63.623047"/>
       <use xlink:href="#DejaVuSans-30" x="127.246094"/>
      </g>
     </g>
    </g>
    <g id="ytick_5">
     <g id="line2d_11">
      <g>
       <use xlink:href="#m9c10185fdd" x="135" y="188.960519" style="stroke: #000000; stroke-width: 0.8"/>
      </g>
     </g>
     <g id="text_11">
      <!-- 550 -->
      <g transform="translate(108.9125 192.759738) scale(0.1 -0.1)">
       <use xlink:href="#DejaVuSans-35"/>
       <use xlink:href="#DejaVuSans-35" x="63.623047"/>
       <use xlink:href="#DejaVuSans-30" x="127.246094"/>
      </g>
     </g>
    </g>
    <g id="ytick_6">
     <g id="line2d_12">
      <g>
       <use xlink:href="#m9c10185fdd" x="135" y="149.727083" style="stroke: #000000; stroke-width: 0.8"/>
      </g>
     </g>
     <g id="text_12">
      <!-- 600 -->
      <g transform="translate(108.9125 153.526301) scale(0.1 -0.1)">
       <defs>
        <path id="DejaVuSans-36" d="M 2113 2584 
Q 1688 2584 1439 2293 
Q 1191 2003 1191 1497 
Q 1191 994 1439 701 
Q 1688 409 2113 409 
Q 2538 409 2786 701 
Q 3034 994 3034 1497 
Q 3034 2003 2786 2293 
Q 2538 2584 2113 2584 
z
M 3366 4563 
L 3366 3988 
Q 3128 4100 2886 4159 
Q 2644 4219 2406 4219 
Q 1781 4219 1451 3797 
Q 1122 3375 1075 2522 
Q 1259 2794 1537 2939 
Q 1816 3084 2150 3084 
Q 2853 3084 3261 2657 
Q 3669 2231 3669 1497 
Q 3669 778 3244 343 
Q 2819 -91 2113 -91 
Q 1303 -91 875 529 
Q 447 1150 447 2328 
Q 447 3434 972 4092 
Q 1497 4750 2381 4750 
Q 2619 4750 2861 4703 
Q 3103 4656 3366 4563 
z
" transform="scale(0.015625)"/>
       </defs>
       <use xlink:href="#DejaVuSans-36"/>
       <use xlink:href="#DejaVuSans-30" x="63.623047"/>
       <use xlink:href="#DejaVuSans-30" x="127.246094"/>
      </g>
     </g>
    </g>
    <g id="ytick_7">
     <g id="line2d_13">
      <g>
       <use xlink:href="#m9c10185fdd" x="135" y="110.493646" style="stroke: #000000; stroke-width: 0.8"/>
      </g>
     </g>
     <g id="text_13">
      <!-- 650 -->
      <g transform="translate(108.9125 114.292864) scale(0.1 -0.1)">
       <use xlink:href="#DejaVuSans-36"/>
       <use xlink:href="#DejaVuSans-35" x="63.623047"/>
       <use xlink:href="#DejaVuSans-30" x="127.246094"/>
      </g>
     </g>
    </g>
    <g id="ytick_8">
     <g id="line2d_14">
      <g>
       <use xlink:href="#m9c10185fdd" x="135" y="71.260209" style="stroke: #000000; stroke-width: 0.8"/>
      </g>
     </g>
     <g id="text_14">
      <!-- 700 -->
      <g transform="translate(108.9125 75.059428) scale(0.1 -0.1)">
       <defs>
        <path id="DejaVuSans-37" d="M 525 4666 
L 3525 4666 
L 3525 4397 
L 1831 0 
L 1172 0 
L 2766 4134 
L 525 4134 
L 525 4666 
z
" transform="scale(0.015625)"/>
       </defs>
       <use xlink:href="#DejaVuSans-37"/>
       <use xlink:href="#DejaVuSans-30" x="63.623047"/>
       <use xlink:href="#DejaVuSans-30" x="127.246094"/>
      </g>
     </g>
    </g>
   </g>
   <g id="line2d_15">
    <path d="M 135 129.847988 
L 136.674 161.04273 
L 138.348 186.961122 
L 140.022 203.01068 
L 141.696 212.900366 
L 143.37 220.175656 
L 145.044 223.946648 
L 146.718 228.783718 
L 148.392 216.571722 
L 150.066 184.756424 
L 151.74 150.515908 
L 153.414 126.007506 
L 155.088 108.036357 
L 156.762 101.581678 
L 158.436 127.211888 
L 160.11 130.456568 
L 161.784 129.452377 
L 163.458 130.25895 
L 165.132 117.851944 
L 166.806 123.913078 
L 168.48 126.772302 
L 170.154 104.949617 
L 171.828 96.060556 
L 173.502 112.168437 
L 175.176 132.014649 
L 178.524 184.794262 
L 180.198 202.508385 
L 181.872 214.18949 
L 183.546 221.532221 
L 185.22 225.92029 
L 186.894 236.705938 
L 188.568 234.261142 
L 190.242 218.092654 
L 191.916 197.144287 
L 193.59 170.639604 
L 195.264 151.218233 
L 196.938 144.601738 
L 198.612 157.506295 
L 200.286 160.992926 
L 201.96 165.55991 
L 203.634 170.662037 
L 205.308 160.008443 
L 206.982 157.26313 
L 208.656 155.751804 
L 210.33 128.168104 
L 212.004 111.746868 
L 213.678 121.098856 
L 215.352 138.228537 
L 217.026 169.439303 
L 218.7 197.134092 
L 220.374 210.948499 
L 222.048 218.311424 
L 223.722 223.400325 
L 225.396 226.153837 
L 227.07 230.234537 
L 228.744 213.787168 
L 230.418 177.507191 
L 232.092 144.913018 
L 233.766 120.010697 
L 235.44 101.286653 
L 237.114 95.514516 
L 238.788 134.711746 
L 240.462 153.197478 
L 242.136 188.944547 
L 243.81 190.283028 
L 245.484 159.95459 
L 247.158 140.632061 
L 248.832 152.745913 
L 250.506 128.515402 
L 252.18 122.988959 
L 253.854 139.291032 
L 257.202 190.563174 
L 258.876 208.044656 
L 260.55 214.59969 
L 262.224 210.580202 
L 263.898 216.510135 
L 265.572 218.104564 
L 267.246 220.568884 
L 268.92 207.626142 
L 272.268 139.452663 
L 273.942 108.84118 
L 275.616 101.279305 
L 277.29 125.15805 
L 278.964 173.137921 
L 280.638 180.279829 
L 282.312 181.375492 
L 283.986 177.62682 
L 285.66 167.105015 
L 289.008 149.530669 
L 290.682 128.620297 
L 292.356 174.23503 
L 294.03 138.384818 
L 295.704 149.520429 
L 297.378 174.987615 
L 299.052 179.429913 
L 300.726 197.040909 
L 302.4 210.390968 
L 304.074 217.018816 
L 305.748 219.376175 
L 307.422 223.667515 
L 309.096 209.645865 
L 312.444 137.432626 
L 314.118 114.387687 
L 315.792 122.554693 
L 317.466 174.730698 
L 319.14 209.36535 
L 320.814 233.534359 
L 322.488 210.791006 
L 324.162 196.808094 
L 325.836 165.04968 
L 327.51 148.94622 
L 329.184 141.145715 
L 330.858 125.516519 
L 332.532 126.984835 
L 334.206 140.890831 
L 335.88 152.322972 
L 337.554 170.925619 
L 340.902 189.594095 
L 342.576 201.905594 
L 344.25 209.237385 
L 347.598 218.171505 
L 349.272 203.93308 
L 350.946 167.091435 
L 352.62 133.652459 
L 354.294 117.136417 
L 355.968 122.206739 
L 357.642 129.454121 
L 359.316 159.870046 
L 360.99 167.875984 
L 362.664 198.451413 
L 364.338 203.042878 
L 366.012 198.095413 
L 367.686 175.030287 
L 369.36 196.471472 
L 371.034 173.285784 
L 372.708 143.386717 
L 374.382 162.885374 
L 376.056 179.4423 
L 377.73 198.825001 
L 379.404 167.368106 
L 381.078 186.784219 
L 382.752 202.715828 
L 384.426 207.96368 
L 386.1 211.58009 
L 387.774 213.702887 
L 389.448 198.714689 
L 392.796 125.958612 
L 394.47 100.590305 
L 396.144 123.696618 
L 397.818 133.675667 
L 399.492 172.437682 
L 401.166 188.109781 
L 402.84 189.895056 
L 406.188 161.651921 
L 407.862 161.246303 
L 409.536 154.103015 
L 411.21 132.109147 
L 412.884 122.081638 
L 414.558 143.865183 
L 416.232 156.000125 
L 417.906 171.245545 
L 419.58 174.873362 
L 422.928 202.740383 
L 424.602 208.216064 
L 426.276 212.617274 
L 427.95 219.826951 
L 429.624 209.004211 
L 432.972 137.53608 
L 434.646 120.240573 
L 436.32 138.494196 
L 437.994 162.233714 
L 439.668 208.675229 
L 441.342 188.497134 
L 443.016 178.011261 
L 444.69 192.069457 
L 446.364 187.042789 
L 448.038 170.491143 
L 449.712 155.872189 
L 451.386 130.117149 
L 453.06 141.506788 
L 454.734 156.959639 
L 456.408 170.404832 
L 458.082 174.90846 
L 459.756 173.044349 
L 461.43 183.589605 
L 463.104 196.196798 
L 466.452 210.05972 
L 468.126 223.394869 
L 469.8 220.702371 
L 471.474 200.512952 
L 473.148 174.40986 
L 474.822 146.047259 
L 476.496 126.966915 
L 478.17 121.812434 
L 479.844 145.136843 
L 481.518 163.332824 
L 483.192 164.148995 
L 484.866 157.547953 
L 486.54 167.46778 
L 488.214 172.891169 
L 489.888 148.428586 
L 491.562 113.505119 
L 493.236 103.420266 
L 494.91 127.043865 
L 496.584 148.749582 
L 498.258 168.992672 
L 499.932 183.342992 
L 501.606 199.108362 
L 503.28 209.391968 
L 504.954 216.376381 
L 506.628 219.224173 
L 508.302 222.577953 
L 509.976 209.279712 
L 511.65 175.894677 
L 513.324 159.393828 
L 514.998 157.080787 
L 516.672 175.115598 
L 518.346 188.986195 
L 520.02 217.790494 
L 521.694 213.218969 
L 523.368 197.478572 
L 525.042 173.267451 
L 526.716 169.846039 
L 528.39 203.214119 
L 530.064 185.933249 
L 531.738 145.482025 
L 533.412 130.827481 
L 535.086 153.890664 
L 536.76 152.645803 
L 538.434 163.148608 
L 540.108 191.447201 
L 541.782 186.706884 
L 543.456 199.440282 
L 545.13 209.903039 
L 546.804 210.681562 
L 548.478 212.658296 
L 550.152 202.672285 
L 551.826 165.485689 
L 553.5 132.443814 
L 555.174 141.593789 
L 556.848 161.179394 
L 558.522 169.697797 
L 560.196 204.009851 
L 561.87 198.324139 
L 563.544 188.582459 
L 565.218 173.027824 
L 566.892 181.503774 
L 568.566 178.561548 
L 571.914 137.441597 
L 573.588 153.420272 
L 575.262 120.426116 
L 576.936 108.742729 
L 578.61 134.430858 
L 580.284 162.856314 
L 581.958 183.129772 
L 583.632 195.061358 
L 585.306 201.181594 
L 586.98 204.605221 
L 588.654 208.814506 
L 590.328 199.905584 
L 593.676 139.270527 
L 595.35 115.214407 
L 597.024 97.899305 
L 598.698 89.68387 
L 600.372 109.172694 
L 602.046 111.007244 
L 603.72 108.36251 
L 605.394 109.90245 
L 607.068 99.297218 
L 610.416 113.097987 
L 612.09 83.369182 
L 613.764 74.34279 
L 615.438 93.737057 
L 618.786 139.620551 
L 620.46 165.968192 
L 622.134 186.283369 
L 623.808 198.022025 
L 625.482 206.219448 
L 628.83 216.789913 
L 630.504 207.231188 
L 633.852 146.244968 
L 635.526 119.73298 
L 637.2 99.052401 
L 638.874 90.536692 
L 640.548 110.190716 
L 642.222 111.810697 
L 643.896 110.481843 
L 645.57 107.986252 
L 647.244 104.109276 
L 648.918 113.004413 
L 650.592 120.085466 
L 652.266 91.557581 
L 653.94 82.67156 
L 655.614 104.052822 
L 657.288 127.44593 
L 658.962 147.616565 
L 660.636 172.261398 
L 662.31 192.733717 
L 663.984 207.88112 
L 665.658 214.953858 
L 667.332 220.005885 
L 669.006 230.779229 
L 670.68 230.71663 
L 672.354 214.768441 
L 675.702 170.218348 
L 677.376 155.437166 
L 679.05 150.211916 
L 680.724 163.080614 
L 682.398 166.666222 
L 684.072 172.874549 
L 685.746 177.459391 
L 687.42 177.415867 
L 689.094 194.275025 
L 690.768 213.129049 
L 692.442 193.452418 
L 694.116 189.852534 
L 695.79 209.197994 
L 697.464 233.905973 
L 699.138 255.36849 
L 700.812 278.91136 
L 702.486 300.764945 
L 704.16 315.22189 
L 705.834 324.898245 
L 707.508 333.1381 
L 710.856 363.820948 
L 712.53 365.21859 
L 714.204 357.840196 
L 715.878 349.742547 
L 717.552 346.151637 
L 719.226 333.984814 
L 720.9 310.381283 
L 722.574 288.92066 
L 724.248 273.553932 
L 725.922 255.136194 
L 727.596 227.055764 
L 729.27 207.094266 
L 730.944 189.578444 
L 732.618 147.881561 
L 734.292 131.127187 
L 735.966 142.495261 
L 737.64 158.095411 
L 739.314 176.559666 
L 740.988 200.942389 
L 742.662 218.941376 
L 744.336 230.55429 
L 746.01 238.374437 
L 747.684 242.700989 
L 749.358 250.779616 
L 751.032 245.951513 
L 752.706 224.571652 
L 754.38 201.288994 
L 756.054 171.436722 
L 757.728 149.395006 
L 759.402 138.681293 
L 761.076 148.953134 
L 762.75 150.633862 
L 764.424 155.908486 
L 766.098 156.324297 
L 767.772 147.737777 
L 769.446 151.419795 
L 771.12 149.88006 
L 772.794 110.6407 
L 774.468 97.434154 
L 776.142 107.960606 
L 777.816 128.382436 
L 781.164 183.870886 
L 782.838 201.429641 
L 784.512 212.579793 
L 786.186 219.413195 
L 787.86 222.416283 
L 789.534 227.016124 
L 791.208 220.729304 
L 792.882 191.698725 
L 794.556 158.039796 
L 796.23 132.456223 
L 797.904 113.972988 
L 799.578 104.469505 
L 801.252 125.552791 
L 802.926 126.580792 
L 804.6 126.829426 
L 806.274 123.481997 
L 807.948 114.406996 
L 809.622 118.614381 
L 811.296 123.971285 
L 812.97 88.110545 
L 814.644 82.808925 
L 816.318 98.903342 
L 817.992 124.283828 
L 819.666 159.141003 
L 821.34 187.016027 
L 823.014 203.029053 
L 824.688 212.708542 
L 826.362 219.510618 
L 828.036 222.60267 
L 829.71 227.138911 
L 831.384 216.931344 
L 833.058 185.089716 
L 834.732 150.988189 
L 836.406 125.054669 
L 838.08 103.23959 
L 839.754 95.775657 
L 841.428 119.685967 
L 843.102 122.622243 
L 844.776 121.264692 
L 846.45 117.101039 
L 848.124 106.930457 
L 849.798 108.032659 
L 851.472 108.27549 
L 853.146 77.686607 
L 854.82 79.561819 
L 856.494 97.08116 
L 858.168 120.758048 
L 859.842 154.932263 
L 861.516 183.138601 
L 863.19 201.022981 
L 864.864 211.405007 
L 866.538 220.408507 
L 868.212 223.525521 
L 869.886 227.663654 
L 871.56 215.897523 
L 874.908 149.814134 
L 876.582 122.291106 
L 878.256 101.605723 
L 879.93 95.478841 
L 881.604 118.403599 
L 883.278 122.642764 
L 884.952 125.315938 
L 886.626 120.57225 
L 888.3 108.225055 
L 889.974 101.231504 
L 891.648 103.271661 
L 893.322 73.829771 
L 894.996 75.566993 
L 896.67 97.209222 
L 898.344 123.506037 
L 900.018 156.502549 
L 901.692 183.793382 
L 903.366 203.100281 
L 905.04 214.458696 
L 906.714 220.012949 
L 910.062 227.199105 
L 911.736 217.836856 
L 915.084 147.322362 
L 916.758 120.595297 
L 918.432 104.417317 
L 920.106 111.059487 
L 921.78 160.27882 
L 923.454 157.91138 
L 925.128 160.958092 
L 926.802 160.130382 
L 928.476 165.411201 
L 930.15 162.23473 
L 931.824 150.029667 
L 933.498 147.255684 
L 935.172 174.798234 
L 936.846 183.214674 
L 938.52 203.516811 
L 941.868 179.553802 
L 943.542 197.380396 
L 945.216 209.581474 
L 946.89 217.284988 
L 950.238 225.981428 
L 951.912 213.919601 
L 955.26 143.109864 
L 956.934 116.81545 
L 958.608 98.733677 
L 960.282 106.692101 
L 961.956 168.88543 
L 963.63 208.110705 
L 965.304 232.566238 
L 966.978 243.316487 
L 968.652 229.412675 
L 970.326 194.417049 
L 970.326 194.417049 
" clip-path="url(#pd42d25965f)" style="fill: none; stroke: #1f77b4; stroke-width: 1.5; stroke-linecap: square"/>
   </g>
   <g id="line2d_16">
    <path d="M 135 127.712872 
L 136.674 162.646339 
L 138.348 192.517391 
L 140.022 208.040939 
L 141.696 217.267885 
L 143.37 222.237198 
L 145.044 228.335454 
L 146.718 228.626329 
L 148.392 211.039529 
L 150.066 175.921532 
L 151.74 147.008232 
L 153.414 122.154434 
L 155.088 109.958353 
L 156.762 103.207203 
L 158.436 119.012263 
L 160.11 128.258941 
L 161.784 126.879257 
L 163.458 125.921792 
L 165.132 118.223332 
L 166.806 116.838045 
L 168.48 121.133464 
L 170.154 93.382561 
L 171.828 84.027982 
L 175.176 131.952832 
L 178.524 188.668567 
L 180.198 205.971845 
L 181.872 215.833747 
L 183.546 222.453863 
L 185.22 228.506286 
L 186.894 230.326293 
L 188.568 223.335801 
L 190.242 202.31301 
L 193.59 169.907063 
L 195.264 150.870513 
L 196.938 137.838662 
L 198.612 147.149658 
L 200.286 159.587501 
L 201.96 159.821311 
L 203.634 160.988975 
L 205.308 160.816994 
L 206.982 150.805475 
L 208.656 153.274758 
L 210.33 126.4738 
L 212.004 111.03392 
L 213.678 122.336521 
L 217.026 164.334258 
L 218.7 200.061542 
L 220.374 219.651584 
L 222.048 225.7894 
L 223.722 226.153621 
L 225.396 228.435214 
L 227.07 221.055406 
L 228.744 212.445841 
L 230.418 171.45437 
L 232.092 141.923977 
L 233.766 120.455261 
L 235.44 105.98841 
L 237.114 103.155671 
L 238.788 123.770132 
L 240.462 139.265902 
L 242.136 151.164668 
L 243.81 184.244701 
L 245.484 164.489238 
L 247.158 158.508533 
L 248.832 129.080295 
L 250.506 131.771368 
L 252.18 96.173345 
L 253.854 119.125098 
L 255.528 134.257748 
L 257.202 183.447771 
L 258.876 212.685255 
L 260.55 223.310299 
L 262.224 221.293024 
L 263.898 210.033693 
L 265.572 222.373428 
L 268.92 200.920396 
L 270.594 166.883809 
L 272.268 144.224296 
L 273.942 117.948861 
L 275.616 100.576523 
L 277.29 99.882467 
L 278.964 132.469303 
L 280.638 173.114512 
L 283.986 184.190151 
L 285.66 164.197956 
L 287.334 162.048451 
L 289.008 136.777462 
L 290.682 120.146355 
L 292.356 108.19371 
L 294.03 153.864266 
L 295.704 157.154328 
L 297.378 179.573948 
L 299.052 188.825894 
L 300.726 192.450772 
L 302.4 206.726868 
L 304.074 216.905531 
L 305.748 221.864883 
L 307.422 208.485572 
L 309.096 222.94318 
L 310.77 174.968042 
L 314.118 120.478009 
L 315.792 104.405423 
L 317.466 111.644787 
L 319.14 164.253512 
L 320.814 202.597731 
L 322.488 230.860149 
L 324.162 199.730749 
L 325.836 199.993487 
L 327.51 156.369277 
L 330.858 120.326909 
L 332.532 107.984085 
L 334.206 121.849264 
L 335.88 140.175139 
L 337.554 160.630166 
L 339.228 177.085604 
L 340.902 177.941249 
L 342.576 184.818116 
L 345.924 213.473324 
L 347.598 214.449322 
L 349.272 211.304374 
L 350.946 172.277975 
L 352.62 137.515053 
L 354.294 110.750971 
L 355.968 98.300342 
L 357.642 131.820697 
L 359.316 150.511416 
L 360.99 183.481535 
L 362.664 162.209034 
L 364.338 194.302531 
L 366.012 179.240091 
L 367.686 192.754506 
L 369.36 147.402482 
L 371.034 173.94396 
L 372.708 143.447242 
L 374.382 134.348983 
L 376.056 152.365234 
L 379.404 224.269942 
L 381.078 179.414371 
L 382.752 196.607112 
L 384.426 200.049808 
L 386.1 210.262523 
L 387.774 204.899917 
L 389.448 201.141563 
L 391.122 167.914692 
L 394.47 117.456575 
L 396.144 98.011742 
L 397.818 117.992443 
L 399.492 141.843326 
L 401.166 180.976716 
L 402.84 179.560491 
L 404.514 191.072573 
L 406.188 161.281406 
L 407.862 157.471137 
L 409.536 145.479029 
L 411.21 122.027615 
L 412.884 112.114132 
L 414.558 128.851992 
L 416.232 163.076604 
L 419.58 189.956441 
L 421.254 184.569267 
L 422.928 199.780414 
L 424.602 206.339035 
L 426.276 208.3611 
L 427.95 207.30967 
L 429.624 207.554592 
L 431.298 178.682336 
L 432.972 146.197654 
L 434.646 117.332007 
L 436.32 101.759321 
L 437.994 126.80215 
L 441.342 219.74143 
L 443.016 183.252131 
L 444.69 182.067226 
L 446.364 189.024025 
L 448.038 179.118971 
L 449.712 144.757721 
L 453.06 116.584982 
L 454.734 142.89988 
L 456.408 173.190756 
L 458.082 190.442932 
L 459.756 186.397511 
L 461.43 180.53716 
L 463.104 191.113761 
L 464.778 196.822245 
L 466.452 201.841175 
L 468.126 206.055225 
L 469.8 220.096624 
L 471.474 196.574067 
L 473.148 182.500939 
L 474.822 151.224198 
L 476.496 124.295894 
L 478.17 126.7442 
L 479.844 131.987506 
L 481.518 152.96274 
L 483.192 162.086286 
L 484.866 161.149128 
L 486.54 150.611415 
L 488.214 168.313061 
L 489.888 160.825998 
L 491.562 127.585669 
L 493.236 117.637273 
L 494.91 121.079346 
L 496.584 147.539263 
L 498.258 178.717824 
L 499.932 196.998202 
L 501.606 203.216596 
L 503.28 214.774751 
L 504.954 213.148709 
L 506.628 217.702939 
L 509.976 205.781568 
L 511.65 168.524027 
L 513.324 142.38293 
L 514.998 133.859619 
L 516.672 141.201808 
L 518.346 169.554671 
L 521.694 216.994323 
L 523.368 198.04101 
L 525.042 190.211516 
L 526.716 160.820394 
L 528.39 162.98944 
L 530.064 192.863605 
L 531.738 152.3251 
L 533.412 140.016472 
L 535.086 132.115857 
L 536.76 151.048864 
L 538.434 160.758374 
L 541.782 202.362962 
L 543.456 179.580366 
L 545.13 201.768522 
L 546.804 206.105943 
L 548.478 202.434705 
L 550.152 199.214421 
L 551.826 172.245552 
L 553.5 140.049853 
L 555.174 121.758221 
L 556.848 142.673589 
L 558.522 178.395508 
L 560.196 192.808337 
L 561.87 224.357346 
L 563.544 188.899313 
L 565.218 184.361462 
L 566.892 161.722208 
L 568.566 173.094205 
L 570.24 147.061824 
L 571.914 131.817248 
L 573.588 120.030407 
L 575.262 151.229083 
L 576.936 133.339364 
L 578.61 131.968588 
L 580.284 144.250972 
L 581.958 180.221789 
L 583.632 199.719207 
L 585.306 206.906752 
L 586.98 208.198744 
L 588.654 204.834113 
L 590.328 205.610161 
L 592.002 161.050948 
L 593.676 132.267389 
L 595.35 109.060945 
L 597.024 101.821294 
L 598.698 109.918267 
L 600.372 113.075332 
L 602.046 128.680681 
L 603.72 123.410077 
L 605.394 121.094001 
L 607.068 113.016473 
L 608.742 108.641408 
L 610.416 115.837765 
L 612.09 110.818787 
L 613.764 99.21499 
L 615.438 98.312219 
L 617.112 113.755739 
L 620.46 168.756305 
L 622.134 189.089254 
L 623.808 200.307757 
L 625.482 204.870416 
L 627.156 213.136305 
L 628.83 208.486578 
L 630.504 198.956665 
L 633.852 136.973821 
L 635.526 114.210238 
L 637.2 101.634082 
L 638.874 95.373926 
L 640.548 107.258994 
L 642.222 111.020414 
L 643.896 106.676719 
L 645.57 109.740682 
L 647.244 100.867613 
L 648.918 108.347684 
L 650.592 114.418426 
L 652.266 92.378353 
L 653.94 75.182355 
L 660.636 173.978873 
L 662.31 192.887503 
L 663.984 206.518249 
L 665.658 214.685959 
L 667.332 220.980526 
L 669.006 221.123054 
L 670.68 216.744565 
L 672.354 200.093582 
L 674.028 180.434383 
L 675.702 162.966404 
L 677.376 150.488715 
L 679.05 142.277327 
L 680.724 147.578391 
L 682.398 160.185485 
L 684.072 159.817336 
L 685.746 165.169597 
L 687.42 165.921364 
L 689.094 169.207356 
L 690.768 189.579049 
L 692.442 192.105612 
L 694.116 158.815907 
L 695.79 177.58493 
L 697.464 212.162892 
L 699.138 242.448596 
L 700.812 264.161037 
L 704.16 309.884107 
L 705.834 320.539371 
L 707.508 333.290693 
L 709.182 338.931481 
L 710.856 356.953479 
L 712.53 369.36 
L 714.204 365.421618 
L 715.878 341.400884 
L 717.552 335.762155 
L 719.226 328.832535 
L 720.9 328.149925 
L 722.574 303.80642 
L 724.248 288.704397 
L 725.922 268.945294 
L 729.27 211.934781 
L 730.944 199.288607 
L 734.292 148.336958 
L 735.966 146.899948 
L 737.64 153.468292 
L 739.314 176.531202 
L 740.988 203.272534 
L 742.662 224.946206 
L 744.336 238.237036 
L 747.684 250.822243 
L 749.358 245.417876 
L 751.032 255.698741 
L 752.706 245.508464 
L 754.38 214.954683 
L 757.728 162.191936 
L 759.402 150.929469 
L 761.076 150.604615 
L 762.75 164.056243 
L 764.424 162.054389 
L 766.098 161.023506 
L 767.772 151.19326 
L 769.446 143.077657 
L 771.12 155.104151 
L 772.794 138.219214 
L 774.468 117.039528 
L 776.142 134.311915 
L 777.816 142.261666 
L 779.49 166.055031 
L 781.164 195.157075 
L 782.838 212.870646 
L 784.512 220.534624 
L 786.186 224.069608 
L 787.86 229.780439 
L 789.534 225.698596 
L 791.208 220.222844 
L 792.882 187.45507 
L 794.556 149.736565 
L 796.23 128.757452 
L 797.904 113.042765 
L 799.578 111.205566 
L 801.252 131.460163 
L 802.926 136.23192 
L 804.6 131.66064 
L 806.274 127.549702 
L 807.948 115.146773 
L 809.622 117.822521 
L 811.296 123.846903 
L 812.97 104.014956 
L 814.644 82.151223 
L 816.318 107.326571 
L 817.992 124.402263 
L 821.34 190.074592 
L 823.014 208.093046 
L 824.688 216.777275 
L 826.362 219.825601 
L 828.036 227.877891 
L 829.71 222.063253 
L 831.384 210.703133 
L 833.058 173.85215 
L 834.732 145.867723 
L 836.406 121.126951 
L 838.08 108.452951 
L 839.754 101.489878 
L 841.428 119.832372 
L 843.102 123.535076 
L 844.776 120.366612 
L 846.45 118.819927 
L 848.124 108.162628 
L 849.798 111.345986 
L 851.472 111.612986 
L 853.146 83.910502 
L 854.82 71.287891 
L 858.168 122.019426 
L 859.842 155.68499 
L 861.516 186.431658 
L 863.19 204.398245 
L 864.864 214.250377 
L 866.538 218.41256 
L 868.212 229.452472 
L 869.886 225.577165 
L 871.56 213.142866 
L 873.234 174.20004 
L 874.908 143.899586 
L 876.582 119.483476 
L 878.256 106.562591 
L 879.93 99.590323 
L 881.604 116.331391 
L 883.278 120.43141 
L 884.952 118.787552 
L 886.626 121.758221 
L 888.3 108.883264 
L 889.974 110.760406 
L 891.648 100.464311 
L 893.322 81.040599 
L 894.996 66.96 
L 896.67 90.586652 
L 898.344 119.648465 
L 900.018 157.449633 
L 901.692 187.419726 
L 903.366 204.64695 
L 905.04 216.755819 
L 906.714 220.921163 
L 908.388 228.036941 
L 910.062 227.26324 
L 911.736 210.968887 
L 915.084 145.243637 
L 916.758 119.364943 
L 918.432 105.159728 
L 920.106 101.495721 
L 921.78 125.446892 
L 923.454 146.824038 
L 925.128 145.26404 
L 926.802 153.722935 
L 928.476 133.811104 
L 930.15 155.142513 
L 931.824 125.923852 
L 933.498 112.483191 
L 935.172 107.265029 
L 936.846 152.035208 
L 938.52 166.368295 
L 940.194 209.068901 
L 941.868 194.019775 
L 943.542 184.26539 
L 945.216 203.666018 
L 946.89 208.846537 
L 948.564 215.382697 
L 950.238 215.045726 
L 951.912 220.430314 
L 955.26 156.191069 
L 956.934 127.989067 
L 958.608 109.507781 
L 960.282 101.67254 
L 961.956 118.462315 
L 963.63 153.483809 
L 965.304 192.911928 
L 966.978 224.447503 
L 968.652 241.781312 
L 970.326 235.882742 
L 970.326 235.882742 
" clip-path="url(#pd42d25965f)" style="fill: none; stroke: #ff7f0e; stroke-width: 1.5; stroke-linecap: square"/>
   </g>
   <g id="patch_3">
    <path d="M 135 384.48 
L 135 51.84 
" style="fill: none; stroke: #000000; stroke-width: 0.8; stroke-linejoin: miter; stroke-linecap: square"/>
   </g>
   <g id="patch_4">
    <path d="M 972 384.48 
L 972 51.84 
" style="fill: none; stroke: #000000; stroke-width: 0.8; stroke-linejoin: miter; stroke-linecap: square"/>
   </g>
   <g id="patch_5">
    <path d="M 135 384.48 
L 972 384.48 
" style="fill: none; stroke: #000000; stroke-width: 0.8; stroke-linejoin: miter; stroke-linecap: square"/>
   </g>
   <g id="patch_6">
    <path d="M 135 51.84 
L 972 51.84 
" style="fill: none; stroke: #000000; stroke-width: 0.8; stroke-linejoin: miter; stroke-linecap: square"/>
   </g>
  </g>
 </g>
 <defs>
  <clipPath id="pd42d25965f">
   <rect x="135" y="51.84" width="837" height="332.64"/>
  </clipPath>
 </defs>
</svg>
