<?xml version="1.0" encoding="utf-8" standalone="no"?>
<!DOCTYPE svg PUBLIC "-//W3C//DTD SVG 1.1//EN"
  "http://www.w3.org/Graphics/SVG/1.1/DTD/svg11.dtd">
<svg xmlns:xlink="http://www.w3.org/1999/xlink" width="1080pt" height="432pt" viewBox="0 0 1080 432" xmlns="http://www.w3.org/2000/svg" version="1.1">
 <metadata>
  <rdf:RDF xmlns:dc="http://purl.org/dc/elements/1.1/" xmlns:cc="http://creativecommons.org/ns#" xmlns:rdf="http://www.w3.org/1999/02/22-rdf-syntax-ns#">
   <cc:Work>
    <dc:type rdf:resource="http://purl.org/dc/dcmitype/StillImage"/>
    <dc:date>2024-02-25T10:00:51.120721</dc:date>
    <dc:format>image/svg+xml</dc:format>
    <dc:creator>
     <cc:Agent>
      <dc:title>Matplotlib v3.7.1, https://matplotlib.org/</dc:title>
     </cc:Agent>
    </dc:creator>
   </cc:Work>
  </rdf:RDF>
 </metadata>
 <defs>
  <style type="text/css">*{stroke-linejoin: round; stroke-linecap: butt}</style>
 </defs>
 <g id="figure_1">
  <g id="patch_1">
   <path d="M 0 432 
L 1080 432 
L 1080 0 
L 0 0 
z
" style="fill: #ffffff"/>
  </g>
  <g id="axes_1">
   <g id="patch_2">
    <path d="M 135 384.48 
L 972 384.48 
L 972 51.84 
L 135 51.84 
z
" style="fill: #ffffff"/>
   </g>
   <g id="matplotlib.axis_1">
    <g id="xtick_1">
     <g id="line2d_1">
      <defs>
       <path id="m146204d016" d="M 0 0 
L 0 3.5 
" style="stroke: #000000; stroke-width: 0.8"/>
      </defs>
      <g>
       <use xlink:href="#m146204d016" x="135" y="384.48" style="stroke: #000000; stroke-width: 0.8"/>
      </g>
     </g>
     <g id="text_1">
      <!-- 0 -->
      <g transform="translate(131.81875 399.078438) scale(0.1 -0.1)">
       <defs>
        <path id="DejaVuSans-30" d="M 2034 4250 
Q 1547 4250 1301 3770 
Q 1056 3291 1056 2328 
Q 1056 1369 1301 889 
Q 1547 409 2034 409 
Q 2525 409 2770 889 
Q 3016 1369 3016 2328 
Q 3016 3291 2770 3770 
Q 2525 4250 2034 4250 
z
M 2034 4750 
Q 2819 4750 3233 4129 
Q 3647 3509 3647 2328 
Q 3647 1150 3233 529 
Q 2819 -91 2034 -91 
Q 1250 -91 836 529 
Q 422 1150 422 2328 
Q 422 3509 836 4129 
Q 1250 4750 2034 4750 
z
" transform="scale(0.015625)"/>
       </defs>
       <use xlink:href="#DejaVuSans-30"/>
      </g>
     </g>
    </g>
    <g id="xtick_2">
     <g id="line2d_2">
      <g>
       <use xlink:href="#m146204d016" x="302.4" y="384.48" style="stroke: #000000; stroke-width: 0.8"/>
      </g>
     </g>
     <g id="text_2">
      <!-- 100 -->
      <g transform="translate(292.85625 399.078438) scale(0.1 -0.1)">
       <defs>
        <path id="DejaVuSans-31" d="M 794 531 
L 1825 531 
L 1825 4091 
L 703 3866 
L 703 4441 
L 1819 4666 
L 2450 4666 
L 2450 531 
L 3481 531 
L 3481 0 
L 794 0 
L 794 531 
z
" transform="scale(0.015625)"/>
       </defs>
       <use xlink:href="#DejaVuSans-31"/>
       <use xlink:href="#DejaVuSans-30" x="63.623047"/>
       <use xlink:href="#DejaVuSans-30" x="127.246094"/>
      </g>
     </g>
    </g>
    <g id="xtick_3">
     <g id="line2d_3">
      <g>
       <use xlink:href="#m146204d016" x="469.8" y="384.48" style="stroke: #000000; stroke-width: 0.8"/>
      </g>
     </g>
     <g id="text_3">
      <!-- 200 -->
      <g transform="translate(460.25625 399.078438) scale(0.1 -0.1)">
       <defs>
        <path id="DejaVuSans-32" d="M 1228 531 
L 3431 531 
L 3431 0 
L 469 0 
L 469 531 
Q 828 903 1448 1529 
Q 2069 2156 2228 2338 
Q 2531 2678 2651 2914 
Q 2772 3150 2772 3378 
Q 2772 3750 2511 3984 
Q 2250 4219 1831 4219 
Q 1534 4219 1204 4116 
Q 875 4013 500 3803 
L 500 4441 
Q 881 4594 1212 4672 
Q 1544 4750 1819 4750 
Q 2544 4750 2975 4387 
Q 3406 4025 3406 3419 
Q 3406 3131 3298 2873 
Q 3191 2616 2906 2266 
Q 2828 2175 2409 1742 
Q 1991 1309 1228 531 
z
" transform="scale(0.015625)"/>
       </defs>
       <use xlink:href="#DejaVuSans-32"/>
       <use xlink:href="#DejaVuSans-30" x="63.623047"/>
       <use xlink:href="#DejaVuSans-30" x="127.246094"/>
      </g>
     </g>
    </g>
    <g id="xtick_4">
     <g id="line2d_4">
      <g>
       <use xlink:href="#m146204d016" x="637.2" y="384.48" style="stroke: #000000; stroke-width: 0.8"/>
      </g>
     </g>
     <g id="text_4">
      <!-- 300 -->
      <g transform="translate(627.65625 399.078438) scale(0.1 -0.1)">
       <defs>
        <path id="DejaVuSans-33" d="M 2597 2516 
Q 3050 2419 3304 2112 
Q 3559 1806 3559 1356 
Q 3559 666 3084 287 
Q 2609 -91 1734 -91 
Q 1441 -91 1130 -33 
Q 819 25 488 141 
L 488 750 
Q 750 597 1062 519 
Q 1375 441 1716 441 
Q 2309 441 2620 675 
Q 2931 909 2931 1356 
Q 2931 1769 2642 2001 
Q 2353 2234 1838 2234 
L 1294 2234 
L 1294 2753 
L 1863 2753 
Q 2328 2753 2575 2939 
Q 2822 3125 2822 3475 
Q 2822 3834 2567 4026 
Q 2313 4219 1838 4219 
Q 1578 4219 1281 4162 
Q 984 4106 628 3988 
L 628 4550 
Q 988 4650 1302 4700 
Q 1616 4750 1894 4750 
Q 2613 4750 3031 4423 
Q 3450 4097 3450 3541 
Q 3450 3153 3228 2886 
Q 3006 2619 2597 2516 
z
" transform="scale(0.015625)"/>
       </defs>
       <use xlink:href="#DejaVuSans-33"/>
       <use xlink:href="#DejaVuSans-30" x="63.623047"/>
       <use xlink:href="#DejaVuSans-30" x="127.246094"/>
      </g>
     </g>
    </g>
    <g id="xtick_5">
     <g id="line2d_5">
      <g>
       <use xlink:href="#m146204d016" x="804.6" y="384.48" style="stroke: #000000; stroke-width: 0.8"/>
      </g>
     </g>
     <g id="text_5">
      <!-- 400 -->
      <g transform="translate(795.05625 399.078438) scale(0.1 -0.1)">
       <defs>
        <path id="DejaVuSans-34" d="M 2419 4116 
L 825 1625 
L 2419 1625 
L 2419 4116 
z
M 2253 4666 
L 3047 4666 
L 3047 1625 
L 3713 1625 
L 3713 1100 
L 3047 1100 
L 3047 0 
L 2419 0 
L 2419 1100 
L 313 1100 
L 313 1709 
L 2253 4666 
z
" transform="scale(0.015625)"/>
       </defs>
       <use xlink:href="#DejaVuSans-34"/>
       <use xlink:href="#DejaVuSans-30" x="63.623047"/>
       <use xlink:href="#DejaVuSans-30" x="127.246094"/>
      </g>
     </g>
    </g>
    <g id="xtick_6">
     <g id="line2d_6">
      <g>
       <use xlink:href="#m146204d016" x="972" y="384.48" style="stroke: #000000; stroke-width: 0.8"/>
      </g>
     </g>
     <g id="text_6">
      <!-- 500 -->
      <g transform="translate(962.45625 399.078438) scale(0.1 -0.1)">
       <defs>
        <path id="DejaVuSans-35" d="M 691 4666 
L 3169 4666 
L 3169 4134 
L 1269 4134 
L 1269 2991 
Q 1406 3038 1543 3061 
Q 1681 3084 1819 3084 
Q 2600 3084 3056 2656 
Q 3513 2228 3513 1497 
Q 3513 744 3044 326 
Q 2575 -91 1722 -91 
Q 1428 -91 1123 -41 
Q 819 9 494 109 
L 494 744 
Q 775 591 1075 516 
Q 1375 441 1709 441 
Q 2250 441 2565 725 
Q 2881 1009 2881 1497 
Q 2881 1984 2565 2268 
Q 2250 2553 1709 2553 
Q 1456 2553 1204 2497 
Q 953 2441 691 2322 
L 691 4666 
z
" transform="scale(0.015625)"/>
       </defs>
       <use xlink:href="#DejaVuSans-35"/>
       <use xlink:href="#DejaVuSans-30" x="63.623047"/>
       <use xlink:href="#DejaVuSans-30" x="127.246094"/>
      </g>
     </g>
    </g>
   </g>
   <g id="matplotlib.axis_2">
    <g id="ytick_1">
     <g id="line2d_7">
      <defs>
       <path id="ma37894e843" d="M 0 0 
L -3.5 0 
" style="stroke: #000000; stroke-width: 0.8"/>
      </defs>
      <g>
       <use xlink:href="#ma37894e843" x="135" y="350.240139" style="stroke: #000000; stroke-width: 0.8"/>
      </g>
     </g>
     <g id="text_7">
      <!-- 350 -->
      <g transform="translate(108.9125 354.039358) scale(0.1 -0.1)">
       <use xlink:href="#DejaVuSans-33"/>
       <use xlink:href="#DejaVuSans-35" x="63.623047"/>
       <use xlink:href="#DejaVuSans-30" x="127.246094"/>
      </g>
     </g>
    </g>
    <g id="ytick_2">
     <g id="line2d_8">
      <g>
       <use xlink:href="#ma37894e843" x="135" y="311.421814" style="stroke: #000000; stroke-width: 0.8"/>
      </g>
     </g>
     <g id="text_8">
      <!-- 400 -->
      <g transform="translate(108.9125 315.221033) scale(0.1 -0.1)">
       <use xlink:href="#DejaVuSans-34"/>
       <use xlink:href="#DejaVuSans-30" x="63.623047"/>
       <use xlink:href="#DejaVuSans-30" x="127.246094"/>
      </g>
     </g>
    </g>
    <g id="ytick_3">
     <g id="line2d_9">
      <g>
       <use xlink:href="#ma37894e843" x="135" y="272.603489" style="stroke: #000000; stroke-width: 0.8"/>
      </g>
     </g>
     <g id="text_9">
      <!-- 450 -->
      <g transform="translate(108.9125 276.402707) scale(0.1 -0.1)">
       <use xlink:href="#DejaVuSans-34"/>
       <use xlink:href="#DejaVuSans-35" x="63.623047"/>
       <use xlink:href="#DejaVuSans-30" x="127.246094"/>
      </g>
     </g>
    </g>
    <g id="ytick_4">
     <g id="line2d_10">
      <g>
       <use xlink:href="#ma37894e843" x="135" y="233.785164" style="stroke: #000000; stroke-width: 0.8"/>
      </g>
     </g>
     <g id="text_10">
      <!-- 500 -->
      <g transform="translate(108.9125 237.584382) scale(0.1 -0.1)">
       <use xlink:href="#DejaVuSans-35"/>
       <use xlink:href="#DejaVuSans-30" x="63.623047"/>
       <use xlink:href="#DejaVuSans-30" x="127.246094"/>
      </g>
     </g>
    </g>
    <g id="ytick_5">
     <g id="line2d_11">
      <g>
       <use xlink:href="#ma37894e843" x="135" y="194.966839" style="stroke: #000000; stroke-width: 0.8"/>
      </g>
     </g>
     <g id="text_11">
      <!-- 550 -->
      <g transform="translate(108.9125 198.766057) scale(0.1 -0.1)">
       <use xlink:href="#DejaVuSans-35"/>
       <use xlink:href="#DejaVuSans-35" x="63.623047"/>
       <use xlink:href="#DejaVuSans-30" x="127.246094"/>
      </g>
     </g>
    </g>
    <g id="ytick_6">
     <g id="line2d_12">
      <g>
       <use xlink:href="#ma37894e843" x="135" y="156.148514" style="stroke: #000000; stroke-width: 0.8"/>
      </g>
     </g>
     <g id="text_12">
      <!-- 600 -->
      <g transform="translate(108.9125 159.947732) scale(0.1 -0.1)">
       <defs>
        <path id="DejaVuSans-36" d="M 2113 2584 
Q 1688 2584 1439 2293 
Q 1191 2003 1191 1497 
Q 1191 994 1439 701 
Q 1688 409 2113 409 
Q 2538 409 2786 701 
Q 3034 994 3034 1497 
Q 3034 2003 2786 2293 
Q 2538 2584 2113 2584 
z
M 3366 4563 
L 3366 3988 
Q 3128 4100 2886 4159 
Q 2644 4219 2406 4219 
Q 1781 4219 1451 3797 
Q 1122 3375 1075 2522 
Q 1259 2794 1537 2939 
Q 1816 3084 2150 3084 
Q 2853 3084 3261 2657 
Q 3669 2231 3669 1497 
Q 3669 778 3244 343 
Q 2819 -91 2113 -91 
Q 1303 -91 875 529 
Q 447 1150 447 2328 
Q 447 3434 972 4092 
Q 1497 4750 2381 4750 
Q 2619 4750 2861 4703 
Q 3103 4656 3366 4563 
z
" transform="scale(0.015625)"/>
       </defs>
       <use xlink:href="#DejaVuSans-36"/>
       <use xlink:href="#DejaVuSans-30" x="63.623047"/>
       <use xlink:href="#DejaVuSans-30" x="127.246094"/>
      </g>
     </g>
    </g>
    <g id="ytick_7">
     <g id="line2d_13">
      <g>
       <use xlink:href="#ma37894e843" x="135" y="117.330189" style="stroke: #000000; stroke-width: 0.8"/>
      </g>
     </g>
     <g id="text_13">
      <!-- 650 -->
      <g transform="translate(108.9125 121.129407) scale(0.1 -0.1)">
       <use xlink:href="#DejaVuSans-36"/>
       <use xlink:href="#DejaVuSans-35" x="63.623047"/>
       <use xlink:href="#DejaVuSans-30" x="127.246094"/>
      </g>
     </g>
    </g>
    <g id="ytick_8">
     <g id="line2d_14">
      <g>
       <use xlink:href="#ma37894e843" x="135" y="78.511863" style="stroke: #000000; stroke-width: 0.8"/>
      </g>
     </g>
     <g id="text_14">
      <!-- 700 -->
      <g transform="translate(108.9125 82.311082) scale(0.1 -0.1)">
       <defs>
        <path id="DejaVuSans-37" d="M 525 4666 
L 3525 4666 
L 3525 4397 
L 1831 0 
L 1172 0 
L 2766 4134 
L 525 4134 
L 525 4666 
z
" transform="scale(0.015625)"/>
       </defs>
       <use xlink:href="#DejaVuSans-37"/>
       <use xlink:href="#DejaVuSans-30" x="63.623047"/>
       <use xlink:href="#DejaVuSans-30" x="127.246094"/>
      </g>
     </g>
    </g>
   </g>
   <g id="line2d_15">
    <path d="M 135 136.479751 
L 136.674 167.344435 
L 138.348 192.988596 
L 140.022 208.868341 
L 141.696 218.653388 
L 143.37 225.851702 
L 145.044 229.582794 
L 146.718 234.368685 
L 148.392 222.285899 
L 150.066 190.807225 
L 151.74 156.928993 
L 153.414 132.679904 
L 155.088 114.8989 
L 156.762 108.512514 
L 158.436 133.871542 
L 160.11 137.081892 
L 161.784 136.088326 
L 163.458 136.886365 
L 165.132 124.610632 
L 166.806 130.607636 
L 168.48 133.436607 
L 170.154 111.844818 
L 171.828 103.049809 
L 173.502 118.98726 
L 175.176 138.623488 
L 178.524 190.844662 
L 180.198 208.37136 
L 181.872 219.928872 
L 183.546 227.193914 
L 185.22 231.535554 
L 186.894 242.207084 
L 188.568 239.788155 
L 190.242 223.790739 
L 191.916 203.064017 
L 193.59 176.839769 
L 195.264 157.623887 
L 196.938 151.077398 
L 198.612 163.845418 
L 200.286 167.295158 
L 201.96 171.813821 
L 203.634 176.861964 
L 205.308 166.321092 
L 206.982 163.604825 
L 208.656 162.10949 
L 210.33 134.817641 
L 212.004 118.570151 
L 213.678 127.82319 
L 215.352 144.771629 
L 217.026 175.652168 
L 218.7 203.05393 
L 220.374 216.722173 
L 222.048 224.007194 
L 223.722 229.042252 
L 225.396 231.76663 
L 227.07 235.804154 
L 228.744 219.530808 
L 230.418 183.634693 
L 232.092 151.385385 
L 233.766 126.746544 
L 235.44 108.220611 
L 237.114 102.509546 
L 238.788 141.292048 
L 240.462 159.58219 
L 242.136 194.951036 
L 243.81 196.275355 
L 245.484 166.267808 
L 247.158 147.149722 
L 248.832 159.135403 
L 250.506 135.161265 
L 252.18 129.693294 
L 253.854 145.822883 
L 257.202 196.552536 
L 258.876 213.849054 
L 260.55 220.334732 
L 262.224 216.357773 
L 263.898 222.224964 
L 265.572 223.802523 
L 267.246 226.240769 
L 268.92 213.434968 
L 272.268 145.982803 
L 273.942 115.695206 
L 275.616 108.213341 
L 277.29 131.839435 
L 278.964 179.311653 
L 280.638 186.377995 
L 282.312 187.462065 
L 283.986 183.753056 
L 285.66 173.342577 
L 289.008 155.954178 
L 290.682 135.26505 
L 292.356 180.397153 
L 294.03 144.926256 
L 295.704 155.944047 
L 297.378 181.141775 
L 299.052 185.537072 
L 300.726 202.961733 
L 302.4 216.170541 
L 304.074 222.728262 
L 305.748 225.06068 
L 307.422 229.306614 
L 309.096 215.433321 
L 312.444 143.984139 
L 314.118 121.183029 
L 315.792 129.263623 
L 317.466 180.887577 
L 319.14 215.155774 
L 320.814 239.069062 
L 322.488 216.566346 
L 324.162 202.731382 
L 325.836 171.308989 
L 327.51 155.375913 
L 329.184 147.657941 
L 330.858 132.194112 
L 332.532 133.646892 
L 334.206 147.405754 
L 335.88 158.716937 
L 337.554 177.122757 
L 340.902 195.59371 
L 342.576 207.774947 
L 344.25 215.029164 
L 347.598 223.868755 
L 349.272 209.780981 
L 350.946 173.329142 
L 352.62 140.243969 
L 354.294 123.902676 
L 355.968 128.919351 
L 357.642 136.090051 
L 359.316 166.184158 
L 360.99 174.105389 
L 362.664 204.357314 
L 364.338 208.900198 
L 366.012 204.00508 
L 367.686 181.183996 
L 369.36 202.398321 
L 371.034 179.457951 
L 372.708 149.875233 
L 374.382 169.167583 
L 376.056 185.549327 
L 377.73 204.726949 
L 379.404 173.602885 
L 381.078 192.813565 
L 382.752 208.576609 
L 384.426 213.768935 
L 386.1 217.347081 
L 387.774 219.447418 
L 389.448 204.617804 
L 392.796 132.631527 
L 394.47 107.531631 
L 396.144 130.393466 
L 397.818 140.266931 
L 399.492 178.618822 
L 401.166 194.125101 
L 402.84 195.891487 
L 406.188 167.94718 
L 407.862 167.545854 
L 409.536 160.478147 
L 411.21 138.716986 
L 412.884 128.795573 
L 414.558 150.348637 
L 416.232 162.355183 
L 417.906 177.439298 
L 419.58 181.028732 
L 422.928 208.600903 
L 424.602 214.018649 
L 426.276 218.373291 
L 427.95 225.506686 
L 429.624 214.798457 
L 432.972 144.086499 
L 434.646 126.973988 
L 436.32 145.034478 
L 437.994 168.522818 
L 439.668 214.472955 
L 441.342 194.508356 
L 443.016 184.13343 
L 444.69 198.042882 
L 446.364 193.069399 
L 448.038 176.692878 
L 449.712 162.228601 
L 451.386 136.746064 
L 453.06 148.015195 
L 454.734 163.304545 
L 456.408 176.60748 
L 458.082 181.063458 
L 459.756 179.21907 
L 461.43 189.652752 
L 463.104 202.126553 
L 466.452 215.842798 
L 468.126 229.036853 
L 469.8 226.372843 
L 471.474 206.39704 
L 473.148 180.570133 
L 474.822 152.507625 
L 476.496 133.629162 
L 478.17 128.529218 
L 479.844 151.606842 
L 481.518 169.610299 
L 483.192 170.417834 
L 484.866 163.886635 
L 486.54 173.701504 
L 488.214 179.067511 
L 489.888 154.863756 
L 491.562 120.309799 
L 493.236 110.331649 
L 494.91 133.705297 
L 496.584 155.181356 
L 498.258 175.210262 
L 499.932 189.408748 
L 501.606 205.007311 
L 503.28 215.182111 
L 504.954 222.092625 
L 506.628 224.910285 
L 508.302 228.228581 
L 509.976 215.071042 
L 511.65 182.03924 
L 513.324 165.712979 
L 514.998 163.424412 
L 516.672 181.268404 
L 518.346 194.992243 
L 520.02 223.491776 
L 521.694 218.96862 
L 523.368 203.394766 
L 525.042 179.439812 
L 526.716 176.0546 
L 528.39 209.069627 
L 530.064 191.971599 
L 531.738 151.948371 
L 533.412 137.44888 
L 535.086 160.268042 
L 536.76 159.036352 
L 538.434 169.428032 
L 540.108 197.42721 
L 541.782 192.737048 
L 543.456 205.335719 
L 545.13 215.687775 
L 546.804 216.45806 
L 548.478 218.413879 
L 550.152 208.533526 
L 551.826 171.740385 
L 553.5 139.048112 
L 555.174 148.101275 
L 556.848 167.479653 
L 558.522 175.907927 
L 560.196 209.856939 
L 561.87 204.231386 
L 563.544 194.592778 
L 565.218 179.20272 
L 566.892 187.58899 
L 568.566 184.677894 
L 571.914 143.993015 
L 573.588 159.802627 
L 575.262 127.157568 
L 576.936 115.597797 
L 578.61 141.014131 
L 580.284 169.138831 
L 581.958 189.197783 
L 583.632 201.003127 
L 585.306 207.058607 
L 586.98 210.446011 
L 588.654 214.610759 
L 590.328 205.796099 
L 593.676 145.802595 
L 595.35 122.001002 
L 597.024 104.869103 
L 598.698 96.740592 
L 600.372 116.023214 
L 602.046 117.838353 
L 603.72 115.221601 
L 605.394 116.745248 
L 607.068 106.252225 
L 610.416 119.906975 
L 612.09 90.492717 
L 613.764 81.561829 
L 615.438 100.750894 
L 618.786 146.148915 
L 620.46 172.217783 
L 622.134 192.318014 
L 623.808 203.932469 
L 625.482 212.043158 
L 628.83 222.501781 
L 630.504 213.044193 
L 633.852 152.703241 
L 635.526 126.471765 
L 637.2 106.009999 
L 638.874 97.58439 
L 640.548 117.030464 
L 642.222 118.633305 
L 643.896 117.318511 
L 645.57 114.849325 
L 647.244 111.013369 
L 648.918 119.814391 
L 650.592 126.820522 
L 652.266 98.594478 
L 653.94 89.802476 
L 655.614 110.957512 
L 657.288 134.103109 
L 658.962 154.060327 
L 660.636 178.444403 
L 662.31 198.700113 
L 663.984 213.687248 
L 665.658 220.685153 
L 667.332 225.683726 
L 669.006 236.343083 
L 670.68 236.281146 
L 672.354 220.501697 
L 675.702 176.42297 
L 677.376 161.798181 
L 679.05 156.628217 
L 680.724 169.360757 
L 682.398 172.908427 
L 684.072 179.051067 
L 685.746 183.587399 
L 687.42 183.544335 
L 689.094 200.225114 
L 690.768 218.879651 
L 692.442 199.41121 
L 694.116 195.849415 
L 695.79 214.990189 
L 697.464 239.436744 
L 699.138 260.672176 
L 700.812 283.965949 
L 702.486 305.588311 
L 704.16 319.892293 
L 705.834 329.466267 
L 707.508 337.61894 
L 710.856 367.977145 
L 712.53 369.36 
L 714.204 362.059673 
L 715.878 354.047702 
L 717.552 350.494785 
L 719.226 338.456694 
L 720.9 315.102903 
L 722.574 293.869345 
L 724.248 278.665205 
L 725.922 260.442337 
L 727.596 232.659014 
L 729.27 212.90872 
L 730.944 195.578226 
L 732.618 154.322519 
L 734.292 137.745415 
L 735.966 148.993209 
L 737.64 164.428301 
L 739.314 182.697193 
L 740.988 206.821933 
L 742.662 224.63048 
L 744.336 236.120524 
L 746.01 243.857929 
L 747.684 248.138704 
L 749.358 256.131854 
L 751.032 251.354835 
L 752.706 230.201185 
L 754.38 207.164872 
L 756.054 177.628453 
L 757.728 155.819951 
L 759.402 145.219595 
L 761.076 155.382754 
L 762.75 157.045699 
L 764.424 162.264514 
L 766.098 162.675926 
L 767.772 154.180256 
L 769.446 157.823316 
L 771.12 156.299872 
L 772.794 117.475687 
L 774.468 104.408874 
L 776.142 114.82395 
L 777.816 135.029705 
L 781.164 189.931057 
L 782.838 207.30403 
L 784.512 218.336207 
L 786.186 225.097308 
L 787.86 228.068621 
L 789.534 232.619793 
L 791.208 226.399491 
L 792.882 197.676073 
L 794.556 164.373274 
L 796.23 139.06039 
L 797.904 120.772718 
L 799.578 111.369787 
L 801.252 132.229999 
L 802.926 133.247124 
L 804.6 133.493127 
L 806.274 130.181116 
L 807.948 121.202133 
L 809.622 125.365002 
L 811.296 130.665227 
L 812.97 95.183913 
L 814.644 89.938388 
L 816.318 105.862517 
L 817.992 130.974463 
L 819.666 165.462829 
L 821.34 193.04292 
L 823.014 208.886519 
L 824.688 218.463594 
L 826.362 225.1937 
L 828.036 228.253036 
L 829.71 232.741281 
L 831.384 222.641716 
L 833.058 191.136991 
L 834.732 157.396277 
L 836.406 131.737148 
L 838.08 110.152885 
L 839.754 102.767925 
L 841.428 126.42525 
L 843.102 129.330458 
L 844.776 127.987271 
L 846.45 123.867672 
L 848.124 113.8047 
L 849.798 114.895241 
L 851.472 115.135502 
L 853.146 84.870266 
L 854.82 86.725638 
L 856.494 104.059615 
L 858.168 127.485988 
L 859.842 161.29862 
L 861.516 189.206519 
L 863.19 206.901672 
L 864.864 217.173851 
L 866.538 226.082089 
L 868.212 229.166123 
L 869.886 233.260472 
L 871.56 221.618834 
L 874.908 156.234644 
L 876.582 129.002825 
L 878.256 108.536305 
L 879.93 102.474249 
L 881.604 125.15645 
L 883.278 129.350763 
L 884.952 131.995652 
L 886.626 127.302155 
L 888.3 115.085601 
L 889.974 108.166045 
L 891.648 110.184617 
L 893.322 81.054239 
L 894.996 82.773079 
L 896.67 104.186322 
L 898.344 130.204902 
L 900.018 162.852292 
L 901.692 189.854373 
L 903.366 208.956994 
L 905.04 220.195231 
L 906.714 225.690716 
L 910.062 232.800839 
L 911.736 223.537648 
L 915.084 153.769236 
L 916.758 127.324958 
L 918.432 111.318151 
L 920.106 117.890043 
L 921.78 166.588608 
L 923.454 164.246216 
L 925.128 167.260693 
L 926.802 166.44174 
L 928.476 171.666685 
L 930.15 168.523823 
L 931.824 156.447896 
L 933.498 153.703264 
L 935.172 180.954398 
L 936.846 189.281788 
L 938.52 209.369117 
L 941.868 185.65965 
L 943.542 203.297628 
L 945.216 215.369612 
L 946.89 222.991618 
L 950.238 231.596045 
L 951.912 219.661839 
L 955.26 149.601309 
L 956.934 123.585105 
L 958.608 105.694647 
L 960.282 113.568867 
L 961.956 175.104155 
L 963.63 213.914405 
L 965.304 238.111184 
L 966.978 248.747689 
L 968.652 234.990987 
L 970.326 200.365635 
L 970.326 200.365635 
" clip-path="url(#p4ee9741af3)" style="fill: none; stroke: #1f77b4; stroke-width: 1.5; stroke-linecap: square"/>
   </g>
   <g id="line2d_16">
    <path d="M 135 130.409576 
L 136.674 158.894038 
L 138.348 193.325779 
L 140.022 208.183407 
L 141.696 216.118703 
L 145.044 227.741408 
L 146.718 231.853653 
L 148.392 215.407018 
L 150.066 181.521681 
L 151.74 150.286435 
L 153.414 122.798208 
L 155.088 110.355163 
L 156.762 108.523186 
L 158.436 124.706239 
L 160.11 131.834036 
L 161.784 132.692616 
L 163.458 129.539528 
L 165.132 123.607034 
L 166.806 125.497958 
L 168.48 132.80312 
L 170.154 107.710191 
L 171.828 89.054697 
L 176.85 157.815067 
L 178.524 189.008756 
L 180.198 206.647496 
L 181.872 216.301091 
L 183.546 223.351412 
L 185.22 228.633206 
L 186.894 235.660972 
L 188.568 227.061756 
L 190.242 206.0212 
L 191.916 192.24586 
L 195.264 149.180501 
L 196.938 143.886339 
L 198.612 158.182969 
L 200.286 162.856474 
L 201.96 164.792936 
L 203.634 167.692321 
L 205.308 169.869076 
L 206.982 161.590945 
L 208.656 160.180085 
L 210.33 140.923457 
L 212.004 110.377624 
L 213.678 122.404149 
L 215.352 139.647361 
L 217.026 161.074015 
L 218.7 199.329825 
L 220.374 219.558475 
L 222.048 224.038836 
L 223.722 229.290682 
L 225.396 232.906444 
L 227.07 235.936235 
L 228.744 217.230465 
L 230.418 176.176106 
L 232.092 142.782727 
L 233.766 117.659661 
L 235.44 103.988711 
L 237.114 100.072619 
L 238.788 121.895464 
L 240.462 133.607349 
L 242.136 154.657287 
L 243.81 201.923479 
L 245.484 179.612845 
L 247.158 166.120776 
L 248.832 148.464551 
L 250.506 136.913256 
L 252.18 106.360884 
L 253.854 139.588413 
L 255.528 157.896949 
L 257.202 191.506217 
L 258.876 221.177311 
L 260.55 229.1585 
L 262.224 230.61767 
L 263.898 225.151072 
L 265.572 229.642829 
L 268.92 204.632895 
L 270.594 177.391074 
L 272.268 144.389006 
L 273.942 118.254588 
L 275.616 99.434192 
L 277.29 112.680756 
L 278.964 128.617687 
L 280.638 160.626647 
L 282.312 186.726142 
L 285.66 171.122758 
L 287.334 175.367991 
L 289.008 154.360416 
L 290.682 131.922031 
L 292.356 131.116096 
L 294.03 202.64284 
L 295.704 162.811836 
L 297.378 181.174961 
L 299.052 202.195141 
L 300.726 207.053876 
L 302.4 217.697688 
L 304.074 216.238447 
L 305.748 224.731661 
L 307.422 225.494286 
L 309.096 221.380216 
L 312.444 144.877221 
L 314.118 111.728826 
L 315.792 97.086043 
L 317.466 124.818732 
L 319.14 180.012117 
L 320.814 176.79411 
L 322.488 233.158915 
L 324.162 206.584426 
L 325.836 204.336972 
L 327.51 180.166168 
L 329.184 151.059674 
L 330.858 130.059396 
L 332.532 127.572218 
L 334.206 148.722708 
L 335.88 165.773582 
L 337.554 181.129186 
L 339.228 202.782675 
L 340.902 208.691524 
L 342.576 211.953457 
L 344.25 208.731754 
L 345.924 214.914492 
L 347.598 212.855159 
L 349.272 215.842445 
L 350.946 179.771303 
L 352.62 140.190401 
L 354.294 110.107668 
L 355.968 107.024189 
L 357.642 144.393792 
L 359.316 117.251054 
L 360.99 153.436348 
L 362.664 165.609627 
L 364.338 214.405428 
L 366.012 191.935768 
L 367.686 205.78522 
L 369.36 168.290755 
L 371.034 190.307408 
L 372.708 155.569177 
L 374.382 162.170661 
L 377.73 199.432225 
L 379.404 225.873134 
L 381.078 204.304323 
L 382.752 217.243449 
L 384.426 212.105897 
L 386.1 205.363345 
L 387.774 207.750303 
L 389.448 211.113357 
L 394.47 109.549086 
L 396.144 90.634534 
L 397.818 133.614457 
L 399.492 136.352352 
L 401.166 165.952036 
L 402.84 177.458267 
L 404.514 181.139943 
L 406.188 169.074466 
L 407.862 170.494282 
L 409.536 161.443955 
L 411.21 149.359571 
L 412.884 139.511885 
L 414.558 146.82406 
L 416.232 169.086502 
L 417.906 181.281247 
L 419.58 198.689361 
L 421.254 201.411429 
L 422.928 210.383286 
L 424.602 208.629591 
L 426.276 212.375711 
L 427.95 211.046259 
L 429.624 216.468409 
L 431.298 185.107164 
L 434.646 111.549566 
L 436.32 105.940005 
L 437.994 151.717244 
L 439.668 161.493805 
L 441.342 183.596652 
L 443.016 182.655051 
L 444.69 172.471733 
L 446.364 187.499381 
L 448.038 183.176151 
L 451.386 148.338932 
L 453.06 135.024986 
L 454.734 159.925008 
L 456.408 181.340526 
L 458.082 196.526253 
L 459.756 199.551969 
L 461.43 200.726801 
L 463.104 207.030846 
L 464.778 199.465964 
L 466.452 204.095305 
L 468.126 206.299022 
L 469.8 226.294345 
L 471.474 207.312507 
L 473.148 184.984814 
L 474.822 149.601996 
L 476.496 124.696477 
L 478.17 114.71488 
L 479.844 123.994033 
L 483.192 169.667403 
L 484.866 164.661914 
L 486.54 161.442249 
L 488.214 178.326467 
L 489.888 172.915737 
L 491.562 142.131649 
L 493.236 129.395191 
L 494.91 125.206584 
L 496.584 155.105887 
L 499.932 196.07173 
L 501.606 203.266483 
L 503.28 216.76945 
L 504.954 220.457239 
L 506.628 218.660706 
L 508.302 221.858148 
L 509.976 214.037383 
L 513.324 144.352661 
L 514.998 134.379925 
L 516.672 146.185112 
L 518.346 194.411574 
L 520.02 191.373537 
L 521.694 211.959238 
L 523.368 204.550018 
L 525.042 182.254311 
L 526.716 170.049615 
L 528.39 166.449206 
L 530.064 214.494655 
L 531.738 168.095289 
L 533.412 163.437896 
L 535.086 149.708377 
L 536.76 177.529203 
L 538.434 176.850499 
L 540.108 192.302959 
L 541.782 217.731474 
L 543.456 205.161577 
L 545.13 214.220292 
L 546.804 220.552152 
L 548.478 205.447028 
L 550.152 204.407671 
L 551.826 177.460873 
L 553.5 138.667331 
L 555.174 105.632519 
L 556.848 135.936306 
L 558.522 182.138264 
L 560.196 170.620565 
L 561.87 197.050433 
L 563.544 183.810882 
L 566.892 164.792225 
L 568.566 184.00777 
L 570.24 175.951356 
L 571.914 154.497787 
L 573.588 143.968079 
L 575.262 169.383705 
L 576.936 157.819663 
L 578.61 152.732435 
L 580.284 167.597029 
L 581.958 189.949646 
L 583.632 202.88626 
L 585.306 206.479325 
L 586.98 218.879107 
L 588.654 212.574683 
L 590.328 198.541423 
L 592.002 171.155833 
L 595.35 107.580212 
L 597.024 91.338448 
L 598.698 91.381806 
L 600.372 114.425638 
L 602.046 119.609912 
L 603.72 119.54452 
L 605.394 123.705312 
L 607.068 111.549139 
L 608.742 109.363429 
L 610.416 116.831218 
L 612.09 105.363843 
L 613.764 84.257705 
L 615.438 95.075897 
L 617.112 114.549219 
L 620.46 169.962473 
L 622.134 188.560867 
L 623.808 202.442825 
L 625.482 209.69572 
L 627.156 213.865516 
L 628.83 220.717907 
L 630.504 205.025154 
L 633.852 142.304369 
L 635.526 117.090465 
L 637.2 101.771489 
L 638.874 98.601294 
L 640.548 111.616711 
L 642.222 118.279655 
L 643.896 119.244 
L 645.57 114.342997 
L 647.244 104.132906 
L 648.918 115.642833 
L 650.592 122.620844 
L 652.266 107.083373 
L 653.94 80.545513 
L 655.614 100.428343 
L 657.288 124.234278 
L 660.636 175.856064 
L 662.31 193.984724 
L 663.984 208.636604 
L 665.658 218.29162 
L 667.332 220.485244 
L 669.006 230.236476 
L 670.68 222.669438 
L 672.354 203.513646 
L 674.028 189.078271 
L 675.702 164.801986 
L 677.376 149.862617 
L 679.05 148.228618 
L 680.724 158.436008 
L 682.398 165.302995 
L 685.746 174.244857 
L 687.42 173.971441 
L 689.094 182.666234 
L 690.768 203.346659 
L 692.442 214.290565 
L 694.116 167.822158 
L 695.79 202.56091 
L 697.464 223.874881 
L 699.138 247.947171 
L 700.812 273.81251 
L 702.486 297.372205 
L 704.16 318.296832 
L 705.834 327.465245 
L 707.508 333.23947 
L 709.182 345.101876 
L 710.856 355.434009 
L 712.53 367.049677 
L 714.204 366.56921 
L 715.878 350.616357 
L 717.552 342.373268 
L 719.226 348.10179 
L 720.9 333.013512 
L 722.574 301.053407 
L 724.248 280.570794 
L 725.922 266.999259 
L 727.596 245.664723 
L 729.27 217.12072 
L 730.944 199.632003 
L 732.618 161.51347 
L 734.292 130.684602 
L 735.966 141.911921 
L 737.64 164.037845 
L 739.314 175.362352 
L 740.988 210.602919 
L 742.662 225.727589 
L 744.336 231.130027 
L 746.01 234.291266 
L 747.684 237.094151 
L 749.358 240.498952 
L 751.032 238.548748 
L 752.706 202.536602 
L 754.38 174.109855 
L 756.054 169.096169 
L 757.728 150.257719 
L 759.402 151.105069 
L 761.076 160.972894 
L 762.75 157.784977 
L 764.424 153.154451 
L 766.098 160.325985 
L 767.772 158.987625 
L 769.446 153.343662 
L 771.12 158.088861 
L 772.794 140.241577 
L 774.468 110.544137 
L 776.142 116.96295 
L 777.816 134.288328 
L 779.49 154.509586 
L 781.164 192.436066 
L 782.838 210.755595 
L 784.512 218.389992 
L 786.186 224.086221 
L 787.86 227.380353 
L 789.534 231.52456 
L 791.208 219.60207 
L 792.882 185.730048 
L 794.556 155.499283 
L 796.23 127.786875 
L 797.904 113.214081 
L 799.578 109.074281 
L 801.252 130.480512 
L 802.926 130.38214 
L 804.6 133.029339 
L 806.274 131.629567 
L 807.948 117.260532 
L 809.622 120.939364 
L 811.296 127.833644 
L 812.97 112.281911 
L 814.644 83.546305 
L 817.992 123.107068 
L 819.666 151.867078 
L 821.34 193.291472 
L 823.014 209.757274 
L 826.362 223.600092 
L 828.036 228.389644 
L 829.71 231.726518 
L 831.384 211.877451 
L 834.732 149.513006 
L 836.406 123.401096 
L 838.08 109.343764 
L 839.754 104.056615 
L 841.428 123.510272 
L 843.102 126.8149 
L 844.776 127.808341 
L 846.45 122.968607 
L 848.124 110.431122 
L 849.798 117.489357 
L 851.472 118.187016 
L 853.146 93.082951 
L 854.82 72.692763 
L 856.494 99.359512 
L 858.168 121.953843 
L 859.842 150.222369 
L 861.516 188.687671 
L 863.19 205.327095 
L 864.864 214.647331 
L 866.538 220.67417 
L 868.212 227.750293 
L 869.886 232.124676 
L 871.56 215.196531 
L 873.234 179.607064 
L 874.908 146.58372 
L 876.582 122.249814 
L 878.256 106.019139 
L 879.93 103.563378 
L 881.604 121.719853 
L 883.278 125.860411 
L 884.952 127.131721 
L 886.626 126.419751 
L 888.3 112.315602 
L 889.974 118.334433 
L 891.648 111.286149 
L 894.996 66.96 
L 898.344 121.823059 
L 900.018 153.553438 
L 901.692 189.675899 
L 903.366 204.714067 
L 905.04 216.176324 
L 906.714 222.244483 
L 908.388 226.448041 
L 910.062 232.817549 
L 911.736 213.737053 
L 913.41 182.273787 
L 915.084 147.81243 
L 916.758 120.969643 
L 918.432 106.028047 
L 920.106 108.273653 
L 921.78 131.106145 
L 923.454 148.256386 
L 925.128 158.929956 
L 926.802 159.917995 
L 928.476 144.602099 
L 930.15 173.026808 
L 931.824 157.706601 
L 933.498 123.575902 
L 935.172 129.184704 
L 936.846 195.679282 
L 938.52 195.797841 
L 940.194 222.187573 
L 941.868 209.890475 
L 945.216 224.657479 
L 946.89 212.715987 
L 948.564 220.25784 
L 950.238 221.559761 
L 951.912 231.134079 
L 953.586 196.460813 
L 955.26 156.124536 
L 956.934 124.432824 
L 958.608 103.066444 
L 960.282 87.821248 
L 961.956 109.205445 
L 963.63 170.645869 
L 966.978 240.196513 
L 968.652 239.372856 
L 970.326 230.116496 
L 970.326 230.116496 
" clip-path="url(#p4ee9741af3)" style="fill: none; stroke: #ff7f0e; stroke-width: 1.5; stroke-linecap: square"/>
   </g>
   <g id="patch_3">
    <path d="M 135 384.48 
L 135 51.84 
" style="fill: none; stroke: #000000; stroke-width: 0.8; stroke-linejoin: miter; stroke-linecap: square"/>
   </g>
   <g id="patch_4">
    <path d="M 972 384.48 
L 972 51.84 
" style="fill: none; stroke: #000000; stroke-width: 0.8; stroke-linejoin: miter; stroke-linecap: square"/>
   </g>
   <g id="patch_5">
    <path d="M 135 384.48 
L 972 384.48 
" style="fill: none; stroke: #000000; stroke-width: 0.8; stroke-linejoin: miter; stroke-linecap: square"/>
   </g>
   <g id="patch_6">
    <path d="M 135 51.84 
L 972 51.84 
" style="fill: none; stroke: #000000; stroke-width: 0.8; stroke-linejoin: miter; stroke-linecap: square"/>
   </g>
  </g>
 </g>
 <defs>
  <clipPath id="p4ee9741af3">
   <rect x="135" y="51.84" width="837" height="332.64"/>
  </clipPath>
 </defs>
</svg>
