<?xml version="1.0" encoding="utf-8" standalone="no"?>
<!DOCTYPE svg PUBLIC "-//W3C//DTD SVG 1.1//EN"
  "http://www.w3.org/Graphics/SVG/1.1/DTD/svg11.dtd">
<svg xmlns:xlink="http://www.w3.org/1999/xlink" width="1080pt" height="432pt" viewBox="0 0 1080 432" xmlns="http://www.w3.org/2000/svg" version="1.1">
 <metadata>
  <rdf:RDF xmlns:dc="http://purl.org/dc/elements/1.1/" xmlns:cc="http://creativecommons.org/ns#" xmlns:rdf="http://www.w3.org/1999/02/22-rdf-syntax-ns#">
   <cc:Work>
    <dc:type rdf:resource="http://purl.org/dc/dcmitype/StillImage"/>
    <dc:date>2024-02-23T17:59:59.201194</dc:date>
    <dc:format>image/svg+xml</dc:format>
    <dc:creator>
     <cc:Agent>
      <dc:title>Matplotlib v3.7.1, https://matplotlib.org/</dc:title>
     </cc:Agent>
    </dc:creator>
   </cc:Work>
  </rdf:RDF>
 </metadata>
 <defs>
  <style type="text/css">*{stroke-linejoin: round; stroke-linecap: butt}</style>
 </defs>
 <g id="figure_1">
  <g id="patch_1">
   <path d="M 0 432 
L 1080 432 
L 1080 0 
L 0 0 
z
" style="fill: #ffffff"/>
  </g>
  <g id="axes_1">
   <g id="patch_2">
    <path d="M 135 384.48 
L 972 384.48 
L 972 51.84 
L 135 51.84 
z
" style="fill: #ffffff"/>
   </g>
   <g id="matplotlib.axis_1">
    <g id="xtick_1">
     <g id="line2d_1">
      <defs>
       <path id="m8fcddcaf6f" d="M 0 0 
L 0 3.5 
" style="stroke: #000000; stroke-width: 0.8"/>
      </defs>
      <g>
       <use xlink:href="#m8fcddcaf6f" x="135" y="384.48" style="stroke: #000000; stroke-width: 0.8"/>
      </g>
     </g>
     <g id="text_1">
      <!-- 0 -->
      <g transform="translate(131.81875 399.078438) scale(0.1 -0.1)">
       <defs>
        <path id="DejaVuSans-30" d="M 2034 4250 
Q 1547 4250 1301 3770 
Q 1056 3291 1056 2328 
Q 1056 1369 1301 889 
Q 1547 409 2034 409 
Q 2525 409 2770 889 
Q 3016 1369 3016 2328 
Q 3016 3291 2770 3770 
Q 2525 4250 2034 4250 
z
M 2034 4750 
Q 2819 4750 3233 4129 
Q 3647 3509 3647 2328 
Q 3647 1150 3233 529 
Q 2819 -91 2034 -91 
Q 1250 -91 836 529 
Q 422 1150 422 2328 
Q 422 3509 836 4129 
Q 1250 4750 2034 4750 
z
" transform="scale(0.015625)"/>
       </defs>
       <use xlink:href="#DejaVuSans-30"/>
      </g>
     </g>
    </g>
    <g id="xtick_2">
     <g id="line2d_2">
      <g>
       <use xlink:href="#m8fcddcaf6f" x="302.4" y="384.48" style="stroke: #000000; stroke-width: 0.8"/>
      </g>
     </g>
     <g id="text_2">
      <!-- 100 -->
      <g transform="translate(292.85625 399.078438) scale(0.1 -0.1)">
       <defs>
        <path id="DejaVuSans-31" d="M 794 531 
L 1825 531 
L 1825 4091 
L 703 3866 
L 703 4441 
L 1819 4666 
L 2450 4666 
L 2450 531 
L 3481 531 
L 3481 0 
L 794 0 
L 794 531 
z
" transform="scale(0.015625)"/>
       </defs>
       <use xlink:href="#DejaVuSans-31"/>
       <use xlink:href="#DejaVuSans-30" x="63.623047"/>
       <use xlink:href="#DejaVuSans-30" x="127.246094"/>
      </g>
     </g>
    </g>
    <g id="xtick_3">
     <g id="line2d_3">
      <g>
       <use xlink:href="#m8fcddcaf6f" x="469.8" y="384.48" style="stroke: #000000; stroke-width: 0.8"/>
      </g>
     </g>
     <g id="text_3">
      <!-- 200 -->
      <g transform="translate(460.25625 399.078438) scale(0.1 -0.1)">
       <defs>
        <path id="DejaVuSans-32" d="M 1228 531 
L 3431 531 
L 3431 0 
L 469 0 
L 469 531 
Q 828 903 1448 1529 
Q 2069 2156 2228 2338 
Q 2531 2678 2651 2914 
Q 2772 3150 2772 3378 
Q 2772 3750 2511 3984 
Q 2250 4219 1831 4219 
Q 1534 4219 1204 4116 
Q 875 4013 500 3803 
L 500 4441 
Q 881 4594 1212 4672 
Q 1544 4750 1819 4750 
Q 2544 4750 2975 4387 
Q 3406 4025 3406 3419 
Q 3406 3131 3298 2873 
Q 3191 2616 2906 2266 
Q 2828 2175 2409 1742 
Q 1991 1309 1228 531 
z
" transform="scale(0.015625)"/>
       </defs>
       <use xlink:href="#DejaVuSans-32"/>
       <use xlink:href="#DejaVuSans-30" x="63.623047"/>
       <use xlink:href="#DejaVuSans-30" x="127.246094"/>
      </g>
     </g>
    </g>
    <g id="xtick_4">
     <g id="line2d_4">
      <g>
       <use xlink:href="#m8fcddcaf6f" x="637.2" y="384.48" style="stroke: #000000; stroke-width: 0.8"/>
      </g>
     </g>
     <g id="text_4">
      <!-- 300 -->
      <g transform="translate(627.65625 399.078438) scale(0.1 -0.1)">
       <defs>
        <path id="DejaVuSans-33" d="M 2597 2516 
Q 3050 2419 3304 2112 
Q 3559 1806 3559 1356 
Q 3559 666 3084 287 
Q 2609 -91 1734 -91 
Q 1441 -91 1130 -33 
Q 819 25 488 141 
L 488 750 
Q 750 597 1062 519 
Q 1375 441 1716 441 
Q 2309 441 2620 675 
Q 2931 909 2931 1356 
Q 2931 1769 2642 2001 
Q 2353 2234 1838 2234 
L 1294 2234 
L 1294 2753 
L 1863 2753 
Q 2328 2753 2575 2939 
Q 2822 3125 2822 3475 
Q 2822 3834 2567 4026 
Q 2313 4219 1838 4219 
Q 1578 4219 1281 4162 
Q 984 4106 628 3988 
L 628 4550 
Q 988 4650 1302 4700 
Q 1616 4750 1894 4750 
Q 2613 4750 3031 4423 
Q 3450 4097 3450 3541 
Q 3450 3153 3228 2886 
Q 3006 2619 2597 2516 
z
" transform="scale(0.015625)"/>
       </defs>
       <use xlink:href="#DejaVuSans-33"/>
       <use xlink:href="#DejaVuSans-30" x="63.623047"/>
       <use xlink:href="#DejaVuSans-30" x="127.246094"/>
      </g>
     </g>
    </g>
    <g id="xtick_5">
     <g id="line2d_5">
      <g>
       <use xlink:href="#m8fcddcaf6f" x="804.6" y="384.48" style="stroke: #000000; stroke-width: 0.8"/>
      </g>
     </g>
     <g id="text_5">
      <!-- 400 -->
      <g transform="translate(795.05625 399.078438) scale(0.1 -0.1)">
       <defs>
        <path id="DejaVuSans-34" d="M 2419 4116 
L 825 1625 
L 2419 1625 
L 2419 4116 
z
M 2253 4666 
L 3047 4666 
L 3047 1625 
L 3713 1625 
L 3713 1100 
L 3047 1100 
L 3047 0 
L 2419 0 
L 2419 1100 
L 313 1100 
L 313 1709 
L 2253 4666 
z
" transform="scale(0.015625)"/>
       </defs>
       <use xlink:href="#DejaVuSans-34"/>
       <use xlink:href="#DejaVuSans-30" x="63.623047"/>
       <use xlink:href="#DejaVuSans-30" x="127.246094"/>
      </g>
     </g>
    </g>
    <g id="xtick_6">
     <g id="line2d_6">
      <g>
       <use xlink:href="#m8fcddcaf6f" x="972" y="384.48" style="stroke: #000000; stroke-width: 0.8"/>
      </g>
     </g>
     <g id="text_6">
      <!-- 500 -->
      <g transform="translate(962.45625 399.078438) scale(0.1 -0.1)">
       <defs>
        <path id="DejaVuSans-35" d="M 691 4666 
L 3169 4666 
L 3169 4134 
L 1269 4134 
L 1269 2991 
Q 1406 3038 1543 3061 
Q 1681 3084 1819 3084 
Q 2600 3084 3056 2656 
Q 3513 2228 3513 1497 
Q 3513 744 3044 326 
Q 2575 -91 1722 -91 
Q 1428 -91 1123 -41 
Q 819 9 494 109 
L 494 744 
Q 775 591 1075 516 
Q 1375 441 1709 441 
Q 2250 441 2565 725 
Q 2881 1009 2881 1497 
Q 2881 1984 2565 2268 
Q 2250 2553 1709 2553 
Q 1456 2553 1204 2497 
Q 953 2441 691 2322 
L 691 4666 
z
" transform="scale(0.015625)"/>
       </defs>
       <use xlink:href="#DejaVuSans-35"/>
       <use xlink:href="#DejaVuSans-30" x="63.623047"/>
       <use xlink:href="#DejaVuSans-30" x="127.246094"/>
      </g>
     </g>
    </g>
   </g>
   <g id="matplotlib.axis_2">
    <g id="ytick_1">
     <g id="line2d_7">
      <defs>
       <path id="mbf00c06bf3" d="M 0 0 
L -3.5 0 
" style="stroke: #000000; stroke-width: 0.8"/>
      </defs>
      <g>
       <use xlink:href="#mbf00c06bf3" x="135" y="349.941955" style="stroke: #000000; stroke-width: 0.8"/>
      </g>
     </g>
     <g id="text_7">
      <!-- 350 -->
      <g transform="translate(108.9125 353.741174) scale(0.1 -0.1)">
       <use xlink:href="#DejaVuSans-33"/>
       <use xlink:href="#DejaVuSans-35" x="63.623047"/>
       <use xlink:href="#DejaVuSans-30" x="127.246094"/>
      </g>
     </g>
    </g>
    <g id="ytick_2">
     <g id="line2d_8">
      <g>
       <use xlink:href="#mbf00c06bf3" x="135" y="310.51824" style="stroke: #000000; stroke-width: 0.8"/>
      </g>
     </g>
     <g id="text_8">
      <!-- 400 -->
      <g transform="translate(108.9125 314.317459) scale(0.1 -0.1)">
       <use xlink:href="#DejaVuSans-34"/>
       <use xlink:href="#DejaVuSans-30" x="63.623047"/>
       <use xlink:href="#DejaVuSans-30" x="127.246094"/>
      </g>
     </g>
    </g>
    <g id="ytick_3">
     <g id="line2d_9">
      <g>
       <use xlink:href="#mbf00c06bf3" x="135" y="271.094525" style="stroke: #000000; stroke-width: 0.8"/>
      </g>
     </g>
     <g id="text_9">
      <!-- 450 -->
      <g transform="translate(108.9125 274.893744) scale(0.1 -0.1)">
       <use xlink:href="#DejaVuSans-34"/>
       <use xlink:href="#DejaVuSans-35" x="63.623047"/>
       <use xlink:href="#DejaVuSans-30" x="127.246094"/>
      </g>
     </g>
    </g>
    <g id="ytick_4">
     <g id="line2d_10">
      <g>
       <use xlink:href="#mbf00c06bf3" x="135" y="231.67081" style="stroke: #000000; stroke-width: 0.8"/>
      </g>
     </g>
     <g id="text_10">
      <!-- 500 -->
      <g transform="translate(108.9125 235.470028) scale(0.1 -0.1)">
       <use xlink:href="#DejaVuSans-35"/>
       <use xlink:href="#DejaVuSans-30" x="63.623047"/>
       <use xlink:href="#DejaVuSans-30" x="127.246094"/>
      </g>
     </g>
    </g>
    <g id="ytick_5">
     <g id="line2d_11">
      <g>
       <use xlink:href="#mbf00c06bf3" x="135" y="192.247094" style="stroke: #000000; stroke-width: 0.8"/>
      </g>
     </g>
     <g id="text_11">
      <!-- 550 -->
      <g transform="translate(108.9125 196.046313) scale(0.1 -0.1)">
       <use xlink:href="#DejaVuSans-35"/>
       <use xlink:href="#DejaVuSans-35" x="63.623047"/>
       <use xlink:href="#DejaVuSans-30" x="127.246094"/>
      </g>
     </g>
    </g>
    <g id="ytick_6">
     <g id="line2d_12">
      <g>
       <use xlink:href="#mbf00c06bf3" x="135" y="152.823379" style="stroke: #000000; stroke-width: 0.8"/>
      </g>
     </g>
     <g id="text_12">
      <!-- 600 -->
      <g transform="translate(108.9125 156.622598) scale(0.1 -0.1)">
       <defs>
        <path id="DejaVuSans-36" d="M 2113 2584 
Q 1688 2584 1439 2293 
Q 1191 2003 1191 1497 
Q 1191 994 1439 701 
Q 1688 409 2113 409 
Q 2538 409 2786 701 
Q 3034 994 3034 1497 
Q 3034 2003 2786 2293 
Q 2538 2584 2113 2584 
z
M 3366 4563 
L 3366 3988 
Q 3128 4100 2886 4159 
Q 2644 4219 2406 4219 
Q 1781 4219 1451 3797 
Q 1122 3375 1075 2522 
Q 1259 2794 1537 2939 
Q 1816 3084 2150 3084 
Q 2853 3084 3261 2657 
Q 3669 2231 3669 1497 
Q 3669 778 3244 343 
Q 2819 -91 2113 -91 
Q 1303 -91 875 529 
Q 447 1150 447 2328 
Q 447 3434 972 4092 
Q 1497 4750 2381 4750 
Q 2619 4750 2861 4703 
Q 3103 4656 3366 4563 
z
" transform="scale(0.015625)"/>
       </defs>
       <use xlink:href="#DejaVuSans-36"/>
       <use xlink:href="#DejaVuSans-30" x="63.623047"/>
       <use xlink:href="#DejaVuSans-30" x="127.246094"/>
      </g>
     </g>
    </g>
    <g id="ytick_7">
     <g id="line2d_13">
      <g>
       <use xlink:href="#mbf00c06bf3" x="135" y="113.399664" style="stroke: #000000; stroke-width: 0.8"/>
      </g>
     </g>
     <g id="text_13">
      <!-- 650 -->
      <g transform="translate(108.9125 117.198883) scale(0.1 -0.1)">
       <use xlink:href="#DejaVuSans-36"/>
       <use xlink:href="#DejaVuSans-35" x="63.623047"/>
       <use xlink:href="#DejaVuSans-30" x="127.246094"/>
      </g>
     </g>
    </g>
    <g id="ytick_8">
     <g id="line2d_14">
      <g>
       <use xlink:href="#mbf00c06bf3" x="135" y="73.975949" style="stroke: #000000; stroke-width: 0.8"/>
      </g>
     </g>
     <g id="text_14">
      <!-- 700 -->
      <g transform="translate(108.9125 77.775167) scale(0.1 -0.1)">
       <defs>
        <path id="DejaVuSans-37" d="M 525 4666 
L 3525 4666 
L 3525 4397 
L 1831 0 
L 1172 0 
L 2766 4134 
L 525 4134 
L 525 4666 
z
" transform="scale(0.015625)"/>
       </defs>
       <use xlink:href="#DejaVuSans-37"/>
       <use xlink:href="#DejaVuSans-30" x="63.623047"/>
       <use xlink:href="#DejaVuSans-30" x="127.246094"/>
      </g>
     </g>
    </g>
   </g>
   <g id="line2d_15">
    <path d="M 135 132.847873 
L 136.674 164.193906 
L 138.348 190.238 
L 140.022 206.365397 
L 141.696 216.303047 
L 143.37 223.613622 
L 145.044 227.402902 
L 146.718 232.263432 
L 148.392 219.992209 
L 150.066 188.02261 
L 151.74 153.616031 
L 153.414 128.988765 
L 155.088 110.930458 
L 156.762 104.444474 
L 158.436 130.198988 
L 160.11 133.459404 
L 161.784 132.450343 
L 163.458 133.260828 
L 165.132 120.79365 
L 166.806 126.884179 
L 168.48 129.75727 
L 170.154 107.828747 
L 171.828 98.896575 
L 173.502 115.082578 
L 175.176 135.025042 
L 178.524 188.060631 
L 180.198 205.860666 
L 181.872 217.598423 
L 183.546 224.976766 
L 185.22 229.386116 
L 186.894 240.224074 
L 188.568 237.767421 
L 190.242 221.520517 
L 191.916 200.470553 
L 193.59 173.837325 
L 195.264 154.321762 
L 196.938 147.673177 
L 198.612 160.640321 
L 200.286 164.143861 
L 201.96 168.732995 
L 203.634 173.859866 
L 205.308 163.154603 
L 206.982 160.395976 
L 208.656 158.87732 
L 210.33 131.159842 
L 212.004 114.658964 
L 213.678 124.056309 
L 215.352 141.269066 
L 217.026 172.631202 
L 218.7 200.460308 
L 220.374 214.341714 
L 222.048 221.740348 
L 223.722 226.85393 
L 225.396 229.620796 
L 227.07 233.721287 
L 228.744 217.19415 
L 230.418 180.738218 
L 232.092 147.985967 
L 233.766 122.962872 
L 235.44 104.148018 
L 237.114 98.347887 
L 238.788 137.73522 
L 240.462 156.310606 
L 242.136 192.231045 
L 243.81 193.576017 
L 245.484 163.100489 
L 247.158 143.684248 
L 248.832 155.85685 
L 250.506 131.508825 
L 252.18 125.955578 
L 253.854 142.336715 
L 257.202 193.857522 
L 258.876 211.423787 
L 260.55 218.010612 
L 262.224 213.971631 
L 263.898 219.930323 
L 265.572 221.532485 
L 267.246 224.008757 
L 268.92 211.003243 
L 272.268 142.49913 
L 273.942 111.739184 
L 275.616 104.140635 
L 277.29 128.135189 
L 278.964 176.347758 
L 280.638 183.524303 
L 282.312 184.625281 
L 283.986 180.858428 
L 285.66 170.285593 
L 289.008 152.626013 
L 290.682 131.614228 
L 292.356 177.450187 
L 294.03 141.426105 
L 295.704 152.615723 
L 297.378 178.206423 
L 299.052 182.670266 
L 300.726 200.366673 
L 302.4 213.781479 
L 304.074 220.441471 
L 305.748 222.810263 
L 307.422 227.122415 
L 309.096 213.032762 
L 312.444 140.469296 
L 314.118 117.312591 
L 315.792 125.519206 
L 317.466 177.94826 
L 319.14 212.750886 
L 320.814 237.037113 
L 322.488 214.183457 
L 324.162 200.132729 
L 325.836 168.22029 
L 327.51 152.03873 
L 329.184 144.200392 
L 330.858 128.495397 
L 332.532 129.970834 
L 334.206 143.944272 
L 335.88 155.431859 
L 337.554 174.124726 
L 340.902 192.883743 
L 342.576 205.254952 
L 344.25 212.622301 
L 347.598 221.59975 
L 349.272 207.292271 
L 350.946 170.271947 
L 352.62 136.670796 
L 354.294 120.074652 
L 355.968 125.169564 
L 357.642 132.452095 
L 359.316 163.015535 
L 360.99 171.060301 
L 362.664 201.784018 
L 364.338 206.397751 
L 366.012 201.426292 
L 367.686 178.249301 
L 369.36 199.794475 
L 371.034 176.496339 
L 372.708 146.452264 
L 374.382 166.045487 
L 376.056 182.682713 
L 377.73 202.159418 
L 379.404 170.549959 
L 381.078 190.06024 
L 382.752 206.069115 
L 384.426 211.342419 
L 386.1 214.976368 
L 387.774 217.10946 
L 389.448 202.048571 
L 392.796 128.939634 
L 394.47 103.448293 
L 396.144 126.66667 
L 397.818 136.694115 
L 399.492 175.644122 
L 401.166 191.39223 
L 402.84 193.186163 
L 406.188 164.806052 
L 407.862 164.398467 
L 409.536 157.220535 
L 411.21 135.119998 
L 412.884 125.043856 
L 414.558 146.93305 
L 416.232 159.126845 
L 417.906 174.446204 
L 419.58 178.091616 
L 422.928 206.093789 
L 424.602 211.596027 
L 426.276 216.018582 
L 427.95 223.263225 
L 429.624 212.387996 
L 432.972 140.573251 
L 434.646 123.193863 
L 436.32 141.536015 
L 437.994 165.390667 
L 439.668 212.057418 
L 441.342 191.781462 
L 443.016 181.244733 
L 444.69 195.37111 
L 446.364 190.320063 
L 448.038 173.688143 
L 449.712 158.998289 
L 451.386 133.11834 
L 453.06 144.563218 
L 454.734 160.091013 
L 456.408 173.601413 
L 458.082 178.126884 
L 459.756 176.253732 
L 461.43 186.850132 
L 463.104 199.518468 
L 466.452 213.448624 
L 468.126 226.848447 
L 469.8 224.142891 
L 471.474 203.855555 
L 473.148 177.625866 
L 474.822 149.125709 
L 476.496 129.952827 
L 478.17 124.773347 
L 479.844 148.210878 
L 481.518 166.495107 
L 483.192 167.315237 
L 484.866 160.68218 
L 486.54 170.650117 
L 488.214 176.099809 
L 489.888 151.518585 
L 491.562 116.425742 
L 493.236 106.291979 
L 494.91 130.03015 
L 496.584 151.841138 
L 498.258 172.182405 
L 499.932 186.602323 
L 501.606 202.444153 
L 503.28 212.777634 
L 504.954 219.795921 
L 506.628 222.657523 
L 508.302 226.027569 
L 509.976 212.664833 
L 511.65 179.117884 
L 513.324 162.537007 
L 514.998 160.212748 
L 516.672 178.335027 
L 518.346 192.272895 
L 520.02 221.216892 
L 521.694 216.623196 
L 523.368 200.806459 
L 525.042 176.477917 
L 526.716 173.039911 
L 528.39 206.569822 
L 530.064 189.205142 
L 531.738 148.557733 
L 533.412 133.832116 
L 535.086 157.007154 
L 536.76 155.756255 
L 538.434 166.309998 
L 540.108 194.745837 
L 541.782 189.982529 
L 543.456 202.777683 
L 545.13 213.291184 
L 546.804 214.073482 
L 548.478 216.059803 
L 550.152 206.02536 
L 551.826 168.658414 
L 553.5 135.456289 
L 555.174 144.65064 
L 556.848 164.331233 
L 558.522 172.89095 
L 560.196 207.369413 
L 561.87 201.656127 
L 563.544 191.8672 
L 565.218 176.237127 
L 566.892 184.754185 
L 568.566 181.797689 
L 571.914 140.47831 
L 573.588 156.53448 
L 575.262 123.380306 
L 576.936 111.640255 
L 578.61 137.452969 
L 580.284 166.016287 
L 581.958 186.388068 
L 583.632 198.377522 
L 585.306 204.52744 
L 586.98 207.967672 
L 588.654 212.197371 
L 590.328 203.245242 
L 593.676 142.316111 
L 595.35 118.143321 
L 597.024 100.744242 
L 598.698 92.488963 
L 600.372 112.072306 
L 602.046 113.915754 
L 603.72 111.258192 
L 605.394 112.805601 
L 607.068 102.148934 
L 610.416 116.016636 
L 612.09 86.143649 
L 613.764 77.07348 
L 615.438 96.561808 
L 618.786 142.667832 
L 620.46 169.143257 
L 622.134 189.55696 
L 623.808 201.352548 
L 625.482 209.589727 
L 628.83 220.211458 
L 630.504 210.606374 
L 633.852 149.324376 
L 635.526 122.683808 
L 637.2 101.90293 
L 638.874 93.345921 
L 640.548 113.095266 
L 642.222 114.723103 
L 643.896 113.387805 
L 645.57 110.88011 
L 647.244 106.98433 
L 648.918 115.922608 
L 650.592 123.038004 
L 652.266 94.371761 
L 653.94 85.442644 
L 655.614 106.927603 
L 657.288 130.434166 
L 658.962 150.702626 
L 660.636 175.466984 
L 662.31 196.038591 
L 663.984 211.259458 
L 665.658 218.366498 
L 667.332 223.443027 
L 669.006 234.268621 
L 670.68 234.205718 
L 672.354 218.180182 
L 675.702 173.414025 
L 677.376 158.561156 
L 679.05 153.310564 
L 680.724 166.241674 
L 682.398 169.844672 
L 684.072 176.083109 
L 685.746 180.690187 
L 687.42 180.646452 
L 689.094 197.587375 
L 690.768 216.532839 
L 692.442 196.760778 
L 694.116 193.143435 
L 695.79 212.582719 
L 697.464 237.410529 
L 699.138 258.977138 
L 700.812 282.634188 
L 702.486 304.593761 
L 704.16 319.120821 
L 705.834 328.844105 
L 707.508 337.123923 
L 710.856 367.955579 
L 712.53 369.36 
L 714.204 361.945821 
L 715.878 353.808899 
L 717.552 350.200573 
L 719.226 337.974742 
L 720.9 314.256738 
L 722.574 292.692032 
L 724.248 277.250777 
L 725.922 258.743714 
L 727.596 230.527097 
L 729.27 210.468788 
L 730.944 192.868016 
L 732.618 150.968907 
L 734.292 134.133275 
L 735.966 145.556484 
L 737.64 161.232294 
L 739.314 179.786098 
L 740.988 204.287075 
L 742.662 222.373355 
L 744.336 234.042591 
L 746.01 241.900665 
L 747.684 246.2482 
L 749.358 254.366007 
L 751.032 249.514489 
L 752.706 228.030937 
L 754.38 204.635361 
L 756.054 174.638308 
L 757.728 152.489692 
L 759.402 141.724019 
L 761.076 152.045677 
L 762.75 153.734557 
L 764.424 159.034761 
L 766.098 159.45259 
L 767.772 150.824426 
L 769.446 154.524301 
L 771.12 152.977099 
L 772.794 113.547431 
L 774.468 100.276835 
L 776.142 110.85434 
L 777.816 131.375213 
L 781.164 187.132777 
L 782.838 204.77669 
L 784.512 215.980919 
L 786.186 222.847463 
L 787.86 225.865115 
L 789.534 230.487265 
L 791.208 224.169954 
L 792.882 194.99858 
L 794.556 161.176409 
L 796.23 135.468758 
L 797.904 116.895881 
L 799.578 107.346307 
L 801.252 128.531844 
L 802.926 129.564832 
L 804.6 129.814671 
L 806.274 126.451008 
L 807.948 117.331993 
L 809.622 121.559784 
L 811.296 126.942669 
L 812.97 90.908007 
L 814.644 85.580675 
L 816.318 101.753149 
L 817.992 127.256728 
L 819.666 162.282956 
L 821.34 190.293172 
L 823.014 206.383859 
L 824.688 216.110293 
L 826.362 222.945358 
L 828.036 226.052406 
L 829.71 230.610648 
L 831.384 220.353575 
L 833.058 188.357518 
L 834.732 154.090602 
L 836.406 128.031307 
L 838.08 106.110427 
L 839.754 98.610295 
L 841.428 122.636567 
L 843.102 125.587084 
L 844.776 124.222949 
L 846.45 120.039103 
L 848.124 109.819194 
L 849.798 110.926742 
L 851.472 111.17075 
L 853.146 80.433514 
L 854.82 82.317821 
L 856.494 99.922129 
L 858.168 123.713848 
L 859.842 158.053804 
L 861.516 186.39694 
L 863.19 204.368058 
L 864.864 214.800436 
L 866.538 223.847602 
L 868.212 226.979733 
L 869.886 231.137935 
L 871.56 219.31474 
L 874.908 152.910853 
L 876.582 125.254341 
L 878.256 104.468635 
L 879.93 98.312039 
L 881.604 121.347979 
L 883.278 125.607705 
L 884.952 128.293843 
L 886.626 123.527148 
L 888.3 111.120071 
L 889.974 104.092602 
L 891.648 106.142654 
L 893.322 76.557973 
L 894.996 78.30362 
L 896.67 100.050812 
L 898.344 126.475164 
L 900.018 159.631706 
L 901.692 187.054897 
L 903.366 206.455433 
L 905.04 217.868935 
L 906.714 223.450125 
L 910.062 230.671134 
L 911.736 221.263479 
L 915.084 150.406996 
L 916.758 123.550307 
L 918.432 107.293866 
L 920.106 113.968249 
L 921.78 163.426292 
L 923.454 161.04737 
L 925.128 164.108858 
L 926.802 163.277133 
L 928.476 168.583564 
L 930.15 165.391687 
L 931.824 153.127431 
L 933.498 150.339995 
L 935.172 178.016124 
L 936.846 186.473383 
L 938.52 206.873983 
L 941.868 182.794756 
L 943.542 200.707807 
L 945.216 212.968059 
L 946.89 220.708934 
L 950.238 229.447551 
L 951.912 217.327225 
L 955.26 146.174067 
L 956.934 119.752129 
L 958.608 101.582661 
L 960.282 109.579683 
L 961.956 172.074642 
L 963.63 211.490157 
L 965.304 236.064297 
L 966.978 246.866683 
L 968.652 232.895439 
L 970.326 197.730088 
L 970.326 197.730088 
" clip-path="url(#p1557a2fdc8)" style="fill: none; stroke: #1f77b4; stroke-width: 1.5; stroke-linecap: square"/>
   </g>
   <g id="line2d_16">
    <path d="M 135 125.446371 
L 136.674 155.899074 
L 138.348 189.373956 
L 140.022 205.10013 
L 141.696 213.490327 
L 143.37 218.959116 
L 145.044 225.92759 
L 146.718 226.893885 
L 148.392 216.782245 
L 150.066 180.310929 
L 151.74 148.899247 
L 153.414 122.847111 
L 155.088 109.733624 
L 156.762 105.695533 
L 158.436 110.94959 
L 160.11 128.287603 
L 161.784 127.759675 
L 163.458 127.086074 
L 165.132 119.672135 
L 166.806 117.872369 
L 168.48 122.209411 
L 170.154 100.363177 
L 171.828 91.805988 
L 173.502 108.481517 
L 175.176 130.276498 
L 178.524 186.987503 
L 180.198 203.373851 
L 181.872 213.158363 
L 183.546 220.866055 
L 185.22 227.354197 
L 186.894 229.790555 
L 188.568 227.113237 
L 190.242 202.360442 
L 191.916 191.283061 
L 193.59 171.026048 
L 195.264 148.779176 
L 196.938 139.287021 
L 198.612 149.31259 
L 200.286 156.612185 
L 201.96 158.181193 
L 203.634 163.014448 
L 205.308 163.176436 
L 206.982 154.194595 
L 208.656 146.051471 
L 210.33 133.220476 
L 212.004 111.569243 
L 213.678 119.04406 
L 215.352 135.156338 
L 217.026 159.938705 
L 218.7 195.085823 
L 220.374 214.934114 
L 222.048 221.738411 
L 223.722 225.463403 
L 225.396 230.236527 
L 227.07 231.580311 
L 228.744 219.369042 
L 230.418 177.532597 
L 232.092 143.940483 
L 233.766 119.931671 
L 235.44 106.764478 
L 237.114 97.642642 
L 238.788 117.213254 
L 240.462 139.433224 
L 242.136 153.387015 
L 243.81 195.855722 
L 245.484 178.037713 
L 247.158 149.117252 
L 248.832 125.308975 
L 250.506 136.283995 
L 252.18 99.674321 
L 253.854 133.136739 
L 255.528 153.864219 
L 257.202 189.778974 
L 258.876 222.093908 
L 260.55 228.8906 
L 262.224 226.983108 
L 263.898 216.773054 
L 265.572 222.111618 
L 267.246 219.28184 
L 268.92 209.401801 
L 270.594 177.334901 
L 272.268 140.245279 
L 275.616 95.467937 
L 277.29 105.550774 
L 278.964 134.464835 
L 280.638 182.501997 
L 282.312 174.969622 
L 283.986 171.696569 
L 285.66 163.078261 
L 287.334 160.562353 
L 289.008 139.030709 
L 290.682 121.842701 
L 292.356 120.156221 
L 294.03 199.677493 
L 295.704 150.830008 
L 297.378 196.92226 
L 299.052 200.581033 
L 300.726 199.583986 
L 302.4 211.288143 
L 305.748 222.46555 
L 307.422 220.819519 
L 309.096 215.175171 
L 310.77 177.584716 
L 312.444 143.554234 
L 314.118 114.048529 
L 315.792 102.99189 
L 317.466 124.317752 
L 319.14 194.585375 
L 320.814 214.356811 
L 322.488 232.511451 
L 324.162 189.19912 
L 325.836 179.371632 
L 327.51 151.213946 
L 329.184 127.607794 
L 330.858 110.784618 
L 332.532 120.061463 
L 334.206 139.994694 
L 335.88 169.514693 
L 337.554 201.825488 
L 339.228 203.381455 
L 340.902 201.63939 
L 342.576 202.105237 
L 344.25 209.805759 
L 345.924 214.564132 
L 347.598 217.248718 
L 349.272 208.172216 
L 352.62 136.319367 
L 354.294 111.353452 
L 355.968 105.980575 
L 357.642 124.861464 
L 359.316 141.655091 
L 360.99 160.116382 
L 362.664 160.714619 
L 364.338 196.039076 
L 366.012 189.727721 
L 367.686 195.738057 
L 369.36 147.440492 
L 371.034 181.714774 
L 372.708 142.045478 
L 374.382 150.48173 
L 376.056 177.076568 
L 377.73 200.540993 
L 379.404 227.330544 
L 381.078 198.407627 
L 382.752 203.339346 
L 384.426 212.149718 
L 386.1 215.352462 
L 387.774 218.981686 
L 389.448 208.91348 
L 391.122 173.469721 
L 392.796 132.860937 
L 394.47 106.291797 
L 396.144 90.326203 
L 397.818 135.60409 
L 399.492 133.047805 
L 401.166 187.108585 
L 402.84 179.221002 
L 404.514 181.956696 
L 406.188 156.131708 
L 407.862 158.27032 
L 409.536 149.330348 
L 411.21 117.5739 
L 412.884 123.790883 
L 414.558 134.101686 
L 417.906 195.718614 
L 419.58 203.585311 
L 421.254 196.404728 
L 422.928 201.542371 
L 424.602 210.772487 
L 427.95 217.266764 
L 429.624 212.44015 
L 434.646 112.374513 
L 436.32 109.341023 
L 437.994 144.201607 
L 439.668 173.004982 
L 441.342 217.442804 
L 443.016 172.129787 
L 444.69 166.340487 
L 446.364 179.905768 
L 448.038 184.605381 
L 449.712 142.101207 
L 451.386 129.787071 
L 453.06 122.291993 
L 454.734 152.630399 
L 458.082 203.498927 
L 459.756 198.98546 
L 461.43 190.671975 
L 463.104 196.946659 
L 464.778 206.233755 
L 466.452 211.366249 
L 468.126 215.909553 
L 469.8 219.13684 
L 471.474 193.493282 
L 473.148 174.544008 
L 474.822 148.998095 
L 476.496 126.404774 
L 478.17 118.092732 
L 479.844 123.602138 
L 481.518 148.207118 
L 483.192 161.273009 
L 484.866 157.513752 
L 486.54 146.899956 
L 488.214 171.519422 
L 489.888 175.291288 
L 491.562 106.238956 
L 493.236 110.16203 
L 494.91 110.129738 
L 496.584 145.33759 
L 499.932 199.179354 
L 501.606 202.58605 
L 503.28 212.170027 
L 504.954 219.143481 
L 506.628 225.147369 
L 508.302 224.479735 
L 509.976 211.132989 
L 511.65 173.402058 
L 513.324 143.57873 
L 514.998 140.626475 
L 516.672 149.161719 
L 518.346 179.508258 
L 520.02 196.211892 
L 521.694 216.942741 
L 525.042 186.969793 
L 526.716 159.709006 
L 528.39 167.765121 
L 530.064 203.422409 
L 531.738 133.44902 
L 533.412 151.461596 
L 535.086 138.316443 
L 536.76 168.869101 
L 538.434 191.865129 
L 540.108 193.728131 
L 541.782 207.988524 
L 543.456 193.698101 
L 545.13 210.739955 
L 546.804 220.309349 
L 548.478 219.063595 
L 550.152 209.345062 
L 551.826 174.225567 
L 553.5 133.153053 
L 555.174 109.388426 
L 556.848 141.874106 
L 558.522 164.908153 
L 560.196 176.314466 
L 561.87 207.29038 
L 563.544 185.82563 
L 565.218 176.405373 
L 566.892 162.002772 
L 568.566 178.745242 
L 570.24 160.475536 
L 571.914 121.940875 
L 573.588 135.014515 
L 575.262 165.669389 
L 576.936 147.350499 
L 578.61 169.121948 
L 580.284 167.666899 
L 581.958 180.990835 
L 583.632 197.102968 
L 585.306 205.830278 
L 586.98 210.502074 
L 588.654 212.107176 
L 590.328 204.691167 
L 592.002 169.598237 
L 593.676 136.929154 
L 595.35 112.988679 
L 597.024 97.398265 
L 598.698 88.049811 
L 600.372 98.15156 
L 602.046 120.262336 
L 603.72 108.31515 
L 605.394 107.853875 
L 607.068 104.854121 
L 608.742 103.917231 
L 610.416 115.537265 
L 612.09 89.201434 
L 613.764 73.022599 
L 615.438 90.089382 
L 617.112 115.420851 
L 620.46 169.819515 
L 622.134 185.617009 
L 623.808 198.213204 
L 625.482 205.204753 
L 627.156 213.429545 
L 628.83 215.734764 
L 630.504 207.041768 
L 632.178 170.474202 
L 633.852 142.174934 
L 635.526 118.184409 
L 637.2 101.050012 
L 638.874 91.542361 
L 640.548 106.524047 
L 642.222 111.646387 
L 643.896 109.318453 
L 645.57 110.303468 
L 647.244 97.972537 
L 648.918 107.927843 
L 650.592 122.192375 
L 652.266 92.527569 
L 653.94 77.227924 
L 655.614 96.971063 
L 657.288 124.830761 
L 660.636 176.007142 
L 662.31 191.055817 
L 663.984 204.243463 
L 665.658 215.342019 
L 667.332 221.824843 
L 669.006 224.41496 
L 670.68 223.082268 
L 672.354 197.859584 
L 674.028 187.688294 
L 675.702 163.491267 
L 677.376 150.573407 
L 679.05 142.589672 
L 680.724 153.877117 
L 682.398 161.081618 
L 684.072 163.093998 
L 685.746 167.683213 
L 687.42 167.222708 
L 689.094 175.487155 
L 690.768 198.317779 
L 692.442 189.78677 
L 694.116 173.866413 
L 695.79 199.512569 
L 697.464 220.531589 
L 699.138 250.077936 
L 700.812 274.427229 
L 702.486 291.536674 
L 704.16 307.232433 
L 707.508 329.976385 
L 709.182 337.71608 
L 710.856 342.818785 
L 712.53 355.161555 
L 714.204 359.796417 
L 715.878 339.151518 
L 717.552 333.210217 
L 719.226 336.560415 
L 720.9 325.845725 
L 722.574 297.056403 
L 724.248 276.640747 
L 725.922 259.60077 
L 727.596 238.248102 
L 729.27 205.910309 
L 730.944 186.94395 
L 732.618 160.566491 
L 734.292 137.453376 
L 735.966 147.735833 
L 737.64 171.504118 
L 740.988 206.681458 
L 742.662 222.023164 
L 744.336 231.345607 
L 746.01 238.085585 
L 747.684 246.401814 
L 749.358 250.423134 
L 751.032 247.175634 
L 752.706 211.254215 
L 754.38 199.814119 
L 756.054 181.077074 
L 757.728 149.5561 
L 759.402 140.900256 
L 761.076 157.27799 
L 762.75 167.393503 
L 764.424 153.346687 
L 766.098 155.519659 
L 767.772 152.129999 
L 769.446 149.178899 
L 771.12 153.627927 
L 772.794 118.150915 
L 774.468 101.892963 
L 776.142 112.153428 
L 777.816 123.69781 
L 779.49 151.190077 
L 781.164 187.786854 
L 782.838 205.902801 
L 784.512 215.273489 
L 787.86 227.902096 
L 789.534 228.289884 
L 791.208 218.353227 
L 792.882 185.804407 
L 794.556 158.448044 
L 796.23 128.460515 
L 797.904 115.275274 
L 799.578 103.902023 
L 801.252 122.884022 
L 802.926 129.344179 
L 804.6 124.375309 
L 806.274 125.122348 
L 807.948 115.169159 
L 809.622 117.838345 
L 811.296 121.391677 
L 812.97 94.61589 
L 814.644 80.293801 
L 816.318 100.246041 
L 817.992 117.282698 
L 819.666 151.265295 
L 821.34 188.389759 
L 823.014 205.575313 
L 824.688 213.630225 
L 826.362 218.50275 
L 828.036 226.304237 
L 829.71 226.199855 
L 831.384 217.238226 
L 833.058 179.851435 
L 834.732 150.072574 
L 836.406 122.536129 
L 838.08 108.005372 
L 839.754 96.687849 
L 841.428 116.118947 
L 843.102 122.528477 
L 844.776 120.829677 
L 846.45 121.202499 
L 848.124 107.632261 
L 849.798 109.671014 
L 851.472 106.91198 
L 853.146 79.819485 
L 854.82 75.246247 
L 856.494 97.720171 
L 858.168 116.35317 
L 861.516 183.80526 
L 863.19 201.23062 
L 864.864 211.560865 
L 866.538 217.080618 
L 868.212 226.930219 
L 869.886 225.710908 
L 871.56 217.931462 
L 873.234 179.850136 
L 874.908 146.599274 
L 876.582 122.223752 
L 878.256 104.299196 
L 879.93 99.911094 
L 881.604 112.666148 
L 883.278 120.963464 
L 884.952 121.335323 
L 886.626 125.408112 
L 888.3 111.093579 
L 889.974 109.656769 
L 893.322 82.193955 
L 894.996 66.96 
L 896.67 94.251587 
L 898.344 116.635277 
L 901.692 185.555795 
L 903.366 202.102831 
L 905.04 213.851695 
L 906.714 219.73503 
L 908.388 225.12309 
L 910.062 225.471657 
L 911.736 215.40564 
L 913.41 179.820058 
L 915.084 147.850948 
L 916.758 118.656993 
L 918.432 104.160356 
L 920.106 106.635311 
L 921.78 121.961569 
L 923.454 159.902131 
L 925.128 151.181366 
L 926.802 156.394613 
L 928.476 140.268476 
L 930.15 167.864739 
L 931.824 143.253311 
L 933.498 112.353049 
L 935.172 140.504142 
L 936.846 198.096838 
L 938.52 192.227171 
L 940.194 230.646645 
L 941.868 215.044031 
L 943.542 200.719825 
L 945.216 210.703765 
L 946.89 217.036344 
L 948.564 222.537497 
L 950.238 223.912201 
L 951.912 221.103262 
L 953.586 187.459462 
L 955.26 149.244445 
L 956.934 123.260357 
L 958.608 105.870947 
L 960.282 94.164433 
L 961.956 111.536614 
L 963.63 192.452009 
L 965.304 216.850871 
L 966.978 232.483852 
L 968.652 228.55688 
L 970.326 218.97673 
L 970.326 218.97673 
" clip-path="url(#p1557a2fdc8)" style="fill: none; stroke: #ff7f0e; stroke-width: 1.5; stroke-linecap: square"/>
   </g>
   <g id="patch_3">
    <path d="M 135 384.48 
L 135 51.84 
" style="fill: none; stroke: #000000; stroke-width: 0.8; stroke-linejoin: miter; stroke-linecap: square"/>
   </g>
   <g id="patch_4">
    <path d="M 972 384.48 
L 972 51.84 
" style="fill: none; stroke: #000000; stroke-width: 0.8; stroke-linejoin: miter; stroke-linecap: square"/>
   </g>
   <g id="patch_5">
    <path d="M 135 384.48 
L 972 384.48 
" style="fill: none; stroke: #000000; stroke-width: 0.8; stroke-linejoin: miter; stroke-linecap: square"/>
   </g>
   <g id="patch_6">
    <path d="M 135 51.84 
L 972 51.84 
" style="fill: none; stroke: #000000; stroke-width: 0.8; stroke-linejoin: miter; stroke-linecap: square"/>
   </g>
  </g>
 </g>
 <defs>
  <clipPath id="p1557a2fdc8">
   <rect x="135" y="51.84" width="837" height="332.64"/>
  </clipPath>
 </defs>
</svg>
