<?xml version="1.0" encoding="utf-8" standalone="no"?>
<!DOCTYPE svg PUBLIC "-//W3C//DTD SVG 1.1//EN"
  "http://www.w3.org/Graphics/SVG/1.1/DTD/svg11.dtd">
<svg xmlns:xlink="http://www.w3.org/1999/xlink" width="1080pt" height="432pt" viewBox="0 0 1080 432" xmlns="http://www.w3.org/2000/svg" version="1.1">
 <metadata>
  <rdf:RDF xmlns:dc="http://purl.org/dc/elements/1.1/" xmlns:cc="http://creativecommons.org/ns#" xmlns:rdf="http://www.w3.org/1999/02/22-rdf-syntax-ns#">
   <cc:Work>
    <dc:type rdf:resource="http://purl.org/dc/dcmitype/StillImage"/>
    <dc:date>2024-02-17T11:50:45.719218</dc:date>
    <dc:format>image/svg+xml</dc:format>
    <dc:creator>
     <cc:Agent>
      <dc:title>Matplotlib v3.7.1, https://matplotlib.org/</dc:title>
     </cc:Agent>
    </dc:creator>
   </cc:Work>
  </rdf:RDF>
 </metadata>
 <defs>
  <style type="text/css">*{stroke-linejoin: round; stroke-linecap: butt}</style>
 </defs>
 <g id="figure_1">
  <g id="patch_1">
   <path d="M 0 432 
L 1080 432 
L 1080 0 
L 0 0 
z
" style="fill: #ffffff"/>
  </g>
  <g id="axes_1">
   <g id="patch_2">
    <path d="M 135 384.48 
L 972 384.48 
L 972 51.84 
L 135 51.84 
z
" style="fill: #ffffff"/>
   </g>
   <g id="matplotlib.axis_1">
    <g id="xtick_1">
     <g id="line2d_1">
      <defs>
       <path id="m74efe03060" d="M 0 0 
L 0 3.5 
" style="stroke: #000000; stroke-width: 0.8"/>
      </defs>
      <g>
       <use xlink:href="#m74efe03060" x="173.045455" y="384.48" style="stroke: #000000; stroke-width: 0.8"/>
      </g>
     </g>
     <g id="text_1">
      <!-- 0 -->
      <g transform="translate(169.864205 399.078438) scale(0.1 -0.1)">
       <defs>
        <path id="DejaVuSans-30" d="M 2034 4250 
Q 1547 4250 1301 3770 
Q 1056 3291 1056 2328 
Q 1056 1369 1301 889 
Q 1547 409 2034 409 
Q 2525 409 2770 889 
Q 3016 1369 3016 2328 
Q 3016 3291 2770 3770 
Q 2525 4250 2034 4250 
z
M 2034 4750 
Q 2819 4750 3233 4129 
Q 3647 3509 3647 2328 
Q 3647 1150 3233 529 
Q 2819 -91 2034 -91 
Q 1250 -91 836 529 
Q 422 1150 422 2328 
Q 422 3509 836 4129 
Q 1250 4750 2034 4750 
z
" transform="scale(0.015625)"/>
       </defs>
       <use xlink:href="#DejaVuSans-30"/>
      </g>
     </g>
    </g>
    <g id="xtick_2">
     <g id="line2d_2">
      <g>
       <use xlink:href="#m74efe03060" x="286.613976" y="384.48" style="stroke: #000000; stroke-width: 0.8"/>
      </g>
     </g>
     <g id="text_2">
      <!-- 100 -->
      <g transform="translate(277.070226 399.078438) scale(0.1 -0.1)">
       <defs>
        <path id="DejaVuSans-31" d="M 794 531 
L 1825 531 
L 1825 4091 
L 703 3866 
L 703 4441 
L 1819 4666 
L 2450 4666 
L 2450 531 
L 3481 531 
L 3481 0 
L 794 0 
L 794 531 
z
" transform="scale(0.015625)"/>
       </defs>
       <use xlink:href="#DejaVuSans-31"/>
       <use xlink:href="#DejaVuSans-30" x="63.623047"/>
       <use xlink:href="#DejaVuSans-30" x="127.246094"/>
      </g>
     </g>
    </g>
    <g id="xtick_3">
     <g id="line2d_3">
      <g>
       <use xlink:href="#m74efe03060" x="400.182497" y="384.48" style="stroke: #000000; stroke-width: 0.8"/>
      </g>
     </g>
     <g id="text_3">
      <!-- 200 -->
      <g transform="translate(390.638747 399.078438) scale(0.1 -0.1)">
       <defs>
        <path id="DejaVuSans-32" d="M 1228 531 
L 3431 531 
L 3431 0 
L 469 0 
L 469 531 
Q 828 903 1448 1529 
Q 2069 2156 2228 2338 
Q 2531 2678 2651 2914 
Q 2772 3150 2772 3378 
Q 2772 3750 2511 3984 
Q 2250 4219 1831 4219 
Q 1534 4219 1204 4116 
Q 875 4013 500 3803 
L 500 4441 
Q 881 4594 1212 4672 
Q 1544 4750 1819 4750 
Q 2544 4750 2975 4387 
Q 3406 4025 3406 3419 
Q 3406 3131 3298 2873 
Q 3191 2616 2906 2266 
Q 2828 2175 2409 1742 
Q 1991 1309 1228 531 
z
" transform="scale(0.015625)"/>
       </defs>
       <use xlink:href="#DejaVuSans-32"/>
       <use xlink:href="#DejaVuSans-30" x="63.623047"/>
       <use xlink:href="#DejaVuSans-30" x="127.246094"/>
      </g>
     </g>
    </g>
    <g id="xtick_4">
     <g id="line2d_4">
      <g>
       <use xlink:href="#m74efe03060" x="513.751018" y="384.48" style="stroke: #000000; stroke-width: 0.8"/>
      </g>
     </g>
     <g id="text_4">
      <!-- 300 -->
      <g transform="translate(504.207268 399.078438) scale(0.1 -0.1)">
       <defs>
        <path id="DejaVuSans-33" d="M 2597 2516 
Q 3050 2419 3304 2112 
Q 3559 1806 3559 1356 
Q 3559 666 3084 287 
Q 2609 -91 1734 -91 
Q 1441 -91 1130 -33 
Q 819 25 488 141 
L 488 750 
Q 750 597 1062 519 
Q 1375 441 1716 441 
Q 2309 441 2620 675 
Q 2931 909 2931 1356 
Q 2931 1769 2642 2001 
Q 2353 2234 1838 2234 
L 1294 2234 
L 1294 2753 
L 1863 2753 
Q 2328 2753 2575 2939 
Q 2822 3125 2822 3475 
Q 2822 3834 2567 4026 
Q 2313 4219 1838 4219 
Q 1578 4219 1281 4162 
Q 984 4106 628 3988 
L 628 4550 
Q 988 4650 1302 4700 
Q 1616 4750 1894 4750 
Q 2613 4750 3031 4423 
Q 3450 4097 3450 3541 
Q 3450 3153 3228 2886 
Q 3006 2619 2597 2516 
z
" transform="scale(0.015625)"/>
       </defs>
       <use xlink:href="#DejaVuSans-33"/>
       <use xlink:href="#DejaVuSans-30" x="63.623047"/>
       <use xlink:href="#DejaVuSans-30" x="127.246094"/>
      </g>
     </g>
    </g>
    <g id="xtick_5">
     <g id="line2d_5">
      <g>
       <use xlink:href="#m74efe03060" x="627.319539" y="384.48" style="stroke: #000000; stroke-width: 0.8"/>
      </g>
     </g>
     <g id="text_5">
      <!-- 400 -->
      <g transform="translate(617.775789 399.078438) scale(0.1 -0.1)">
       <defs>
        <path id="DejaVuSans-34" d="M 2419 4116 
L 825 1625 
L 2419 1625 
L 2419 4116 
z
M 2253 4666 
L 3047 4666 
L 3047 1625 
L 3713 1625 
L 3713 1100 
L 3047 1100 
L 3047 0 
L 2419 0 
L 2419 1100 
L 313 1100 
L 313 1709 
L 2253 4666 
z
" transform="scale(0.015625)"/>
       </defs>
       <use xlink:href="#DejaVuSans-34"/>
       <use xlink:href="#DejaVuSans-30" x="63.623047"/>
       <use xlink:href="#DejaVuSans-30" x="127.246094"/>
      </g>
     </g>
    </g>
    <g id="xtick_6">
     <g id="line2d_6">
      <g>
       <use xlink:href="#m74efe03060" x="740.88806" y="384.48" style="stroke: #000000; stroke-width: 0.8"/>
      </g>
     </g>
     <g id="text_6">
      <!-- 500 -->
      <g transform="translate(731.34431 399.078438) scale(0.1 -0.1)">
       <defs>
        <path id="DejaVuSans-35" d="M 691 4666 
L 3169 4666 
L 3169 4134 
L 1269 4134 
L 1269 2991 
Q 1406 3038 1543 3061 
Q 1681 3084 1819 3084 
Q 2600 3084 3056 2656 
Q 3513 2228 3513 1497 
Q 3513 744 3044 326 
Q 2575 -91 1722 -91 
Q 1428 -91 1123 -41 
Q 819 9 494 109 
L 494 744 
Q 775 591 1075 516 
Q 1375 441 1709 441 
Q 2250 441 2565 725 
Q 2881 1009 2881 1497 
Q 2881 1984 2565 2268 
Q 2250 2553 1709 2553 
Q 1456 2553 1204 2497 
Q 953 2441 691 2322 
L 691 4666 
z
" transform="scale(0.015625)"/>
       </defs>
       <use xlink:href="#DejaVuSans-35"/>
       <use xlink:href="#DejaVuSans-30" x="63.623047"/>
       <use xlink:href="#DejaVuSans-30" x="127.246094"/>
      </g>
     </g>
    </g>
    <g id="xtick_7">
     <g id="line2d_7">
      <g>
       <use xlink:href="#m74efe03060" x="854.456581" y="384.48" style="stroke: #000000; stroke-width: 0.8"/>
      </g>
     </g>
     <g id="text_7">
      <!-- 600 -->
      <g transform="translate(844.912831 399.078438) scale(0.1 -0.1)">
       <defs>
        <path id="DejaVuSans-36" d="M 2113 2584 
Q 1688 2584 1439 2293 
Q 1191 2003 1191 1497 
Q 1191 994 1439 701 
Q 1688 409 2113 409 
Q 2538 409 2786 701 
Q 3034 994 3034 1497 
Q 3034 2003 2786 2293 
Q 2538 2584 2113 2584 
z
M 3366 4563 
L 3366 3988 
Q 3128 4100 2886 4159 
Q 2644 4219 2406 4219 
Q 1781 4219 1451 3797 
Q 1122 3375 1075 2522 
Q 1259 2794 1537 2939 
Q 1816 3084 2150 3084 
Q 2853 3084 3261 2657 
Q 3669 2231 3669 1497 
Q 3669 778 3244 343 
Q 2819 -91 2113 -91 
Q 1303 -91 875 529 
Q 447 1150 447 2328 
Q 447 3434 972 4092 
Q 1497 4750 2381 4750 
Q 2619 4750 2861 4703 
Q 3103 4656 3366 4563 
z
" transform="scale(0.015625)"/>
       </defs>
       <use xlink:href="#DejaVuSans-36"/>
       <use xlink:href="#DejaVuSans-30" x="63.623047"/>
       <use xlink:href="#DejaVuSans-30" x="127.246094"/>
      </g>
     </g>
    </g>
    <g id="xtick_8">
     <g id="line2d_8">
      <g>
       <use xlink:href="#m74efe03060" x="968.025102" y="384.48" style="stroke: #000000; stroke-width: 0.8"/>
      </g>
     </g>
     <g id="text_8">
      <!-- 700 -->
      <g transform="translate(958.481352 399.078438) scale(0.1 -0.1)">
       <defs>
        <path id="DejaVuSans-37" d="M 525 4666 
L 3525 4666 
L 3525 4397 
L 1831 0 
L 1172 0 
L 2766 4134 
L 525 4134 
L 525 4666 
z
" transform="scale(0.015625)"/>
       </defs>
       <use xlink:href="#DejaVuSans-37"/>
       <use xlink:href="#DejaVuSans-30" x="63.623047"/>
       <use xlink:href="#DejaVuSans-30" x="127.246094"/>
      </g>
     </g>
    </g>
    <g id="text_9">
     <!-- time step -->
     <g transform="translate(529.799219 412.756563) scale(0.1 -0.1)">
      <defs>
       <path id="DejaVuSans-74" d="M 1172 4494 
L 1172 3500 
L 2356 3500 
L 2356 3053 
L 1172 3053 
L 1172 1153 
Q 1172 725 1289 603 
Q 1406 481 1766 481 
L 2356 481 
L 2356 0 
L 1766 0 
Q 1100 0 847 248 
Q 594 497 594 1153 
L 594 3053 
L 172 3053 
L 172 3500 
L 594 3500 
L 594 4494 
L 1172 4494 
z
" transform="scale(0.015625)"/>
       <path id="DejaVuSans-69" d="M 603 3500 
L 1178 3500 
L 1178 0 
L 603 0 
L 603 3500 
z
M 603 4863 
L 1178 4863 
L 1178 4134 
L 603 4134 
L 603 4863 
z
" transform="scale(0.015625)"/>
       <path id="DejaVuSans-6d" d="M 3328 2828 
Q 3544 3216 3844 3400 
Q 4144 3584 4550 3584 
Q 5097 3584 5394 3201 
Q 5691 2819 5691 2113 
L 5691 0 
L 5113 0 
L 5113 2094 
Q 5113 2597 4934 2840 
Q 4756 3084 4391 3084 
Q 3944 3084 3684 2787 
Q 3425 2491 3425 1978 
L 3425 0 
L 2847 0 
L 2847 2094 
Q 2847 2600 2669 2842 
Q 2491 3084 2119 3084 
Q 1678 3084 1418 2786 
Q 1159 2488 1159 1978 
L 1159 0 
L 581 0 
L 581 3500 
L 1159 3500 
L 1159 2956 
Q 1356 3278 1631 3431 
Q 1906 3584 2284 3584 
Q 2666 3584 2933 3390 
Q 3200 3197 3328 2828 
z
" transform="scale(0.015625)"/>
       <path id="DejaVuSans-65" d="M 3597 1894 
L 3597 1613 
L 953 1613 
Q 991 1019 1311 708 
Q 1631 397 2203 397 
Q 2534 397 2845 478 
Q 3156 559 3463 722 
L 3463 178 
Q 3153 47 2828 -22 
Q 2503 -91 2169 -91 
Q 1331 -91 842 396 
Q 353 884 353 1716 
Q 353 2575 817 3079 
Q 1281 3584 2069 3584 
Q 2775 3584 3186 3129 
Q 3597 2675 3597 1894 
z
M 3022 2063 
Q 3016 2534 2758 2815 
Q 2500 3097 2075 3097 
Q 1594 3097 1305 2825 
Q 1016 2553 972 2059 
L 3022 2063 
z
" transform="scale(0.015625)"/>
       <path id="DejaVuSans-20" transform="scale(0.015625)"/>
       <path id="DejaVuSans-73" d="M 2834 3397 
L 2834 2853 
Q 2591 2978 2328 3040 
Q 2066 3103 1784 3103 
Q 1356 3103 1142 2972 
Q 928 2841 928 2578 
Q 928 2378 1081 2264 
Q 1234 2150 1697 2047 
L 1894 2003 
Q 2506 1872 2764 1633 
Q 3022 1394 3022 966 
Q 3022 478 2636 193 
Q 2250 -91 1575 -91 
Q 1294 -91 989 -36 
Q 684 19 347 128 
L 347 722 
Q 666 556 975 473 
Q 1284 391 1588 391 
Q 1994 391 2212 530 
Q 2431 669 2431 922 
Q 2431 1156 2273 1281 
Q 2116 1406 1581 1522 
L 1381 1569 
Q 847 1681 609 1914 
Q 372 2147 372 2553 
Q 372 3047 722 3315 
Q 1072 3584 1716 3584 
Q 2034 3584 2315 3537 
Q 2597 3491 2834 3397 
z
" transform="scale(0.015625)"/>
       <path id="DejaVuSans-70" d="M 1159 525 
L 1159 -1331 
L 581 -1331 
L 581 3500 
L 1159 3500 
L 1159 2969 
Q 1341 3281 1617 3432 
Q 1894 3584 2278 3584 
Q 2916 3584 3314 3078 
Q 3713 2572 3713 1747 
Q 3713 922 3314 415 
Q 2916 -91 2278 -91 
Q 1894 -91 1617 61 
Q 1341 213 1159 525 
z
M 3116 1747 
Q 3116 2381 2855 2742 
Q 2594 3103 2138 3103 
Q 1681 3103 1420 2742 
Q 1159 2381 1159 1747 
Q 1159 1113 1420 752 
Q 1681 391 2138 391 
Q 2594 391 2855 752 
Q 3116 1113 3116 1747 
z
" transform="scale(0.015625)"/>
      </defs>
      <use xlink:href="#DejaVuSans-74"/>
      <use xlink:href="#DejaVuSans-69" x="39.208984"/>
      <use xlink:href="#DejaVuSans-6d" x="66.992188"/>
      <use xlink:href="#DejaVuSans-65" x="164.404297"/>
      <use xlink:href="#DejaVuSans-20" x="225.927734"/>
      <use xlink:href="#DejaVuSans-73" x="257.714844"/>
      <use xlink:href="#DejaVuSans-74" x="309.814453"/>
      <use xlink:href="#DejaVuSans-65" x="349.023438"/>
      <use xlink:href="#DejaVuSans-70" x="410.546875"/>
     </g>
    </g>
   </g>
   <g id="matplotlib.axis_2">
    <g id="ytick_1">
     <g id="line2d_9">
      <defs>
       <path id="m51810c56de" d="M 0 0 
L -3.5 0 
" style="stroke: #000000; stroke-width: 0.8"/>
      </defs>
      <g>
       <use xlink:href="#m51810c56de" x="135" y="380.501201" style="stroke: #000000; stroke-width: 0.8"/>
      </g>
     </g>
     <g id="text_10">
      <!-- 250 -->
      <g transform="translate(108.9125 384.300419) scale(0.1 -0.1)">
       <use xlink:href="#DejaVuSans-32"/>
       <use xlink:href="#DejaVuSans-35" x="63.623047"/>
       <use xlink:href="#DejaVuSans-30" x="127.246094"/>
      </g>
     </g>
    </g>
    <g id="ytick_2">
     <g id="line2d_10">
      <g>
       <use xlink:href="#m51810c56de" x="135" y="341.905739" style="stroke: #000000; stroke-width: 0.8"/>
      </g>
     </g>
     <g id="text_11">
      <!-- 275 -->
      <g transform="translate(108.9125 345.704958) scale(0.1 -0.1)">
       <use xlink:href="#DejaVuSans-32"/>
       <use xlink:href="#DejaVuSans-37" x="63.623047"/>
       <use xlink:href="#DejaVuSans-35" x="127.246094"/>
      </g>
     </g>
    </g>
    <g id="ytick_3">
     <g id="line2d_11">
      <g>
       <use xlink:href="#m51810c56de" x="135" y="303.310277" style="stroke: #000000; stroke-width: 0.8"/>
      </g>
     </g>
     <g id="text_12">
      <!-- 300 -->
      <g transform="translate(108.9125 307.109496) scale(0.1 -0.1)">
       <use xlink:href="#DejaVuSans-33"/>
       <use xlink:href="#DejaVuSans-30" x="63.623047"/>
       <use xlink:href="#DejaVuSans-30" x="127.246094"/>
      </g>
     </g>
    </g>
    <g id="ytick_4">
     <g id="line2d_12">
      <g>
       <use xlink:href="#m51810c56de" x="135" y="264.714816" style="stroke: #000000; stroke-width: 0.8"/>
      </g>
     </g>
     <g id="text_13">
      <!-- 325 -->
      <g transform="translate(108.9125 268.514034) scale(0.1 -0.1)">
       <use xlink:href="#DejaVuSans-33"/>
       <use xlink:href="#DejaVuSans-32" x="63.623047"/>
       <use xlink:href="#DejaVuSans-35" x="127.246094"/>
      </g>
     </g>
    </g>
    <g id="ytick_5">
     <g id="line2d_13">
      <g>
       <use xlink:href="#m51810c56de" x="135" y="226.119354" style="stroke: #000000; stroke-width: 0.8"/>
      </g>
     </g>
     <g id="text_14">
      <!-- 350 -->
      <g transform="translate(108.9125 229.918573) scale(0.1 -0.1)">
       <use xlink:href="#DejaVuSans-33"/>
       <use xlink:href="#DejaVuSans-35" x="63.623047"/>
       <use xlink:href="#DejaVuSans-30" x="127.246094"/>
      </g>
     </g>
    </g>
    <g id="ytick_6">
     <g id="line2d_14">
      <g>
       <use xlink:href="#m51810c56de" x="135" y="187.523892" style="stroke: #000000; stroke-width: 0.8"/>
      </g>
     </g>
     <g id="text_15">
      <!-- 375 -->
      <g transform="translate(108.9125 191.323111) scale(0.1 -0.1)">
       <use xlink:href="#DejaVuSans-33"/>
       <use xlink:href="#DejaVuSans-37" x="63.623047"/>
       <use xlink:href="#DejaVuSans-35" x="127.246094"/>
      </g>
     </g>
    </g>
    <g id="ytick_7">
     <g id="line2d_15">
      <g>
       <use xlink:href="#m51810c56de" x="135" y="148.928431" style="stroke: #000000; stroke-width: 0.8"/>
      </g>
     </g>
     <g id="text_16">
      <!-- 400 -->
      <g transform="translate(108.9125 152.72765) scale(0.1 -0.1)">
       <use xlink:href="#DejaVuSans-34"/>
       <use xlink:href="#DejaVuSans-30" x="63.623047"/>
       <use xlink:href="#DejaVuSans-30" x="127.246094"/>
      </g>
     </g>
    </g>
    <g id="ytick_8">
     <g id="line2d_16">
      <g>
       <use xlink:href="#m51810c56de" x="135" y="110.332969" style="stroke: #000000; stroke-width: 0.8"/>
      </g>
     </g>
     <g id="text_17">
      <!-- 425 -->
      <g transform="translate(108.9125 114.132188) scale(0.1 -0.1)">
       <use xlink:href="#DejaVuSans-34"/>
       <use xlink:href="#DejaVuSans-32" x="63.623047"/>
       <use xlink:href="#DejaVuSans-35" x="127.246094"/>
      </g>
     </g>
    </g>
    <g id="ytick_9">
     <g id="line2d_17">
      <g>
       <use xlink:href="#m51810c56de" x="135" y="71.737508" style="stroke: #000000; stroke-width: 0.8"/>
      </g>
     </g>
     <g id="text_18">
      <!-- 450 -->
      <g transform="translate(108.9125 75.536726) scale(0.1 -0.1)">
       <use xlink:href="#DejaVuSans-34"/>
       <use xlink:href="#DejaVuSans-35" x="63.623047"/>
       <use xlink:href="#DejaVuSans-30" x="127.246094"/>
      </g>
     </g>
    </g>
    <g id="text_19">
     <!-- Load -->
     <g transform="translate(102.832812 230.156094) rotate(-90) scale(0.1 -0.1)">
      <defs>
       <path id="DejaVuSans-4c" d="M 628 4666 
L 1259 4666 
L 1259 531 
L 3531 531 
L 3531 0 
L 628 0 
L 628 4666 
z
" transform="scale(0.015625)"/>
       <path id="DejaVuSans-6f" d="M 1959 3097 
Q 1497 3097 1228 2736 
Q 959 2375 959 1747 
Q 959 1119 1226 758 
Q 1494 397 1959 397 
Q 2419 397 2687 759 
Q 2956 1122 2956 1747 
Q 2956 2369 2687 2733 
Q 2419 3097 1959 3097 
z
M 1959 3584 
Q 2709 3584 3137 3096 
Q 3566 2609 3566 1747 
Q 3566 888 3137 398 
Q 2709 -91 1959 -91 
Q 1206 -91 779 398 
Q 353 888 353 1747 
Q 353 2609 779 3096 
Q 1206 3584 1959 3584 
z
" transform="scale(0.015625)"/>
       <path id="DejaVuSans-61" d="M 2194 1759 
Q 1497 1759 1228 1600 
Q 959 1441 959 1056 
Q 959 750 1161 570 
Q 1363 391 1709 391 
Q 2188 391 2477 730 
Q 2766 1069 2766 1631 
L 2766 1759 
L 2194 1759 
z
M 3341 1997 
L 3341 0 
L 2766 0 
L 2766 531 
Q 2569 213 2275 61 
Q 1981 -91 1556 -91 
Q 1019 -91 701 211 
Q 384 513 384 1019 
Q 384 1609 779 1909 
Q 1175 2209 1959 2209 
L 2766 2209 
L 2766 2266 
Q 2766 2663 2505 2880 
Q 2244 3097 1772 3097 
Q 1472 3097 1187 3025 
Q 903 2953 641 2809 
L 641 3341 
Q 956 3463 1253 3523 
Q 1550 3584 1831 3584 
Q 2591 3584 2966 3190 
Q 3341 2797 3341 1997 
z
" transform="scale(0.015625)"/>
       <path id="DejaVuSans-64" d="M 2906 2969 
L 2906 4863 
L 3481 4863 
L 3481 0 
L 2906 0 
L 2906 525 
Q 2725 213 2448 61 
Q 2172 -91 1784 -91 
Q 1150 -91 751 415 
Q 353 922 353 1747 
Q 353 2572 751 3078 
Q 1150 3584 1784 3584 
Q 2172 3584 2448 3432 
Q 2725 3281 2906 2969 
z
M 947 1747 
Q 947 1113 1208 752 
Q 1469 391 1925 391 
Q 2381 391 2643 752 
Q 2906 1113 2906 1747 
Q 2906 2381 2643 2742 
Q 2381 3103 1925 3103 
Q 1469 3103 1208 2742 
Q 947 2381 947 1747 
z
" transform="scale(0.015625)"/>
      </defs>
      <use xlink:href="#DejaVuSans-4c"/>
      <use xlink:href="#DejaVuSans-6f" x="53.962891"/>
      <use xlink:href="#DejaVuSans-61" x="115.144531"/>
      <use xlink:href="#DejaVuSans-64" x="176.423828"/>
     </g>
    </g>
   </g>
   <g id="line2d_18">
    <path d="M 173.045455 177.80789 
L 174.18114 172.315622 
L 176.45251 203.814362 
L 177.588195 205.957701 
L 178.723881 199.791662 
L 179.859566 160.013931 
L 180.995251 94.275712 
L 182.130936 99.443461 
L 183.266621 110.362745 
L 184.402307 145.093572 
L 186.673677 243.052595 
L 187.809362 280.936876 
L 188.945047 314.601758 
L 190.080733 334.232064 
L 191.216418 344.648599 
L 192.352103 352.7495 
L 193.487788 356.133764 
L 194.623474 344.754274 
L 195.759159 303.48521 
L 196.894844 282.581706 
L 198.030529 240.714676 
L 199.166214 211.543348 
L 200.3019 199.156617 
L 201.437585 193.678672 
L 202.57327 208.304524 
L 203.708955 218.298732 
L 204.84464 216.491972 
L 205.980326 193.317876 
L 207.116011 147.746916 
L 208.251696 73.158265 
L 209.387381 94.163487 
L 210.523066 107.748364 
L 211.658752 140.277903 
L 213.930122 241.42727 
L 215.065807 279.424389 
L 216.201493 310.750646 
L 217.337178 331.527319 
L 218.472863 343.305013 
L 219.608548 351.641152 
L 220.744233 353.25875 
L 221.879919 337.551029 
L 223.015604 294.173207 
L 224.151289 269.574866 
L 225.286974 231.581469 
L 226.422659 206.059561 
L 227.558345 204.793665 
L 228.69403 207.914046 
L 229.829715 217.502041 
L 230.9654 222.352763 
L 232.101085 222.808917 
L 233.236771 197.664388 
L 234.372456 146.465662 
L 235.508141 68.56337 
L 236.643826 91.7304 
L 237.779512 108.266472 
L 238.915197 143.304009 
L 240.050882 196.107284 
L 241.186567 241.22454 
L 243.457938 306.580432 
L 244.593623 327.572934 
L 245.729308 339.905625 
L 246.864993 349.491406 
L 248.000678 350.460485 
L 249.136364 331.512573 
L 250.272049 290.211424 
L 251.407734 271.596982 
L 252.543419 232.943429 
L 253.679104 211.858397 
L 254.81479 207.288142 
L 255.950475 204.585282 
L 257.08616 217.15439 
L 258.221845 227.302895 
L 259.357531 222.803075 
L 260.493216 204.862027 
L 261.628901 148.413008 
L 262.764586 70.371166 
L 263.900271 93.934138 
L 265.035957 107.696633 
L 266.171642 144.137025 
L 268.443012 241.576997 
L 269.578697 277.351437 
L 270.714383 306.349623 
L 271.850068 326.004852 
L 272.985753 338.744605 
L 274.121438 348.703148 
L 275.257123 349.920328 
L 276.392809 330.874985 
L 277.528494 288.994998 
L 278.664179 263.837089 
L 279.799864 222.686563 
L 280.93555 198.962415 
L 282.071235 196.557454 
L 283.20692 202.565004 
L 284.342605 210.711369 
L 285.47829 216.112143 
L 286.613976 212.606137 
L 287.749661 194.272162 
L 288.885346 141.906149 
L 290.021031 71.048471 
L 291.156716 92.265751 
L 292.292402 109.556254 
L 293.428087 144.51921 
L 294.563772 194.511735 
L 295.699457 238.386417 
L 297.970828 300.05501 
L 299.106513 320.590839 
L 300.242198 334.285208 
L 301.377883 344.446528 
L 302.513569 346.885788 
L 303.649254 332.309075 
L 304.784939 304.066451 
L 305.920624 292.74689 
L 307.056309 241.698456 
L 308.191995 210.443387 
L 309.32768 202.889616 
L 310.463365 207.809643 
L 311.59905 219.291227 
L 312.734735 236.665545 
L 313.870421 231.739253 
L 315.006106 218.147167 
L 316.141791 168.776825 
L 317.277476 88.978777 
L 318.413161 102.670131 
L 319.548847 122.645638 
L 320.684532 154.029844 
L 321.820217 205.265273 
L 322.955902 250.541584 
L 324.091588 282.507455 
L 325.227273 310.751164 
L 326.362958 333.221053 
L 327.498643 346.08627 
L 328.634328 355.454386 
L 329.770014 360.087867 
L 330.905699 347.929825 
L 332.041384 330.121968 
L 333.177069 343.204284 
L 334.312754 328.327646 
L 335.44844 296.766481 
L 336.584125 260.356572 
L 337.71981 246.169395 
L 338.855495 255.910556 
L 339.99118 269.524832 
L 341.126866 267.487263 
L 342.262551 246.958548 
L 343.398236 206.642073 
L 344.533921 127.51186 
L 345.669607 147.022686 
L 346.805292 147.679119 
L 347.940977 168.556192 
L 349.076662 202.158508 
L 351.348033 287.412547 
L 352.483718 326.501288 
L 353.619403 350.914943 
L 354.755088 361.885816 
L 355.890773 366.152141 
L 357.026459 366.20194 
L 358.162144 349.97187 
L 359.297829 310.863954 
L 360.433514 278.994571 
L 361.569199 237.143183 
L 362.704885 209.008919 
L 363.84057 199.872791 
L 364.976255 199.833593 
L 367.247626 224.712966 
L 368.383311 222.10683 
L 369.518996 212.39422 
L 370.654681 170.148726 
L 371.790366 92.620752 
L 372.926052 98.072408 
L 374.061737 111.736483 
L 375.197422 146.022323 
L 377.468792 241.759044 
L 379.740163 309.53177 
L 380.875848 330.236313 
L 382.011533 340.680597 
L 383.147218 349.809894 
L 384.282904 356.397694 
L 385.418589 336.61785 
L 386.554274 292.684135 
L 387.689959 263.710212 
L 388.825645 219.901348 
L 389.96133 192.780922 
L 391.097015 181.345792 
L 392.2327 183.073919 
L 393.368385 197.629854 
L 394.504071 210.380066 
L 395.639756 206.446175 
L 396.775441 195.793413 
L 397.911126 149.941844 
L 399.046811 71.765587 
L 400.182497 90.279395 
L 401.318182 103.088405 
L 402.453867 133.068391 
L 404.725237 235.603557 
L 405.860923 275.314575 
L 406.996608 307.944277 
L 408.132293 327.606479 
L 409.267978 337.032685 
L 410.403664 347.717531 
L 411.539349 351.151218 
L 412.675034 336.314344 
L 413.810719 292.977275 
L 414.946404 262.440925 
L 416.08209 223.825299 
L 417.217775 198.668332 
L 418.35346 189.444525 
L 419.489145 185.213724 
L 420.62483 199.491077 
L 421.760516 209.590631 
L 422.896201 203.772619 
L 424.031886 183.248757 
L 425.167571 127.837368 
L 426.303256 66.96 
L 428.574627 103.435632 
L 429.710312 142.348357 
L 430.845997 195.071962 
L 431.981682 240.984025 
L 434.253053 309.7908 
L 435.388738 331.233236 
L 436.524423 342.942003 
L 437.660109 350.951739 
L 438.795794 353.580866 
L 439.931479 338.026829 
L 441.067164 305.72876 
L 443.338535 264.173763 
L 444.47422 234.106994 
L 445.609905 207.987261 
L 446.74559 192.135089 
L 447.881275 203.648098 
L 449.016961 223.405469 
L 450.152646 217.706797 
L 451.288331 196.713542 
L 452.424016 150.944233 
L 453.559701 86.866203 
L 454.695387 95.509947 
L 455.831072 111.81554 
L 456.966757 144.208637 
L 459.238128 237.713304 
L 461.509498 307.736506 
L 462.645183 332.808103 
L 463.780868 345.431108 
L 464.916554 353.129848 
L 466.052239 358.501929 
L 467.187924 344.667067 
L 468.323609 311.423051 
L 469.459294 301.999294 
L 471.730665 215.707719 
L 472.86635 199.863086 
L 474.002035 195.896262 
L 476.273406 226.65937 
L 477.409091 222.192341 
L 478.544776 208.281815 
L 479.680461 161.082091 
L 480.816147 85.746595 
L 481.951832 91.856428 
L 483.087517 112.310044 
L 484.223202 137.311725 
L 486.494573 227.639145 
L 488.765943 292.806065 
L 489.901628 318.200766 
L 491.037313 332.142529 
L 492.172999 340.896424 
L 493.308684 344.678846 
L 494.444369 335.350824 
L 495.580054 303.128749 
L 496.715739 293.354278 
L 497.851425 243.734658 
L 498.98711 209.233368 
L 500.122795 201.595453 
L 501.25848 214.890157 
L 502.394166 213.48848 
L 503.529851 239.57057 
L 504.665536 233.08755 
L 505.801221 221.656283 
L 506.936906 176.334601 
L 508.072592 83.445708 
L 509.208277 102.369923 
L 510.343962 114.509684 
L 511.479647 143.522569 
L 513.751018 238.909142 
L 514.886703 272.252238 
L 516.022388 300.813539 
L 517.158073 323.291297 
L 518.293758 338.601474 
L 520.565129 353.780062 
L 521.700814 342.968245 
L 522.836499 324.19437 
L 523.972185 336.334037 
L 525.10787 318.67096 
L 527.37924 273.966231 
L 528.514925 268.121742 
L 529.650611 276.54212 
L 530.786296 283.015905 
L 531.921981 280.924815 
L 533.057666 265.245645 
L 534.193351 218.468058 
L 535.329037 116.261698 
L 536.464722 131.435622 
L 538.736092 157.976692 
L 539.871777 194.932365 
L 541.007463 236.662106 
L 543.278833 305.096966 
L 544.414518 329.98694 
L 545.550204 344.416423 
L 546.685889 352.434828 
L 547.821574 354.731474 
L 548.957259 341.954125 
L 550.092944 304.326282 
L 551.22863 277.817673 
L 552.364315 237.205231 
L 553.5 208.438044 
L 554.635685 202.082184 
L 555.77137 206.79769 
L 556.907056 222.557849 
L 558.042741 231.753104 
L 560.314111 222.170716 
L 561.449796 182.716279 
L 562.585482 96.465505 
L 563.721167 113.866489 
L 564.856852 141.678166 
L 565.992537 182.909586 
L 567.128223 229.985308 
L 568.263908 267.840709 
L 569.399593 280.589225 
L 570.535278 295.997775 
L 571.670963 321.795534 
L 572.806649 340.504204 
L 573.942334 354.089646 
L 575.078019 354.856608 
L 576.213704 349.084391 
L 577.349389 323.898403 
L 578.485075 302.78416 
L 579.62076 263.788044 
L 580.756445 231.825471 
L 581.89213 222.198372 
L 583.027815 215.836245 
L 584.163501 228.429522 
L 585.299186 232.791959 
L 586.434871 231.679748 
L 587.570556 219.70823 
L 588.706242 183.657185 
L 589.841927 101.631181 
L 590.977612 100.080955 
L 592.113297 108.977982 
L 593.248982 131.314587 
L 595.520353 232.314086 
L 596.656038 272.530067 
L 597.791723 303.255531 
L 598.927408 324.487464 
L 600.063094 338.157475 
L 601.198779 346.246362 
L 602.334464 349.936158 
L 603.470149 332.172729 
L 604.605834 287.981302 
L 605.74152 264.163587 
L 606.877205 230.196706 
L 608.01289 207.797864 
L 609.148575 204.995076 
L 610.284261 208.490199 
L 612.555631 230.378942 
L 613.691316 226.338621 
L 614.827001 209.643304 
L 615.962687 164.10881 
L 617.098372 72.539193 
L 618.234057 87.67095 
L 620.505427 138.886167 
L 622.776798 234.05564 
L 625.048168 299.055637 
L 626.183853 320.919268 
L 627.319539 335.212263 
L 628.455224 344.414397 
L 629.590909 349.424033 
L 630.726594 332.236379 
L 631.86228 290.135666 
L 632.997965 265.659538 
L 634.13365 230.226152 
L 635.269335 204.574964 
L 636.40502 202.254572 
L 637.540706 207.456573 
L 638.676391 213.530317 
L 639.812076 225.780796 
L 640.947761 220.732715 
L 642.083446 208.4559 
L 643.219132 163.755364 
L 644.354817 73.528013 
L 645.490502 85.767278 
L 646.626187 104.527537 
L 647.761872 133.473285 
L 650.033243 231.917766 
L 651.168928 267.62785 
L 652.304613 299.733083 
L 653.440299 320.327192 
L 654.575984 333.094789 
L 655.711669 342.16232 
L 656.847354 345.830632 
L 657.983039 331.013451 
L 659.118725 288.940017 
L 660.25441 265.153443 
L 661.390095 232.152298 
L 662.52578 210.817987 
L 663.661465 209.855786 
L 664.797151 206.667939 
L 665.932836 216.567684 
L 667.068521 228.422455 
L 668.204206 221.780097 
L 669.339891 209.184135 
L 670.475577 160.274093 
L 671.611262 75.698348 
L 672.746947 84.608425 
L 673.882632 108.112599 
L 675.018318 138.619457 
L 676.154003 188.759117 
L 677.289688 232.90621 
L 679.561058 296.232071 
L 680.696744 319.330739 
L 681.832429 333.909383 
L 682.968114 344.501698 
L 684.103799 349.005476 
L 685.239484 334.59776 
L 686.37517 300.367845 
L 687.510855 285.903639 
L 688.64654 236.16567 
L 689.782225 192.848106 
L 690.91791 174.812879 
L 692.053596 181.221271 
L 693.189281 196.09428 
L 694.324966 215.024148 
L 695.460651 212.105602 
L 696.596336 206.77663 
L 697.732022 164.392858 
L 698.867707 93.079639 
L 700.003392 100.629358 
L 701.139077 118.3738 
L 702.274763 144.050383 
L 704.546133 238.485308 
L 705.681818 273.65302 
L 706.817503 305.06295 
L 707.953189 330.3067 
L 709.088874 344.608175 
L 710.224559 353.343084 
L 711.360244 359.165288 
L 712.495929 356.122551 
L 713.631615 332.257486 
L 714.7673 338.144236 
L 715.902985 319.161554 
L 718.174355 265.033068 
L 719.310041 258.024496 
L 720.445726 268.242117 
L 721.581411 273.855231 
L 722.717096 270.04685 
L 723.852782 251.970869 
L 724.988467 198.464 
L 726.124152 128.304452 
L 727.259837 134.887494 
L 728.395522 146.549147 
L 729.531208 163.682903 
L 731.802578 241.298273 
L 734.073948 315.484432 
L 735.209634 340.601116 
L 736.345319 354.026514 
L 737.481004 359.561043 
L 738.616689 361.602569 
L 739.752374 347.713433 
L 740.88806 311.378717 
L 742.023745 281.599058 
L 743.15943 241.272077 
L 744.295115 214.77341 
L 745.430801 206.402312 
L 746.566486 206.304316 
L 747.702171 220.350623 
L 748.837856 231.839087 
L 749.973541 229.313185 
L 751.109227 222.213542 
L 752.244912 181.05251 
L 753.380597 100.93357 
L 754.516282 97.052964 
L 755.651967 113.361667 
L 756.787653 141.371551 
L 759.059023 237.162311 
L 760.194708 272.983347 
L 761.330393 305.10964 
L 762.466079 327.365351 
L 763.601764 338.650425 
L 764.737449 347.279987 
L 765.873134 350.047299 
L 767.00882 334.246528 
L 768.144505 291.074593 
L 769.28019 267.810368 
L 770.415875 235.502593 
L 771.55156 213.521696 
L 772.687246 206.911846 
L 773.822931 207.136483 
L 774.958616 216.075064 
L 776.094301 223.171645 
L 777.229986 220.176821 
L 778.365672 206.644476 
L 779.501357 160.090067 
L 780.637042 78.516589 
L 781.772727 87.060876 
L 782.908412 110.015235 
L 784.044098 136.967277 
L 786.315468 234.146993 
L 787.451153 272.806011 
L 788.586839 303.913944 
L 789.722524 324.962652 
L 790.858209 337.282057 
L 791.993894 346.032042 
L 793.129579 347.688604 
L 794.265265 329.865623 
L 795.40095 287.205388 
L 796.536635 262.443893 
L 797.67232 233.797882 
L 798.808005 208.792903 
L 799.943691 205.538673 
L 801.079376 203.720983 
L 803.350746 224.687336 
L 804.486431 222.771791 
L 805.622117 205.306544 
L 806.757802 151.79666 
L 807.893487 78.314472 
L 809.029172 85.736042 
L 810.164858 106.612832 
L 811.300543 139.571293 
L 813.571913 235.597197 
L 814.707598 270.86446 
L 815.843284 300.505982 
L 816.978969 321.828278 
L 818.114654 334.688689 
L 819.250339 344.068583 
L 820.386024 347.984666 
L 821.52171 328.82493 
L 822.657395 288.027191 
L 823.79308 265.026001 
L 824.928765 226.065362 
L 826.06445 196.825107 
L 827.200136 194.900846 
L 828.335821 191.437478 
L 829.471506 206.499084 
L 830.607191 213.081419 
L 831.742877 209.879814 
L 832.878562 197.226232 
L 834.014247 152.681971 
L 835.149932 74.008053 
L 836.285617 81.854305 
L 837.421303 102.355836 
L 838.556988 133.374535 
L 840.828358 230.990853 
L 841.964043 267.907233 
L 843.099729 299.122491 
L 844.235414 319.278443 
L 845.371099 331.975134 
L 846.506784 341.310176 
L 847.642469 343.752639 
L 848.778155 326.738929 
L 849.91384 284.639063 
L 851.049525 258.493135 
L 852.18521 225.722281 
L 853.320896 206.554254 
L 854.456581 202.305125 
L 855.592266 199.437273 
L 856.727951 208.403038 
L 857.863636 220.275477 
L 858.999322 215.109848 
L 860.135007 197.089885 
L 861.270692 149.897228 
L 862.406377 73.067996 
L 863.542062 84.548968 
L 864.677748 106.273002 
L 865.813433 136.31678 
L 868.084803 230.519811 
L 870.356174 295.126456 
L 871.491859 317.395972 
L 872.627544 330.933311 
L 873.763229 340.51961 
L 874.898915 344.801906 
L 876.0346 326.269065 
L 877.170285 294.143902 
L 878.30597 283.108766 
L 879.441655 239.623007 
L 880.577341 205.09034 
L 881.713026 193.180917 
L 882.848711 197.930816 
L 883.984396 212.670211 
L 885.120081 231.445028 
L 886.255767 228.841484 
L 887.391452 218.324409 
L 888.527137 182.227711 
L 889.662822 99.709606 
L 890.798507 98.461001 
L 893.069878 143.740281 
L 895.341248 238.489925 
L 896.476934 273.817399 
L 897.612619 303.864616 
L 898.748304 326.049374 
L 899.883989 338.546633 
L 901.019674 348.303672 
L 902.15536 355.830965 
L 903.291045 347.718992 
L 904.42673 326.793816 
L 905.562415 334.758229 
L 906.6981 316.088098 
L 907.833786 288.334937 
L 908.969471 263.444162 
L 910.105156 254.287728 
L 911.240841 263.646892 
L 912.376526 277.567924 
L 913.512212 273.204357 
L 914.647897 263.036535 
L 915.783582 217.152034 
L 916.919267 131.972246 
L 918.054953 127.850748 
L 919.190638 144.318977 
L 920.326323 155.754438 
L 922.597693 239.316533 
L 923.733379 281.0532 
L 924.869064 316.96573 
L 926.004749 340.321403 
L 927.140434 353.28537 
L 928.276119 359.200765 
L 929.411805 360.64343 
L 930.54749 347.100767 
L 931.683175 307.276677 
L 932.81886 272.614683 
L 933.954545 230.010608 
L 933.954545 230.010608 
" clip-path="url(#pf19d41811b)" style="fill: none; stroke: #1f77b4; stroke-width: 1.5; stroke-linecap: square"/>
   </g>
   <g id="line2d_19">
    <path d="M 173.045455 156.574471 
L 174.18114 165.559546 
L 175.316825 191.068736 
L 176.45251 206.103655 
L 177.588195 204.002083 
L 178.723881 171.409274 
L 179.859566 97.876434 
L 180.995251 84.016786 
L 182.130936 97.113344 
L 183.266621 122.35135 
L 184.402307 143.617542 
L 185.537992 174.149277 
L 186.673677 220.491946 
L 187.809362 277.094708 
L 188.945047 312.845428 
L 190.080733 332.983535 
L 191.216418 341.375701 
L 192.352103 344.733369 
L 193.487788 345.913716 
L 194.623474 333.600471 
L 195.759159 322.625242 
L 198.030529 233.43151 
L 199.166214 203.093793 
L 200.3019 184.552741 
L 201.437585 195.371559 
L 202.57327 214.839225 
L 203.708955 227.104784 
L 204.84464 218.418655 
L 205.980326 189.513683 
L 207.116011 105.602515 
L 208.251696 84.853181 
L 209.387381 100.431439 
L 210.523066 124.226026 
L 211.658752 144.813157 
L 212.794437 177.333826 
L 213.930122 223.343044 
L 215.065807 278.174088 
L 216.201493 316.447234 
L 217.337178 335.769028 
L 218.472863 343.740732 
L 219.608548 345.642491 
L 220.744233 344.510778 
L 223.015604 313.669432 
L 225.286974 229.06406 
L 226.422659 207.847071 
L 227.558345 198.137189 
L 228.69403 207.207365 
L 229.829715 220.694506 
L 230.9654 231.251339 
L 232.101085 220.868685 
L 233.236771 192.167828 
L 234.372456 107.424358 
L 235.508141 83.808805 
L 236.643826 98.92761 
L 238.915197 146.081812 
L 240.050882 173.0026 
L 241.186567 219.001778 
L 242.322252 277.80742 
L 243.457938 317.62249 
L 244.593623 335.461719 
L 245.729308 342.577014 
L 246.864993 344.107885 
L 248.000678 341.612704 
L 249.136364 327.376626 
L 250.272049 315.20065 
L 252.543419 234.145358 
L 253.679104 210.288053 
L 254.81479 194.957789 
L 255.950475 205.546483 
L 257.08616 225.216182 
L 258.221845 232.783205 
L 259.357531 227.523097 
L 260.493216 196.403555 
L 261.628901 108.577831 
L 262.764586 85.52162 
L 263.900271 98.701981 
L 265.035957 123.979977 
L 266.171642 145.58787 
L 267.307327 173.759735 
L 269.578697 276.077784 
L 270.714383 311.890397 
L 271.850068 331.006711 
L 272.985753 340.463058 
L 274.121438 343.519045 
L 275.257123 341.189472 
L 276.392809 325.945489 
L 277.528494 308.324419 
L 279.799864 221.887945 
L 280.93555 199.453314 
L 282.071235 192.216193 
L 283.20692 199.976585 
L 284.342605 214.153012 
L 285.47829 219.648436 
L 286.613976 213.000564 
L 287.749661 186.179667 
L 288.885346 110.090653 
L 290.021031 86.713118 
L 291.156716 101.743449 
L 294.563772 172.401351 
L 295.699457 212.520726 
L 296.835142 266.359325 
L 297.970828 305.70432 
L 299.106513 327.988832 
L 300.242198 338.239331 
L 301.377883 341.595066 
L 302.513569 340.672345 
L 303.649254 333.950172 
L 304.784939 329.784987 
L 307.056309 234.93189 
L 308.191995 209.834039 
L 309.32768 201.139971 
L 310.463365 208.907322 
L 311.59905 234.547706 
L 312.734735 243.891846 
L 313.870421 240.138695 
L 315.006106 210.335999 
L 316.141791 127.505815 
L 317.277476 104.428727 
L 318.413161 123.484141 
L 319.548847 147.382908 
L 321.820217 186.149906 
L 322.955902 221.047401 
L 324.091588 269.713873 
L 325.227273 311.702908 
L 326.362958 334.301254 
L 327.498643 345.489133 
L 328.634328 350.494486 
L 329.770014 350.618121 
L 330.905699 351.641018 
L 332.041384 369.36 
L 333.177069 356.34616 
L 334.312754 314.781502 
L 335.44844 267.131316 
L 336.584125 241.713214 
L 337.71981 243.979747 
L 338.855495 262.298108 
L 339.99118 275.241072 
L 341.126866 269.894893 
L 342.262551 244.907875 
L 343.398236 163.630307 
L 344.533921 141.849955 
L 345.669607 151.576942 
L 346.805292 165.53354 
L 347.940977 176.143709 
L 349.076662 194.435574 
L 350.212347 235.967199 
L 351.348033 292.094621 
L 352.483718 328.137527 
L 353.619403 344.184237 
L 354.755088 351.030532 
L 355.890773 352.89462 
L 357.026459 348.717574 
L 358.162144 331.694238 
L 359.297829 312.714241 
L 361.569199 227.274774 
L 362.704885 199.234279 
L 363.84057 183.975642 
L 364.976255 192.906409 
L 366.11194 215.861105 
L 367.247626 223.68742 
L 368.383311 218.123315 
L 369.518996 188.438262 
L 370.654681 108.864521 
L 371.790366 85.058143 
L 372.926052 97.824018 
L 374.061737 121.361767 
L 375.197422 141.690882 
L 376.333107 171.233872 
L 377.468792 216.914499 
L 378.604478 276.898822 
L 379.740163 315.307234 
L 380.875848 332.313975 
L 382.011533 340.375157 
L 383.147218 346.577829 
L 384.282904 343.789551 
L 385.418589 328.226813 
L 386.554274 309.164735 
L 388.825645 217.514246 
L 389.96133 185.922892 
L 391.097015 172.340419 
L 392.2327 184.219528 
L 393.368385 208.649277 
L 394.504071 217.721323 
L 395.639756 216.138937 
L 396.775441 192.362122 
L 397.911126 111.680527 
L 399.046811 84.520806 
L 400.182497 97.909638 
L 402.453867 140.965307 
L 403.589552 170.194814 
L 404.725237 216.534657 
L 405.860923 273.519748 
L 406.996608 311.047137 
L 408.132293 327.367418 
L 409.267978 334.972432 
L 410.403664 338.810269 
L 411.539349 339.187383 
L 412.675034 323.5426 
L 413.810719 304.216809 
L 416.08209 220.572959 
L 417.217775 191.82058 
L 418.35346 172.583038 
L 419.489145 185.182903 
L 420.62483 204.56716 
L 421.760516 209.362898 
L 422.896201 196.580599 
L 424.031886 161.482167 
L 425.167571 94.419466 
L 426.303256 82.547561 
L 427.438942 96.582723 
L 429.710312 141.900534 
L 430.845997 169.096588 
L 431.981682 215.522464 
L 433.117368 274.06806 
L 434.253053 310.901768 
L 435.388738 328.638842 
L 436.524423 336.63359 
L 437.660109 340.313337 
L 438.795794 340.36616 
L 439.931479 332.979842 
L 441.067164 321.712513 
L 442.202849 294.442738 
L 444.47422 210.651448 
L 445.609905 182.758094 
L 446.74559 187.467032 
L 447.881275 213.552256 
L 449.016961 225.401191 
L 450.152646 221.700807 
L 451.288331 190.548855 
L 452.424016 110.012171 
L 453.559701 86.950701 
L 454.695387 100.023718 
L 455.831072 124.684489 
L 456.966757 142.488485 
L 458.102442 169.263373 
L 459.238128 210.731734 
L 460.373813 268.258653 
L 461.509498 308.971074 
L 462.645183 328.061081 
L 463.780868 337.297909 
L 464.916554 343.154563 
L 466.052239 342.508764 
L 467.187924 334.258954 
L 468.323609 334.16763 
L 469.459294 291.263073 
L 470.59498 237.511407 
L 471.730665 206.880183 
L 472.86635 186.150081 
L 474.002035 196.043649 
L 475.13772 220.449353 
L 476.273406 228.41259 
L 477.409091 224.308322 
L 478.544776 193.463515 
L 479.680461 110.376099 
L 480.816147 86.48999 
L 481.951832 99.954328 
L 483.087517 122.341614 
L 484.223202 141.847849 
L 485.358887 164.900781 
L 486.494573 199.808498 
L 487.630258 255.635647 
L 488.765943 300.959726 
L 489.901628 323.993046 
L 491.037313 333.982148 
L 492.172999 337.821677 
L 493.308684 339.161802 
L 494.444369 331.139972 
L 495.580054 329.726649 
L 496.715739 288.133781 
L 497.851425 239.323118 
L 498.98711 213.467606 
L 500.122795 210.064284 
L 501.25848 205.835657 
L 502.394166 235.118564 
L 503.529851 245.013843 
L 504.665536 242.208054 
L 505.801221 217.600255 
L 506.936906 130.157039 
L 508.072592 101.60009 
L 509.208277 117.412507 
L 510.343962 142.076918 
L 511.479647 159.112552 
L 512.615332 179.477701 
L 513.751018 212.800624 
L 514.886703 261.072729 
L 516.022388 303.150914 
L 517.158073 330.404775 
L 518.293758 339.273499 
L 519.429444 346.63738 
L 520.565129 347.413015 
L 521.700814 347.047215 
L 522.836499 363.56864 
L 523.972185 350.779995 
L 526.243555 282.856653 
L 527.37924 265.822192 
L 528.514925 268.486151 
L 529.650611 280.034475 
L 530.786296 289.435805 
L 531.921981 290.345015 
L 533.057666 270.037219 
L 534.193351 172.405056 
L 535.329037 133.298674 
L 536.464722 144.585893 
L 537.600407 158.703965 
L 538.736092 167.219663 
L 539.871777 185.616903 
L 541.007463 219.345871 
L 542.143148 274.043581 
L 543.278833 315.215112 
L 544.414518 334.566011 
L 545.550204 343.212909 
L 546.685889 346.89051 
L 547.821574 344.977231 
L 550.092944 313.548423 
L 552.364315 232.213171 
L 553.5 207.776805 
L 554.635685 195.845884 
L 555.77137 206.075076 
L 556.907056 223.879689 
L 558.042741 227.261988 
L 559.178426 224.575704 
L 560.314111 201.676106 
L 561.449796 124.272223 
L 562.585482 108.494224 
L 563.721167 139.88337 
L 564.856852 178.692277 
L 565.992537 194.883914 
L 567.128223 206.878112 
L 568.263908 217.550553 
L 569.399593 247.29424 
L 570.535278 291.146396 
L 571.670963 324.086344 
L 572.806649 344.475953 
L 573.942334 347.320531 
L 575.078019 345.924584 
L 576.213704 334.850322 
L 577.349389 322.511473 
L 578.485075 287.410511 
L 579.62076 247.46955 
L 580.756445 225.051083 
L 581.89213 208.86382 
L 583.027815 215.95775 
L 584.163501 226.366983 
L 585.299186 234.863398 
L 586.434871 232.495138 
L 587.570556 208.600483 
L 588.706242 120.682055 
L 589.841927 84.979799 
L 590.977612 96.56799 
L 593.248982 139.094976 
L 594.384668 168.901701 
L 595.520353 214.952437 
L 596.656038 271.710754 
L 597.791723 313.061967 
L 598.927408 334.117337 
L 600.063094 340.356028 
L 601.198779 343.446885 
L 602.334464 340.944547 
L 604.605834 309.916429 
L 605.74152 273.353584 
L 606.877205 233.203648 
L 608.01289 209.896045 
L 609.148575 198.819794 
L 610.284261 207.868539 
L 611.419946 229.327745 
L 612.555631 236.217015 
L 613.691316 228.278097 
L 614.827001 207.337041 
L 615.962687 120.669194 
L 617.098372 82.880275 
L 620.505427 139.741857 
L 621.641113 165.444959 
L 622.776798 209.280332 
L 623.912483 267.10945 
L 625.048168 308.147144 
L 626.183853 330.401966 
L 627.319539 338.21421 
L 628.455224 342.419591 
L 629.590909 340.199295 
L 631.86228 309.625194 
L 632.997965 271.783005 
L 634.13365 229.706213 
L 635.269335 207.550068 
L 636.40502 197.70737 
L 637.540706 201.599662 
L 638.676391 222.377303 
L 639.812076 227.539899 
L 640.947761 223.712447 
L 642.083446 204.215119 
L 643.219132 119.170681 
L 644.354817 81.890021 
L 645.490502 94.046347 
L 647.761872 137.677317 
L 648.897558 163.390282 
L 650.033243 207.923763 
L 651.168928 268.447701 
L 652.304613 306.751872 
L 653.440299 325.734026 
L 654.575984 333.104783 
L 655.711669 336.867819 
L 656.847354 337.275752 
L 659.118725 308.36539 
L 661.390095 233.841658 
L 662.52578 213.919662 
L 663.661465 196.619216 
L 664.797151 203.977786 
L 665.932836 223.823781 
L 667.068521 227.588592 
L 668.204206 223.970263 
L 669.339891 201.730112 
L 670.475577 119.724969 
L 671.611262 81.707466 
L 672.746947 96.684509 
L 676.154003 163.703521 
L 677.289688 205.155945 
L 678.425373 261.426147 
L 679.561058 304.200355 
L 680.696744 326.446436 
L 681.832429 336.504381 
L 682.968114 340.961114 
L 684.103799 340.211468 
L 685.239484 330.6204 
L 686.37517 324.709364 
L 687.510855 278.409015 
L 688.64654 220.838329 
L 689.782225 184.708792 
L 690.91791 173.433222 
L 692.053596 182.324741 
L 693.189281 211.655663 
L 694.324966 223.269203 
L 695.460651 225.329845 
L 696.596336 200.042571 
L 697.732022 129.721209 
L 698.867707 104.789776 
L 700.003392 121.879637 
L 701.139077 143.967197 
L 703.410448 178.93059 
L 704.546133 211.895994 
L 706.817503 306.165866 
L 707.953189 333.767424 
L 709.088874 345.908031 
L 710.224559 349.78926 
L 711.360244 352.718279 
L 712.495929 350.191017 
L 713.631615 364.078017 
L 714.7673 351.061479 
L 717.03867 274.366031 
L 718.174355 255.230282 
L 719.310041 258.844817 
L 720.445726 270.001463 
L 721.581411 277.741886 
L 722.717096 274.381128 
L 723.852782 241.534403 
L 724.988467 168.204122 
L 726.124152 143.08954 
L 728.395522 162.998037 
L 729.531208 174.368669 
L 730.666893 188.914248 
L 731.802578 228.522521 
L 732.938263 283.267511 
L 734.073948 322.923907 
L 735.209634 341.331252 
L 736.345319 347.594648 
L 737.481004 350.813556 
L 738.616689 348.462702 
L 739.752374 334.201586 
L 740.88806 315.737028 
L 743.15943 235.688827 
L 744.295115 209.423572 
L 745.430801 194.151718 
L 746.566486 203.435435 
L 747.702171 223.008331 
L 748.837856 230.105374 
L 749.973541 227.340193 
L 751.109227 199.518064 
L 752.244912 122.044476 
L 753.380597 87.780404 
L 754.516282 100.818794 
L 756.787653 141.111758 
L 757.923338 169.558071 
L 759.059023 213.526807 
L 760.194708 271.943869 
L 761.330393 313.982 
L 762.466079 332.048563 
L 763.601764 339.432881 
L 764.737449 341.7632 
L 765.873134 340.833102 
L 768.144505 311.932676 
L 770.415875 236.771252 
L 771.55156 211.080991 
L 772.687246 197.540482 
L 773.822931 203.569939 
L 774.958616 218.04927 
L 776.094301 224.700227 
L 777.229986 222.593097 
L 778.365672 201.875104 
L 779.501357 122.679273 
L 780.637042 83.197831 
L 781.772727 98.33737 
L 784.044098 140.716218 
L 785.179783 170.026075 
L 786.315468 218.004924 
L 787.451153 273.285736 
L 788.586839 311.06805 
L 789.722524 329.30846 
L 790.858209 337.238161 
L 791.993894 339.749972 
L 793.129579 337.396864 
L 795.40095 305.51567 
L 796.536635 272.216453 
L 797.67232 231.374222 
L 798.808005 208.067635 
L 799.943691 192.71248 
L 801.079376 201.540552 
L 802.215061 220.813599 
L 803.350746 230.551638 
L 804.486431 224.746375 
L 805.622117 195.24947 
L 806.757802 117.591042 
L 807.893487 82.102898 
L 809.029172 95.600958 
L 810.164858 119.314709 
L 811.300543 140.032432 
L 812.436228 167.50543 
L 813.571913 213.300626 
L 814.707598 267.599274 
L 815.843284 306.905431 
L 816.978969 326.071616 
L 818.114654 334.485454 
L 819.250339 338.756775 
L 820.386024 336.175726 
L 822.657395 307.365296 
L 824.928765 220.062644 
L 826.06445 198.046835 
L 827.200136 180.591192 
L 828.335821 193.716415 
L 829.471506 209.960821 
L 830.607191 217.268555 
L 831.742877 214.973956 
L 832.878562 195.039147 
L 834.014247 117.972146 
L 835.149932 77.725499 
L 836.285617 90.167358 
L 837.421303 116.128214 
L 838.556988 137.011647 
L 839.692673 165.554019 
L 840.828358 209.712166 
L 841.964043 266.832245 
L 843.099729 305.536433 
L 844.235414 325.884525 
L 845.371099 334.318226 
L 846.506784 336.75693 
L 847.642469 334.504997 
L 848.778155 319.818727 
L 849.91384 303.046059 
L 852.18521 229.651458 
L 853.320896 206.091317 
L 854.456581 189.682148 
L 855.592266 195.23867 
L 856.727951 214.821928 
L 857.863636 221.168923 
L 858.999322 213.396816 
L 860.135007 189.440379 
L 861.270692 115.353356 
L 862.406377 83.283013 
L 863.542062 98.404291 
L 866.949118 166.053909 
L 868.084803 204.697272 
L 869.220488 261.155187 
L 870.356174 302.238779 
L 871.491859 323.072321 
L 872.627544 332.248654 
L 873.763229 337.205942 
L 874.898915 333.843073 
L 876.0346 323.698822 
L 877.170285 319.222887 
L 878.30597 278.577679 
L 879.441655 229.459206 
L 880.577341 199.621073 
L 881.713026 189.193725 
L 882.848711 199.85735 
L 883.984396 228.759047 
L 885.120081 241.360141 
L 886.255767 240.034676 
L 887.391452 222.327818 
L 888.527137 147.162091 
L 889.662822 105.468995 
L 890.798507 119.039244 
L 891.934193 140.339323 
L 893.069878 157.191745 
L 894.205563 178.62433 
L 895.341248 212.763881 
L 896.476934 262.213615 
L 897.612619 303.609957 
L 898.748304 326.687894 
L 899.883989 339.117141 
L 901.019674 346.749139 
L 902.15536 348.883521 
L 903.291045 347.935293 
L 904.42673 362.412976 
L 905.562415 347.619385 
L 907.833786 272.112476 
L 908.969471 251.538492 
L 910.105156 253.813653 
L 911.240841 271.507052 
L 912.376526 280.308444 
L 913.512212 282.881474 
L 914.647897 260.190759 
L 915.783582 180.462791 
L 916.919267 137.660785 
L 918.054953 146.331878 
L 919.190638 156.511627 
L 920.326323 169.233063 
L 921.462008 187.610796 
L 922.597693 228.874397 
L 923.733379 282.760068 
L 924.869064 318.291149 
L 926.004749 336.516598 
L 927.140434 343.874373 
L 928.276119 346.437244 
L 929.411805 344.134831 
L 930.54749 328.601499 
L 931.683175 307.494225 
L 932.81886 263.791148 
L 933.954545 215.710413 
L 933.954545 215.710413 
" clip-path="url(#pf19d41811b)" style="fill: none; stroke: #ff7f0e; stroke-width: 1.5; stroke-linecap: square"/>
   </g>
   <g id="patch_3">
    <path d="M 135 384.48 
L 135 51.84 
" style="fill: none; stroke: #000000; stroke-width: 0.8; stroke-linejoin: miter; stroke-linecap: square"/>
   </g>
   <g id="patch_4">
    <path d="M 972 384.48 
L 972 51.84 
" style="fill: none; stroke: #000000; stroke-width: 0.8; stroke-linejoin: miter; stroke-linecap: square"/>
   </g>
   <g id="patch_5">
    <path d="M 135 384.48 
L 972 384.48 
" style="fill: none; stroke: #000000; stroke-width: 0.8; stroke-linejoin: miter; stroke-linecap: square"/>
   </g>
   <g id="patch_6">
    <path d="M 135 51.84 
L 972 51.84 
" style="fill: none; stroke: #000000; stroke-width: 0.8; stroke-linejoin: miter; stroke-linecap: square"/>
   </g>
   <g id="text_20">
    <!-- Load forecasting -->
    <g transform="translate(503.65875 45.84) scale(0.12 -0.12)">
     <defs>
      <path id="DejaVuSans-66" d="M 2375 4863 
L 2375 4384 
L 1825 4384 
Q 1516 4384 1395 4259 
Q 1275 4134 1275 3809 
L 1275 3500 
L 2222 3500 
L 2222 3053 
L 1275 3053 
L 1275 0 
L 697 0 
L 697 3053 
L 147 3053 
L 147 3500 
L 697 3500 
L 697 3744 
Q 697 4328 969 4595 
Q 1241 4863 1831 4863 
L 2375 4863 
z
" transform="scale(0.015625)"/>
      <path id="DejaVuSans-72" d="M 2631 2963 
Q 2534 3019 2420 3045 
Q 2306 3072 2169 3072 
Q 1681 3072 1420 2755 
Q 1159 2438 1159 1844 
L 1159 0 
L 581 0 
L 581 3500 
L 1159 3500 
L 1159 2956 
Q 1341 3275 1631 3429 
Q 1922 3584 2338 3584 
Q 2397 3584 2469 3576 
Q 2541 3569 2628 3553 
L 2631 2963 
z
" transform="scale(0.015625)"/>
      <path id="DejaVuSans-63" d="M 3122 3366 
L 3122 2828 
Q 2878 2963 2633 3030 
Q 2388 3097 2138 3097 
Q 1578 3097 1268 2742 
Q 959 2388 959 1747 
Q 959 1106 1268 751 
Q 1578 397 2138 397 
Q 2388 397 2633 464 
Q 2878 531 3122 666 
L 3122 134 
Q 2881 22 2623 -34 
Q 2366 -91 2075 -91 
Q 1284 -91 818 406 
Q 353 903 353 1747 
Q 353 2603 823 3093 
Q 1294 3584 2113 3584 
Q 2378 3584 2631 3529 
Q 2884 3475 3122 3366 
z
" transform="scale(0.015625)"/>
      <path id="DejaVuSans-6e" d="M 3513 2113 
L 3513 0 
L 2938 0 
L 2938 2094 
Q 2938 2591 2744 2837 
Q 2550 3084 2163 3084 
Q 1697 3084 1428 2787 
Q 1159 2491 1159 1978 
L 1159 0 
L 581 0 
L 581 3500 
L 1159 3500 
L 1159 2956 
Q 1366 3272 1645 3428 
Q 1925 3584 2291 3584 
Q 2894 3584 3203 3211 
Q 3513 2838 3513 2113 
z
" transform="scale(0.015625)"/>
      <path id="DejaVuSans-67" d="M 2906 1791 
Q 2906 2416 2648 2759 
Q 2391 3103 1925 3103 
Q 1463 3103 1205 2759 
Q 947 2416 947 1791 
Q 947 1169 1205 825 
Q 1463 481 1925 481 
Q 2391 481 2648 825 
Q 2906 1169 2906 1791 
z
M 3481 434 
Q 3481 -459 3084 -895 
Q 2688 -1331 1869 -1331 
Q 1566 -1331 1297 -1286 
Q 1028 -1241 775 -1147 
L 775 -588 
Q 1028 -725 1275 -790 
Q 1522 -856 1778 -856 
Q 2344 -856 2625 -561 
Q 2906 -266 2906 331 
L 2906 616 
Q 2728 306 2450 153 
Q 2172 0 1784 0 
Q 1141 0 747 490 
Q 353 981 353 1791 
Q 353 2603 747 3093 
Q 1141 3584 1784 3584 
Q 2172 3584 2450 3431 
Q 2728 3278 2906 2969 
L 2906 3500 
L 3481 3500 
L 3481 434 
z
" transform="scale(0.015625)"/>
     </defs>
     <use xlink:href="#DejaVuSans-4c"/>
     <use xlink:href="#DejaVuSans-6f" x="53.962891"/>
     <use xlink:href="#DejaVuSans-61" x="115.144531"/>
     <use xlink:href="#DejaVuSans-64" x="176.423828"/>
     <use xlink:href="#DejaVuSans-20" x="239.900391"/>
     <use xlink:href="#DejaVuSans-66" x="271.6875"/>
     <use xlink:href="#DejaVuSans-6f" x="306.892578"/>
     <use xlink:href="#DejaVuSans-72" x="368.074219"/>
     <use xlink:href="#DejaVuSans-65" x="406.9375"/>
     <use xlink:href="#DejaVuSans-63" x="468.460938"/>
     <use xlink:href="#DejaVuSans-61" x="523.441406"/>
     <use xlink:href="#DejaVuSans-73" x="584.720703"/>
     <use xlink:href="#DejaVuSans-74" x="636.820312"/>
     <use xlink:href="#DejaVuSans-69" x="676.029297"/>
     <use xlink:href="#DejaVuSans-6e" x="703.8125"/>
     <use xlink:href="#DejaVuSans-67" x="767.191406"/>
    </g>
   </g>
   <g id="legend_1">
    <g id="patch_7">
     <path d="M 883.326563 89.19625 
L 965 89.19625 
Q 967 89.19625 967 87.19625 
L 967 58.84 
Q 967 56.84 965 56.84 
L 883.326563 56.84 
Q 881.326563 56.84 881.326563 58.84 
L 881.326563 87.19625 
Q 881.326563 89.19625 883.326563 89.19625 
z
" style="fill: #ffffff; opacity: 0.8; stroke: #cccccc; stroke-linejoin: miter"/>
    </g>
    <g id="line2d_20">
     <path d="M 885.326563 64.938437 
L 895.326563 64.938437 
L 905.326563 64.938437 
" style="fill: none; stroke: #1f77b4; stroke-width: 1.5; stroke-linecap: square"/>
    </g>
    <g id="text_21">
     <!-- Prediction -->
     <g transform="translate(913.326563 68.438437) scale(0.1 -0.1)">
      <defs>
       <path id="DejaVuSans-50" d="M 1259 4147 
L 1259 2394 
L 2053 2394 
Q 2494 2394 2734 2622 
Q 2975 2850 2975 3272 
Q 2975 3691 2734 3919 
Q 2494 4147 2053 4147 
L 1259 4147 
z
M 628 4666 
L 2053 4666 
Q 2838 4666 3239 4311 
Q 3641 3956 3641 3272 
Q 3641 2581 3239 2228 
Q 2838 1875 2053 1875 
L 1259 1875 
L 1259 0 
L 628 0 
L 628 4666 
z
" transform="scale(0.015625)"/>
      </defs>
      <use xlink:href="#DejaVuSans-50"/>
      <use xlink:href="#DejaVuSans-72" x="58.552734"/>
      <use xlink:href="#DejaVuSans-65" x="97.416016"/>
      <use xlink:href="#DejaVuSans-64" x="158.939453"/>
      <use xlink:href="#DejaVuSans-69" x="222.416016"/>
      <use xlink:href="#DejaVuSans-63" x="250.199219"/>
      <use xlink:href="#DejaVuSans-74" x="305.179688"/>
      <use xlink:href="#DejaVuSans-69" x="344.388672"/>
      <use xlink:href="#DejaVuSans-6f" x="372.171875"/>
      <use xlink:href="#DejaVuSans-6e" x="433.353516"/>
     </g>
    </g>
    <g id="line2d_21">
     <path d="M 885.326563 79.616562 
L 895.326563 79.616562 
L 905.326563 79.616562 
" style="fill: none; stroke: #ff7f0e; stroke-width: 1.5; stroke-linecap: square"/>
    </g>
    <g id="text_22">
     <!-- Actual -->
     <g transform="translate(913.326563 83.116562) scale(0.1 -0.1)">
      <defs>
       <path id="DejaVuSans-41" d="M 2188 4044 
L 1331 1722 
L 3047 1722 
L 2188 4044 
z
M 1831 4666 
L 2547 4666 
L 4325 0 
L 3669 0 
L 3244 1197 
L 1141 1197 
L 716 0 
L 50 0 
L 1831 4666 
z
" transform="scale(0.015625)"/>
       <path id="DejaVuSans-75" d="M 544 1381 
L 544 3500 
L 1119 3500 
L 1119 1403 
Q 1119 906 1312 657 
Q 1506 409 1894 409 
Q 2359 409 2629 706 
Q 2900 1003 2900 1516 
L 2900 3500 
L 3475 3500 
L 3475 0 
L 2900 0 
L 2900 538 
Q 2691 219 2414 64 
Q 2138 -91 1772 -91 
Q 1169 -91 856 284 
Q 544 659 544 1381 
z
M 1991 3584 
L 1991 3584 
z
" transform="scale(0.015625)"/>
       <path id="DejaVuSans-6c" d="M 603 4863 
L 1178 4863 
L 1178 0 
L 603 0 
L 603 4863 
z
" transform="scale(0.015625)"/>
      </defs>
      <use xlink:href="#DejaVuSans-41"/>
      <use xlink:href="#DejaVuSans-63" x="66.658203"/>
      <use xlink:href="#DejaVuSans-74" x="121.638672"/>
      <use xlink:href="#DejaVuSans-75" x="160.847656"/>
      <use xlink:href="#DejaVuSans-61" x="224.226562"/>
      <use xlink:href="#DejaVuSans-6c" x="285.505859"/>
     </g>
    </g>
   </g>
  </g>
 </g>
 <defs>
  <clipPath id="pf19d41811b">
   <rect x="135" y="51.84" width="837" height="332.64"/>
  </clipPath>
 </defs>
</svg>
