<?xml version="1.0" encoding="utf-8" standalone="no"?>
<!DOCTYPE svg PUBLIC "-//W3C//DTD SVG 1.1//EN"
  "http://www.w3.org/Graphics/SVG/1.1/DTD/svg11.dtd">
<svg xmlns:xlink="http://www.w3.org/1999/xlink" width="1080pt" height="432pt" viewBox="0 0 1080 432" xmlns="http://www.w3.org/2000/svg" version="1.1">
 <metadata>
  <rdf:RDF xmlns:dc="http://purl.org/dc/elements/1.1/" xmlns:cc="http://creativecommons.org/ns#" xmlns:rdf="http://www.w3.org/1999/02/22-rdf-syntax-ns#">
   <cc:Work>
    <dc:type rdf:resource="http://purl.org/dc/dcmitype/StillImage"/>
    <dc:date>2024-02-17T11:54:12.508053</dc:date>
    <dc:format>image/svg+xml</dc:format>
    <dc:creator>
     <cc:Agent>
      <dc:title>Matplotlib v3.7.1, https://matplotlib.org/</dc:title>
     </cc:Agent>
    </dc:creator>
   </cc:Work>
  </rdf:RDF>
 </metadata>
 <defs>
  <style type="text/css">*{stroke-linejoin: round; stroke-linecap: butt}</style>
 </defs>
 <g id="figure_1">
  <g id="patch_1">
   <path d="M 0 432 
L 1080 432 
L 1080 0 
L 0 0 
z
" style="fill: #ffffff"/>
  </g>
  <g id="axes_1">
   <g id="patch_2">
    <path d="M 135 384.48 
L 972 384.48 
L 972 51.84 
L 135 51.84 
z
" style="fill: #ffffff"/>
   </g>
   <g id="matplotlib.axis_1">
    <g id="xtick_1">
     <g id="line2d_1">
      <defs>
       <path id="mb25cee7ae3" d="M 0 0 
L 0 3.5 
" style="stroke: #000000; stroke-width: 0.8"/>
      </defs>
      <g>
       <use xlink:href="#mb25cee7ae3" x="173.045455" y="384.48" style="stroke: #000000; stroke-width: 0.8"/>
      </g>
     </g>
     <g id="text_1">
      <!-- 0 -->
      <g transform="translate(169.864205 399.078438) scale(0.1 -0.1)">
       <defs>
        <path id="DejaVuSans-30" d="M 2034 4250 
Q 1547 4250 1301 3770 
Q 1056 3291 1056 2328 
Q 1056 1369 1301 889 
Q 1547 409 2034 409 
Q 2525 409 2770 889 
Q 3016 1369 3016 2328 
Q 3016 3291 2770 3770 
Q 2525 4250 2034 4250 
z
M 2034 4750 
Q 2819 4750 3233 4129 
Q 3647 3509 3647 2328 
Q 3647 1150 3233 529 
Q 2819 -91 2034 -91 
Q 1250 -91 836 529 
Q 422 1150 422 2328 
Q 422 3509 836 4129 
Q 1250 4750 2034 4750 
z
" transform="scale(0.015625)"/>
       </defs>
       <use xlink:href="#DejaVuSans-30"/>
      </g>
     </g>
    </g>
    <g id="xtick_2">
     <g id="line2d_2">
      <g>
       <use xlink:href="#mb25cee7ae3" x="268.637049" y="384.48" style="stroke: #000000; stroke-width: 0.8"/>
      </g>
     </g>
     <g id="text_2">
      <!-- 25 -->
      <g transform="translate(262.274549 399.078438) scale(0.1 -0.1)">
       <defs>
        <path id="DejaVuSans-32" d="M 1228 531 
L 3431 531 
L 3431 0 
L 469 0 
L 469 531 
Q 828 903 1448 1529 
Q 2069 2156 2228 2338 
Q 2531 2678 2651 2914 
Q 2772 3150 2772 3378 
Q 2772 3750 2511 3984 
Q 2250 4219 1831 4219 
Q 1534 4219 1204 4116 
Q 875 4013 500 3803 
L 500 4441 
Q 881 4594 1212 4672 
Q 1544 4750 1819 4750 
Q 2544 4750 2975 4387 
Q 3406 4025 3406 3419 
Q 3406 3131 3298 2873 
Q 3191 2616 2906 2266 
Q 2828 2175 2409 1742 
Q 1991 1309 1228 531 
z
" transform="scale(0.015625)"/>
        <path id="DejaVuSans-35" d="M 691 4666 
L 3169 4666 
L 3169 4134 
L 1269 4134 
L 1269 2991 
Q 1406 3038 1543 3061 
Q 1681 3084 1819 3084 
Q 2600 3084 3056 2656 
Q 3513 2228 3513 1497 
Q 3513 744 3044 326 
Q 2575 -91 1722 -91 
Q 1428 -91 1123 -41 
Q 819 9 494 109 
L 494 744 
Q 775 591 1075 516 
Q 1375 441 1709 441 
Q 2250 441 2565 725 
Q 2881 1009 2881 1497 
Q 2881 1984 2565 2268 
Q 2250 2553 1709 2553 
Q 1456 2553 1204 2497 
Q 953 2441 691 2322 
L 691 4666 
z
" transform="scale(0.015625)"/>
       </defs>
       <use xlink:href="#DejaVuSans-32"/>
       <use xlink:href="#DejaVuSans-35" x="63.623047"/>
      </g>
     </g>
    </g>
    <g id="xtick_3">
     <g id="line2d_3">
      <g>
       <use xlink:href="#mb25cee7ae3" x="364.228643" y="384.48" style="stroke: #000000; stroke-width: 0.8"/>
      </g>
     </g>
     <g id="text_3">
      <!-- 50 -->
      <g transform="translate(357.866143 399.078438) scale(0.1 -0.1)">
       <use xlink:href="#DejaVuSans-35"/>
       <use xlink:href="#DejaVuSans-30" x="63.623047"/>
      </g>
     </g>
    </g>
    <g id="xtick_4">
     <g id="line2d_4">
      <g>
       <use xlink:href="#mb25cee7ae3" x="459.820238" y="384.48" style="stroke: #000000; stroke-width: 0.8"/>
      </g>
     </g>
     <g id="text_4">
      <!-- 75 -->
      <g transform="translate(453.457738 399.078438) scale(0.1 -0.1)">
       <defs>
        <path id="DejaVuSans-37" d="M 525 4666 
L 3525 4666 
L 3525 4397 
L 1831 0 
L 1172 0 
L 2766 4134 
L 525 4134 
L 525 4666 
z
" transform="scale(0.015625)"/>
       </defs>
       <use xlink:href="#DejaVuSans-37"/>
       <use xlink:href="#DejaVuSans-35" x="63.623047"/>
      </g>
     </g>
    </g>
    <g id="xtick_5">
     <g id="line2d_5">
      <g>
       <use xlink:href="#mb25cee7ae3" x="555.411832" y="384.48" style="stroke: #000000; stroke-width: 0.8"/>
      </g>
     </g>
     <g id="text_5">
      <!-- 100 -->
      <g transform="translate(545.868082 399.078438) scale(0.1 -0.1)">
       <defs>
        <path id="DejaVuSans-31" d="M 794 531 
L 1825 531 
L 1825 4091 
L 703 3866 
L 703 4441 
L 1819 4666 
L 2450 4666 
L 2450 531 
L 3481 531 
L 3481 0 
L 794 0 
L 794 531 
z
" transform="scale(0.015625)"/>
       </defs>
       <use xlink:href="#DejaVuSans-31"/>
       <use xlink:href="#DejaVuSans-30" x="63.623047"/>
       <use xlink:href="#DejaVuSans-30" x="127.246094"/>
      </g>
     </g>
    </g>
    <g id="xtick_6">
     <g id="line2d_6">
      <g>
       <use xlink:href="#mb25cee7ae3" x="651.003426" y="384.48" style="stroke: #000000; stroke-width: 0.8"/>
      </g>
     </g>
     <g id="text_6">
      <!-- 125 -->
      <g transform="translate(641.459676 399.078438) scale(0.1 -0.1)">
       <use xlink:href="#DejaVuSans-31"/>
       <use xlink:href="#DejaVuSans-32" x="63.623047"/>
       <use xlink:href="#DejaVuSans-35" x="127.246094"/>
      </g>
     </g>
    </g>
    <g id="xtick_7">
     <g id="line2d_7">
      <g>
       <use xlink:href="#mb25cee7ae3" x="746.595021" y="384.48" style="stroke: #000000; stroke-width: 0.8"/>
      </g>
     </g>
     <g id="text_7">
      <!-- 150 -->
      <g transform="translate(737.051271 399.078438) scale(0.1 -0.1)">
       <use xlink:href="#DejaVuSans-31"/>
       <use xlink:href="#DejaVuSans-35" x="63.623047"/>
       <use xlink:href="#DejaVuSans-30" x="127.246094"/>
      </g>
     </g>
    </g>
    <g id="xtick_8">
     <g id="line2d_8">
      <g>
       <use xlink:href="#mb25cee7ae3" x="842.186615" y="384.48" style="stroke: #000000; stroke-width: 0.8"/>
      </g>
     </g>
     <g id="text_8">
      <!-- 175 -->
      <g transform="translate(832.642865 399.078438) scale(0.1 -0.1)">
       <use xlink:href="#DejaVuSans-31"/>
       <use xlink:href="#DejaVuSans-37" x="63.623047"/>
       <use xlink:href="#DejaVuSans-35" x="127.246094"/>
      </g>
     </g>
    </g>
    <g id="xtick_9">
     <g id="line2d_9">
      <g>
       <use xlink:href="#mb25cee7ae3" x="937.778209" y="384.48" style="stroke: #000000; stroke-width: 0.8"/>
      </g>
     </g>
     <g id="text_9">
      <!-- 200 -->
      <g transform="translate(928.234459 399.078438) scale(0.1 -0.1)">
       <use xlink:href="#DejaVuSans-32"/>
       <use xlink:href="#DejaVuSans-30" x="63.623047"/>
       <use xlink:href="#DejaVuSans-30" x="127.246094"/>
      </g>
     </g>
    </g>
   </g>
   <g id="matplotlib.axis_2">
    <g id="ytick_1">
     <g id="line2d_10">
      <defs>
       <path id="m3082f222ab" d="M 0 0 
L -3.5 0 
" style="stroke: #000000; stroke-width: 0.8"/>
      </defs>
      <g>
       <use xlink:href="#m3082f222ab" x="135" y="380.501201" style="stroke: #000000; stroke-width: 0.8"/>
      </g>
     </g>
     <g id="text_10">
      <!-- 250 -->
      <g transform="translate(108.9125 384.300419) scale(0.1 -0.1)">
       <use xlink:href="#DejaVuSans-32"/>
       <use xlink:href="#DejaVuSans-35" x="63.623047"/>
       <use xlink:href="#DejaVuSans-30" x="127.246094"/>
      </g>
     </g>
    </g>
    <g id="ytick_2">
     <g id="line2d_11">
      <g>
       <use xlink:href="#m3082f222ab" x="135" y="341.905739" style="stroke: #000000; stroke-width: 0.8"/>
      </g>
     </g>
     <g id="text_11">
      <!-- 275 -->
      <g transform="translate(108.9125 345.704958) scale(0.1 -0.1)">
       <use xlink:href="#DejaVuSans-32"/>
       <use xlink:href="#DejaVuSans-37" x="63.623047"/>
       <use xlink:href="#DejaVuSans-35" x="127.246094"/>
      </g>
     </g>
    </g>
    <g id="ytick_3">
     <g id="line2d_12">
      <g>
       <use xlink:href="#m3082f222ab" x="135" y="303.310277" style="stroke: #000000; stroke-width: 0.8"/>
      </g>
     </g>
     <g id="text_12">
      <!-- 300 -->
      <g transform="translate(108.9125 307.109496) scale(0.1 -0.1)">
       <defs>
        <path id="DejaVuSans-33" d="M 2597 2516 
Q 3050 2419 3304 2112 
Q 3559 1806 3559 1356 
Q 3559 666 3084 287 
Q 2609 -91 1734 -91 
Q 1441 -91 1130 -33 
Q 819 25 488 141 
L 488 750 
Q 750 597 1062 519 
Q 1375 441 1716 441 
Q 2309 441 2620 675 
Q 2931 909 2931 1356 
Q 2931 1769 2642 2001 
Q 2353 2234 1838 2234 
L 1294 2234 
L 1294 2753 
L 1863 2753 
Q 2328 2753 2575 2939 
Q 2822 3125 2822 3475 
Q 2822 3834 2567 4026 
Q 2313 4219 1838 4219 
Q 1578 4219 1281 4162 
Q 984 4106 628 3988 
L 628 4550 
Q 988 4650 1302 4700 
Q 1616 4750 1894 4750 
Q 2613 4750 3031 4423 
Q 3450 4097 3450 3541 
Q 3450 3153 3228 2886 
Q 3006 2619 2597 2516 
z
" transform="scale(0.015625)"/>
       </defs>
       <use xlink:href="#DejaVuSans-33"/>
       <use xlink:href="#DejaVuSans-30" x="63.623047"/>
       <use xlink:href="#DejaVuSans-30" x="127.246094"/>
      </g>
     </g>
    </g>
    <g id="ytick_4">
     <g id="line2d_13">
      <g>
       <use xlink:href="#m3082f222ab" x="135" y="264.714816" style="stroke: #000000; stroke-width: 0.8"/>
      </g>
     </g>
     <g id="text_13">
      <!-- 325 -->
      <g transform="translate(108.9125 268.514034) scale(0.1 -0.1)">
       <use xlink:href="#DejaVuSans-33"/>
       <use xlink:href="#DejaVuSans-32" x="63.623047"/>
       <use xlink:href="#DejaVuSans-35" x="127.246094"/>
      </g>
     </g>
    </g>
    <g id="ytick_5">
     <g id="line2d_14">
      <g>
       <use xlink:href="#m3082f222ab" x="135" y="226.119354" style="stroke: #000000; stroke-width: 0.8"/>
      </g>
     </g>
     <g id="text_14">
      <!-- 350 -->
      <g transform="translate(108.9125 229.918573) scale(0.1 -0.1)">
       <use xlink:href="#DejaVuSans-33"/>
       <use xlink:href="#DejaVuSans-35" x="63.623047"/>
       <use xlink:href="#DejaVuSans-30" x="127.246094"/>
      </g>
     </g>
    </g>
    <g id="ytick_6">
     <g id="line2d_15">
      <g>
       <use xlink:href="#m3082f222ab" x="135" y="187.523892" style="stroke: #000000; stroke-width: 0.8"/>
      </g>
     </g>
     <g id="text_15">
      <!-- 375 -->
      <g transform="translate(108.9125 191.323111) scale(0.1 -0.1)">
       <use xlink:href="#DejaVuSans-33"/>
       <use xlink:href="#DejaVuSans-37" x="63.623047"/>
       <use xlink:href="#DejaVuSans-35" x="127.246094"/>
      </g>
     </g>
    </g>
    <g id="ytick_7">
     <g id="line2d_16">
      <g>
       <use xlink:href="#m3082f222ab" x="135" y="148.928431" style="stroke: #000000; stroke-width: 0.8"/>
      </g>
     </g>
     <g id="text_16">
      <!-- 400 -->
      <g transform="translate(108.9125 152.72765) scale(0.1 -0.1)">
       <defs>
        <path id="DejaVuSans-34" d="M 2419 4116 
L 825 1625 
L 2419 1625 
L 2419 4116 
z
M 2253 4666 
L 3047 4666 
L 3047 1625 
L 3713 1625 
L 3713 1100 
L 3047 1100 
L 3047 0 
L 2419 0 
L 2419 1100 
L 313 1100 
L 313 1709 
L 2253 4666 
z
" transform="scale(0.015625)"/>
       </defs>
       <use xlink:href="#DejaVuSans-34"/>
       <use xlink:href="#DejaVuSans-30" x="63.623047"/>
       <use xlink:href="#DejaVuSans-30" x="127.246094"/>
      </g>
     </g>
    </g>
    <g id="ytick_8">
     <g id="line2d_17">
      <g>
       <use xlink:href="#m3082f222ab" x="135" y="110.332969" style="stroke: #000000; stroke-width: 0.8"/>
      </g>
     </g>
     <g id="text_17">
      <!-- 425 -->
      <g transform="translate(108.9125 114.132188) scale(0.1 -0.1)">
       <use xlink:href="#DejaVuSans-34"/>
       <use xlink:href="#DejaVuSans-32" x="63.623047"/>
       <use xlink:href="#DejaVuSans-35" x="127.246094"/>
      </g>
     </g>
    </g>
    <g id="ytick_9">
     <g id="line2d_18">
      <g>
       <use xlink:href="#m3082f222ab" x="135" y="71.737508" style="stroke: #000000; stroke-width: 0.8"/>
      </g>
     </g>
     <g id="text_18">
      <!-- 450 -->
      <g transform="translate(108.9125 75.536726) scale(0.1 -0.1)">
       <use xlink:href="#DejaVuSans-34"/>
       <use xlink:href="#DejaVuSans-35" x="63.623047"/>
       <use xlink:href="#DejaVuSans-30" x="127.246094"/>
      </g>
     </g>
    </g>
   </g>
   <g id="line2d_19">
    <path d="M 173.045455 213.000564 
L 176.869118 186.179667 
L 180.692782 110.090653 
L 184.516446 86.713118 
L 188.34011 101.743449 
L 192.163773 125.379481 
L 195.987437 146.765981 
L 199.811101 172.401351 
L 203.634765 212.520726 
L 207.458429 266.359325 
L 211.282092 305.70432 
L 215.105756 327.988832 
L 218.92942 338.239331 
L 222.753084 341.595066 
L 226.576747 340.672345 
L 230.400411 333.950172 
L 234.224075 329.784987 
L 238.047739 283.0583 
L 241.871402 234.93189 
L 245.695066 209.834039 
L 249.51873 201.139971 
L 253.342394 208.907322 
L 257.166058 234.547706 
L 260.989721 243.891846 
L 264.813385 240.138695 
L 268.637049 210.335999 
L 272.460713 127.505815 
L 276.284376 104.428727 
L 280.10804 123.484141 
L 283.931704 147.382908 
L 291.579032 186.149906 
L 295.402695 221.047401 
L 299.226359 269.713873 
L 303.050023 311.702908 
L 306.873687 334.301254 
L 310.69735 345.489133 
L 314.521014 350.494486 
L 318.344678 350.618121 
L 322.168342 351.641018 
L 325.992005 369.36 
L 329.815669 356.34616 
L 333.639333 314.781502 
L 337.462997 267.131316 
L 341.286661 241.713214 
L 345.110324 243.979747 
L 348.933988 262.298108 
L 352.757652 275.241072 
L 356.581316 269.894893 
L 360.404979 244.907875 
L 364.228643 163.630307 
L 368.052307 141.849955 
L 371.875971 151.576942 
L 375.699635 165.53354 
L 379.523298 176.143709 
L 383.346962 194.435574 
L 387.170626 235.967199 
L 390.99429 292.094621 
L 394.817953 328.137527 
L 398.641617 344.184237 
L 402.465281 351.030532 
L 406.288945 352.89462 
L 410.112608 348.717574 
L 413.936272 331.694238 
L 417.759936 312.714241 
L 425.407264 227.274774 
L 429.230927 199.234279 
L 433.054591 183.975642 
L 436.878255 192.906409 
L 440.701919 215.861105 
L 444.525582 223.68742 
L 448.349246 218.123315 
L 452.17291 188.438262 
L 455.996574 108.864521 
L 459.820238 85.058143 
L 463.643901 97.824018 
L 467.467565 121.361767 
L 471.291229 141.690882 
L 475.114893 171.233872 
L 478.938556 216.914499 
L 482.76222 276.898822 
L 486.585884 315.307234 
L 490.409548 332.313975 
L 494.233212 340.375157 
L 498.056875 346.577829 
L 501.880539 343.789551 
L 505.704203 328.226813 
L 509.527867 309.164735 
L 513.35153 262.521609 
L 517.175194 217.514246 
L 520.998858 185.922892 
L 524.822522 172.340419 
L 528.646185 184.219528 
L 532.469849 208.649277 
L 536.293513 217.721323 
L 540.117177 216.138937 
L 543.940841 192.362122 
L 547.764504 111.680527 
L 551.588168 84.520806 
L 555.411832 97.909638 
L 563.059159 140.965307 
L 566.882823 170.194814 
L 570.706487 216.534657 
L 574.530151 273.519748 
L 578.353815 311.047137 
L 582.177478 327.367418 
L 586.001142 334.972432 
L 589.824806 338.810269 
L 593.64847 339.187383 
L 597.472133 323.5426 
L 601.295797 304.216809 
L 605.119461 261.43033 
L 608.943125 220.572959 
L 612.766788 191.82058 
L 616.590452 172.583038 
L 620.414116 185.182903 
L 624.23778 204.56716 
L 628.061444 209.362898 
L 631.885107 196.580599 
L 635.708771 161.482167 
L 639.532435 94.419466 
L 643.356099 82.547561 
L 647.179762 96.582723 
L 651.003426 119.891118 
L 654.82709 141.900534 
L 658.650754 169.096588 
L 662.474418 215.522464 
L 666.298081 274.06806 
L 670.121745 310.901768 
L 673.945409 328.638842 
L 677.769073 336.63359 
L 681.592736 340.313337 
L 685.4164 340.36616 
L 689.240064 332.979842 
L 693.063728 321.712513 
L 696.887392 294.442738 
L 700.711055 250.985536 
L 704.534719 210.651448 
L 708.358383 182.758094 
L 712.182047 187.467032 
L 716.00571 213.552256 
L 719.829374 225.401191 
L 723.653038 221.700807 
L 727.476702 190.548855 
L 731.300365 110.012171 
L 735.124029 86.950701 
L 738.947693 100.023718 
L 742.771357 124.684489 
L 746.595021 142.488485 
L 750.418684 169.263373 
L 754.242348 210.731734 
L 758.066012 268.258653 
L 761.889676 308.971074 
L 765.713339 328.061081 
L 769.537003 337.297909 
L 773.360667 343.154563 
L 777.184331 342.508764 
L 781.007995 334.258954 
L 784.831658 334.16763 
L 788.655322 291.263073 
L 792.478986 237.511407 
L 796.30265 206.880183 
L 800.126313 186.150081 
L 803.949977 196.043649 
L 807.773641 220.449353 
L 811.597305 228.41259 
L 815.420968 224.308322 
L 819.244632 193.463515 
L 823.068296 110.376099 
L 826.89196 86.48999 
L 830.715624 99.954328 
L 834.539287 122.341614 
L 838.362951 141.847849 
L 842.186615 164.900781 
L 846.010279 199.808498 
L 849.833942 255.635647 
L 853.657606 300.959726 
L 857.48127 323.993046 
L 861.304934 333.982148 
L 865.128598 337.821677 
L 868.952261 339.161802 
L 872.775925 331.139972 
L 876.599589 329.726649 
L 880.423253 288.133781 
L 884.246916 239.323118 
L 888.07058 213.467606 
L 891.894244 210.064284 
L 895.717908 205.835657 
L 899.541571 235.118564 
L 903.365235 245.013843 
L 907.188899 242.208054 
L 911.012563 217.600255 
L 914.836227 130.157039 
L 918.65989 101.60009 
L 922.483554 117.412507 
L 926.307218 142.076918 
L 930.130882 159.112552 
L 933.954545 179.477701 
L 933.954545 179.477701 
" clip-path="url(#p46ca2d29a4)" style="fill: none; stroke: #1f77b4; stroke-width: 1.5; stroke-linecap: square"/>
   </g>
   <g id="line2d_20">
    <path d="M 173.045455 212.606137 
L 176.869118 194.272162 
L 180.692782 141.906149 
L 184.516446 71.048471 
L 188.34011 92.265751 
L 192.163773 109.556254 
L 195.987437 144.51921 
L 199.811101 194.511735 
L 203.634765 238.386417 
L 207.458429 270.40807 
L 211.282092 300.05501 
L 215.105756 320.590839 
L 218.92942 334.285208 
L 222.753084 344.446528 
L 226.576747 346.885788 
L 230.400411 332.309075 
L 234.224075 304.066451 
L 238.047739 292.74689 
L 241.871402 241.698456 
L 245.695066 210.443387 
L 249.51873 202.889616 
L 253.342394 207.809643 
L 257.166058 219.291227 
L 260.989721 236.665545 
L 264.813385 231.739253 
L 268.637049 218.147167 
L 272.460713 168.776825 
L 276.284376 88.978777 
L 280.10804 102.670131 
L 283.931704 122.645638 
L 287.755368 154.029844 
L 291.579032 205.265273 
L 295.402695 250.541584 
L 299.226359 282.507455 
L 303.050023 310.751164 
L 306.873687 333.221053 
L 310.69735 346.08627 
L 314.521014 355.454386 
L 318.344678 360.087867 
L 322.168342 347.929825 
L 325.992005 330.121968 
L 329.815669 343.204284 
L 333.639333 328.327646 
L 337.462997 296.766481 
L 341.286661 260.356572 
L 345.110324 246.169395 
L 348.933988 255.910556 
L 352.757652 269.524832 
L 356.581316 267.487263 
L 360.404979 246.958548 
L 364.228643 206.642073 
L 368.052307 127.51186 
L 371.875971 147.022686 
L 375.699635 147.679119 
L 379.523298 168.556192 
L 383.346962 202.158508 
L 387.170626 245.884122 
L 390.99429 287.412547 
L 394.817953 326.501288 
L 398.641617 350.914943 
L 402.465281 361.885816 
L 406.288945 366.152141 
L 410.112608 366.20194 
L 413.936272 349.97187 
L 417.759936 310.863954 
L 421.5836 278.994571 
L 425.407264 237.143183 
L 429.230927 209.008919 
L 433.054591 199.872791 
L 436.878255 199.833593 
L 440.701919 211.783392 
L 444.525582 224.712966 
L 448.349246 222.10683 
L 452.17291 212.39422 
L 455.996574 170.148726 
L 459.820238 92.620752 
L 463.643901 98.072408 
L 467.467565 111.736483 
L 471.291229 146.022323 
L 475.114893 195.393277 
L 478.938556 241.759044 
L 482.76222 276.851279 
L 486.585884 309.53177 
L 490.409548 330.236313 
L 494.233212 340.680597 
L 498.056875 349.809894 
L 501.880539 356.397694 
L 505.704203 336.61785 
L 509.527867 292.684135 
L 513.35153 263.710212 
L 517.175194 219.901348 
L 520.998858 192.780922 
L 524.822522 181.345792 
L 528.646185 183.073919 
L 532.469849 197.629854 
L 536.293513 210.380066 
L 540.117177 206.446175 
L 543.940841 195.793413 
L 547.764504 149.941844 
L 551.588168 71.765587 
L 555.411832 90.279395 
L 559.235496 103.088405 
L 563.059159 133.068391 
L 570.706487 235.603557 
L 574.530151 275.314575 
L 578.353815 307.944277 
L 582.177478 327.606479 
L 586.001142 337.032685 
L 589.824806 347.717531 
L 593.64847 351.151218 
L 597.472133 336.314344 
L 601.295797 292.977275 
L 605.119461 262.440925 
L 608.943125 223.825299 
L 612.766788 198.668332 
L 616.590452 189.444525 
L 620.414116 185.213724 
L 624.23778 199.491077 
L 628.061444 209.590631 
L 631.885107 203.772619 
L 635.708771 183.248757 
L 639.532435 127.837368 
L 643.356099 66.96 
L 647.179762 84.626611 
L 651.003426 103.435632 
L 654.82709 142.348357 
L 658.650754 195.071962 
L 662.474418 240.984025 
L 666.298081 276.538822 
L 670.121745 309.7908 
L 673.945409 331.233236 
L 677.769073 342.942003 
L 681.592736 350.951739 
L 685.4164 353.580866 
L 689.240064 338.026829 
L 693.063728 305.72876 
L 700.711055 264.173763 
L 704.534719 234.106994 
L 708.358383 207.987261 
L 712.182047 192.135089 
L 716.00571 203.648098 
L 719.829374 223.405469 
L 723.653038 217.706797 
L 727.476702 196.713542 
L 731.300365 150.944233 
L 735.124029 86.866203 
L 738.947693 95.509947 
L 742.771357 111.81554 
L 746.595021 144.208637 
L 754.242348 237.713304 
L 758.066012 273.31889 
L 761.889676 307.736506 
L 765.713339 332.808103 
L 769.537003 345.431108 
L 773.360667 353.129848 
L 777.184331 358.501929 
L 781.007995 344.667067 
L 784.831658 311.423051 
L 788.655322 301.999294 
L 792.478986 257.947983 
L 796.30265 215.707719 
L 800.126313 199.863086 
L 803.949977 195.896262 
L 807.773641 210.624822 
L 811.597305 226.65937 
L 815.420968 222.192341 
L 819.244632 208.281815 
L 823.068296 161.082091 
L 826.89196 85.746595 
L 830.715624 91.856428 
L 834.539287 112.310044 
L 838.362951 137.311725 
L 846.010279 227.639145 
L 849.833942 259.680869 
L 853.657606 292.806065 
L 857.48127 318.200766 
L 861.304934 332.142529 
L 865.128598 340.896424 
L 868.952261 344.678846 
L 872.775925 335.350824 
L 876.599589 303.128749 
L 880.423253 293.354278 
L 884.246916 243.734658 
L 888.07058 209.233368 
L 891.894244 201.595453 
L 895.717908 214.890157 
L 899.541571 213.48848 
L 903.365235 239.57057 
L 907.188899 233.08755 
L 911.012563 221.656283 
L 914.836227 176.334601 
L 918.65989 83.445708 
L 922.483554 102.369923 
L 926.307218 114.509684 
L 930.130882 143.522569 
L 933.954545 191.537736 
L 933.954545 191.537736 
" clip-path="url(#p46ca2d29a4)" style="fill: none; stroke: #ff7f0e; stroke-width: 1.5; stroke-linecap: square"/>
   </g>
   <g id="patch_3">
    <path d="M 135 384.48 
L 135 51.84 
" style="fill: none; stroke: #000000; stroke-width: 0.8; stroke-linejoin: miter; stroke-linecap: square"/>
   </g>
   <g id="patch_4">
    <path d="M 972 384.48 
L 972 51.84 
" style="fill: none; stroke: #000000; stroke-width: 0.8; stroke-linejoin: miter; stroke-linecap: square"/>
   </g>
   <g id="patch_5">
    <path d="M 135 384.48 
L 972 384.48 
" style="fill: none; stroke: #000000; stroke-width: 0.8; stroke-linejoin: miter; stroke-linecap: square"/>
   </g>
   <g id="patch_6">
    <path d="M 135 51.84 
L 972 51.84 
" style="fill: none; stroke: #000000; stroke-width: 0.8; stroke-linejoin: miter; stroke-linecap: square"/>
   </g>
  </g>
 </g>
 <defs>
  <clipPath id="p46ca2d29a4">
   <rect x="135" y="51.84" width="837" height="332.64"/>
  </clipPath>
 </defs>
</svg>
