<?xml version="1.0" encoding="utf-8" standalone="no"?>
<!DOCTYPE svg PUBLIC "-//W3C//DTD SVG 1.1//EN"
  "http://www.w3.org/Graphics/SVG/1.1/DTD/svg11.dtd">
<svg xmlns:xlink="http://www.w3.org/1999/xlink" width="1080pt" height="432pt" viewBox="0 0 1080 432" xmlns="http://www.w3.org/2000/svg" version="1.1">
 <metadata>
  <rdf:RDF xmlns:dc="http://purl.org/dc/elements/1.1/" xmlns:cc="http://creativecommons.org/ns#" xmlns:rdf="http://www.w3.org/1999/02/22-rdf-syntax-ns#">
   <cc:Work>
    <dc:type rdf:resource="http://purl.org/dc/dcmitype/StillImage"/>
    <dc:date>2024-02-23T10:37:01.649607</dc:date>
    <dc:format>image/svg+xml</dc:format>
    <dc:creator>
     <cc:Agent>
      <dc:title>Matplotlib v3.7.1, https://matplotlib.org/</dc:title>
     </cc:Agent>
    </dc:creator>
   </cc:Work>
  </rdf:RDF>
 </metadata>
 <defs>
  <style type="text/css">*{stroke-linejoin: round; stroke-linecap: butt}</style>
 </defs>
 <g id="figure_1">
  <g id="patch_1">
   <path d="M 0 432 
L 1080 432 
L 1080 0 
L 0 0 
z
" style="fill: #ffffff"/>
  </g>
  <g id="axes_1">
   <g id="patch_2">
    <path d="M 135 384.48 
L 972 384.48 
L 972 51.84 
L 135 51.84 
z
" style="fill: #ffffff"/>
   </g>
   <g id="matplotlib.axis_1">
    <g id="xtick_1">
     <g id="line2d_1">
      <defs>
       <path id="m6a5e5e48a7" d="M 0 0 
L 0 3.5 
" style="stroke: #000000; stroke-width: 0.8"/>
      </defs>
      <g>
       <use xlink:href="#m6a5e5e48a7" x="135" y="384.48" style="stroke: #000000; stroke-width: 0.8"/>
      </g>
     </g>
     <g id="text_1">
      <!-- 0 -->
      <g transform="translate(131.81875 399.078438) scale(0.1 -0.1)">
       <defs>
        <path id="DejaVuSans-30" d="M 2034 4250 
Q 1547 4250 1301 3770 
Q 1056 3291 1056 2328 
Q 1056 1369 1301 889 
Q 1547 409 2034 409 
Q 2525 409 2770 889 
Q 3016 1369 3016 2328 
Q 3016 3291 2770 3770 
Q 2525 4250 2034 4250 
z
M 2034 4750 
Q 2819 4750 3233 4129 
Q 3647 3509 3647 2328 
Q 3647 1150 3233 529 
Q 2819 -91 2034 -91 
Q 1250 -91 836 529 
Q 422 1150 422 2328 
Q 422 3509 836 4129 
Q 1250 4750 2034 4750 
z
" transform="scale(0.015625)"/>
       </defs>
       <use xlink:href="#DejaVuSans-30"/>
      </g>
     </g>
    </g>
    <g id="xtick_2">
     <g id="line2d_2">
      <g>
       <use xlink:href="#m6a5e5e48a7" x="302.4" y="384.48" style="stroke: #000000; stroke-width: 0.8"/>
      </g>
     </g>
     <g id="text_2">
      <!-- 100 -->
      <g transform="translate(292.85625 399.078438) scale(0.1 -0.1)">
       <defs>
        <path id="DejaVuSans-31" d="M 794 531 
L 1825 531 
L 1825 4091 
L 703 3866 
L 703 4441 
L 1819 4666 
L 2450 4666 
L 2450 531 
L 3481 531 
L 3481 0 
L 794 0 
L 794 531 
z
" transform="scale(0.015625)"/>
       </defs>
       <use xlink:href="#DejaVuSans-31"/>
       <use xlink:href="#DejaVuSans-30" x="63.623047"/>
       <use xlink:href="#DejaVuSans-30" x="127.246094"/>
      </g>
     </g>
    </g>
    <g id="xtick_3">
     <g id="line2d_3">
      <g>
       <use xlink:href="#m6a5e5e48a7" x="469.8" y="384.48" style="stroke: #000000; stroke-width: 0.8"/>
      </g>
     </g>
     <g id="text_3">
      <!-- 200 -->
      <g transform="translate(460.25625 399.078438) scale(0.1 -0.1)">
       <defs>
        <path id="DejaVuSans-32" d="M 1228 531 
L 3431 531 
L 3431 0 
L 469 0 
L 469 531 
Q 828 903 1448 1529 
Q 2069 2156 2228 2338 
Q 2531 2678 2651 2914 
Q 2772 3150 2772 3378 
Q 2772 3750 2511 3984 
Q 2250 4219 1831 4219 
Q 1534 4219 1204 4116 
Q 875 4013 500 3803 
L 500 4441 
Q 881 4594 1212 4672 
Q 1544 4750 1819 4750 
Q 2544 4750 2975 4387 
Q 3406 4025 3406 3419 
Q 3406 3131 3298 2873 
Q 3191 2616 2906 2266 
Q 2828 2175 2409 1742 
Q 1991 1309 1228 531 
z
" transform="scale(0.015625)"/>
       </defs>
       <use xlink:href="#DejaVuSans-32"/>
       <use xlink:href="#DejaVuSans-30" x="63.623047"/>
       <use xlink:href="#DejaVuSans-30" x="127.246094"/>
      </g>
     </g>
    </g>
    <g id="xtick_4">
     <g id="line2d_4">
      <g>
       <use xlink:href="#m6a5e5e48a7" x="637.2" y="384.48" style="stroke: #000000; stroke-width: 0.8"/>
      </g>
     </g>
     <g id="text_4">
      <!-- 300 -->
      <g transform="translate(627.65625 399.078438) scale(0.1 -0.1)">
       <defs>
        <path id="DejaVuSans-33" d="M 2597 2516 
Q 3050 2419 3304 2112 
Q 3559 1806 3559 1356 
Q 3559 666 3084 287 
Q 2609 -91 1734 -91 
Q 1441 -91 1130 -33 
Q 819 25 488 141 
L 488 750 
Q 750 597 1062 519 
Q 1375 441 1716 441 
Q 2309 441 2620 675 
Q 2931 909 2931 1356 
Q 2931 1769 2642 2001 
Q 2353 2234 1838 2234 
L 1294 2234 
L 1294 2753 
L 1863 2753 
Q 2328 2753 2575 2939 
Q 2822 3125 2822 3475 
Q 2822 3834 2567 4026 
Q 2313 4219 1838 4219 
Q 1578 4219 1281 4162 
Q 984 4106 628 3988 
L 628 4550 
Q 988 4650 1302 4700 
Q 1616 4750 1894 4750 
Q 2613 4750 3031 4423 
Q 3450 4097 3450 3541 
Q 3450 3153 3228 2886 
Q 3006 2619 2597 2516 
z
" transform="scale(0.015625)"/>
       </defs>
       <use xlink:href="#DejaVuSans-33"/>
       <use xlink:href="#DejaVuSans-30" x="63.623047"/>
       <use xlink:href="#DejaVuSans-30" x="127.246094"/>
      </g>
     </g>
    </g>
    <g id="xtick_5">
     <g id="line2d_5">
      <g>
       <use xlink:href="#m6a5e5e48a7" x="804.6" y="384.48" style="stroke: #000000; stroke-width: 0.8"/>
      </g>
     </g>
     <g id="text_5">
      <!-- 400 -->
      <g transform="translate(795.05625 399.078438) scale(0.1 -0.1)">
       <defs>
        <path id="DejaVuSans-34" d="M 2419 4116 
L 825 1625 
L 2419 1625 
L 2419 4116 
z
M 2253 4666 
L 3047 4666 
L 3047 1625 
L 3713 1625 
L 3713 1100 
L 3047 1100 
L 3047 0 
L 2419 0 
L 2419 1100 
L 313 1100 
L 313 1709 
L 2253 4666 
z
" transform="scale(0.015625)"/>
       </defs>
       <use xlink:href="#DejaVuSans-34"/>
       <use xlink:href="#DejaVuSans-30" x="63.623047"/>
       <use xlink:href="#DejaVuSans-30" x="127.246094"/>
      </g>
     </g>
    </g>
    <g id="xtick_6">
     <g id="line2d_6">
      <g>
       <use xlink:href="#m6a5e5e48a7" x="972" y="384.48" style="stroke: #000000; stroke-width: 0.8"/>
      </g>
     </g>
     <g id="text_6">
      <!-- 500 -->
      <g transform="translate(962.45625 399.078438) scale(0.1 -0.1)">
       <defs>
        <path id="DejaVuSans-35" d="M 691 4666 
L 3169 4666 
L 3169 4134 
L 1269 4134 
L 1269 2991 
Q 1406 3038 1543 3061 
Q 1681 3084 1819 3084 
Q 2600 3084 3056 2656 
Q 3513 2228 3513 1497 
Q 3513 744 3044 326 
Q 2575 -91 1722 -91 
Q 1428 -91 1123 -41 
Q 819 9 494 109 
L 494 744 
Q 775 591 1075 516 
Q 1375 441 1709 441 
Q 2250 441 2565 725 
Q 2881 1009 2881 1497 
Q 2881 1984 2565 2268 
Q 2250 2553 1709 2553 
Q 1456 2553 1204 2497 
Q 953 2441 691 2322 
L 691 4666 
z
" transform="scale(0.015625)"/>
       </defs>
       <use xlink:href="#DejaVuSans-35"/>
       <use xlink:href="#DejaVuSans-30" x="63.623047"/>
       <use xlink:href="#DejaVuSans-30" x="127.246094"/>
      </g>
     </g>
    </g>
   </g>
   <g id="matplotlib.axis_2">
    <g id="ytick_1">
     <g id="line2d_7">
      <defs>
       <path id="m0ac23b98fc" d="M 0 0 
L -3.5 0 
" style="stroke: #000000; stroke-width: 0.8"/>
      </defs>
      <g>
       <use xlink:href="#m0ac23b98fc" x="135" y="349.782926" style="stroke: #000000; stroke-width: 0.8"/>
      </g>
     </g>
     <g id="text_7">
      <!-- 350 -->
      <g transform="translate(108.9125 353.582145) scale(0.1 -0.1)">
       <use xlink:href="#DejaVuSans-33"/>
       <use xlink:href="#DejaVuSans-35" x="63.623047"/>
       <use xlink:href="#DejaVuSans-30" x="127.246094"/>
      </g>
     </g>
    </g>
    <g id="ytick_2">
     <g id="line2d_8">
      <g>
       <use xlink:href="#m0ac23b98fc" x="135" y="310.036339" style="stroke: #000000; stroke-width: 0.8"/>
      </g>
     </g>
     <g id="text_8">
      <!-- 400 -->
      <g transform="translate(108.9125 313.835557) scale(0.1 -0.1)">
       <use xlink:href="#DejaVuSans-34"/>
       <use xlink:href="#DejaVuSans-30" x="63.623047"/>
       <use xlink:href="#DejaVuSans-30" x="127.246094"/>
      </g>
     </g>
    </g>
    <g id="ytick_3">
     <g id="line2d_9">
      <g>
       <use xlink:href="#m0ac23b98fc" x="135" y="270.289751" style="stroke: #000000; stroke-width: 0.8"/>
      </g>
     </g>
     <g id="text_9">
      <!-- 450 -->
      <g transform="translate(108.9125 274.08897) scale(0.1 -0.1)">
       <use xlink:href="#DejaVuSans-34"/>
       <use xlink:href="#DejaVuSans-35" x="63.623047"/>
       <use xlink:href="#DejaVuSans-30" x="127.246094"/>
      </g>
     </g>
    </g>
    <g id="ytick_4">
     <g id="line2d_10">
      <g>
       <use xlink:href="#m0ac23b98fc" x="135" y="230.543164" style="stroke: #000000; stroke-width: 0.8"/>
      </g>
     </g>
     <g id="text_10">
      <!-- 500 -->
      <g transform="translate(108.9125 234.342383) scale(0.1 -0.1)">
       <use xlink:href="#DejaVuSans-35"/>
       <use xlink:href="#DejaVuSans-30" x="63.623047"/>
       <use xlink:href="#DejaVuSans-30" x="127.246094"/>
      </g>
     </g>
    </g>
    <g id="ytick_5">
     <g id="line2d_11">
      <g>
       <use xlink:href="#m0ac23b98fc" x="135" y="190.796577" style="stroke: #000000; stroke-width: 0.8"/>
      </g>
     </g>
     <g id="text_11">
      <!-- 550 -->
      <g transform="translate(108.9125 194.595796) scale(0.1 -0.1)">
       <use xlink:href="#DejaVuSans-35"/>
       <use xlink:href="#DejaVuSans-35" x="63.623047"/>
       <use xlink:href="#DejaVuSans-30" x="127.246094"/>
      </g>
     </g>
    </g>
    <g id="ytick_6">
     <g id="line2d_12">
      <g>
       <use xlink:href="#m0ac23b98fc" x="135" y="151.04999" style="stroke: #000000; stroke-width: 0.8"/>
      </g>
     </g>
     <g id="text_12">
      <!-- 600 -->
      <g transform="translate(108.9125 154.849208) scale(0.1 -0.1)">
       <defs>
        <path id="DejaVuSans-36" d="M 2113 2584 
Q 1688 2584 1439 2293 
Q 1191 2003 1191 1497 
Q 1191 994 1439 701 
Q 1688 409 2113 409 
Q 2538 409 2786 701 
Q 3034 994 3034 1497 
Q 3034 2003 2786 2293 
Q 2538 2584 2113 2584 
z
M 3366 4563 
L 3366 3988 
Q 3128 4100 2886 4159 
Q 2644 4219 2406 4219 
Q 1781 4219 1451 3797 
Q 1122 3375 1075 2522 
Q 1259 2794 1537 2939 
Q 1816 3084 2150 3084 
Q 2853 3084 3261 2657 
Q 3669 2231 3669 1497 
Q 3669 778 3244 343 
Q 2819 -91 2113 -91 
Q 1303 -91 875 529 
Q 447 1150 447 2328 
Q 447 3434 972 4092 
Q 1497 4750 2381 4750 
Q 2619 4750 2861 4703 
Q 3103 4656 3366 4563 
z
" transform="scale(0.015625)"/>
       </defs>
       <use xlink:href="#DejaVuSans-36"/>
       <use xlink:href="#DejaVuSans-30" x="63.623047"/>
       <use xlink:href="#DejaVuSans-30" x="127.246094"/>
      </g>
     </g>
    </g>
    <g id="ytick_7">
     <g id="line2d_13">
      <g>
       <use xlink:href="#m0ac23b98fc" x="135" y="111.303402" style="stroke: #000000; stroke-width: 0.8"/>
      </g>
     </g>
     <g id="text_13">
      <!-- 650 -->
      <g transform="translate(108.9125 115.102621) scale(0.1 -0.1)">
       <use xlink:href="#DejaVuSans-36"/>
       <use xlink:href="#DejaVuSans-35" x="63.623047"/>
       <use xlink:href="#DejaVuSans-30" x="127.246094"/>
      </g>
     </g>
    </g>
    <g id="ytick_8">
     <g id="line2d_14">
      <g>
       <use xlink:href="#m0ac23b98fc" x="135" y="71.556815" style="stroke: #000000; stroke-width: 0.8"/>
      </g>
     </g>
     <g id="text_14">
      <!-- 700 -->
      <g transform="translate(108.9125 75.356034) scale(0.1 -0.1)">
       <defs>
        <path id="DejaVuSans-37" d="M 525 4666 
L 3525 4666 
L 3525 4397 
L 1831 0 
L 1172 0 
L 2766 4134 
L 525 4134 
L 525 4666 
z
" transform="scale(0.015625)"/>
       </defs>
       <use xlink:href="#DejaVuSans-37"/>
       <use xlink:href="#DejaVuSans-30" x="63.623047"/>
       <use xlink:href="#DejaVuSans-30" x="127.246094"/>
      </g>
     </g>
    </g>
   </g>
   <g id="line2d_15">
    <path d="M 135 130.910888 
L 136.674 162.513639 
L 138.348 188.771029 
L 140.022 205.030505 
L 141.696 215.049542 
L 143.37 222.419989 
L 145.044 226.240303 
L 146.718 231.14064 
L 148.392 218.768918 
L 150.066 186.537495 
L 151.74 151.849133 
L 153.414 127.020175 
L 155.088 108.813974 
L 156.762 102.274871 
L 158.436 128.240309 
L 160.11 131.527428 
L 161.784 130.510103 
L 163.458 131.327225 
L 165.132 118.757943 
L 166.806 124.898353 
L 168.48 127.794974 
L 170.154 105.686861 
L 171.828 96.681536 
L 173.502 113.000099 
L 175.176 133.105888 
L 178.524 186.575827 
L 180.198 204.52164 
L 181.872 216.355528 
L 183.546 223.794298 
L 185.22 228.239759 
L 186.894 239.166478 
L 188.568 236.689705 
L 190.242 220.309743 
L 191.916 199.087383 
L 193.59 172.236035 
L 195.264 152.560644 
L 196.938 145.857608 
L 198.612 158.93095 
L 200.286 162.463184 
L 201.96 167.089901 
L 203.634 172.258761 
L 205.308 161.465824 
L 206.982 158.684604 
L 208.656 157.153511 
L 210.33 129.209032 
L 212.004 112.573016 
L 213.678 122.047323 
L 215.352 139.401049 
L 217.026 171.020034 
L 218.7 199.077055 
L 220.374 213.072146 
L 222.048 220.531374 
L 223.722 225.686835 
L 225.396 228.476361 
L 227.07 232.610434 
L 228.744 215.947944 
L 230.418 179.193445 
L 232.092 146.17296 
L 233.766 120.944931 
L 235.44 101.975987 
L 237.114 96.128354 
L 238.788 135.838262 
L 240.462 154.565776 
L 242.136 190.780396 
L 243.81 192.136383 
L 245.484 161.411267 
L 247.158 141.83601 
L 248.832 154.108304 
L 250.506 129.560873 
L 252.18 123.962147 
L 253.854 140.477442 
L 257.202 192.420193 
L 258.876 210.130322 
L 260.55 216.771092 
L 262.224 212.699032 
L 263.898 218.706525 
L 265.572 220.321808 
L 267.246 222.818361 
L 268.92 209.706334 
L 272.268 140.641187 
L 273.942 109.629323 
L 275.616 101.968543 
L 277.29 126.159608 
L 278.964 174.767029 
L 280.638 182.002348 
L 282.312 183.112342 
L 283.986 179.314639 
L 285.66 168.655215 
L 289.008 150.851007 
L 290.682 129.66714 
L 292.356 175.878486 
L 294.03 139.559374 
L 295.704 150.840633 
L 297.378 176.640915 
L 299.052 181.141316 
L 300.726 198.982653 
L 302.4 212.507323 
L 304.074 219.221859 
L 305.748 221.610052 
L 307.422 225.957519 
L 309.096 211.752474 
L 312.444 138.594729 
L 314.118 115.248376 
L 315.792 123.522201 
L 317.466 176.380637 
L 319.14 211.46829 
L 320.814 235.953416 
L 322.488 212.912593 
L 324.162 198.746793 
L 325.836 166.572998 
L 327.51 150.258914 
L 329.184 142.356382 
L 330.858 126.522766 
L 332.532 128.010286 
L 334.206 142.098165 
L 335.88 153.679832 
L 337.554 172.52579 
L 340.902 191.438439 
L 342.576 203.910966 
L 344.25 211.338652 
L 347.598 220.389625 
L 349.272 205.96497 
L 350.946 168.641458 
L 352.62 134.76512 
L 354.294 118.033058 
L 355.968 123.169696 
L 357.642 130.511869 
L 359.316 161.325617 
L 360.99 169.436268 
L 362.664 200.411606 
L 364.338 205.063125 
L 366.012 200.05095 
L 367.686 176.684145 
L 369.36 198.405768 
L 371.034 174.916826 
L 372.708 144.626696 
L 374.382 164.380384 
L 376.056 181.153865 
L 377.73 200.79008 
L 379.404 168.921747 
L 381.078 188.591812 
L 382.752 204.731797 
L 384.426 210.048288 
L 386.1 213.711998 
L 387.774 215.86256 
L 389.448 200.678326 
L 392.796 126.970641 
L 394.47 101.270532 
L 396.144 124.679062 
L 397.818 134.78863 
L 399.492 174.05763 
L 401.166 189.934711 
L 402.84 191.743337 
L 406.188 163.130798 
L 407.862 162.719875 
L 409.536 155.483157 
L 411.21 133.201622 
L 412.884 123.042958 
L 414.558 145.11142 
L 416.232 157.405079 
L 417.906 172.8499 
L 419.58 176.525168 
L 422.928 204.756673 
L 424.602 210.303973 
L 426.276 214.762747 
L 427.95 222.066723 
L 429.624 211.102429 
L 432.972 138.699536 
L 434.646 121.177814 
L 436.32 139.670184 
L 437.994 163.720201 
L 439.668 210.769143 
L 441.342 190.327131 
L 443.016 179.704109 
L 444.69 193.946177 
L 446.364 188.853764 
L 448.038 172.085632 
L 449.712 157.27547 
L 451.386 131.18357 
L 453.06 142.722179 
L 454.734 158.377143 
L 456.408 171.998191 
L 458.082 176.560724 
L 459.756 174.672232 
L 461.43 185.355414 
L 463.104 198.127502 
L 466.452 212.171743 
L 468.126 225.681307 
L 469.8 222.953593 
L 471.474 202.500108 
L 473.148 176.055603 
L 474.822 147.322036 
L 476.496 127.992133 
L 478.17 122.770234 
L 479.844 146.399713 
L 481.518 164.833686 
L 483.192 165.660532 
L 484.866 158.973152 
L 486.54 169.022725 
L 488.214 174.517049 
L 489.888 149.734509 
L 491.562 114.354264 
L 493.236 104.137507 
L 494.91 128.070088 
L 496.584 150.059704 
L 498.258 170.567562 
L 499.932 185.105575 
L 501.606 201.077147 
L 503.28 211.495257 
L 504.954 218.571022 
L 506.628 221.456061 
L 508.302 224.853706 
L 509.976 211.381532 
L 511.65 177.559841 
L 513.324 160.84317 
L 514.998 158.499876 
L 516.672 176.770572 
L 518.346 190.822589 
L 520.02 220.003631 
L 521.694 215.372313 
L 523.368 199.426041 
L 525.042 174.898253 
L 526.716 171.43209 
L 528.39 205.236605 
L 530.064 187.729712 
L 531.738 146.749409 
L 533.412 131.903192 
L 535.086 155.268029 
L 536.76 154.006885 
L 538.434 164.647061 
L 540.108 193.315783 
L 541.782 188.513465 
L 543.456 201.413409 
L 545.13 212.013013 
L 546.804 212.801718 
L 548.478 214.804306 
L 550.152 204.687684 
L 551.826 167.01471 
L 553.5 133.540666 
L 555.174 142.810318 
L 556.848 162.652091 
L 558.522 171.281909 
L 560.196 206.042744 
L 561.87 200.282667 
L 563.544 190.413572 
L 565.218 174.655491 
L 566.892 183.242301 
L 568.566 180.261593 
L 571.914 138.603817 
L 573.588 154.791484 
L 575.262 121.365783 
L 576.936 109.529584 
L 578.61 135.553699 
L 580.284 164.350944 
L 581.958 184.889566 
L 583.632 196.977211 
L 585.306 203.177496 
L 586.98 206.645902 
L 588.654 210.910242 
L 590.328 201.884797 
L 593.676 140.456669 
L 595.35 116.085909 
L 597.024 98.544335 
L 598.698 90.221447 
L 600.372 109.965174 
L 602.046 111.823719 
L 603.72 109.144392 
L 605.394 110.704474 
L 607.068 99.960532 
L 610.416 113.941807 
L 612.09 83.824167 
L 613.764 74.679715 
L 615.438 94.327648 
L 618.786 140.81127 
L 620.46 167.503523 
L 622.134 188.08441 
L 623.808 199.976602 
L 625.482 208.281242 
L 628.83 218.989962 
L 630.504 209.306215 
L 633.852 147.52233 
L 635.526 120.663581 
L 637.2 99.712513 
L 638.874 91.085423 
L 640.548 110.996511 
L 642.222 112.63768 
L 643.896 111.291446 
L 645.57 108.763214 
L 647.244 104.835528 
L 648.918 113.847009 
L 650.592 121.020678 
L 652.266 92.119665 
L 653.94 83.11742 
L 655.614 104.778336 
L 657.288 128.477413 
L 658.962 148.911868 
L 660.636 173.879041 
L 662.31 194.619125 
L 663.984 209.964648 
L 665.658 217.129893 
L 667.332 222.247997 
L 669.006 233.162251 
L 670.68 233.098833 
L 672.354 216.94205 
L 675.702 171.809269 
L 677.376 156.834757 
L 679.05 151.541164 
L 680.724 164.578177 
L 682.398 168.210683 
L 684.072 174.500211 
L 685.746 179.145021 
L 687.42 179.100927 
L 689.094 196.180593 
L 690.768 215.281216 
L 692.442 195.347226 
L 694.116 191.700258 
L 695.79 211.298746 
L 697.464 236.32989 
L 699.138 258.073125 
L 700.812 281.923922 
L 702.486 304.063339 
L 704.16 318.709372 
L 705.834 328.512288 
L 707.508 336.859916 
L 710.856 367.944077 
L 712.53 369.36 
L 714.204 361.8851 
L 715.878 353.681539 
L 717.552 350.043662 
L 719.226 337.717704 
L 720.9 313.805453 
L 722.574 292.064138 
L 724.248 276.496422 
L 725.922 257.83779 
L 727.596 229.390085 
L 729.27 209.167503 
L 730.944 191.422584 
L 732.618 149.18033 
L 734.292 132.206818 
L 735.966 143.72358 
L 737.64 159.527771 
L 739.314 178.233527 
L 740.988 202.935162 
L 742.662 221.169565 
L 744.336 232.93437 
L 746.01 240.856799 
L 747.684 245.23994 
L 749.358 253.424231 
L 751.032 248.532979 
L 752.706 226.873482 
L 754.38 203.286301 
L 756.054 173.043578 
L 757.728 150.71357 
L 759.402 139.859727 
L 761.076 150.265918 
L 762.75 151.968629 
L 764.424 157.312242 
L 766.098 157.733492 
L 767.772 149.034665 
L 769.446 152.764842 
L 771.12 151.204968 
L 772.794 111.45238 
L 774.468 98.073101 
L 776.142 108.737232 
L 777.816 129.426167 
L 781.164 185.640374 
L 782.838 203.428787 
L 784.512 214.724777 
L 786.186 221.647556 
L 787.86 224.689922 
L 789.534 229.349926 
L 791.208 222.980878 
L 792.882 193.570597 
L 794.556 159.471429 
L 796.23 133.553237 
L 797.904 114.828253 
L 799.578 105.20047 
L 801.252 126.559512 
L 802.926 127.600959 
L 804.6 127.852845 
L 806.274 124.461634 
L 807.948 115.267937 
L 809.622 119.530352 
L 811.296 124.957322 
L 812.97 88.627543 
L 814.644 83.256582 
L 816.318 99.561504 
L 817.992 125.273953 
L 819.666 160.587038 
L 821.34 188.826652 
L 823.014 205.049119 
L 824.688 214.85521 
L 826.362 221.746253 
L 828.036 224.878747 
L 829.71 229.474319 
L 831.384 219.133243 
L 833.058 186.875146 
L 834.732 152.32759 
L 836.406 126.054875 
L 838.08 103.954468 
L 839.754 96.392911 
L 841.428 120.615954 
L 843.102 123.590634 
L 844.776 122.215328 
L 846.45 117.997216 
L 848.124 107.693609 
L 849.798 108.810228 
L 851.472 109.056234 
L 853.146 78.067266 
L 854.82 79.967005 
L 856.494 97.715489 
L 858.168 121.702057 
L 859.842 156.32325 
L 861.516 184.898511 
L 863.19 203.016808 
L 864.864 213.534626 
L 866.538 222.655885 
L 868.212 225.813668 
L 869.886 230.005925 
L 871.56 218.085901 
L 874.908 151.13818 
L 876.582 123.255167 
L 878.256 102.29923 
L 879.93 96.092212 
L 881.604 119.316813 
L 883.278 123.611424 
L 884.952 126.319561 
L 886.626 121.513828 
L 888.3 109.00514 
L 889.974 101.920117 
L 891.648 103.986959 
L 893.322 74.159986 
L 894.996 75.919929 
L 896.67 97.845226 
L 898.344 124.485988 
L 900.018 157.914075 
L 901.692 185.561857 
L 903.366 205.121279 
L 905.04 216.628255 
L 906.714 222.255154 
L 910.062 229.535301 
L 911.736 220.050599 
L 915.084 148.613816 
L 916.758 121.537177 
L 918.432 105.147599 
L 920.106 111.876644 
L 921.78 161.739738 
L 923.454 159.341333 
L 925.128 162.427895 
L 926.802 161.589358 
L 928.476 166.939247 
L 930.15 163.721229 
L 931.824 151.356531 
L 933.498 148.546267 
L 935.172 176.449057 
L 936.846 184.975579 
L 938.52 205.543256 
L 941.868 181.266825 
L 943.542 199.326581 
L 945.216 211.687242 
L 946.89 219.491513 
L 950.238 228.301697 
L 951.912 216.082108 
L 955.26 144.346221 
L 956.934 117.707892 
L 958.608 99.38962 
L 960.282 107.452136 
L 961.956 170.458917 
L 963.63 210.197236 
L 965.304 234.972633 
L 966.978 245.863488 
L 968.652 231.777823 
L 970.326 196.324475 
L 970.326 196.324475 
" clip-path="url(#p1b8382f578)" style="fill: none; stroke: #1f77b4; stroke-width: 1.5; stroke-linecap: square"/>
   </g>
   <g id="line2d_16">
    <path d="M 135 129.393291 
L 138.348 186.891397 
L 140.022 203.714266 
L 141.696 212.877669 
L 143.37 218.639129 
L 145.044 225.637381 
L 146.718 219.251776 
L 148.392 202.786102 
L 150.066 182.213119 
L 151.74 152.1781 
L 153.414 127.026545 
L 155.088 112.168395 
L 156.762 106.234257 
L 160.11 130.725714 
L 161.784 126.346117 
L 163.458 122.878577 
L 165.132 124.488527 
L 166.806 119.609236 
L 168.48 120.912062 
L 170.154 93.522433 
L 171.828 84.31415 
L 178.524 185.690897 
L 180.198 202.903905 
L 181.872 213.556835 
L 183.546 220.471635 
L 185.22 226.694048 
L 186.894 225.424918 
L 188.568 218.789149 
L 190.242 207.46307 
L 193.59 172.785289 
L 195.264 151.674135 
L 196.938 143.860476 
L 200.286 163.427277 
L 201.96 161.861576 
L 203.634 163.045676 
L 205.308 168.085128 
L 206.982 159.665421 
L 208.656 153.790427 
L 210.33 122.160159 
L 212.004 106.097094 
L 213.678 120.889695 
L 217.026 159.499633 
L 218.7 195.231582 
L 220.374 215.259893 
L 222.048 221.247378 
L 223.722 225.447358 
L 225.396 232.176597 
L 227.07 215.321512 
L 228.744 201.899761 
L 230.418 175.927268 
L 232.092 145.14996 
L 233.766 122.981388 
L 235.44 107.46809 
L 237.114 101.742485 
L 238.788 116.364591 
L 240.462 134.109948 
L 242.136 146.302912 
L 243.81 180.7954 
L 245.484 177.81232 
L 247.158 150.949701 
L 248.832 129.207027 
L 250.506 139.816048 
L 252.18 102.772733 
L 253.854 128.355523 
L 255.528 164.167188 
L 258.876 213.316376 
L 260.55 221.864658 
L 262.224 225.053288 
L 263.898 223.726032 
L 265.572 219.197144 
L 267.246 182.746486 
L 268.92 204.327641 
L 270.594 187.361447 
L 272.268 153.648995 
L 273.942 128.232042 
L 275.616 108.14415 
L 277.29 109.958947 
L 278.964 133.706126 
L 280.638 164.260005 
L 282.312 175.191092 
L 283.986 175.666722 
L 285.66 164.007416 
L 287.334 153.288501 
L 289.008 138.630831 
L 290.682 120.014804 
L 292.356 118.866947 
L 294.03 195.758981 
L 295.704 170.48249 
L 297.378 186.064443 
L 299.052 194.225496 
L 300.726 191.874373 
L 302.4 214.214556 
L 304.074 214.272875 
L 305.748 222.600445 
L 307.422 199.659309 
L 309.096 217.518248 
L 310.77 183.121585 
L 312.444 155.306785 
L 314.118 124.704727 
L 315.792 103.281258 
L 317.466 126.946489 
L 319.14 157.834323 
L 320.814 196.89631 
L 322.488 220.195563 
L 324.162 203.573513 
L 325.836 194.593414 
L 327.51 160.920845 
L 329.184 147.797921 
L 330.858 135.560028 
L 332.532 116.36527 
L 334.206 128.764924 
L 335.88 150.954505 
L 337.554 161.187941 
L 339.228 178.884827 
L 340.902 185.311383 
L 344.25 209.229493 
L 345.924 208.367266 
L 347.598 198.14038 
L 349.272 204.296395 
L 350.946 178.125411 
L 352.62 158.330767 
L 354.294 123.01705 
L 355.968 108.307416 
L 357.642 127.945345 
L 359.316 145.313129 
L 360.99 156.216512 
L 362.664 162.983961 
L 364.338 196.417284 
L 366.012 197.303528 
L 367.686 191.707129 
L 369.36 151.675785 
L 371.034 198.283074 
L 372.708 160.621047 
L 374.382 139.268125 
L 376.056 172.831527 
L 377.73 193.707946 
L 379.404 221.289007 
L 381.078 198.277203 
L 382.752 208.87356 
L 384.426 211.798175 
L 386.1 202.938451 
L 387.774 205.877234 
L 389.448 201.228067 
L 391.122 177.095649 
L 392.796 146.980525 
L 394.47 121.096336 
L 396.144 101.415954 
L 397.818 134.920987 
L 399.492 130.150038 
L 401.166 171.961585 
L 402.84 185.834512 
L 404.514 190.262628 
L 406.188 182.132044 
L 407.862 155.187865 
L 409.536 149.410297 
L 411.21 136.113045 
L 412.884 121.262513 
L 414.558 118.969952 
L 416.232 158.023788 
L 419.58 190.36311 
L 421.254 187.96012 
L 422.928 199.742373 
L 424.602 208.904854 
L 427.95 197.905889 
L 429.624 207.982172 
L 431.298 183.867706 
L 434.646 127.451133 
L 436.32 108.987552 
L 437.994 146.089575 
L 439.668 154.245582 
L 441.342 204.054577 
L 443.016 189.446251 
L 444.69 188.019847 
L 446.364 191.258524 
L 448.038 173.486239 
L 449.712 158.961171 
L 451.386 137.989024 
L 453.06 123.036166 
L 454.734 147.670317 
L 456.408 168.677397 
L 458.082 184.451727 
L 459.756 184.587871 
L 461.43 185.025219 
L 463.104 193.185981 
L 464.778 199.499779 
L 466.452 197.558785 
L 468.126 201.742608 
L 469.8 225.196976 
L 471.474 202.400086 
L 473.148 184.493599 
L 474.822 162.202274 
L 476.496 128.534266 
L 478.17 111.513634 
L 479.844 117.975269 
L 481.518 144.729496 
L 483.192 155.913609 
L 484.866 158.073617 
L 486.54 151.41912 
L 488.214 169.292664 
L 489.888 170.103946 
L 491.562 139.757825 
L 493.236 127.03096 
L 494.91 112.427388 
L 498.258 169.266803 
L 499.932 192.465235 
L 501.606 198.085845 
L 503.28 207.40281 
L 504.954 215.875499 
L 506.628 219.311211 
L 508.302 203.888594 
L 509.976 198.766175 
L 511.65 177.732118 
L 513.324 145.277467 
L 514.998 140.998402 
L 516.672 150.797595 
L 518.346 181.169431 
L 520.02 189.738188 
L 521.694 219.009716 
L 523.368 212.309175 
L 525.042 202.441133 
L 526.716 168.240146 
L 528.39 170.723095 
L 530.064 214.63696 
L 531.738 173.668864 
L 533.412 160.446816 
L 535.086 143.093055 
L 536.76 166.518117 
L 538.434 172.462153 
L 540.108 188.159387 
L 541.782 206.744798 
L 543.456 197.075101 
L 545.13 213.528888 
L 546.804 206.435491 
L 548.478 196.535281 
L 550.152 198.860399 
L 551.826 178.384259 
L 553.5 145.202021 
L 555.174 115.892843 
L 556.848 138.936014 
L 558.522 173.231031 
L 560.196 173.197504 
L 561.87 209.065063 
L 563.544 198.911392 
L 565.218 200.160799 
L 566.892 173.364312 
L 568.566 183.074036 
L 570.24 169.463984 
L 571.914 143.765816 
L 573.588 130.345521 
L 575.262 159.47974 
L 576.936 132.31844 
L 578.61 132.086229 
L 581.958 181.782418 
L 583.632 203.2824 
L 585.306 205.140476 
L 586.98 211.613367 
L 588.654 197.348068 
L 590.328 193.444975 
L 592.002 169.692119 
L 595.35 116.887429 
L 597.024 100.279547 
L 598.698 91.766441 
L 600.372 104.529452 
L 602.046 116.355615 
L 603.72 107.962496 
L 605.394 107.960167 
L 607.068 108.387618 
L 608.742 104.28288 
L 610.416 114.86667 
L 612.09 102.314958 
L 613.764 88.767058 
L 615.438 97.157897 
L 617.112 115.726181 
L 618.786 143.236282 
L 620.46 166.4679 
L 622.134 183.323568 
L 623.808 195.538851 
L 625.482 203.325243 
L 627.156 209.605029 
L 628.83 214.183649 
L 632.178 170.480355 
L 633.852 140.852263 
L 635.526 118.802465 
L 637.2 101.995365 
L 638.874 94.631766 
L 642.222 112.077034 
L 643.896 107.757019 
L 645.57 106.54075 
L 647.244 104.441148 
L 648.918 111.69752 
L 650.592 118.046785 
L 652.266 98.349033 
L 653.94 82.398434 
L 655.614 104.429795 
L 657.288 129.446516 
L 660.636 175.232091 
L 662.31 190.679404 
L 663.984 202.514154 
L 665.658 212.800767 
L 667.332 218.14317 
L 669.006 224.529964 
L 670.68 213.31788 
L 672.354 203.506169 
L 674.028 185.266212 
L 675.702 164.655918 
L 677.376 149.757595 
L 679.05 147.073681 
L 682.398 165.730124 
L 684.072 165.494322 
L 685.746 169.303678 
L 687.42 173.786134 
L 689.094 179.386948 
L 690.768 197.88061 
L 692.442 194.476678 
L 694.116 170.474533 
L 695.79 185.318321 
L 697.464 224.115177 
L 699.138 237.012295 
L 700.812 268.236412 
L 702.486 296.723949 
L 704.16 314.015024 
L 705.834 324.556409 
L 707.508 336.076175 
L 709.182 339.423899 
L 710.856 352.004285 
L 712.53 368.255603 
L 714.204 365.233077 
L 715.878 345.59231 
L 717.552 333.376081 
L 719.226 338.945673 
L 720.9 321.839527 
L 722.574 287.977662 
L 724.248 269.531451 
L 725.922 261.893406 
L 727.596 236.872682 
L 729.27 196.889905 
L 730.944 182.491956 
L 732.618 153.899207 
L 734.292 142.159941 
L 735.966 146.49461 
L 737.64 161.056212 
L 739.314 169.061569 
L 740.988 192.017067 
L 742.662 225.91862 
L 744.336 233.56176 
L 746.01 240.226713 
L 747.684 249.764389 
L 749.358 245.80909 
L 751.032 246.206216 
L 752.706 228.406178 
L 756.054 183.286354 
L 757.728 153.670829 
L 759.402 136.552432 
L 761.076 144.26619 
L 762.75 166.16165 
L 764.424 154.90175 
L 766.098 156.407142 
L 767.772 150.123038 
L 769.446 148.257928 
L 771.12 158.351484 
L 772.794 129.524243 
L 774.468 119.319918 
L 776.142 124.012364 
L 777.816 137.704316 
L 779.49 153.38219 
L 781.164 187.101289 
L 782.838 205.808919 
L 784.512 214.12989 
L 786.186 219.334597 
L 787.86 225.393332 
L 789.534 223.632197 
L 791.208 204.773771 
L 792.882 183.164572 
L 794.556 153.695282 
L 796.23 129.243805 
L 797.904 114.496909 
L 799.578 108.118823 
L 801.252 125.719982 
L 802.926 130.417717 
L 804.6 124.365678 
L 806.274 122.361997 
L 807.948 115.685522 
L 809.622 120.611197 
L 811.296 124.875173 
L 812.97 101.579801 
L 814.644 87.310913 
L 817.992 129.109165 
L 819.666 153.257158 
L 821.34 186.404462 
L 823.014 204.6418 
L 824.688 213.707195 
L 826.362 217.797134 
L 828.036 224.797036 
L 829.71 219.67059 
L 831.384 201.045102 
L 833.058 181.073801 
L 834.732 150.392803 
L 836.406 125.335277 
L 838.08 110.361313 
L 839.754 102.222918 
L 841.428 114.78807 
L 843.102 125.172157 
L 844.776 119.771046 
L 846.45 116.268329 
L 848.124 112.293816 
L 849.798 113.500139 
L 851.472 109.651726 
L 853.146 80.375298 
L 854.82 72.887443 
L 856.494 102.28672 
L 858.168 125.952145 
L 859.842 152.772067 
L 861.516 182.130249 
L 863.19 199.816122 
L 864.864 212.948118 
L 866.538 217.195695 
L 868.212 225.511402 
L 869.886 224.438385 
L 871.56 205.399906 
L 873.234 179.754527 
L 874.908 147.887923 
L 876.582 124.968524 
L 878.256 107.55358 
L 879.93 100.468479 
L 883.278 123.510194 
L 884.952 120.162447 
L 886.626 119.268052 
L 889.974 112.919078 
L 891.648 97.520283 
L 893.322 81.026032 
L 894.996 66.96 
L 896.67 93.945808 
L 901.692 181.321635 
L 903.366 198.83284 
L 905.04 213.015414 
L 906.714 218.973521 
L 908.388 223.904121 
L 910.062 226.583012 
L 911.736 199.44505 
L 913.41 182.215545 
L 915.084 149.815526 
L 916.758 123.414224 
L 918.432 105.976428 
L 920.106 103.152586 
L 921.78 129.751166 
L 923.454 148.712063 
L 925.128 149.949487 
L 926.802 148.384707 
L 928.476 140.442182 
L 930.15 161.574296 
L 931.824 138.443548 
L 933.498 108.27782 
L 935.172 121.85158 
L 936.846 179.246244 
L 938.52 190.271167 
L 940.194 220.809423 
L 941.868 206.25995 
L 943.542 198.428242 
L 945.216 205.758217 
L 946.89 198.585152 
L 948.564 211.688425 
L 950.238 214.680287 
L 951.912 224.888203 
L 953.586 196.242228 
L 955.26 164.307359 
L 956.934 141.584072 
L 958.608 120.532063 
L 960.282 102.318451 
L 961.956 113.629781 
L 963.63 160.815462 
L 965.304 200.236682 
L 968.652 227.246094 
L 970.326 212.023399 
L 970.326 212.023399 
" clip-path="url(#p1b8382f578)" style="fill: none; stroke: #ff7f0e; stroke-width: 1.5; stroke-linecap: square"/>
   </g>
   <g id="patch_3">
    <path d="M 135 384.48 
L 135 51.84 
" style="fill: none; stroke: #000000; stroke-width: 0.8; stroke-linejoin: miter; stroke-linecap: square"/>
   </g>
   <g id="patch_4">
    <path d="M 972 384.48 
L 972 51.84 
" style="fill: none; stroke: #000000; stroke-width: 0.8; stroke-linejoin: miter; stroke-linecap: square"/>
   </g>
   <g id="patch_5">
    <path d="M 135 384.48 
L 972 384.48 
" style="fill: none; stroke: #000000; stroke-width: 0.8; stroke-linejoin: miter; stroke-linecap: square"/>
   </g>
   <g id="patch_6">
    <path d="M 135 51.84 
L 972 51.84 
" style="fill: none; stroke: #000000; stroke-width: 0.8; stroke-linejoin: miter; stroke-linecap: square"/>
   </g>
  </g>
 </g>
 <defs>
  <clipPath id="p1b8382f578">
   <rect x="135" y="51.84" width="837" height="332.64"/>
  </clipPath>
 </defs>
</svg>
