<?xml version="1.0" encoding="utf-8" standalone="no"?>
<!DOCTYPE svg PUBLIC "-//W3C//DTD SVG 1.1//EN"
  "http://www.w3.org/Graphics/SVG/1.1/DTD/svg11.dtd">
<svg xmlns:xlink="http://www.w3.org/1999/xlink" width="1080pt" height="432pt" viewBox="0 0 1080 432" xmlns="http://www.w3.org/2000/svg" version="1.1">
 <metadata>
  <rdf:RDF xmlns:dc="http://purl.org/dc/elements/1.1/" xmlns:cc="http://creativecommons.org/ns#" xmlns:rdf="http://www.w3.org/1999/02/22-rdf-syntax-ns#">
   <cc:Work>
    <dc:type rdf:resource="http://purl.org/dc/dcmitype/StillImage"/>
    <dc:date>2024-02-21T10:37:42.236573</dc:date>
    <dc:format>image/svg+xml</dc:format>
    <dc:creator>
     <cc:Agent>
      <dc:title>Matplotlib v3.7.1, https://matplotlib.org/</dc:title>
     </cc:Agent>
    </dc:creator>
   </cc:Work>
  </rdf:RDF>
 </metadata>
 <defs>
  <style type="text/css">*{stroke-linejoin: round; stroke-linecap: butt}</style>
 </defs>
 <g id="figure_1">
  <g id="patch_1">
   <path d="M 0 432 
L 1080 432 
L 1080 0 
L 0 0 
z
" style="fill: #ffffff"/>
  </g>
  <g id="axes_1">
   <g id="patch_2">
    <path d="M 135 384.48 
L 972 384.48 
L 972 51.84 
L 135 51.84 
z
" style="fill: #ffffff"/>
   </g>
   <g id="matplotlib.axis_1">
    <g id="xtick_1">
     <g id="line2d_1">
      <defs>
       <path id="mee9a88916a" d="M 0 0 
L 0 3.5 
" style="stroke: #000000; stroke-width: 0.8"/>
      </defs>
      <g>
       <use xlink:href="#mee9a88916a" x="135" y="384.48" style="stroke: #000000; stroke-width: 0.8"/>
      </g>
     </g>
     <g id="text_1">
      <!-- 0 -->
      <g transform="translate(131.81875 399.078438) scale(0.1 -0.1)">
       <defs>
        <path id="DejaVuSans-30" d="M 2034 4250 
Q 1547 4250 1301 3770 
Q 1056 3291 1056 2328 
Q 1056 1369 1301 889 
Q 1547 409 2034 409 
Q 2525 409 2770 889 
Q 3016 1369 3016 2328 
Q 3016 3291 2770 3770 
Q 2525 4250 2034 4250 
z
M 2034 4750 
Q 2819 4750 3233 4129 
Q 3647 3509 3647 2328 
Q 3647 1150 3233 529 
Q 2819 -91 2034 -91 
Q 1250 -91 836 529 
Q 422 1150 422 2328 
Q 422 3509 836 4129 
Q 1250 4750 2034 4750 
z
" transform="scale(0.015625)"/>
       </defs>
       <use xlink:href="#DejaVuSans-30"/>
      </g>
     </g>
    </g>
    <g id="xtick_2">
     <g id="line2d_2">
      <g>
       <use xlink:href="#mee9a88916a" x="302.4" y="384.48" style="stroke: #000000; stroke-width: 0.8"/>
      </g>
     </g>
     <g id="text_2">
      <!-- 100 -->
      <g transform="translate(292.85625 399.078438) scale(0.1 -0.1)">
       <defs>
        <path id="DejaVuSans-31" d="M 794 531 
L 1825 531 
L 1825 4091 
L 703 3866 
L 703 4441 
L 1819 4666 
L 2450 4666 
L 2450 531 
L 3481 531 
L 3481 0 
L 794 0 
L 794 531 
z
" transform="scale(0.015625)"/>
       </defs>
       <use xlink:href="#DejaVuSans-31"/>
       <use xlink:href="#DejaVuSans-30" x="63.623047"/>
       <use xlink:href="#DejaVuSans-30" x="127.246094"/>
      </g>
     </g>
    </g>
    <g id="xtick_3">
     <g id="line2d_3">
      <g>
       <use xlink:href="#mee9a88916a" x="469.8" y="384.48" style="stroke: #000000; stroke-width: 0.8"/>
      </g>
     </g>
     <g id="text_3">
      <!-- 200 -->
      <g transform="translate(460.25625 399.078438) scale(0.1 -0.1)">
       <defs>
        <path id="DejaVuSans-32" d="M 1228 531 
L 3431 531 
L 3431 0 
L 469 0 
L 469 531 
Q 828 903 1448 1529 
Q 2069 2156 2228 2338 
Q 2531 2678 2651 2914 
Q 2772 3150 2772 3378 
Q 2772 3750 2511 3984 
Q 2250 4219 1831 4219 
Q 1534 4219 1204 4116 
Q 875 4013 500 3803 
L 500 4441 
Q 881 4594 1212 4672 
Q 1544 4750 1819 4750 
Q 2544 4750 2975 4387 
Q 3406 4025 3406 3419 
Q 3406 3131 3298 2873 
Q 3191 2616 2906 2266 
Q 2828 2175 2409 1742 
Q 1991 1309 1228 531 
z
" transform="scale(0.015625)"/>
       </defs>
       <use xlink:href="#DejaVuSans-32"/>
       <use xlink:href="#DejaVuSans-30" x="63.623047"/>
       <use xlink:href="#DejaVuSans-30" x="127.246094"/>
      </g>
     </g>
    </g>
    <g id="xtick_4">
     <g id="line2d_4">
      <g>
       <use xlink:href="#mee9a88916a" x="637.2" y="384.48" style="stroke: #000000; stroke-width: 0.8"/>
      </g>
     </g>
     <g id="text_4">
      <!-- 300 -->
      <g transform="translate(627.65625 399.078438) scale(0.1 -0.1)">
       <defs>
        <path id="DejaVuSans-33" d="M 2597 2516 
Q 3050 2419 3304 2112 
Q 3559 1806 3559 1356 
Q 3559 666 3084 287 
Q 2609 -91 1734 -91 
Q 1441 -91 1130 -33 
Q 819 25 488 141 
L 488 750 
Q 750 597 1062 519 
Q 1375 441 1716 441 
Q 2309 441 2620 675 
Q 2931 909 2931 1356 
Q 2931 1769 2642 2001 
Q 2353 2234 1838 2234 
L 1294 2234 
L 1294 2753 
L 1863 2753 
Q 2328 2753 2575 2939 
Q 2822 3125 2822 3475 
Q 2822 3834 2567 4026 
Q 2313 4219 1838 4219 
Q 1578 4219 1281 4162 
Q 984 4106 628 3988 
L 628 4550 
Q 988 4650 1302 4700 
Q 1616 4750 1894 4750 
Q 2613 4750 3031 4423 
Q 3450 4097 3450 3541 
Q 3450 3153 3228 2886 
Q 3006 2619 2597 2516 
z
" transform="scale(0.015625)"/>
       </defs>
       <use xlink:href="#DejaVuSans-33"/>
       <use xlink:href="#DejaVuSans-30" x="63.623047"/>
       <use xlink:href="#DejaVuSans-30" x="127.246094"/>
      </g>
     </g>
    </g>
    <g id="xtick_5">
     <g id="line2d_5">
      <g>
       <use xlink:href="#mee9a88916a" x="804.6" y="384.48" style="stroke: #000000; stroke-width: 0.8"/>
      </g>
     </g>
     <g id="text_5">
      <!-- 400 -->
      <g transform="translate(795.05625 399.078438) scale(0.1 -0.1)">
       <defs>
        <path id="DejaVuSans-34" d="M 2419 4116 
L 825 1625 
L 2419 1625 
L 2419 4116 
z
M 2253 4666 
L 3047 4666 
L 3047 1625 
L 3713 1625 
L 3713 1100 
L 3047 1100 
L 3047 0 
L 2419 0 
L 2419 1100 
L 313 1100 
L 313 1709 
L 2253 4666 
z
" transform="scale(0.015625)"/>
       </defs>
       <use xlink:href="#DejaVuSans-34"/>
       <use xlink:href="#DejaVuSans-30" x="63.623047"/>
       <use xlink:href="#DejaVuSans-30" x="127.246094"/>
      </g>
     </g>
    </g>
    <g id="xtick_6">
     <g id="line2d_6">
      <g>
       <use xlink:href="#mee9a88916a" x="972" y="384.48" style="stroke: #000000; stroke-width: 0.8"/>
      </g>
     </g>
     <g id="text_6">
      <!-- 500 -->
      <g transform="translate(962.45625 399.078438) scale(0.1 -0.1)">
       <defs>
        <path id="DejaVuSans-35" d="M 691 4666 
L 3169 4666 
L 3169 4134 
L 1269 4134 
L 1269 2991 
Q 1406 3038 1543 3061 
Q 1681 3084 1819 3084 
Q 2600 3084 3056 2656 
Q 3513 2228 3513 1497 
Q 3513 744 3044 326 
Q 2575 -91 1722 -91 
Q 1428 -91 1123 -41 
Q 819 9 494 109 
L 494 744 
Q 775 591 1075 516 
Q 1375 441 1709 441 
Q 2250 441 2565 725 
Q 2881 1009 2881 1497 
Q 2881 1984 2565 2268 
Q 2250 2553 1709 2553 
Q 1456 2553 1204 2497 
Q 953 2441 691 2322 
L 691 4666 
z
" transform="scale(0.015625)"/>
       </defs>
       <use xlink:href="#DejaVuSans-35"/>
       <use xlink:href="#DejaVuSans-30" x="63.623047"/>
       <use xlink:href="#DejaVuSans-30" x="127.246094"/>
      </g>
     </g>
    </g>
   </g>
   <g id="matplotlib.axis_2">
    <g id="ytick_1">
     <g id="line2d_7">
      <defs>
       <path id="m42df2aeadd" d="M 0 0 
L -3.5 0 
" style="stroke: #000000; stroke-width: 0.8"/>
      </defs>
      <g>
       <use xlink:href="#m42df2aeadd" x="135" y="349.99282" style="stroke: #000000; stroke-width: 0.8"/>
      </g>
     </g>
     <g id="text_7">
      <!-- 350 -->
      <g transform="translate(108.9125 353.792039) scale(0.1 -0.1)">
       <use xlink:href="#DejaVuSans-33"/>
       <use xlink:href="#DejaVuSans-35" x="63.623047"/>
       <use xlink:href="#DejaVuSans-30" x="127.246094"/>
      </g>
     </g>
    </g>
    <g id="ytick_2">
     <g id="line2d_8">
      <g>
       <use xlink:href="#m42df2aeadd" x="135" y="310.672373" style="stroke: #000000; stroke-width: 0.8"/>
      </g>
     </g>
     <g id="text_8">
      <!-- 400 -->
      <g transform="translate(108.9125 314.471592) scale(0.1 -0.1)">
       <use xlink:href="#DejaVuSans-34"/>
       <use xlink:href="#DejaVuSans-30" x="63.623047"/>
       <use xlink:href="#DejaVuSans-30" x="127.246094"/>
      </g>
     </g>
    </g>
    <g id="ytick_3">
     <g id="line2d_9">
      <g>
       <use xlink:href="#m42df2aeadd" x="135" y="271.351926" style="stroke: #000000; stroke-width: 0.8"/>
      </g>
     </g>
     <g id="text_9">
      <!-- 450 -->
      <g transform="translate(108.9125 275.151145) scale(0.1 -0.1)">
       <use xlink:href="#DejaVuSans-34"/>
       <use xlink:href="#DejaVuSans-35" x="63.623047"/>
       <use xlink:href="#DejaVuSans-30" x="127.246094"/>
      </g>
     </g>
    </g>
    <g id="ytick_4">
     <g id="line2d_10">
      <g>
       <use xlink:href="#m42df2aeadd" x="135" y="232.031479" style="stroke: #000000; stroke-width: 0.8"/>
      </g>
     </g>
     <g id="text_10">
      <!-- 500 -->
      <g transform="translate(108.9125 235.830698) scale(0.1 -0.1)">
       <use xlink:href="#DejaVuSans-35"/>
       <use xlink:href="#DejaVuSans-30" x="63.623047"/>
       <use xlink:href="#DejaVuSans-30" x="127.246094"/>
      </g>
     </g>
    </g>
    <g id="ytick_5">
     <g id="line2d_11">
      <g>
       <use xlink:href="#m42df2aeadd" x="135" y="192.711032" style="stroke: #000000; stroke-width: 0.8"/>
      </g>
     </g>
     <g id="text_11">
      <!-- 550 -->
      <g transform="translate(108.9125 196.510251) scale(0.1 -0.1)">
       <use xlink:href="#DejaVuSans-35"/>
       <use xlink:href="#DejaVuSans-35" x="63.623047"/>
       <use xlink:href="#DejaVuSans-30" x="127.246094"/>
      </g>
     </g>
    </g>
    <g id="ytick_6">
     <g id="line2d_12">
      <g>
       <use xlink:href="#m42df2aeadd" x="135" y="153.390585" style="stroke: #000000; stroke-width: 0.8"/>
      </g>
     </g>
     <g id="text_12">
      <!-- 600 -->
      <g transform="translate(108.9125 157.189804) scale(0.1 -0.1)">
       <defs>
        <path id="DejaVuSans-36" d="M 2113 2584 
Q 1688 2584 1439 2293 
Q 1191 2003 1191 1497 
Q 1191 994 1439 701 
Q 1688 409 2113 409 
Q 2538 409 2786 701 
Q 3034 994 3034 1497 
Q 3034 2003 2786 2293 
Q 2538 2584 2113 2584 
z
M 3366 4563 
L 3366 3988 
Q 3128 4100 2886 4159 
Q 2644 4219 2406 4219 
Q 1781 4219 1451 3797 
Q 1122 3375 1075 2522 
Q 1259 2794 1537 2939 
Q 1816 3084 2150 3084 
Q 2853 3084 3261 2657 
Q 3669 2231 3669 1497 
Q 3669 778 3244 343 
Q 2819 -91 2113 -91 
Q 1303 -91 875 529 
Q 447 1150 447 2328 
Q 447 3434 972 4092 
Q 1497 4750 2381 4750 
Q 2619 4750 2861 4703 
Q 3103 4656 3366 4563 
z
" transform="scale(0.015625)"/>
       </defs>
       <use xlink:href="#DejaVuSans-36"/>
       <use xlink:href="#DejaVuSans-30" x="63.623047"/>
       <use xlink:href="#DejaVuSans-30" x="127.246094"/>
      </g>
     </g>
    </g>
    <g id="ytick_7">
     <g id="line2d_13">
      <g>
       <use xlink:href="#m42df2aeadd" x="135" y="114.070138" style="stroke: #000000; stroke-width: 0.8"/>
      </g>
     </g>
     <g id="text_13">
      <!-- 650 -->
      <g transform="translate(108.9125 117.869357) scale(0.1 -0.1)">
       <use xlink:href="#DejaVuSans-36"/>
       <use xlink:href="#DejaVuSans-35" x="63.623047"/>
       <use xlink:href="#DejaVuSans-30" x="127.246094"/>
      </g>
     </g>
    </g>
    <g id="ytick_8">
     <g id="line2d_14">
      <g>
       <use xlink:href="#m42df2aeadd" x="135" y="74.749692" style="stroke: #000000; stroke-width: 0.8"/>
      </g>
     </g>
     <g id="text_14">
      <!-- 700 -->
      <g transform="translate(108.9125 78.54891) scale(0.1 -0.1)">
       <defs>
        <path id="DejaVuSans-37" d="M 525 4666 
L 3525 4666 
L 3525 4397 
L 1831 0 
L 1172 0 
L 2766 4134 
L 525 4134 
L 525 4666 
z
" transform="scale(0.015625)"/>
       </defs>
       <use xlink:href="#DejaVuSans-37"/>
       <use xlink:href="#DejaVuSans-30" x="63.623047"/>
       <use xlink:href="#DejaVuSans-30" x="127.246094"/>
      </g>
     </g>
    </g>
   </g>
   <g id="line2d_15">
    <path d="M 135 133.467404 
L 136.674 164.731328 
L 138.348 190.707201 
L 140.022 206.792353 
L 141.696 216.703971 
L 143.37 223.995397 
L 145.044 227.774751 
L 146.718 232.622549 
L 148.392 220.38347 
L 150.066 188.497614 
L 151.74 154.181161 
L 153.414 129.618405 
L 155.088 111.607401 
L 156.762 105.138406 
L 158.436 130.825458 
L 160.11 134.077333 
L 161.784 133.070916 
L 163.458 133.879277 
L 165.132 121.444756 
L 166.806 127.519332 
L 168.48 130.384897 
L 170.154 108.513814 
L 171.828 99.605039 
L 173.502 115.748644 
L 175.176 135.63887 
L 178.524 188.535535 
L 180.198 206.288943 
L 181.872 217.995955 
L 183.546 225.35497 
L 185.22 229.75277 
L 186.894 240.562339 
L 188.568 238.112121 
L 190.242 221.907775 
L 191.916 200.91295 
L 193.59 174.349486 
L 195.264 154.885043 
L 196.938 148.253874 
L 198.612 161.187051 
L 200.286 164.681414 
L 201.96 169.258526 
L 203.634 174.371968 
L 205.308 163.694748 
L 206.982 160.943346 
L 208.656 159.428669 
L 210.33 131.783795 
L 212.004 115.32614 
L 213.678 124.698869 
L 215.352 141.866539 
L 217.026 173.146523 
L 218.7 200.902732 
L 220.374 214.747776 
L 222.048 222.12703 
L 223.722 227.227217 
L 225.396 229.986836 
L 227.07 234.076585 
L 228.744 217.592741 
L 230.418 181.232303 
L 232.092 148.565845 
L 233.766 123.608296 
L 235.44 104.842727 
L 237.114 99.057788 
L 238.788 138.341949 
L 240.462 156.868677 
L 242.136 192.695025 
L 243.81 194.036474 
L 245.484 163.640775 
L 247.158 144.275393 
L 248.832 156.416111 
L 250.506 132.131863 
L 252.18 126.593163 
L 253.854 142.931391 
L 257.202 194.317241 
L 258.876 211.837493 
L 260.55 218.407064 
L 262.224 214.378662 
L 263.898 220.321746 
L 265.572 221.919711 
L 267.246 224.389497 
L 268.92 211.41805 
L 272.268 143.09338 
L 273.942 112.414008 
L 275.616 104.835363 
L 277.29 128.767065 
L 278.964 176.853344 
L 280.638 184.01109 
L 282.312 185.109184 
L 283.986 181.352197 
L 285.66 170.807058 
L 289.008 153.193736 
L 290.682 132.23699 
L 292.356 177.952885 
L 294.03 142.023166 
L 295.704 153.183474 
L 297.378 178.707139 
L 299.052 183.15929 
L 300.726 200.809342 
L 302.4 214.189009 
L 304.074 220.831555 
L 305.748 223.194143 
L 307.422 227.494999 
L 309.096 213.442253 
L 312.444 141.068863 
L 314.118 117.972816 
L 315.792 126.157934 
L 317.466 178.449653 
L 319.14 213.161116 
L 320.814 237.383726 
L 322.488 214.589933 
L 324.162 200.576011 
L 325.836 168.747165 
L 327.51 152.607991 
L 329.184 144.790186 
L 330.858 129.126329 
L 332.532 130.597901 
L 334.206 144.534737 
L 335.88 155.992232 
L 337.554 174.636135 
L 340.902 193.346013 
L 342.576 205.684816 
L 344.25 213.032867 
L 347.598 221.986801 
L 349.272 207.716799 
L 350.946 170.793448 
L 352.62 137.280313 
L 354.294 120.727642 
L 355.968 125.809208 
L 357.642 133.072663 
L 359.316 163.556043 
L 360.99 171.579737 
L 362.664 202.222975 
L 364.338 206.824622 
L 366.012 201.866185 
L 367.686 178.749906 
L 369.36 200.238643 
L 371.034 177.001535 
L 372.708 147.036159 
L 374.382 166.578059 
L 376.056 183.171704 
L 377.73 202.597391 
L 379.404 171.070732 
L 381.078 190.529906 
L 382.752 206.496847 
L 384.426 211.756337 
L 386.1 215.380767 
L 387.774 217.508272 
L 389.448 202.486835 
L 392.796 129.569402 
L 394.47 104.144835 
L 396.144 127.302392 
L 397.818 137.303571 
L 399.492 176.151551 
L 401.166 191.858407 
L 402.84 193.647641 
L 406.188 165.34187 
L 407.862 164.935353 
L 409.536 157.776223 
L 411.21 135.733578 
L 412.884 125.68383 
L 414.558 147.515686 
L 416.232 159.67754 
L 417.906 174.95677 
L 419.58 178.592633 
L 422.928 206.521456 
L 424.602 212.009281 
L 426.276 216.420251 
L 427.95 223.645918 
L 429.624 212.799176 
L 432.972 141.172546 
L 434.646 123.838682 
L 436.32 142.132788 
L 437.994 165.924954 
L 439.668 212.469464 
L 441.342 192.246619 
L 443.016 181.737491 
L 444.69 195.826865 
L 446.364 190.789049 
L 448.038 174.200695 
L 449.712 159.54932 
L 451.386 133.737162 
L 453.06 145.152061 
L 454.734 160.639182 
L 456.408 174.114193 
L 458.082 178.627809 
L 459.756 176.759564 
L 461.43 187.328207 
L 463.104 199.963359 
L 466.452 213.857026 
L 468.126 227.221749 
L 469.8 224.523279 
L 471.474 204.289085 
L 473.148 178.128103 
L 474.822 149.702601 
L 476.496 130.579942 
L 478.17 125.414029 
L 479.844 148.790166 
L 481.518 167.026501 
L 483.192 167.844482 
L 484.866 161.2288 
L 486.54 171.170627 
L 488.214 176.606044 
L 489.888 152.089209 
L 491.562 117.08829 
L 493.236 106.981072 
L 494.91 130.657062 
L 496.584 152.410917 
L 498.258 172.698901 
L 499.932 187.081047 
L 501.606 202.88138 
L 503.28 213.187793 
L 504.954 220.187696 
L 506.628 223.041803 
L 508.302 226.403021 
L 509.976 213.075288 
L 511.65 179.616213 
L 513.324 163.078769 
L 514.998 160.760598 
L 516.672 178.835407 
L 518.346 192.736765 
L 520.02 221.604945 
L 521.694 217.023281 
L 523.368 201.247976 
L 525.042 176.983161 
L 526.716 173.554161 
L 528.39 206.996243 
L 530.064 189.677049 
L 531.738 149.136113 
L 533.412 134.449069 
L 535.086 157.563401 
L 536.76 156.315779 
L 538.434 166.841877 
L 540.108 195.203229 
L 541.782 190.452399 
L 543.456 203.214036 
L 545.13 213.699998 
L 546.804 214.480247 
L 548.478 216.461365 
L 550.152 206.453207 
L 551.826 169.184141 
L 553.5 136.068987 
L 555.174 145.239255 
L 556.848 164.868295 
L 558.522 173.40559 
L 560.196 207.793739 
L 561.87 202.095418 
L 563.544 192.332133 
L 565.218 176.743002 
L 566.892 185.23775 
L 568.566 182.288998 
L 571.914 141.077854 
L 573.588 157.091965 
L 575.262 124.024637 
L 576.936 112.315339 
L 578.61 138.060437 
L 580.284 166.548935 
L 581.958 186.867353 
L 583.632 198.825401 
L 585.306 204.95921 
L 586.98 208.39043 
L 588.654 212.60905 
L 590.328 203.680371 
L 593.676 142.91084 
L 595.35 118.80137 
L 597.024 101.447867 
L 598.698 93.214212 
L 600.372 112.746258 
L 602.046 114.584876 
L 603.72 111.934276 
L 605.394 113.477631 
L 607.068 102.84888 
L 610.416 116.680256 
L 612.09 86.88552 
L 613.764 77.839109 
L 615.438 97.276388 
L 618.786 143.26164 
L 620.46 169.667714 
L 622.134 190.027944 
L 623.808 201.792635 
L 625.482 210.008237 
L 628.83 220.602144 
L 630.504 211.022221 
L 633.852 149.900748 
L 635.526 123.329963 
L 637.2 102.60352 
L 638.874 94.068925 
L 640.548 113.766537 
L 642.222 115.390111 
L 643.896 114.05831 
L 645.57 111.557184 
L 647.244 107.671609 
L 648.918 116.586474 
L 650.592 123.683231 
L 652.266 95.092078 
L 653.94 86.18635 
L 655.614 107.61503 
L 657.288 131.060019 
L 658.962 151.275388 
L 660.636 175.974876 
L 662.31 196.492598 
L 663.984 211.673594 
L 665.658 218.762017 
L 667.332 223.825249 
L 669.006 234.622486 
L 670.68 234.559748 
L 672.354 218.576189 
L 675.702 173.927295 
L 677.376 159.113332 
L 679.05 153.876494 
L 680.724 166.773731 
L 682.398 170.367291 
L 684.072 176.589387 
L 685.746 181.184397 
L 687.42 181.140777 
L 689.094 198.037324 
L 690.768 216.933161 
L 692.442 197.212892 
L 694.116 193.605025 
L 695.79 212.993389 
L 697.464 237.756164 
L 699.138 259.26628 
L 700.812 282.861362 
L 702.486 304.763413 
L 704.16 319.252419 
L 705.834 328.950234 
L 707.508 337.208363 
L 710.856 367.959258 
L 712.53 369.36 
L 714.204 361.965242 
L 715.878 353.849634 
L 717.552 350.250761 
L 719.226 338.056954 
L 720.9 314.401078 
L 722.574 292.89286 
L 724.248 277.492052 
L 725.922 259.033468 
L 727.596 230.890762 
L 729.27 210.884996 
L 730.944 193.330328 
L 732.618 151.540971 
L 734.292 134.749439 
L 735.966 146.142725 
L 737.64 161.777473 
L 739.314 180.282677 
L 740.988 204.719475 
L 742.662 222.758379 
L 744.336 234.397048 
L 746.01 242.234538 
L 747.684 246.570685 
L 749.358 254.667228 
L 751.032 249.828418 
L 752.706 228.401141 
L 754.38 205.066849 
L 756.054 175.148371 
L 757.728 153.057772 
L 759.402 142.320299 
L 761.076 152.61492 
L 762.75 154.299376 
L 764.424 159.585697 
L 766.098 160.002431 
L 767.772 151.396868 
L 769.446 155.087052 
L 771.12 153.543902 
L 772.794 114.217519 
L 774.468 100.981684 
L 776.142 111.531481 
L 777.816 131.998601 
L 781.164 187.610112 
L 782.838 205.207807 
L 784.512 216.382688 
L 786.186 223.231245 
L 787.86 226.240992 
L 789.534 230.851035 
L 791.208 224.550272 
L 792.882 195.455311 
L 794.556 161.721735 
L 796.23 136.081423 
L 797.904 117.557198 
L 799.578 108.032638 
L 801.252 129.162681 
L 802.926 130.192962 
L 804.6 130.442147 
L 806.274 127.087295 
L 807.948 117.992167 
L 809.622 122.208884 
L 811.296 127.577668 
L 812.97 91.637397 
L 814.644 86.32402 
L 816.318 102.454131 
L 817.992 127.890904 
L 819.666 162.825384 
L 821.34 190.762228 
L 823.014 206.810767 
L 824.688 216.511722 
L 826.362 223.328884 
L 828.036 226.427793 
L 829.71 230.974094 
L 831.384 220.743889 
L 833.058 188.831645 
L 834.732 154.654488 
L 836.406 128.663454 
L 838.08 106.799995 
L 839.754 99.319509 
L 841.428 123.282846 
L 843.102 126.225634 
L 844.776 124.865073 
L 846.45 120.692185 
L 848.124 110.499048 
L 849.798 111.603694 
L 851.472 111.847063 
L 853.146 81.190341 
L 854.82 83.069713 
L 856.494 100.627907 
L 858.168 124.357305 
L 859.842 158.607309 
L 861.516 186.876202 
L 863.19 204.800245 
L 864.864 215.205297 
L 866.538 224.228764 
L 868.212 227.352691 
L 869.886 231.500001 
L 871.56 219.707776 
L 874.908 153.47783 
L 876.582 125.893763 
L 878.256 105.162504 
L 879.93 99.022034 
L 881.604 121.997634 
L 883.278 126.246201 
L 884.952 128.925303 
L 886.626 124.171094 
L 888.3 111.796517 
L 889.974 104.787455 
L 891.648 106.832138 
L 893.322 77.324953 
L 894.996 79.066027 
L 896.67 100.756253 
L 898.344 127.111388 
L 900.018 160.181078 
L 901.692 187.532436 
L 903.366 206.882153 
L 905.04 218.265758 
L 906.714 223.832329 
L 910.062 231.034422 
L 911.736 221.65141 
L 915.084 150.980531 
L 916.758 124.194193 
L 918.432 107.980334 
L 920.106 114.637234 
L 921.78 163.965724 
L 923.454 161.593034 
L 925.128 164.646503 
L 926.802 163.816956 
L 928.476 169.109487 
L 930.15 165.925971 
L 931.824 153.69384 
L 933.498 150.913706 
L 935.172 178.517339 
L 936.846 186.952444 
L 938.52 207.299606 
L 941.868 183.283453 
L 943.542 201.149582 
L 945.216 213.377719 
L 946.89 221.098317 
L 950.238 229.814044 
L 951.912 217.725467 
L 955.26 146.758691 
L 956.934 120.405963 
L 958.608 102.284089 
L 960.282 110.260163 
L 961.956 172.591421 
L 963.63 211.903689 
L 965.304 236.413458 
L 966.978 247.187548 
L 968.652 233.252901 
L 970.326 198.179663 
L 970.326 198.179663 
" clip-path="url(#p3f3029c06a)" style="fill: none; stroke: #1f77b4; stroke-width: 1.5; stroke-linecap: square"/>
   </g>
   <g id="line2d_16">
    <path d="M 135 132.764582 
L 136.674 162.858788 
L 138.348 196.247617 
L 140.022 210.694569 
L 141.696 219.812766 
L 143.37 225.011781 
L 145.044 232.817456 
L 146.718 229.486714 
L 148.392 217.982771 
L 150.066 184.18125 
L 151.74 153.722496 
L 153.414 126.540989 
L 155.088 110.283434 
L 156.762 106.928236 
L 158.436 121.570591 
L 160.11 133.165227 
L 161.784 130.912077 
L 163.458 126.381633 
L 165.132 116.766891 
L 166.806 123.09973 
L 168.48 127.705915 
L 170.154 99.840284 
L 171.828 86.761627 
L 173.502 111.01906 
L 176.85 162.384274 
L 178.524 193.319846 
L 180.198 208.650021 
L 181.872 218.646976 
L 185.22 232.974076 
L 186.894 232.409108 
L 188.568 232.34083 
L 190.242 211.146428 
L 191.916 193.963796 
L 193.59 174.396017 
L 195.264 152.716013 
L 196.938 143.420414 
L 198.612 157.612158 
L 200.286 163.157867 
L 201.96 161.605017 
L 203.634 163.641069 
L 205.308 163.644813 
L 206.982 161.279058 
L 208.656 159.258317 
L 212.004 107.986461 
L 213.678 123.330027 
L 215.352 141.188047 
L 217.026 164.140158 
L 218.7 201.059044 
L 220.374 218.165838 
L 223.722 229.028591 
L 225.396 236.242516 
L 227.07 227.654992 
L 228.744 210.851476 
L 232.092 147.93089 
L 233.766 124.066997 
L 235.44 107.557113 
L 237.114 105.086722 
L 238.788 123.893818 
L 240.462 136.091413 
L 242.136 152.722013 
L 243.81 194.894728 
L 245.484 167.663687 
L 247.158 156.822869 
L 248.832 135.265885 
L 250.506 129.005717 
L 252.18 94.798992 
L 253.854 119.260898 
L 255.528 149.240387 
L 257.202 184.021991 
L 258.876 215.56297 
L 260.55 226.076342 
L 262.224 224.075065 
L 263.898 215.367088 
L 265.572 224.463541 
L 267.246 208.28384 
L 268.92 204.481871 
L 270.594 181.986323 
L 272.268 150.795014 
L 273.942 126.868627 
L 275.616 106.548183 
L 277.29 110.188444 
L 278.964 133.377812 
L 280.638 164.42191 
L 282.312 173.530075 
L 283.986 178.396508 
L 285.66 173.491628 
L 287.334 167.032025 
L 289.008 139.505985 
L 290.682 119.109607 
L 292.356 109.498705 
L 294.03 179.856673 
L 295.704 163.773113 
L 297.378 187.144252 
L 299.052 201.685089 
L 300.726 203.577434 
L 302.4 214.413548 
L 304.074 219.643043 
L 305.748 226.762674 
L 307.422 223.870735 
L 309.096 231.735736 
L 310.77 187.81916 
L 312.444 148.474858 
L 314.118 116.419142 
L 315.792 100.36774 
L 317.466 118.574326 
L 319.14 170.564386 
L 320.814 182.248107 
L 322.488 214.045879 
L 324.162 199.110445 
L 325.836 196.941532 
L 329.184 124.695443 
L 330.858 118.115316 
L 332.532 108.342514 
L 334.206 125.913263 
L 335.88 154.845039 
L 337.554 181.265576 
L 339.228 194.228412 
L 340.902 192.177336 
L 342.576 196.943164 
L 344.25 210.813845 
L 345.924 213.029652 
L 347.598 210.991536 
L 349.272 214.82936 
L 350.946 183.515894 
L 352.62 155.727157 
L 354.294 117.053443 
L 355.968 105.806461 
L 357.642 125.922047 
L 359.316 122.417238 
L 360.99 150.615355 
L 362.664 163.401412 
L 364.338 203.353376 
L 366.012 193.356901 
L 367.686 197.326193 
L 369.36 161.261155 
L 371.034 197.955167 
L 372.708 149.409486 
L 374.382 128.688302 
L 376.056 165.176256 
L 377.73 164.715325 
L 379.404 213.342171 
L 381.078 176.219724 
L 382.752 196.47969 
L 384.426 195.422233 
L 386.1 217.292503 
L 387.774 206.431574 
L 389.448 209.461917 
L 391.122 185.556746 
L 392.796 146.273066 
L 394.47 120.749383 
L 396.144 102.108457 
L 397.818 133.969731 
L 399.492 128.864169 
L 401.166 170.029729 
L 402.84 172.585511 
L 404.514 192.497631 
L 406.188 172.044518 
L 407.862 148.269616 
L 411.21 122.908647 
L 412.884 116.68035 
L 414.558 131.650343 
L 416.232 162.197943 
L 417.906 185.969246 
L 419.58 197.848514 
L 421.254 193.557296 
L 422.928 201.795006 
L 424.602 211.518273 
L 426.276 216.794806 
L 427.95 208.911037 
L 429.624 216.970049 
L 431.298 187.230457 
L 432.972 149.817906 
L 434.646 116.636815 
L 436.32 103.775256 
L 437.994 135.413625 
L 439.668 139.065693 
L 441.342 193.669036 
L 443.016 173.763924 
L 444.69 176.819082 
L 446.364 187.324774 
L 448.038 182.0936 
L 449.712 154.676804 
L 451.386 131.940542 
L 453.06 116.331352 
L 454.734 145.791784 
L 456.408 170.122079 
L 458.082 191.285426 
L 459.756 188.75422 
L 461.43 180.872995 
L 463.104 192.353011 
L 464.778 206.739533 
L 466.452 203.449421 
L 468.126 205.426579 
L 469.8 237.590868 
L 471.474 212.2311 
L 473.148 190.626309 
L 476.496 128.455461 
L 478.17 115.906997 
L 479.844 114.771686 
L 481.518 141.173312 
L 483.192 154.46657 
L 484.866 160.144899 
L 486.54 154.545096 
L 488.214 171.311772 
L 489.888 162.522078 
L 491.562 128.227179 
L 493.236 123.506518 
L 494.91 123.654353 
L 496.584 141.778622 
L 498.258 172.655684 
L 499.932 200.101424 
L 501.606 201.744799 
L 503.28 212.561234 
L 504.954 222.61082 
L 506.628 228.294525 
L 508.302 205.774377 
L 509.976 212.737197 
L 513.324 147.199967 
L 514.998 136.076245 
L 516.672 136.887853 
L 518.346 170.367352 
L 520.02 171.905706 
L 521.694 216.010797 
L 523.368 202.548872 
L 525.042 191.124871 
L 526.716 167.537307 
L 528.39 165.701648 
L 530.064 205.105469 
L 531.738 161.167893 
L 533.412 137.751108 
L 535.086 133.94146 
L 536.76 156.899427 
L 541.782 207.415017 
L 543.456 191.163366 
L 545.13 209.29565 
L 546.804 219.158065 
L 548.478 200.923544 
L 550.152 199.129884 
L 551.826 185.048153 
L 553.5 154.047542 
L 555.174 127.66742 
L 556.848 137.14623 
L 558.522 159.897803 
L 560.196 150.936993 
L 561.87 196.399676 
L 563.544 182.016418 
L 565.218 184.029431 
L 566.892 165.712832 
L 568.566 180.348995 
L 570.24 152.346904 
L 571.914 130.291983 
L 573.588 129.077138 
L 575.262 164.640352 
L 576.936 146.521939 
L 578.61 144.158488 
L 580.284 162.98752 
L 581.958 174.481695 
L 583.632 190.14306 
L 585.306 202.360669 
L 586.98 212.400199 
L 588.654 210.258358 
L 590.328 196.654741 
L 592.002 169.801016 
L 593.676 139.713243 
L 595.35 120.181031 
L 597.024 97.64982 
L 598.698 90.231494 
L 600.372 112.873438 
L 602.046 116.781051 
L 603.72 107.452333 
L 605.394 108.055243 
L 607.068 103.055182 
L 608.742 108.656713 
L 610.416 113.415534 
L 612.09 108.172503 
L 613.764 80.771355 
L 615.438 95.715093 
L 617.112 116.771643 
L 618.786 148.362445 
L 620.46 174.909842 
L 622.134 191.016778 
L 623.808 203.21826 
L 627.156 218.547763 
L 628.83 217.894454 
L 630.504 203.851074 
L 632.178 174.345235 
L 633.852 140.67451 
L 635.526 114.30706 
L 637.2 95.880208 
L 638.874 91.398387 
L 640.548 106.809679 
L 642.222 113.115782 
L 643.896 110.320968 
L 645.57 109.592254 
L 647.244 97.760745 
L 648.918 110.063888 
L 650.592 119.162165 
L 652.266 97.23516 
L 653.94 78.396913 
L 655.614 100.211937 
L 657.288 126.960784 
L 658.962 155.61052 
L 660.636 181.569167 
L 662.31 197.528027 
L 663.984 209.809235 
L 665.658 219.857932 
L 667.332 226.296007 
L 669.006 228.471352 
L 670.68 226.69946 
L 672.354 208.823152 
L 674.028 187.705163 
L 675.702 164.505859 
L 677.376 149.242643 
L 679.05 144.093882 
L 680.724 156.671577 
L 682.398 165.655618 
L 684.072 164.299418 
L 685.746 169.144731 
L 687.42 169.142331 
L 689.094 177.743631 
L 690.768 194.388919 
L 692.442 204.403921 
L 694.116 166.364557 
L 697.464 220.705107 
L 699.138 253.512313 
L 700.812 278.5359 
L 702.486 296.270011 
L 707.508 342.031989 
L 709.182 342.572094 
L 710.856 346.039752 
L 712.53 362.625858 
L 714.204 363.164162 
L 715.878 355.399333 
L 717.552 346.550817 
L 719.226 347.282532 
L 720.9 332.376737 
L 722.574 306.270638 
L 724.248 285.664674 
L 725.922 270.496855 
L 730.944 199.47317 
L 732.618 152.391879 
L 734.292 133.632253 
L 735.966 145.459346 
L 737.64 163.364117 
L 739.314 188.105471 
L 740.988 210.329636 
L 742.662 230.286178 
L 744.336 241.102205 
L 746.01 247.550096 
L 747.684 252.442209 
L 749.358 249.548902 
L 751.032 248.593274 
L 752.706 215.310258 
L 754.38 184.706163 
L 757.728 144.981328 
L 759.402 136.671476 
L 761.076 140.697454 
L 762.75 162.59134 
L 764.424 149.852273 
L 766.098 156.804629 
L 767.772 155.140566 
L 769.446 155.728645 
L 771.12 158.822298 
L 772.794 142.26384 
L 774.468 112.434058 
L 776.142 131.185621 
L 777.816 143.407934 
L 779.49 162.148121 
L 781.164 194.193661 
L 782.838 213.332476 
L 784.512 220.493194 
L 786.186 228.580692 
L 787.86 235.94862 
L 789.534 231.152505 
L 791.208 212.418438 
L 792.882 191.00449 
L 794.556 158.416038 
L 796.23 131.41395 
L 797.904 114.673865 
L 799.578 108.197463 
L 801.252 129.101858 
L 802.926 132.735351 
L 804.6 129.249789 
L 806.274 128.529714 
L 807.948 113.597496 
L 809.622 121.606109 
L 811.296 126.870403 
L 812.97 108.576076 
L 814.644 81.224222 
L 817.992 129.060051 
L 819.666 159.015828 
L 821.34 193.608846 
L 823.014 209.989374 
L 824.688 219.1848 
L 826.362 225.491455 
L 828.036 232.914053 
L 829.71 226.079678 
L 831.384 217.980707 
L 833.058 182.825722 
L 834.732 153.326555 
L 836.406 127.084141 
L 838.08 109.294951 
L 839.754 102.955152 
L 841.428 116.857753 
L 843.102 125.208692 
L 844.776 122.923095 
L 846.45 117.657505 
L 848.124 104.727692 
L 849.798 113.359951 
L 851.472 115.131435 
L 853.146 86.93591 
L 854.82 70.868717 
L 858.168 127.422051 
L 861.516 190.644981 
L 863.19 207.557813 
L 864.864 218.303882 
L 866.538 223.987011 
L 868.212 232.535632 
L 869.886 230.14811 
L 871.56 221.505724 
L 873.234 181.776233 
L 874.908 149.2233 
L 876.582 123.394825 
L 878.256 103.819223 
L 879.93 100.897741 
L 881.604 115.113052 
L 883.278 123.660257 
L 884.952 122.413206 
L 886.626 120.568092 
L 888.3 106.647684 
L 889.974 114.16892 
L 891.648 109.511088 
L 893.322 81.994887 
L 894.996 66.96 
L 896.67 94.037974 
L 898.344 125.840065 
L 900.018 160.560087 
L 901.692 192.021245 
L 903.366 207.785374 
L 905.04 219.580356 
L 908.388 231.79571 
L 910.062 230.341713 
L 911.736 217.641645 
L 915.084 151.068798 
L 916.758 122.473444 
L 918.432 102.931777 
L 920.106 102.397601 
L 921.78 125.112359 
L 923.454 155.987885 
L 925.128 150.273269 
L 926.802 155.954862 
L 928.476 136.776929 
L 930.15 165.290444 
L 931.824 152.119199 
L 933.498 113.27941 
L 935.172 123.395641 
L 936.846 183.869836 
L 938.52 189.639218 
L 940.194 220.724691 
L 941.868 208.34043 
L 943.542 191.904368 
L 945.216 209.540683 
L 946.89 219.793422 
L 948.564 223.716227 
L 950.238 217.612846 
L 951.912 232.060902 
L 953.586 204.067595 
L 955.26 165.280557 
L 956.934 133.843207 
L 958.608 109.37554 
L 960.282 98.402294 
L 961.956 109.327686 
L 963.63 160.985691 
L 965.304 188.592321 
L 966.978 207.368699 
L 968.652 223.853287 
L 970.326 226.389821 
L 970.326 226.389821 
" clip-path="url(#p3f3029c06a)" style="fill: none; stroke: #ff7f0e; stroke-width: 1.5; stroke-linecap: square"/>
   </g>
   <g id="patch_3">
    <path d="M 135 384.48 
L 135 51.84 
" style="fill: none; stroke: #000000; stroke-width: 0.8; stroke-linejoin: miter; stroke-linecap: square"/>
   </g>
   <g id="patch_4">
    <path d="M 972 384.48 
L 972 51.84 
" style="fill: none; stroke: #000000; stroke-width: 0.8; stroke-linejoin: miter; stroke-linecap: square"/>
   </g>
   <g id="patch_5">
    <path d="M 135 384.48 
L 972 384.48 
" style="fill: none; stroke: #000000; stroke-width: 0.8; stroke-linejoin: miter; stroke-linecap: square"/>
   </g>
   <g id="patch_6">
    <path d="M 135 51.84 
L 972 51.84 
" style="fill: none; stroke: #000000; stroke-width: 0.8; stroke-linejoin: miter; stroke-linecap: square"/>
   </g>
  </g>
 </g>
 <defs>
  <clipPath id="p3f3029c06a">
   <rect x="135" y="51.84" width="837" height="332.64"/>
  </clipPath>
 </defs>
</svg>
