<?xml version="1.0" encoding="utf-8" standalone="no"?>
<!DOCTYPE svg PUBLIC "-//W3C//DTD SVG 1.1//EN"
  "http://www.w3.org/Graphics/SVG/1.1/DTD/svg11.dtd">
<svg xmlns:xlink="http://www.w3.org/1999/xlink" width="1080pt" height="432pt" viewBox="0 0 1080 432" xmlns="http://www.w3.org/2000/svg" version="1.1">
 <metadata>
  <rdf:RDF xmlns:dc="http://purl.org/dc/elements/1.1/" xmlns:cc="http://creativecommons.org/ns#" xmlns:rdf="http://www.w3.org/1999/02/22-rdf-syntax-ns#">
   <cc:Work>
    <dc:type rdf:resource="http://purl.org/dc/dcmitype/StillImage"/>
    <dc:date>2024-02-17T11:55:25.670519</dc:date>
    <dc:format>image/svg+xml</dc:format>
    <dc:creator>
     <cc:Agent>
      <dc:title>Matplotlib v3.7.1, https://matplotlib.org/</dc:title>
     </cc:Agent>
    </dc:creator>
   </cc:Work>
  </rdf:RDF>
 </metadata>
 <defs>
  <style type="text/css">*{stroke-linejoin: round; stroke-linecap: butt}</style>
 </defs>
 <g id="figure_1">
  <g id="patch_1">
   <path d="M 0 432 
L 1080 432 
L 1080 0 
L 0 0 
z
" style="fill: #ffffff"/>
  </g>
  <g id="axes_1">
   <g id="patch_2">
    <path d="M 135 384.48 
L 972 384.48 
L 972 51.84 
L 135 51.84 
z
" style="fill: #ffffff"/>
   </g>
   <g id="matplotlib.axis_1">
    <g id="xtick_1">
     <g id="line2d_1">
      <defs>
       <path id="m92730d7f2b" d="M 0 0 
L 0 3.5 
" style="stroke: #000000; stroke-width: 0.8"/>
      </defs>
      <g>
       <use xlink:href="#m92730d7f2b" x="173.045455" y="384.48" style="stroke: #000000; stroke-width: 0.8"/>
      </g>
     </g>
     <g id="text_1">
      <!-- 0 -->
      <g transform="translate(169.864205 399.078438) scale(0.1 -0.1)">
       <defs>
        <path id="DejaVuSans-30" d="M 2034 4250 
Q 1547 4250 1301 3770 
Q 1056 3291 1056 2328 
Q 1056 1369 1301 889 
Q 1547 409 2034 409 
Q 2525 409 2770 889 
Q 3016 1369 3016 2328 
Q 3016 3291 2770 3770 
Q 2525 4250 2034 4250 
z
M 2034 4750 
Q 2819 4750 3233 4129 
Q 3647 3509 3647 2328 
Q 3647 1150 3233 529 
Q 2819 -91 2034 -91 
Q 1250 -91 836 529 
Q 422 1150 422 2328 
Q 422 3509 836 4129 
Q 1250 4750 2034 4750 
z
" transform="scale(0.015625)"/>
       </defs>
       <use xlink:href="#DejaVuSans-30"/>
      </g>
     </g>
    </g>
    <g id="xtick_2">
     <g id="line2d_2">
      <g>
       <use xlink:href="#m92730d7f2b" x="268.637049" y="384.48" style="stroke: #000000; stroke-width: 0.8"/>
      </g>
     </g>
     <g id="text_2">
      <!-- 25 -->
      <g transform="translate(262.274549 399.078438) scale(0.1 -0.1)">
       <defs>
        <path id="DejaVuSans-32" d="M 1228 531 
L 3431 531 
L 3431 0 
L 469 0 
L 469 531 
Q 828 903 1448 1529 
Q 2069 2156 2228 2338 
Q 2531 2678 2651 2914 
Q 2772 3150 2772 3378 
Q 2772 3750 2511 3984 
Q 2250 4219 1831 4219 
Q 1534 4219 1204 4116 
Q 875 4013 500 3803 
L 500 4441 
Q 881 4594 1212 4672 
Q 1544 4750 1819 4750 
Q 2544 4750 2975 4387 
Q 3406 4025 3406 3419 
Q 3406 3131 3298 2873 
Q 3191 2616 2906 2266 
Q 2828 2175 2409 1742 
Q 1991 1309 1228 531 
z
" transform="scale(0.015625)"/>
        <path id="DejaVuSans-35" d="M 691 4666 
L 3169 4666 
L 3169 4134 
L 1269 4134 
L 1269 2991 
Q 1406 3038 1543 3061 
Q 1681 3084 1819 3084 
Q 2600 3084 3056 2656 
Q 3513 2228 3513 1497 
Q 3513 744 3044 326 
Q 2575 -91 1722 -91 
Q 1428 -91 1123 -41 
Q 819 9 494 109 
L 494 744 
Q 775 591 1075 516 
Q 1375 441 1709 441 
Q 2250 441 2565 725 
Q 2881 1009 2881 1497 
Q 2881 1984 2565 2268 
Q 2250 2553 1709 2553 
Q 1456 2553 1204 2497 
Q 953 2441 691 2322 
L 691 4666 
z
" transform="scale(0.015625)"/>
       </defs>
       <use xlink:href="#DejaVuSans-32"/>
       <use xlink:href="#DejaVuSans-35" x="63.623047"/>
      </g>
     </g>
    </g>
    <g id="xtick_3">
     <g id="line2d_3">
      <g>
       <use xlink:href="#m92730d7f2b" x="364.228643" y="384.48" style="stroke: #000000; stroke-width: 0.8"/>
      </g>
     </g>
     <g id="text_3">
      <!-- 50 -->
      <g transform="translate(357.866143 399.078438) scale(0.1 -0.1)">
       <use xlink:href="#DejaVuSans-35"/>
       <use xlink:href="#DejaVuSans-30" x="63.623047"/>
      </g>
     </g>
    </g>
    <g id="xtick_4">
     <g id="line2d_4">
      <g>
       <use xlink:href="#m92730d7f2b" x="459.820238" y="384.48" style="stroke: #000000; stroke-width: 0.8"/>
      </g>
     </g>
     <g id="text_4">
      <!-- 75 -->
      <g transform="translate(453.457738 399.078438) scale(0.1 -0.1)">
       <defs>
        <path id="DejaVuSans-37" d="M 525 4666 
L 3525 4666 
L 3525 4397 
L 1831 0 
L 1172 0 
L 2766 4134 
L 525 4134 
L 525 4666 
z
" transform="scale(0.015625)"/>
       </defs>
       <use xlink:href="#DejaVuSans-37"/>
       <use xlink:href="#DejaVuSans-35" x="63.623047"/>
      </g>
     </g>
    </g>
    <g id="xtick_5">
     <g id="line2d_5">
      <g>
       <use xlink:href="#m92730d7f2b" x="555.411832" y="384.48" style="stroke: #000000; stroke-width: 0.8"/>
      </g>
     </g>
     <g id="text_5">
      <!-- 100 -->
      <g transform="translate(545.868082 399.078438) scale(0.1 -0.1)">
       <defs>
        <path id="DejaVuSans-31" d="M 794 531 
L 1825 531 
L 1825 4091 
L 703 3866 
L 703 4441 
L 1819 4666 
L 2450 4666 
L 2450 531 
L 3481 531 
L 3481 0 
L 794 0 
L 794 531 
z
" transform="scale(0.015625)"/>
       </defs>
       <use xlink:href="#DejaVuSans-31"/>
       <use xlink:href="#DejaVuSans-30" x="63.623047"/>
       <use xlink:href="#DejaVuSans-30" x="127.246094"/>
      </g>
     </g>
    </g>
    <g id="xtick_6">
     <g id="line2d_6">
      <g>
       <use xlink:href="#m92730d7f2b" x="651.003426" y="384.48" style="stroke: #000000; stroke-width: 0.8"/>
      </g>
     </g>
     <g id="text_6">
      <!-- 125 -->
      <g transform="translate(641.459676 399.078438) scale(0.1 -0.1)">
       <use xlink:href="#DejaVuSans-31"/>
       <use xlink:href="#DejaVuSans-32" x="63.623047"/>
       <use xlink:href="#DejaVuSans-35" x="127.246094"/>
      </g>
     </g>
    </g>
    <g id="xtick_7">
     <g id="line2d_7">
      <g>
       <use xlink:href="#m92730d7f2b" x="746.595021" y="384.48" style="stroke: #000000; stroke-width: 0.8"/>
      </g>
     </g>
     <g id="text_7">
      <!-- 150 -->
      <g transform="translate(737.051271 399.078438) scale(0.1 -0.1)">
       <use xlink:href="#DejaVuSans-31"/>
       <use xlink:href="#DejaVuSans-35" x="63.623047"/>
       <use xlink:href="#DejaVuSans-30" x="127.246094"/>
      </g>
     </g>
    </g>
    <g id="xtick_8">
     <g id="line2d_8">
      <g>
       <use xlink:href="#m92730d7f2b" x="842.186615" y="384.48" style="stroke: #000000; stroke-width: 0.8"/>
      </g>
     </g>
     <g id="text_8">
      <!-- 175 -->
      <g transform="translate(832.642865 399.078438) scale(0.1 -0.1)">
       <use xlink:href="#DejaVuSans-31"/>
       <use xlink:href="#DejaVuSans-37" x="63.623047"/>
       <use xlink:href="#DejaVuSans-35" x="127.246094"/>
      </g>
     </g>
    </g>
    <g id="xtick_9">
     <g id="line2d_9">
      <g>
       <use xlink:href="#m92730d7f2b" x="937.778209" y="384.48" style="stroke: #000000; stroke-width: 0.8"/>
      </g>
     </g>
     <g id="text_9">
      <!-- 200 -->
      <g transform="translate(928.234459 399.078438) scale(0.1 -0.1)">
       <use xlink:href="#DejaVuSans-32"/>
       <use xlink:href="#DejaVuSans-30" x="63.623047"/>
       <use xlink:href="#DejaVuSans-30" x="127.246094"/>
      </g>
     </g>
    </g>
   </g>
   <g id="matplotlib.axis_2">
    <g id="ytick_1">
     <g id="line2d_10">
      <defs>
       <path id="m36ce6c6efd" d="M 0 0 
L -3.5 0 
" style="stroke: #000000; stroke-width: 0.8"/>
      </defs>
      <g>
       <use xlink:href="#m36ce6c6efd" x="135" y="367.469018" style="stroke: #000000; stroke-width: 0.8"/>
      </g>
     </g>
     <g id="text_10">
      <!-- 250 -->
      <g transform="translate(108.9125 371.268237) scale(0.1 -0.1)">
       <use xlink:href="#DejaVuSans-32"/>
       <use xlink:href="#DejaVuSans-35" x="63.623047"/>
       <use xlink:href="#DejaVuSans-30" x="127.246094"/>
      </g>
     </g>
    </g>
    <g id="ytick_2">
     <g id="line2d_11">
      <g>
       <use xlink:href="#m36ce6c6efd" x="135" y="329.816684" style="stroke: #000000; stroke-width: 0.8"/>
      </g>
     </g>
     <g id="text_11">
      <!-- 275 -->
      <g transform="translate(108.9125 333.615902) scale(0.1 -0.1)">
       <use xlink:href="#DejaVuSans-32"/>
       <use xlink:href="#DejaVuSans-37" x="63.623047"/>
       <use xlink:href="#DejaVuSans-35" x="127.246094"/>
      </g>
     </g>
    </g>
    <g id="ytick_3">
     <g id="line2d_12">
      <g>
       <use xlink:href="#m36ce6c6efd" x="135" y="292.164349" style="stroke: #000000; stroke-width: 0.8"/>
      </g>
     </g>
     <g id="text_12">
      <!-- 300 -->
      <g transform="translate(108.9125 295.963568) scale(0.1 -0.1)">
       <defs>
        <path id="DejaVuSans-33" d="M 2597 2516 
Q 3050 2419 3304 2112 
Q 3559 1806 3559 1356 
Q 3559 666 3084 287 
Q 2609 -91 1734 -91 
Q 1441 -91 1130 -33 
Q 819 25 488 141 
L 488 750 
Q 750 597 1062 519 
Q 1375 441 1716 441 
Q 2309 441 2620 675 
Q 2931 909 2931 1356 
Q 2931 1769 2642 2001 
Q 2353 2234 1838 2234 
L 1294 2234 
L 1294 2753 
L 1863 2753 
Q 2328 2753 2575 2939 
Q 2822 3125 2822 3475 
Q 2822 3834 2567 4026 
Q 2313 4219 1838 4219 
Q 1578 4219 1281 4162 
Q 984 4106 628 3988 
L 628 4550 
Q 988 4650 1302 4700 
Q 1616 4750 1894 4750 
Q 2613 4750 3031 4423 
Q 3450 4097 3450 3541 
Q 3450 3153 3228 2886 
Q 3006 2619 2597 2516 
z
" transform="scale(0.015625)"/>
       </defs>
       <use xlink:href="#DejaVuSans-33"/>
       <use xlink:href="#DejaVuSans-30" x="63.623047"/>
       <use xlink:href="#DejaVuSans-30" x="127.246094"/>
      </g>
     </g>
    </g>
    <g id="ytick_4">
     <g id="line2d_13">
      <g>
       <use xlink:href="#m36ce6c6efd" x="135" y="254.512014" style="stroke: #000000; stroke-width: 0.8"/>
      </g>
     </g>
     <g id="text_13">
      <!-- 325 -->
      <g transform="translate(108.9125 258.311233) scale(0.1 -0.1)">
       <use xlink:href="#DejaVuSans-33"/>
       <use xlink:href="#DejaVuSans-32" x="63.623047"/>
       <use xlink:href="#DejaVuSans-35" x="127.246094"/>
      </g>
     </g>
    </g>
    <g id="ytick_5">
     <g id="line2d_14">
      <g>
       <use xlink:href="#m36ce6c6efd" x="135" y="216.85968" style="stroke: #000000; stroke-width: 0.8"/>
      </g>
     </g>
     <g id="text_14">
      <!-- 350 -->
      <g transform="translate(108.9125 220.658899) scale(0.1 -0.1)">
       <use xlink:href="#DejaVuSans-33"/>
       <use xlink:href="#DejaVuSans-35" x="63.623047"/>
       <use xlink:href="#DejaVuSans-30" x="127.246094"/>
      </g>
     </g>
    </g>
    <g id="ytick_6">
     <g id="line2d_15">
      <g>
       <use xlink:href="#m36ce6c6efd" x="135" y="179.207345" style="stroke: #000000; stroke-width: 0.8"/>
      </g>
     </g>
     <g id="text_15">
      <!-- 375 -->
      <g transform="translate(108.9125 183.006564) scale(0.1 -0.1)">
       <use xlink:href="#DejaVuSans-33"/>
       <use xlink:href="#DejaVuSans-37" x="63.623047"/>
       <use xlink:href="#DejaVuSans-35" x="127.246094"/>
      </g>
     </g>
    </g>
    <g id="ytick_7">
     <g id="line2d_16">
      <g>
       <use xlink:href="#m36ce6c6efd" x="135" y="141.555011" style="stroke: #000000; stroke-width: 0.8"/>
      </g>
     </g>
     <g id="text_16">
      <!-- 400 -->
      <g transform="translate(108.9125 145.35423) scale(0.1 -0.1)">
       <defs>
        <path id="DejaVuSans-34" d="M 2419 4116 
L 825 1625 
L 2419 1625 
L 2419 4116 
z
M 2253 4666 
L 3047 4666 
L 3047 1625 
L 3713 1625 
L 3713 1100 
L 3047 1100 
L 3047 0 
L 2419 0 
L 2419 1100 
L 313 1100 
L 313 1709 
L 2253 4666 
z
" transform="scale(0.015625)"/>
       </defs>
       <use xlink:href="#DejaVuSans-34"/>
       <use xlink:href="#DejaVuSans-30" x="63.623047"/>
       <use xlink:href="#DejaVuSans-30" x="127.246094"/>
      </g>
     </g>
    </g>
    <g id="ytick_8">
     <g id="line2d_17">
      <g>
       <use xlink:href="#m36ce6c6efd" x="135" y="103.902676" style="stroke: #000000; stroke-width: 0.8"/>
      </g>
     </g>
     <g id="text_17">
      <!-- 425 -->
      <g transform="translate(108.9125 107.701895) scale(0.1 -0.1)">
       <use xlink:href="#DejaVuSans-34"/>
       <use xlink:href="#DejaVuSans-32" x="63.623047"/>
       <use xlink:href="#DejaVuSans-35" x="127.246094"/>
      </g>
     </g>
    </g>
    <g id="ytick_9">
     <g id="line2d_18">
      <g>
       <use xlink:href="#m36ce6c6efd" x="135" y="66.250342" style="stroke: #000000; stroke-width: 0.8"/>
      </g>
     </g>
     <g id="text_18">
      <!-- 450 -->
      <g transform="translate(108.9125 70.04956) scale(0.1 -0.1)">
       <use xlink:href="#DejaVuSans-34"/>
       <use xlink:href="#DejaVuSans-35" x="63.623047"/>
       <use xlink:href="#DejaVuSans-30" x="127.246094"/>
      </g>
     </g>
    </g>
   </g>
   <g id="line2d_19">
    <path d="M 173.045455 204.061463 
L 176.869118 177.895967 
L 180.692782 103.666281 
L 184.516446 80.860005 
L 188.34011 95.523051 
L 192.163773 118.581508 
L 195.987437 139.445403 
L 199.811101 164.454341 
L 203.634765 203.593351 
L 207.458429 256.116338 
L 211.282092 294.49989 
L 215.105756 316.239853 
L 218.92942 326.239868 
L 222.753084 329.513602 
L 226.576747 328.613429 
L 230.400411 322.055521 
L 234.224075 317.992117 
L 238.047739 272.407253 
L 241.871402 225.456871 
L 245.695066 200.972317 
L 249.51873 192.490699 
L 253.342394 200.068245 
L 257.166058 225.082075 
L 260.989721 234.19788 
L 264.813385 230.536442 
L 268.637049 201.462011 
L 272.460713 120.655882 
L 276.284376 98.142711 
L 280.10804 116.732483 
L 283.931704 140.047255 
L 291.579032 177.866934 
L 295.402695 211.911666 
L 299.226359 259.388914 
L 303.050023 300.351896 
L 306.873687 322.398023 
L 310.69735 333.312513 
L 314.521014 338.195554 
L 318.344678 338.316168 
L 322.168342 339.314069 
L 325.992005 356.600066 
L 329.815669 343.904235 
L 333.639333 303.35526 
L 337.462997 256.869465 
L 341.286661 232.072485 
L 345.110324 234.283632 
L 348.933988 252.154362 
L 352.757652 264.781049 
L 356.581316 259.565511 
L 360.404979 235.18908 
L 364.228643 155.897628 
L 368.052307 134.649506 
L 371.875971 144.138803 
L 375.699635 157.754354 
L 379.523298 168.10525 
L 383.346962 185.950131 
L 387.170626 226.466881 
L 390.99429 281.222761 
L 394.817953 316.384915 
L 398.641617 332.039504 
L 402.465281 338.718501 
L 406.288945 340.537038 
L 410.112608 336.462063 
L 413.936272 319.854713 
L 417.759936 301.338515 
L 425.407264 217.986866 
L 429.230927 190.631574 
L 433.054591 175.745801 
L 436.878255 184.458334 
L 440.701919 206.852104 
L 444.525582 214.487173 
L 448.349246 209.059033 
L 452.17291 180.099371 
L 455.996574 102.470112 
L 459.820238 79.245471 
L 463.643901 91.699397 
L 467.467565 114.661972 
L 471.291229 134.49432 
L 475.114893 163.315391 
L 478.938556 207.879756 
L 482.76222 266.39829 
L 486.585884 303.868145 
L 490.409548 320.459306 
L 494.233212 328.323503 
L 498.056875 334.374606 
L 501.880539 331.654462 
L 505.704203 316.472018 
L 509.527867 297.875746 
L 513.35153 252.372401 
L 517.175194 208.464848 
L 520.998858 177.645468 
L 524.822522 164.394899 
L 528.646185 175.983727 
L 532.469849 199.816506 
L 536.293513 208.666865 
L 540.117177 207.123146 
L 543.940841 183.927347 
L 547.764504 105.217305 
L 551.588168 78.721265 
L 555.411832 91.782924 
L 563.059159 133.786476 
L 566.882823 162.301724 
L 570.706487 207.509197 
L 574.530151 263.101788 
L 578.353815 299.71215 
L 582.177478 315.633624 
L 586.001142 323.0528 
L 589.824806 326.796855 
L 593.64847 327.164754 
L 597.472133 311.902271 
L 601.295797 293.048729 
L 605.119461 251.307789 
L 608.943125 211.448818 
L 612.766788 183.399038 
L 616.590452 164.631589 
L 620.414116 176.923561 
L 624.23778 195.83414 
L 628.061444 200.512688 
L 631.885107 188.04274 
L 635.708771 153.801981 
L 639.532435 88.378039 
L 643.356099 76.796238 
L 647.179762 90.488434 
L 651.003426 113.22726 
L 654.82709 134.698849 
L 658.650754 161.230335 
L 662.474418 206.521737 
L 666.298081 263.636701 
L 670.121745 299.570333 
L 673.945409 316.87398 
L 677.769073 324.673366 
L 681.592736 328.263193 
L 685.4164 328.314726 
L 689.240064 321.108902 
L 693.063728 310.116904 
L 696.887392 283.513499 
L 700.711055 241.118227 
L 704.534719 201.769751 
L 708.358383 174.558005 
L 712.182047 179.151874 
L 716.00571 204.599675 
L 719.829374 216.159066 
L 723.653038 212.549105 
L 727.476702 182.158389 
L 731.300365 103.589718 
L 735.124029 81.091782 
L 738.947693 93.845345 
L 742.771357 117.9035 
L 746.595021 135.272433 
L 750.418684 161.393044 
L 754.242348 201.848075 
L 758.066012 257.969253 
L 761.889676 297.686817 
L 765.713339 316.310336 
L 769.537003 325.321451 
L 773.360667 331.034991 
L 777.184331 330.404973 
L 781.007995 322.356758 
L 784.831658 322.267665 
L 788.655322 280.411533 
L 792.478986 227.973354 
L 796.30265 198.090642 
L 800.126313 177.867105 
L 803.949977 187.518911 
L 807.773641 211.328233 
L 811.597305 219.096878 
L 815.420968 215.092903 
L 819.244632 185.001826 
L 823.068296 103.944752 
L 826.89196 80.642329 
L 830.715624 93.77765 
L 834.539287 115.617875 
L 838.362951 134.647452 
L 842.186615 157.137057 
L 846.010279 191.191761 
L 849.833942 245.654706 
L 853.657606 289.871236 
L 857.48127 312.341709 
L 861.304934 322.086715 
L 865.128598 325.83242 
L 868.952261 327.139798 
L 872.775925 319.313991 
L 876.599589 317.935205 
L 880.423253 277.358709 
L 884.246916 229.740794 
L 888.07058 204.517093 
L 891.894244 201.196935 
L 895.717908 197.07164 
L 899.541571 225.638983 
L 903.365235 235.292459 
L 907.188899 232.555233 
L 911.012563 208.548755 
L 914.836227 123.24232 
L 918.65989 95.383196 
L 922.483554 110.809217 
L 926.307218 134.870923 
L 930.130882 151.490271 
L 933.954545 171.357772 
L 933.954545 171.357772 
" clip-path="url(#p2c22bda681)" style="fill: none; stroke: #1f77b4; stroke-width: 1.5; stroke-linecap: square"/>
   </g>
   <g id="line2d_20">
    <path d="M 173.045455 203.405589 
L 176.869118 186.843709 
L 180.692782 137.572881 
L 184.516446 75.804622 
L 188.34011 92.984648 
L 192.163773 112.275541 
L 195.987437 142.868017 
L 203.634765 235.397755 
L 207.458429 272.833515 
L 211.282092 301.523151 
L 215.105756 320.694909 
L 218.92942 334.486547 
L 222.753084 345.159412 
L 226.576747 351.989919 
L 230.400411 343.602485 
L 234.224075 309.892339 
L 238.047739 291.667267 
L 241.871402 246.866136 
L 245.695066 208.875151 
L 249.51873 194.778185 
L 253.342394 197.133938 
L 257.166058 210.059968 
L 260.989721 224.285353 
L 264.813385 222.548391 
L 268.637049 209.942029 
L 272.460713 160.161111 
L 276.284376 92.579858 
L 280.10804 111.62237 
L 283.931704 132.827593 
L 287.755368 161.144704 
L 291.579032 205.266695 
L 295.402695 248.026271 
L 299.226359 284.47499 
L 303.050023 312.388414 
L 306.873687 331.837923 
L 310.69735 345.452606 
L 314.521014 355.397704 
L 318.344678 361.722119 
L 322.168342 355.675868 
L 325.992005 332.743702 
L 329.815669 337.356895 
L 333.639333 332.045948 
L 337.462997 297.910926 
L 341.286661 254.167757 
L 345.110324 233.62793 
L 348.933988 238.852238 
L 352.757652 253.666859 
L 356.581316 257.228434 
L 360.404979 241.581572 
L 364.228643 194.63368 
L 368.052307 115.696608 
L 371.875971 128.505204 
L 375.699635 147.336152 
L 379.523298 170.241337 
L 383.346962 202.734723 
L 387.170626 243.779123 
L 390.99429 287.847338 
L 394.817953 322.591039 
L 398.641617 343.931989 
L 402.465281 357.289237 
L 406.288945 365.548505 
L 410.112608 369.36 
L 413.936272 357.235599 
L 417.759936 310.836634 
L 421.5836 276.056761 
L 425.407264 237.339066 
L 429.230927 205.943536 
L 433.054591 191.198594 
L 436.878255 188.984497 
L 444.525582 218.133526 
L 448.349246 218.886113 
L 452.17291 206.477481 
L 455.996574 156.928488 
L 459.820238 84.059133 
L 467.467565 114.566487 
L 471.291229 141.245363 
L 475.114893 183.665001 
L 478.938556 233.30647 
L 482.76222 274.000591 
L 486.585884 304.643028 
L 490.409548 324.295092 
L 494.233212 337.268555 
L 498.056875 346.64326 
L 501.880539 353.376556 
L 505.704203 345.109497 
L 509.527867 300.938786 
L 513.35153 263.948953 
L 517.175194 221.220401 
L 520.998858 189.798995 
L 524.822522 173.378771 
L 528.646185 172.777125 
L 532.469849 187.77771 
L 536.293513 199.878073 
L 540.117177 198.578994 
L 543.940841 189.545651 
L 547.764504 146.235124 
L 551.588168 75.092803 
L 555.411832 92.137195 
L 559.235496 110.366955 
L 563.059159 135.035118 
L 566.882823 178.781918 
L 570.706487 230.064242 
L 574.530151 272.640887 
L 578.353815 303.202523 
L 582.177478 322.906754 
L 586.001142 335.833427 
L 589.824806 345.15284 
L 593.64847 350.547529 
L 597.472133 340.506509 
L 601.295797 294.092928 
L 605.119461 259.46257 
L 608.943125 222.457018 
L 612.766788 194.801902 
L 616.590452 180.796447 
L 620.414116 175.202281 
L 624.23778 190.003757 
L 628.061444 200.039722 
L 631.885107 196.269938 
L 635.708771 176.21005 
L 639.532435 118.823931 
L 643.356099 66.96 
L 647.179762 88.233063 
L 651.003426 102.784597 
L 654.82709 135.327024 
L 658.650754 183.609203 
L 662.474418 230.203094 
L 666.298081 270.50534 
L 670.121745 300.436096 
L 673.945409 319.886156 
L 677.769073 333.484339 
L 681.592736 343.579779 
L 685.4164 350.41764 
L 689.240064 343.934792 
L 693.063728 311.586234 
L 696.887392 284.30277 
L 700.711055 259.308872 
L 704.534719 225.909339 
L 708.358383 198.404521 
L 712.182047 182.217969 
L 716.00571 189.686893 
L 719.829374 202.948953 
L 723.653038 200.941135 
L 727.476702 187.76268 
L 731.300365 139.942101 
L 735.124029 68.734284 
L 738.947693 84.749395 
L 742.771357 102.822194 
L 746.595021 135.056858 
L 750.418684 177.403002 
L 754.242348 227.008574 
L 758.066012 267.721218 
L 761.889676 299.646601 
L 765.713339 320.802185 
L 769.537003 335.28073 
L 773.360667 345.722221 
L 777.184331 353.044846 
L 781.007995 346.804542 
L 784.831658 312.401054 
L 788.655322 295.415586 
L 792.478986 253.913033 
L 796.30265 211.029957 
L 800.126313 191.777903 
L 803.949977 182.078152 
L 807.773641 195.651285 
L 811.597305 211.012078 
L 815.420968 210.184756 
L 819.244632 197.623253 
L 823.068296 147.657291 
L 826.89196 77.973951 
L 830.715624 95.760543 
L 834.539287 112.736864 
L 838.362951 137.438028 
L 842.186615 177.773183 
L 846.010279 224.397685 
L 849.833942 263.749062 
L 853.657606 296.812473 
L 857.48127 318.591949 
L 861.304934 333.086857 
L 865.128598 343.178528 
L 868.952261 349.903 
L 872.775925 346.459365 
L 876.599589 315.153692 
L 880.423253 295.579533 
L 884.246916 252.584355 
L 888.07058 212.356384 
L 891.894244 197.838265 
L 895.717908 205.280116 
L 899.541571 209.856952 
L 903.365235 226.319553 
L 907.188899 225.558555 
L 911.012563 213.969155 
L 914.836227 170.586009 
L 918.65989 93.58078 
L 922.483554 110.744582 
L 926.307218 130.355096 
L 930.130882 157.760269 
L 933.954545 197.543462 
L 933.954545 197.543462 
" clip-path="url(#p2c22bda681)" style="fill: none; stroke: #ff7f0e; stroke-width: 1.5; stroke-linecap: square"/>
   </g>
   <g id="patch_3">
    <path d="M 135 384.48 
L 135 51.84 
" style="fill: none; stroke: #000000; stroke-width: 0.8; stroke-linejoin: miter; stroke-linecap: square"/>
   </g>
   <g id="patch_4">
    <path d="M 972 384.48 
L 972 51.84 
" style="fill: none; stroke: #000000; stroke-width: 0.8; stroke-linejoin: miter; stroke-linecap: square"/>
   </g>
   <g id="patch_5">
    <path d="M 135 384.48 
L 972 384.48 
" style="fill: none; stroke: #000000; stroke-width: 0.8; stroke-linejoin: miter; stroke-linecap: square"/>
   </g>
   <g id="patch_6">
    <path d="M 135 51.84 
L 972 51.84 
" style="fill: none; stroke: #000000; stroke-width: 0.8; stroke-linejoin: miter; stroke-linecap: square"/>
   </g>
  </g>
 </g>
 <defs>
  <clipPath id="p2c22bda681">
   <rect x="135" y="51.84" width="837" height="332.64"/>
  </clipPath>
 </defs>
</svg>
