<?xml version="1.0" encoding="utf-8" standalone="no"?>
<!DOCTYPE svg PUBLIC "-//W3C//DTD SVG 1.1//EN"
  "http://www.w3.org/Graphics/SVG/1.1/DTD/svg11.dtd">
<svg xmlns:xlink="http://www.w3.org/1999/xlink" width="1080pt" height="432pt" viewBox="0 0 1080 432" xmlns="http://www.w3.org/2000/svg" version="1.1">
 <metadata>
  <rdf:RDF xmlns:dc="http://purl.org/dc/elements/1.1/" xmlns:cc="http://creativecommons.org/ns#" xmlns:rdf="http://www.w3.org/1999/02/22-rdf-syntax-ns#">
   <cc:Work>
    <dc:type rdf:resource="http://purl.org/dc/dcmitype/StillImage"/>
    <dc:date>2024-02-17T11:51:31.787406</dc:date>
    <dc:format>image/svg+xml</dc:format>
    <dc:creator>
     <cc:Agent>
      <dc:title>Matplotlib v3.7.1, https://matplotlib.org/</dc:title>
     </cc:Agent>
    </dc:creator>
   </cc:Work>
  </rdf:RDF>
 </metadata>
 <defs>
  <style type="text/css">*{stroke-linejoin: round; stroke-linecap: butt}</style>
 </defs>
 <g id="figure_1">
  <g id="patch_1">
   <path d="M 0 432 
L 1080 432 
L 1080 0 
L 0 0 
z
" style="fill: #ffffff"/>
  </g>
  <g id="axes_1">
   <g id="patch_2">
    <path d="M 135 384.48 
L 972 384.48 
L 972 51.84 
L 135 51.84 
z
" style="fill: #ffffff"/>
   </g>
   <g id="matplotlib.axis_1">
    <g id="xtick_1">
     <g id="line2d_1">
      <defs>
       <path id="m2a7c1498f5" d="M 0 0 
L 0 3.5 
" style="stroke: #000000; stroke-width: 0.8"/>
      </defs>
      <g>
       <use xlink:href="#m2a7c1498f5" x="173.045455" y="384.48" style="stroke: #000000; stroke-width: 0.8"/>
      </g>
     </g>
     <g id="text_1">
      <!-- 0 -->
      <g transform="translate(169.864205 399.078438) scale(0.1 -0.1)">
       <defs>
        <path id="DejaVuSans-30" d="M 2034 4250 
Q 1547 4250 1301 3770 
Q 1056 3291 1056 2328 
Q 1056 1369 1301 889 
Q 1547 409 2034 409 
Q 2525 409 2770 889 
Q 3016 1369 3016 2328 
Q 3016 3291 2770 3770 
Q 2525 4250 2034 4250 
z
M 2034 4750 
Q 2819 4750 3233 4129 
Q 3647 3509 3647 2328 
Q 3647 1150 3233 529 
Q 2819 -91 2034 -91 
Q 1250 -91 836 529 
Q 422 1150 422 2328 
Q 422 3509 836 4129 
Q 1250 4750 2034 4750 
z
" transform="scale(0.015625)"/>
       </defs>
       <use xlink:href="#DejaVuSans-30"/>
      </g>
     </g>
    </g>
    <g id="xtick_2">
     <g id="line2d_2">
      <g>
       <use xlink:href="#m2a7c1498f5" x="286.613976" y="384.48" style="stroke: #000000; stroke-width: 0.8"/>
      </g>
     </g>
     <g id="text_2">
      <!-- 100 -->
      <g transform="translate(277.070226 399.078438) scale(0.1 -0.1)">
       <defs>
        <path id="DejaVuSans-31" d="M 794 531 
L 1825 531 
L 1825 4091 
L 703 3866 
L 703 4441 
L 1819 4666 
L 2450 4666 
L 2450 531 
L 3481 531 
L 3481 0 
L 794 0 
L 794 531 
z
" transform="scale(0.015625)"/>
       </defs>
       <use xlink:href="#DejaVuSans-31"/>
       <use xlink:href="#DejaVuSans-30" x="63.623047"/>
       <use xlink:href="#DejaVuSans-30" x="127.246094"/>
      </g>
     </g>
    </g>
    <g id="xtick_3">
     <g id="line2d_3">
      <g>
       <use xlink:href="#m2a7c1498f5" x="400.182497" y="384.48" style="stroke: #000000; stroke-width: 0.8"/>
      </g>
     </g>
     <g id="text_3">
      <!-- 200 -->
      <g transform="translate(390.638747 399.078438) scale(0.1 -0.1)">
       <defs>
        <path id="DejaVuSans-32" d="M 1228 531 
L 3431 531 
L 3431 0 
L 469 0 
L 469 531 
Q 828 903 1448 1529 
Q 2069 2156 2228 2338 
Q 2531 2678 2651 2914 
Q 2772 3150 2772 3378 
Q 2772 3750 2511 3984 
Q 2250 4219 1831 4219 
Q 1534 4219 1204 4116 
Q 875 4013 500 3803 
L 500 4441 
Q 881 4594 1212 4672 
Q 1544 4750 1819 4750 
Q 2544 4750 2975 4387 
Q 3406 4025 3406 3419 
Q 3406 3131 3298 2873 
Q 3191 2616 2906 2266 
Q 2828 2175 2409 1742 
Q 1991 1309 1228 531 
z
" transform="scale(0.015625)"/>
       </defs>
       <use xlink:href="#DejaVuSans-32"/>
       <use xlink:href="#DejaVuSans-30" x="63.623047"/>
       <use xlink:href="#DejaVuSans-30" x="127.246094"/>
      </g>
     </g>
    </g>
    <g id="xtick_4">
     <g id="line2d_4">
      <g>
       <use xlink:href="#m2a7c1498f5" x="513.751018" y="384.48" style="stroke: #000000; stroke-width: 0.8"/>
      </g>
     </g>
     <g id="text_4">
      <!-- 300 -->
      <g transform="translate(504.207268 399.078438) scale(0.1 -0.1)">
       <defs>
        <path id="DejaVuSans-33" d="M 2597 2516 
Q 3050 2419 3304 2112 
Q 3559 1806 3559 1356 
Q 3559 666 3084 287 
Q 2609 -91 1734 -91 
Q 1441 -91 1130 -33 
Q 819 25 488 141 
L 488 750 
Q 750 597 1062 519 
Q 1375 441 1716 441 
Q 2309 441 2620 675 
Q 2931 909 2931 1356 
Q 2931 1769 2642 2001 
Q 2353 2234 1838 2234 
L 1294 2234 
L 1294 2753 
L 1863 2753 
Q 2328 2753 2575 2939 
Q 2822 3125 2822 3475 
Q 2822 3834 2567 4026 
Q 2313 4219 1838 4219 
Q 1578 4219 1281 4162 
Q 984 4106 628 3988 
L 628 4550 
Q 988 4650 1302 4700 
Q 1616 4750 1894 4750 
Q 2613 4750 3031 4423 
Q 3450 4097 3450 3541 
Q 3450 3153 3228 2886 
Q 3006 2619 2597 2516 
z
" transform="scale(0.015625)"/>
       </defs>
       <use xlink:href="#DejaVuSans-33"/>
       <use xlink:href="#DejaVuSans-30" x="63.623047"/>
       <use xlink:href="#DejaVuSans-30" x="127.246094"/>
      </g>
     </g>
    </g>
    <g id="xtick_5">
     <g id="line2d_5">
      <g>
       <use xlink:href="#m2a7c1498f5" x="627.319539" y="384.48" style="stroke: #000000; stroke-width: 0.8"/>
      </g>
     </g>
     <g id="text_5">
      <!-- 400 -->
      <g transform="translate(617.775789 399.078438) scale(0.1 -0.1)">
       <defs>
        <path id="DejaVuSans-34" d="M 2419 4116 
L 825 1625 
L 2419 1625 
L 2419 4116 
z
M 2253 4666 
L 3047 4666 
L 3047 1625 
L 3713 1625 
L 3713 1100 
L 3047 1100 
L 3047 0 
L 2419 0 
L 2419 1100 
L 313 1100 
L 313 1709 
L 2253 4666 
z
" transform="scale(0.015625)"/>
       </defs>
       <use xlink:href="#DejaVuSans-34"/>
       <use xlink:href="#DejaVuSans-30" x="63.623047"/>
       <use xlink:href="#DejaVuSans-30" x="127.246094"/>
      </g>
     </g>
    </g>
    <g id="xtick_6">
     <g id="line2d_6">
      <g>
       <use xlink:href="#m2a7c1498f5" x="740.88806" y="384.48" style="stroke: #000000; stroke-width: 0.8"/>
      </g>
     </g>
     <g id="text_6">
      <!-- 500 -->
      <g transform="translate(731.34431 399.078438) scale(0.1 -0.1)">
       <defs>
        <path id="DejaVuSans-35" d="M 691 4666 
L 3169 4666 
L 3169 4134 
L 1269 4134 
L 1269 2991 
Q 1406 3038 1543 3061 
Q 1681 3084 1819 3084 
Q 2600 3084 3056 2656 
Q 3513 2228 3513 1497 
Q 3513 744 3044 326 
Q 2575 -91 1722 -91 
Q 1428 -91 1123 -41 
Q 819 9 494 109 
L 494 744 
Q 775 591 1075 516 
Q 1375 441 1709 441 
Q 2250 441 2565 725 
Q 2881 1009 2881 1497 
Q 2881 1984 2565 2268 
Q 2250 2553 1709 2553 
Q 1456 2553 1204 2497 
Q 953 2441 691 2322 
L 691 4666 
z
" transform="scale(0.015625)"/>
       </defs>
       <use xlink:href="#DejaVuSans-35"/>
       <use xlink:href="#DejaVuSans-30" x="63.623047"/>
       <use xlink:href="#DejaVuSans-30" x="127.246094"/>
      </g>
     </g>
    </g>
    <g id="xtick_7">
     <g id="line2d_7">
      <g>
       <use xlink:href="#m2a7c1498f5" x="854.456581" y="384.48" style="stroke: #000000; stroke-width: 0.8"/>
      </g>
     </g>
     <g id="text_7">
      <!-- 600 -->
      <g transform="translate(844.912831 399.078438) scale(0.1 -0.1)">
       <defs>
        <path id="DejaVuSans-36" d="M 2113 2584 
Q 1688 2584 1439 2293 
Q 1191 2003 1191 1497 
Q 1191 994 1439 701 
Q 1688 409 2113 409 
Q 2538 409 2786 701 
Q 3034 994 3034 1497 
Q 3034 2003 2786 2293 
Q 2538 2584 2113 2584 
z
M 3366 4563 
L 3366 3988 
Q 3128 4100 2886 4159 
Q 2644 4219 2406 4219 
Q 1781 4219 1451 3797 
Q 1122 3375 1075 2522 
Q 1259 2794 1537 2939 
Q 1816 3084 2150 3084 
Q 2853 3084 3261 2657 
Q 3669 2231 3669 1497 
Q 3669 778 3244 343 
Q 2819 -91 2113 -91 
Q 1303 -91 875 529 
Q 447 1150 447 2328 
Q 447 3434 972 4092 
Q 1497 4750 2381 4750 
Q 2619 4750 2861 4703 
Q 3103 4656 3366 4563 
z
" transform="scale(0.015625)"/>
       </defs>
       <use xlink:href="#DejaVuSans-36"/>
       <use xlink:href="#DejaVuSans-30" x="63.623047"/>
       <use xlink:href="#DejaVuSans-30" x="127.246094"/>
      </g>
     </g>
    </g>
    <g id="xtick_8">
     <g id="line2d_8">
      <g>
       <use xlink:href="#m2a7c1498f5" x="968.025102" y="384.48" style="stroke: #000000; stroke-width: 0.8"/>
      </g>
     </g>
     <g id="text_8">
      <!-- 700 -->
      <g transform="translate(958.481352 399.078438) scale(0.1 -0.1)">
       <defs>
        <path id="DejaVuSans-37" d="M 525 4666 
L 3525 4666 
L 3525 4397 
L 1831 0 
L 1172 0 
L 2766 4134 
L 525 4134 
L 525 4666 
z
" transform="scale(0.015625)"/>
       </defs>
       <use xlink:href="#DejaVuSans-37"/>
       <use xlink:href="#DejaVuSans-30" x="63.623047"/>
       <use xlink:href="#DejaVuSans-30" x="127.246094"/>
      </g>
     </g>
    </g>
    <g id="text_9">
     <!-- time step -->
     <g transform="translate(529.799219 412.756563) scale(0.1 -0.1)">
      <defs>
       <path id="DejaVuSans-74" d="M 1172 4494 
L 1172 3500 
L 2356 3500 
L 2356 3053 
L 1172 3053 
L 1172 1153 
Q 1172 725 1289 603 
Q 1406 481 1766 481 
L 2356 481 
L 2356 0 
L 1766 0 
Q 1100 0 847 248 
Q 594 497 594 1153 
L 594 3053 
L 172 3053 
L 172 3500 
L 594 3500 
L 594 4494 
L 1172 4494 
z
" transform="scale(0.015625)"/>
       <path id="DejaVuSans-69" d="M 603 3500 
L 1178 3500 
L 1178 0 
L 603 0 
L 603 3500 
z
M 603 4863 
L 1178 4863 
L 1178 4134 
L 603 4134 
L 603 4863 
z
" transform="scale(0.015625)"/>
       <path id="DejaVuSans-6d" d="M 3328 2828 
Q 3544 3216 3844 3400 
Q 4144 3584 4550 3584 
Q 5097 3584 5394 3201 
Q 5691 2819 5691 2113 
L 5691 0 
L 5113 0 
L 5113 2094 
Q 5113 2597 4934 2840 
Q 4756 3084 4391 3084 
Q 3944 3084 3684 2787 
Q 3425 2491 3425 1978 
L 3425 0 
L 2847 0 
L 2847 2094 
Q 2847 2600 2669 2842 
Q 2491 3084 2119 3084 
Q 1678 3084 1418 2786 
Q 1159 2488 1159 1978 
L 1159 0 
L 581 0 
L 581 3500 
L 1159 3500 
L 1159 2956 
Q 1356 3278 1631 3431 
Q 1906 3584 2284 3584 
Q 2666 3584 2933 3390 
Q 3200 3197 3328 2828 
z
" transform="scale(0.015625)"/>
       <path id="DejaVuSans-65" d="M 3597 1894 
L 3597 1613 
L 953 1613 
Q 991 1019 1311 708 
Q 1631 397 2203 397 
Q 2534 397 2845 478 
Q 3156 559 3463 722 
L 3463 178 
Q 3153 47 2828 -22 
Q 2503 -91 2169 -91 
Q 1331 -91 842 396 
Q 353 884 353 1716 
Q 353 2575 817 3079 
Q 1281 3584 2069 3584 
Q 2775 3584 3186 3129 
Q 3597 2675 3597 1894 
z
M 3022 2063 
Q 3016 2534 2758 2815 
Q 2500 3097 2075 3097 
Q 1594 3097 1305 2825 
Q 1016 2553 972 2059 
L 3022 2063 
z
" transform="scale(0.015625)"/>
       <path id="DejaVuSans-20" transform="scale(0.015625)"/>
       <path id="DejaVuSans-73" d="M 2834 3397 
L 2834 2853 
Q 2591 2978 2328 3040 
Q 2066 3103 1784 3103 
Q 1356 3103 1142 2972 
Q 928 2841 928 2578 
Q 928 2378 1081 2264 
Q 1234 2150 1697 2047 
L 1894 2003 
Q 2506 1872 2764 1633 
Q 3022 1394 3022 966 
Q 3022 478 2636 193 
Q 2250 -91 1575 -91 
Q 1294 -91 989 -36 
Q 684 19 347 128 
L 347 722 
Q 666 556 975 473 
Q 1284 391 1588 391 
Q 1994 391 2212 530 
Q 2431 669 2431 922 
Q 2431 1156 2273 1281 
Q 2116 1406 1581 1522 
L 1381 1569 
Q 847 1681 609 1914 
Q 372 2147 372 2553 
Q 372 3047 722 3315 
Q 1072 3584 1716 3584 
Q 2034 3584 2315 3537 
Q 2597 3491 2834 3397 
z
" transform="scale(0.015625)"/>
       <path id="DejaVuSans-70" d="M 1159 525 
L 1159 -1331 
L 581 -1331 
L 581 3500 
L 1159 3500 
L 1159 2969 
Q 1341 3281 1617 3432 
Q 1894 3584 2278 3584 
Q 2916 3584 3314 3078 
Q 3713 2572 3713 1747 
Q 3713 922 3314 415 
Q 2916 -91 2278 -91 
Q 1894 -91 1617 61 
Q 1341 213 1159 525 
z
M 3116 1747 
Q 3116 2381 2855 2742 
Q 2594 3103 2138 3103 
Q 1681 3103 1420 2742 
Q 1159 2381 1159 1747 
Q 1159 1113 1420 752 
Q 1681 391 2138 391 
Q 2594 391 2855 752 
Q 3116 1113 3116 1747 
z
" transform="scale(0.015625)"/>
      </defs>
      <use xlink:href="#DejaVuSans-74"/>
      <use xlink:href="#DejaVuSans-69" x="39.208984"/>
      <use xlink:href="#DejaVuSans-6d" x="66.992188"/>
      <use xlink:href="#DejaVuSans-65" x="164.404297"/>
      <use xlink:href="#DejaVuSans-20" x="225.927734"/>
      <use xlink:href="#DejaVuSans-73" x="257.714844"/>
      <use xlink:href="#DejaVuSans-74" x="309.814453"/>
      <use xlink:href="#DejaVuSans-65" x="349.023438"/>
      <use xlink:href="#DejaVuSans-70" x="410.546875"/>
     </g>
    </g>
   </g>
   <g id="matplotlib.axis_2">
    <g id="ytick_1">
     <g id="line2d_9">
      <defs>
       <path id="mffe52cd834" d="M 0 0 
L -3.5 0 
" style="stroke: #000000; stroke-width: 0.8"/>
      </defs>
      <g>
       <use xlink:href="#mffe52cd834" x="135" y="366.482946" style="stroke: #000000; stroke-width: 0.8"/>
      </g>
     </g>
     <g id="text_10">
      <!-- 250 -->
      <g transform="translate(108.9125 370.282165) scale(0.1 -0.1)">
       <use xlink:href="#DejaVuSans-32"/>
       <use xlink:href="#DejaVuSans-35" x="63.623047"/>
       <use xlink:href="#DejaVuSans-30" x="127.246094"/>
      </g>
     </g>
    </g>
    <g id="ytick_2">
     <g id="line2d_10">
      <g>
       <use xlink:href="#mffe52cd834" x="135" y="328.954161" style="stroke: #000000; stroke-width: 0.8"/>
      </g>
     </g>
     <g id="text_11">
      <!-- 275 -->
      <g transform="translate(108.9125 332.75338) scale(0.1 -0.1)">
       <use xlink:href="#DejaVuSans-32"/>
       <use xlink:href="#DejaVuSans-37" x="63.623047"/>
       <use xlink:href="#DejaVuSans-35" x="127.246094"/>
      </g>
     </g>
    </g>
    <g id="ytick_3">
     <g id="line2d_11">
      <g>
       <use xlink:href="#mffe52cd834" x="135" y="291.425377" style="stroke: #000000; stroke-width: 0.8"/>
      </g>
     </g>
     <g id="text_12">
      <!-- 300 -->
      <g transform="translate(108.9125 295.224596) scale(0.1 -0.1)">
       <use xlink:href="#DejaVuSans-33"/>
       <use xlink:href="#DejaVuSans-30" x="63.623047"/>
       <use xlink:href="#DejaVuSans-30" x="127.246094"/>
      </g>
     </g>
    </g>
    <g id="ytick_4">
     <g id="line2d_12">
      <g>
       <use xlink:href="#mffe52cd834" x="135" y="253.896593" style="stroke: #000000; stroke-width: 0.8"/>
      </g>
     </g>
     <g id="text_13">
      <!-- 325 -->
      <g transform="translate(108.9125 257.695811) scale(0.1 -0.1)">
       <use xlink:href="#DejaVuSans-33"/>
       <use xlink:href="#DejaVuSans-32" x="63.623047"/>
       <use xlink:href="#DejaVuSans-35" x="127.246094"/>
      </g>
     </g>
    </g>
    <g id="ytick_5">
     <g id="line2d_13">
      <g>
       <use xlink:href="#mffe52cd834" x="135" y="216.367808" style="stroke: #000000; stroke-width: 0.8"/>
      </g>
     </g>
     <g id="text_14">
      <!-- 350 -->
      <g transform="translate(108.9125 220.167027) scale(0.1 -0.1)">
       <use xlink:href="#DejaVuSans-33"/>
       <use xlink:href="#DejaVuSans-35" x="63.623047"/>
       <use xlink:href="#DejaVuSans-30" x="127.246094"/>
      </g>
     </g>
    </g>
    <g id="ytick_6">
     <g id="line2d_14">
      <g>
       <use xlink:href="#mffe52cd834" x="135" y="178.839024" style="stroke: #000000; stroke-width: 0.8"/>
      </g>
     </g>
     <g id="text_15">
      <!-- 375 -->
      <g transform="translate(108.9125 182.638242) scale(0.1 -0.1)">
       <use xlink:href="#DejaVuSans-33"/>
       <use xlink:href="#DejaVuSans-37" x="63.623047"/>
       <use xlink:href="#DejaVuSans-35" x="127.246094"/>
      </g>
     </g>
    </g>
    <g id="ytick_7">
     <g id="line2d_15">
      <g>
       <use xlink:href="#mffe52cd834" x="135" y="141.310239" style="stroke: #000000; stroke-width: 0.8"/>
      </g>
     </g>
     <g id="text_16">
      <!-- 400 -->
      <g transform="translate(108.9125 145.109458) scale(0.1 -0.1)">
       <use xlink:href="#DejaVuSans-34"/>
       <use xlink:href="#DejaVuSans-30" x="63.623047"/>
       <use xlink:href="#DejaVuSans-30" x="127.246094"/>
      </g>
     </g>
    </g>
    <g id="ytick_8">
     <g id="line2d_16">
      <g>
       <use xlink:href="#mffe52cd834" x="135" y="103.781455" style="stroke: #000000; stroke-width: 0.8"/>
      </g>
     </g>
     <g id="text_17">
      <!-- 425 -->
      <g transform="translate(108.9125 107.580674) scale(0.1 -0.1)">
       <use xlink:href="#DejaVuSans-34"/>
       <use xlink:href="#DejaVuSans-32" x="63.623047"/>
       <use xlink:href="#DejaVuSans-35" x="127.246094"/>
      </g>
     </g>
    </g>
    <g id="ytick_9">
     <g id="line2d_17">
      <g>
       <use xlink:href="#mffe52cd834" x="135" y="66.25267" style="stroke: #000000; stroke-width: 0.8"/>
      </g>
     </g>
     <g id="text_18">
      <!-- 450 -->
      <g transform="translate(108.9125 70.051889) scale(0.1 -0.1)">
       <use xlink:href="#DejaVuSans-34"/>
       <use xlink:href="#DejaVuSans-35" x="63.623047"/>
       <use xlink:href="#DejaVuSans-30" x="127.246094"/>
      </g>
     </g>
    </g>
    <g id="text_19">
     <!-- Load -->
     <g transform="translate(102.832812 230.156094) rotate(-90) scale(0.1 -0.1)">
      <defs>
       <path id="DejaVuSans-4c" d="M 628 4666 
L 1259 4666 
L 1259 531 
L 3531 531 
L 3531 0 
L 628 0 
L 628 4666 
z
" transform="scale(0.015625)"/>
       <path id="DejaVuSans-6f" d="M 1959 3097 
Q 1497 3097 1228 2736 
Q 959 2375 959 1747 
Q 959 1119 1226 758 
Q 1494 397 1959 397 
Q 2419 397 2687 759 
Q 2956 1122 2956 1747 
Q 2956 2369 2687 2733 
Q 2419 3097 1959 3097 
z
M 1959 3584 
Q 2709 3584 3137 3096 
Q 3566 2609 3566 1747 
Q 3566 888 3137 398 
Q 2709 -91 1959 -91 
Q 1206 -91 779 398 
Q 353 888 353 1747 
Q 353 2609 779 3096 
Q 1206 3584 1959 3584 
z
" transform="scale(0.015625)"/>
       <path id="DejaVuSans-61" d="M 2194 1759 
Q 1497 1759 1228 1600 
Q 959 1441 959 1056 
Q 959 750 1161 570 
Q 1363 391 1709 391 
Q 2188 391 2477 730 
Q 2766 1069 2766 1631 
L 2766 1759 
L 2194 1759 
z
M 3341 1997 
L 3341 0 
L 2766 0 
L 2766 531 
Q 2569 213 2275 61 
Q 1981 -91 1556 -91 
Q 1019 -91 701 211 
Q 384 513 384 1019 
Q 384 1609 779 1909 
Q 1175 2209 1959 2209 
L 2766 2209 
L 2766 2266 
Q 2766 2663 2505 2880 
Q 2244 3097 1772 3097 
Q 1472 3097 1187 3025 
Q 903 2953 641 2809 
L 641 3341 
Q 956 3463 1253 3523 
Q 1550 3584 1831 3584 
Q 2591 3584 2966 3190 
Q 3341 2797 3341 1997 
z
" transform="scale(0.015625)"/>
       <path id="DejaVuSans-64" d="M 2906 2969 
L 2906 4863 
L 3481 4863 
L 3481 0 
L 2906 0 
L 2906 525 
Q 2725 213 2448 61 
Q 2172 -91 1784 -91 
Q 1150 -91 751 415 
Q 353 922 353 1747 
Q 353 2572 751 3078 
Q 1150 3584 1784 3584 
Q 2172 3584 2448 3432 
Q 2725 3281 2906 2969 
z
M 947 1747 
Q 947 1113 1208 752 
Q 1469 391 1925 391 
Q 2381 391 2643 752 
Q 2906 1113 2906 1747 
Q 2906 2381 2643 2742 
Q 2381 3103 1925 3103 
Q 1469 3103 1208 2742 
Q 947 2381 947 1747 
z
" transform="scale(0.015625)"/>
      </defs>
      <use xlink:href="#DejaVuSans-4c"/>
      <use xlink:href="#DejaVuSans-6f" x="53.962891"/>
      <use xlink:href="#DejaVuSans-61" x="115.144531"/>
      <use xlink:href="#DejaVuSans-64" x="176.423828"/>
     </g>
    </g>
   </g>
   <g id="line2d_18">
    <path d="M 173.045455 173.361434 
L 174.18114 161.737039 
L 175.316825 174.652264 
L 176.45251 190.710983 
L 177.588195 193.895662 
L 178.723881 185.54821 
L 179.859566 143.681214 
L 180.995251 68.974057 
L 182.130936 83.960008 
L 183.266621 97.391758 
L 184.402307 131.780393 
L 185.537992 178.389201 
L 186.673677 230.406469 
L 187.809362 272.543662 
L 188.945047 302.952055 
L 190.080733 322.729844 
L 191.216418 337.061332 
L 192.352103 347.504202 
L 193.487788 353.813041 
L 194.623474 345.934883 
L 195.759159 304.782133 
L 196.894844 276.357698 
L 198.030529 238.005498 
L 199.166214 205.296313 
L 200.3019 188.36067 
L 201.437585 182.224402 
L 202.57327 196.192834 
L 203.708955 205.713014 
L 204.84464 204.181994 
L 205.980326 187.219368 
L 207.116011 138.053774 
L 208.251696 72.170234 
L 209.387381 92.80763 
L 210.523066 110.064045 
L 211.658752 139.193106 
L 212.794437 183.702236 
L 213.930122 236.148116 
L 215.065807 276.48281 
L 216.201493 305.578475 
L 217.337178 324.737442 
L 218.472863 337.901744 
L 219.608548 347.501316 
L 220.744233 353.250247 
L 221.879919 344.385171 
L 223.015604 300.618509 
L 224.151289 268.523702 
L 225.286974 231.580938 
L 226.422659 202.337852 
L 227.558345 195.819653 
L 228.69403 198.796943 
L 229.829715 209.284113 
L 230.9654 212.438555 
L 232.101085 208.521626 
L 233.236771 190.67777 
L 234.372456 141.025292 
L 235.508141 77.775134 
L 237.779512 113.835614 
L 238.915197 142.793203 
L 241.186567 236.445341 
L 242.322252 275.323595 
L 243.457938 304.021159 
L 244.593623 322.835165 
L 245.729308 335.538878 
L 246.864993 345.263653 
L 248.000678 350.954174 
L 249.136364 338.277077 
L 250.272049 292.502726 
L 251.407734 268.400698 
L 252.543419 233.306474 
L 253.679104 208.398347 
L 254.81479 199.529103 
L 255.950475 196.722873 
L 257.08616 208.171993 
L 258.221845 216.214202 
L 259.357531 212.842567 
L 260.493216 197.79642 
L 261.628901 143.392051 
L 262.764586 79.869132 
L 263.900271 101.760297 
L 265.035957 116.713997 
L 266.171642 145.626324 
L 269.578697 277.221978 
L 270.714383 304.869771 
L 271.850068 323.119425 
L 272.985753 335.621293 
L 274.121438 345.018515 
L 275.257123 350.574672 
L 276.392809 339.539001 
L 277.528494 294.894911 
L 278.664179 263.683671 
L 279.799864 223.648676 
L 280.93555 195.642225 
L 282.071235 188.195794 
L 283.20692 194.118764 
L 284.342605 204.373257 
L 285.47829 208.632077 
L 286.613976 202.957865 
L 287.749661 186.45033 
L 288.885346 137.341176 
L 290.021031 75.775599 
L 291.156716 92.899253 
L 292.292402 112.126845 
L 293.428087 142.618937 
L 295.699457 234.845054 
L 296.835142 272.157974 
L 297.970828 300.75347 
L 299.106513 319.862319 
L 300.242198 333.608702 
L 301.377883 344.246546 
L 302.513569 351.054639 
L 303.649254 342.694727 
L 304.784939 309.095195 
L 305.920624 290.929926 
L 307.056309 246.275803 
L 308.191995 208.409479 
L 309.32768 194.35877 
L 310.463365 196.706793 
L 311.59905 209.590408 
L 312.734735 223.769115 
L 313.870421 222.037852 
L 315.006106 209.472856 
L 316.141791 159.855286 
L 317.277476 92.495791 
L 318.413161 111.475818 
L 319.548847 132.611459 
L 320.684532 160.835652 
L 322.955902 247.432131 
L 324.091588 283.76125 
L 325.227273 311.58308 
L 326.362958 330.968768 
L 327.498643 344.538777 
L 328.634328 354.451241 
L 329.770014 360.754904 
L 330.905699 354.728493 
L 332.041384 331.871575 
L 333.177069 336.46963 
L 334.312754 331.176111 
L 335.44844 297.153098 
L 336.584125 253.553464 
L 337.71981 233.081036 
L 338.855495 238.288201 
L 339.99118 253.054211 
L 341.126866 256.604098 
L 342.262551 241.008579 
L 343.398236 194.214739 
L 344.533921 115.536687 
L 345.669607 128.303254 
L 346.805292 147.07241 
L 347.940977 169.902436 
L 349.076662 202.2892 
L 352.483718 321.752226 
L 353.619403 343.023149 
L 354.755088 356.336568 
L 355.890773 364.568735 
L 357.026459 368.367723 
L 358.162144 356.283106 
L 359.297829 310.036392 
L 360.433514 275.370644 
L 361.569199 236.779994 
L 362.704885 205.487484 
L 363.84057 190.790925 
L 364.976255 188.584093 
L 367.247626 217.637474 
L 368.383311 218.387592 
L 369.518996 206.019676 
L 370.654681 156.633271 
L 371.790366 84.003025 
L 374.061737 114.410274 
L 375.197422 141.001607 
L 376.333107 183.282052 
L 377.468792 232.76063 
L 378.604478 273.32122 
L 379.740163 303.863109 
L 380.875848 323.450688 
L 382.011533 336.381581 
L 383.147218 345.725524 
L 384.282904 352.436726 
L 385.418589 344.196794 
L 386.554274 300.171022 
L 387.689959 263.302565 
L 388.825645 220.71422 
L 389.96133 189.395918 
L 391.097015 173.029575 
L 392.2327 172.429903 
L 393.368385 187.381266 
L 394.504071 199.441923 
L 395.639756 198.147107 
L 396.775441 189.143405 
L 397.911126 145.974996 
L 399.046811 75.066117 
L 401.318182 110.224522 
L 402.453867 134.81174 
L 403.589552 178.414992 
L 404.725237 229.529041 
L 405.860923 271.965978 
L 406.996608 302.42733 
L 408.132293 322.066906 
L 409.267978 334.951162 
L 410.403664 344.239995 
L 411.539349 349.616982 
L 412.675034 339.60891 
L 413.810719 293.347628 
L 416.08209 221.946779 
L 417.217775 194.382409 
L 418.35346 180.422911 
L 419.489145 174.847101 
L 420.62483 189.600009 
L 421.760516 199.603042 
L 422.896201 195.845628 
L 424.031886 175.851564 
L 426.303256 66.96 
L 427.438942 88.163259 
L 428.574627 102.667044 
L 429.710312 135.102689 
L 431.981682 229.667438 
L 433.117368 269.837439 
L 434.253053 299.669982 
L 435.388738 319.056219 
L 436.524423 332.609782 
L 437.660109 342.672096 
L 438.795794 349.487519 
L 439.931479 343.025944 
L 441.067164 310.783532 
L 443.338535 258.67771 
L 444.47422 225.387773 
L 445.609905 197.973206 
L 446.74559 181.839769 
L 447.881275 189.284184 
L 449.016961 202.502727 
L 450.152646 200.501497 
L 451.288331 187.366286 
L 452.424016 139.702622 
L 453.559701 68.728462 
L 454.695387 84.691022 
L 455.831072 102.704518 
L 456.966757 134.833409 
L 458.102442 177.040601 
L 459.238128 226.483401 
L 460.373813 267.062452 
L 461.509498 298.883078 
L 462.645183 319.969243 
L 463.780868 334.400279 
L 464.916554 344.807507 
L 466.052239 352.106105 
L 467.187924 345.886277 
L 468.323609 311.595678 
L 469.459294 294.665945 
L 471.730665 210.557214 
L 472.86635 191.368333 
L 474.002035 181.70041 
L 475.13772 195.229006 
L 476.273406 210.539394 
L 477.409091 209.714787 
L 478.544776 197.194502 
L 479.680461 147.392495 
L 480.816147 77.937811 
L 483.087517 112.586655 
L 484.223202 137.206765 
L 485.358887 177.409567 
L 486.494573 223.881078 
L 487.630258 263.103331 
L 488.765943 296.058249 
L 489.901628 317.766259 
L 491.037313 332.213604 
L 492.172999 342.272161 
L 493.308684 348.974568 
L 494.444369 345.542232 
L 495.580054 314.339284 
L 496.715739 294.829355 
L 498.98711 211.879289 
L 500.122795 197.408809 
L 501.25848 204.826241 
L 502.394166 209.388059 
L 503.529851 225.79664 
L 504.665536 225.038139 
L 505.801221 213.486768 
L 506.936906 170.245977 
L 508.072592 93.493428 
L 509.208277 110.60091 
L 510.343962 130.147075 
L 511.479647 157.462322 
L 512.615332 197.114974 
L 513.751018 241.285464 
L 514.886703 277.878594 
L 516.022388 306.591871 
L 517.158073 326.262965 
L 518.293758 340.353896 
L 519.429444 349.997997 
L 520.565129 357.129245 
L 521.700814 353.393545 
L 522.836499 330.983611 
L 523.972185 332.518571 
L 525.10787 325.456316 
L 527.37924 270.563184 
L 528.514925 258.075014 
L 529.650611 262.324856 
L 530.786296 270.110842 
L 531.921981 269.842432 
L 533.057666 256.359556 
L 534.193351 213.130401 
L 535.329037 123.93137 
L 536.464722 136.680758 
L 538.736092 174.59839 
L 539.871777 203.270391 
L 542.143148 282.029208 
L 543.278833 315.595756 
L 544.414518 336.719532 
L 545.550204 349.844299 
L 546.685889 357.985645 
L 547.821574 362.327545 
L 548.957259 354.419357 
L 550.092944 312.975109 
L 553.5 208.527856 
L 554.635685 198.197958 
L 555.77137 200.181916 
L 556.907056 215.021362 
L 558.042741 226.609382 
L 559.178426 224.866987 
L 560.314111 213.991061 
L 561.449796 172.422893 
L 562.585482 95.844749 
L 563.721167 112.583769 
L 564.856852 141.63037 
L 567.128223 232.590945 
L 568.263908 267.525332 
L 571.670963 327.014319 
L 572.806649 343.645453 
L 573.942334 357.214775 
L 575.078019 364.547181 
L 576.213704 360.052431 
L 578.485075 300.917292 
L 579.62076 260.409248 
L 580.756445 224.920633 
L 581.89213 213.484661 
L 583.027815 208.751554 
L 584.163501 220.200353 
L 585.299186 225.734749 
L 586.434871 222.128101 
L 587.570556 207.1077 
L 588.706242 167.56243 
L 589.841927 93.752584 
L 592.113297 122.009807 
L 593.248982 142.076299 
L 594.384668 181.435482 
L 595.520353 230.207601 
L 596.656038 272.359224 
L 597.791723 302.180498 
L 598.927408 321.48684 
L 600.063094 334.601529 
L 601.198779 343.885505 
L 602.334464 350.380889 
L 603.470149 342.076317 
L 604.605834 296.073641 
L 606.877205 231.492843 
L 608.01289 205.104225 
L 609.148575 199.671714 
L 610.284261 200.12227 
L 611.419946 211.346776 
L 612.555631 219.280275 
L 613.691316 215.124117 
L 614.827001 200.312204 
L 615.962687 160.793643 
L 617.098372 84.332455 
L 618.234057 99.585304 
L 620.505427 143.132621 
L 623.912483 270.768053 
L 625.048168 300.346755 
L 626.183853 319.726396 
L 627.319539 333.050076 
L 628.455224 342.641265 
L 629.590909 349.358697 
L 630.726594 340.588772 
L 631.86228 295.654924 
L 635.269335 201.553834 
L 636.40502 196.214182 
L 637.540706 198.708985 
L 639.812076 216.087213 
L 640.947761 210.607149 
L 642.083446 197.009332 
L 643.219132 159.462819 
L 644.354817 80.697908 
L 645.490502 94.816006 
L 646.626187 112.668841 
L 647.761872 136.220948 
L 651.168928 267.976942 
L 652.304613 298.39152 
L 653.440299 317.712889 
L 654.575984 330.757623 
L 655.711669 340.150951 
L 656.847354 346.257762 
L 657.983039 337.744839 
L 659.118725 294.395199 
L 661.390095 231.728772 
L 662.52578 206.470874 
L 663.661465 203.108722 
L 664.797151 198.056675 
L 665.932836 209.227169 
L 667.068521 217.397193 
L 668.204206 211.456769 
L 669.339891 197.693069 
L 670.475577 155.629908 
L 671.611262 80.519885 
L 672.746947 94.070286 
L 673.882632 114.372296 
L 675.018318 139.910835 
L 677.289688 228.622431 
L 678.425373 267.174736 
L 679.561058 296.885879 
L 680.696744 316.979905 
L 681.832429 330.894737 
L 682.968114 341.22546 
L 684.103799 348.604227 
L 685.239484 342.354759 
L 686.37517 306.238023 
L 687.510855 285.089783 
L 689.782225 191.219079 
L 690.91791 170.992658 
L 692.053596 172.567062 
L 694.324966 201.713258 
L 695.460651 198.109404 
L 696.596336 189.309335 
L 697.732022 158.541549 
L 698.867707 83.868522 
L 700.003392 90.014502 
L 701.139077 115.109449 
L 702.274763 147.600113 
L 704.546133 238.300753 
L 705.681818 276.731658 
L 706.817503 307.494495 
L 707.953189 329.60354 
L 709.088874 345.372455 
L 710.224559 356.566542 
L 711.360244 363.590499 
L 712.495929 360.285016 
L 713.631615 334.140482 
L 714.7673 328.13803 
L 715.902985 316.482896 
L 718.174355 256.219053 
L 719.310041 247.265469 
L 720.445726 254.689636 
L 721.581411 260.978868 
L 722.717096 256.993954 
L 723.852782 238.447304 
L 724.988467 189.150964 
L 726.124152 124.606128 
L 727.259837 128.186159 
L 728.395522 144.934708 
L 729.531208 166.28461 
L 731.802578 237.994778 
L 732.938263 283.005085 
L 734.073948 317.995088 
L 735.209634 340.517123 
L 736.345319 355.063421 
L 737.481004 364.446533 
L 738.616689 369.36 
L 739.752374 357.889212 
L 740.88806 314.993289 
L 743.15943 241.335628 
L 744.295115 213.029982 
L 745.430801 200.794966 
L 746.566486 198.902355 
L 747.702171 213.062875 
L 748.837856 224.931628 
L 749.973541 223.347512 
L 751.109227 210.976069 
L 752.244912 169.458248 
L 753.380597 98.31486 
L 754.516282 102.368674 
L 755.651967 118.575364 
L 756.787653 140.82111 
L 757.923338 182.222478 
L 759.059023 231.314132 
L 760.194708 271.970101 
L 761.330393 302.356872 
L 762.466079 322.194857 
L 763.601764 335.347569 
L 764.737449 344.931565 
L 765.873134 350.774318 
L 767.00882 340.643287 
L 768.144505 295.045265 
L 770.415875 235.708463 
L 771.55156 210.538432 
L 772.687246 199.320752 
L 773.822931 198.559594 
L 774.958616 207.937713 
L 776.094301 214.04544 
L 777.229986 210.057594 
L 778.365672 196.967277 
L 779.501357 155.064548 
L 780.637042 83.145525 
L 781.772727 94.101896 
L 784.044098 137.794756 
L 785.179783 180.339213 
L 786.315468 230.413111 
L 787.451153 272.209741 
L 788.586839 301.687246 
L 789.722524 321.141009 
L 790.858209 334.127655 
L 791.993894 343.66364 
L 793.129579 349.225935 
L 794.265265 337.789781 
L 795.40095 291.40128 
L 796.536635 261.011623 
L 798.808005 207.03124 
L 799.943691 198.294849 
L 801.079376 195.758312 
L 802.215061 207.341934 
L 803.350746 216.166467 
L 804.486431 214.481382 
L 805.622117 199.460523 
L 806.757802 146.493857 
L 807.893487 82.291645 
L 809.029172 96.543604 
L 810.164858 115.617819 
L 811.300543 141.196077 
L 812.436228 183.645567 
L 813.571913 231.072339 
L 814.707598 270.700436 
L 815.843284 299.535159 
L 816.978969 318.993503 
L 818.114654 332.219789 
L 819.250339 341.991062 
L 820.386024 348.512971 
L 821.52171 338.545854 
L 822.657395 293.847569 
L 823.79308 263.495752 
L 824.928765 226.204912 
L 826.06445 193.48006 
L 827.200136 185.916122 
L 828.335821 182.907772 
L 829.471506 199.999541 
L 830.607191 206.203839 
L 831.742877 201.772858 
L 832.878562 188.749197 
L 834.014247 149.098653 
L 835.149932 76.212504 
L 836.285617 84.42669 
L 837.421303 105.479275 
L 838.556988 133.783272 
L 839.692673 177.87744 
L 840.828358 227.903832 
L 841.964043 267.967642 
L 843.099729 297.84728 
L 844.235414 317.438432 
L 845.371099 330.892629 
L 846.506784 340.828916 
L 847.642469 346.833475 
L 848.778155 335.732432 
L 849.91384 288.297505 
L 852.18521 225.364042 
L 853.320896 202.879481 
L 854.456581 195.002743 
L 855.592266 192.326709 
L 856.727951 201.204933 
L 857.863636 209.087765 
L 858.999322 204.403584 
L 860.135007 187.67084 
L 861.270692 141.243354 
L 862.406377 76.207098 
L 863.542062 87.755537 
L 864.677748 109.191015 
L 865.813433 137.029108 
L 868.084803 228.676122 
L 869.220488 265.921517 
L 870.356174 295.843805 
L 871.491859 315.880199 
L 872.627544 330.116857 
L 873.763229 340.929655 
L 874.898915 348.4339 
L 876.0346 339.180343 
L 877.170285 299.848693 
L 878.30597 279.686775 
L 880.577341 203.004134 
L 881.713026 185.892484 
L 882.848711 186.470075 
L 885.120081 216.774339 
L 886.255767 216.967664 
L 887.391452 208.022876 
L 888.527137 175.07822 
L 889.662822 99.085409 
L 890.798507 106.14652 
L 893.069878 153.866256 
L 894.205563 193.432049 
L 895.341248 239.509581 
L 896.476934 277.725813 
L 897.612619 307.332093 
L 898.748304 327.276178 
L 899.883989 340.882149 
L 901.019674 350.652231 
L 902.15536 357.570547 
L 903.291045 354.427923 
L 904.42673 330.609698 
L 905.562415 328.908304 
L 906.6981 319.72493 
L 908.969471 256.291755 
L 910.105156 242.680425 
L 911.240841 249.471659 
L 912.376526 263.455896 
L 913.512212 264.130058 
L 914.647897 252.566226 
L 915.783582 211.221298 
L 916.919267 127.918758 
L 918.054953 129.769817 
L 919.190638 151.346715 
L 920.326323 167.092221 
L 921.462008 199.073645 
L 924.869064 318.871737 
L 926.004749 339.67497 
L 927.140434 352.616811 
L 928.276119 360.318871 
L 929.411805 363.734599 
L 930.54749 352.81829 
L 931.683175 307.899652 
L 932.81886 270.258813 
L 933.954545 228.56448 
L 933.954545 228.56448 
" clip-path="url(#p2d058f0767)" style="fill: none; stroke: #1f77b4; stroke-width: 1.5; stroke-linecap: square"/>
   </g>
   <g id="line2d_19">
    <path d="M 173.045455 148.744963 
L 174.18114 157.481714 
L 175.316825 182.285897 
L 176.45251 196.90529 
L 177.588195 194.8618 
L 178.723881 163.169771 
L 179.859566 91.669185 
L 180.995251 78.192582 
L 182.130936 90.927186 
L 183.266621 115.46768 
L 184.402307 136.14613 
L 185.537992 165.834048 
L 186.673677 210.895927 
L 187.809362 265.934337 
L 188.945047 300.697001 
L 190.080733 320.278544 
L 191.216418 328.438773 
L 192.352103 331.703643 
L 193.487788 332.851368 
L 194.623474 320.878429 
L 195.759159 310.206527 
L 198.030529 223.477875 
L 199.166214 193.978613 
L 200.3019 175.949987 
L 201.437585 186.469801 
L 202.57327 205.399432 
L 203.708955 217.326004 
L 204.84464 208.879936 
L 205.980326 180.773822 
L 207.116011 99.181738 
L 208.251696 79.005861 
L 209.387381 94.153577 
L 210.523066 117.290544 
L 211.658752 137.308701 
L 212.794437 168.930584 
L 213.930122 213.668228 
L 215.065807 266.983885 
L 216.201493 304.199263 
L 217.337178 322.987053 
L 218.472863 330.73844 
L 219.608548 332.58764 
L 220.744233 331.487204 
L 223.015604 301.498232 
L 225.286974 219.23113 
L 226.422659 198.600523 
L 227.558345 189.158997 
L 228.69403 197.978497 
L 229.829715 211.092888 
L 230.9654 221.357958 
L 232.101085 211.262254 
L 233.236771 183.354613 
L 234.372456 100.95323 
L 235.508141 77.990349 
L 236.643826 92.69131 
L 238.915197 138.542293 
L 240.050882 164.719062 
L 241.186567 209.446943 
L 242.322252 266.627352 
L 243.457938 305.342038 
L 244.593623 322.688237 
L 245.729308 329.606885 
L 246.864993 331.095446 
L 248.000678 328.669225 
L 249.136364 314.826595 
L 250.272049 302.987131 
L 252.543419 224.171994 
L 253.679104 200.974043 
L 254.81479 186.067467 
L 255.950475 196.363517 
L 257.08616 215.489597 
L 258.221845 222.847488 
L 259.357531 217.732756 
L 260.493216 187.473276 
L 261.628901 102.074824 
L 262.764586 79.655827 
L 263.900271 92.471917 
L 265.035957 117.051295 
L 266.171642 138.062003 
L 267.307327 165.455271 
L 269.578697 264.945519 
L 270.714383 299.768365 
L 271.850068 318.356354 
L 272.985753 327.551352 
L 274.121438 330.52288 
L 275.257123 328.25769 
L 276.392809 313.435011 
L 277.528494 296.300941 
L 279.799864 212.253344 
L 280.93555 190.438748 
L 282.071235 183.401641 
L 283.20692 190.947557 
L 284.342605 204.732184 
L 285.47829 210.075729 
L 286.613976 203.611587 
L 287.749661 177.531949 
L 288.885346 103.545836 
L 290.021031 80.814394 
L 291.156716 95.429326 
L 294.563772 164.134429 
L 295.699457 203.145011 
L 296.835142 255.495652 
L 297.970828 293.753254 
L 299.106513 315.421881 
L 300.242198 325.389083 
L 301.377883 328.652074 
L 302.513569 327.754856 
L 303.649254 321.218466 
L 304.784939 317.168395 
L 307.056309 224.936789 
L 308.191995 200.532577 
L 309.32768 192.07879 
L 310.463365 199.631471 
L 311.59905 224.563222 
L 312.734735 233.649115 
L 313.870421 229.999692 
L 315.006106 201.020664 
L 316.141791 120.479688 
L 317.277476 98.04039 
L 318.413161 116.569163 
L 319.548847 139.807431 
L 321.820217 177.503011 
L 322.955902 211.43603 
L 324.091588 258.757489 
L 325.227273 299.586058 
L 326.362958 321.559844 
L 327.498643 332.43852 
L 328.634328 337.305538 
L 329.770014 337.425756 
L 330.905699 338.420383 
L 332.041384 355.649659 
L 333.177069 342.995487 
L 334.312754 302.579567 
L 335.44844 256.246307 
L 336.584125 231.530695 
L 337.71981 233.734586 
L 338.855495 251.546677 
L 339.99118 264.131931 
L 341.126866 258.933506 
L 342.262551 234.637064 
L 343.398236 155.605794 
L 344.533921 134.427394 
L 345.669607 143.885553 
L 346.805292 157.456427 
L 347.940977 167.773358 
L 349.076662 185.559684 
L 350.212347 225.943485 
L 351.348033 280.519692 
L 352.483718 315.566467 
L 353.619403 331.169688 
L 354.755088 337.826769 
L 355.890773 339.639339 
L 357.026459 335.577735 
L 358.162144 319.02488 
L 359.297829 300.569439 
L 361.569199 217.491295 
L 362.704885 190.225766 
L 363.84057 175.388837 
L 364.976255 184.072782 
L 366.11194 206.39307 
L 367.247626 214.003086 
L 368.383311 208.592758 
L 369.518996 179.728123 
L 370.654681 102.353591 
L 371.790366 79.205158 
L 372.926052 91.618218 
L 374.061737 114.505446 
L 375.197422 134.272717 
L 376.333107 162.999217 
L 377.468792 207.417351 
L 378.604478 265.743865 
L 379.740163 303.090769 
L 380.875848 319.627488 
L 382.011533 327.465881 
L 383.147218 333.497127 
L 384.282904 330.78591 
L 385.418589 315.653285 
L 386.554274 297.118033 
L 388.825645 208.000522 
L 389.96133 177.282271 
L 391.097015 164.075182 
L 392.2327 175.625983 
L 393.368385 199.380558 
L 394.504071 208.201876 
L 395.639756 206.663223 
L 396.775441 183.543538 
L 397.911126 105.091769 
L 399.046811 78.682672 
L 400.182497 91.701472 
L 402.453867 133.567195 
L 403.589552 161.988876 
L 404.725237 207.048007 
L 405.860923 262.45818 
L 406.996608 298.948411 
L 408.132293 314.817642 
L 409.267978 322.212473 
L 410.403664 325.944242 
L 411.539349 326.310934 
L 412.675034 311.098532 
L 413.810719 292.306855 
L 416.08209 210.974701 
L 417.217775 183.016962 
L 418.35346 164.311095 
L 419.489145 176.562733 
L 420.62483 195.411261 
L 421.760516 200.074457 
L 422.896201 187.645426 
L 424.031886 153.517023 
L 425.167571 88.307759 
L 426.303256 76.763962 
L 427.438942 90.411229 
L 429.710312 134.476575 
L 430.845997 160.921002 
L 431.981682 206.063788 
L 433.117368 262.991338 
L 434.253053 298.807059 
L 435.388738 316.053927 
L 436.524423 323.82772 
L 437.660109 327.405769 
L 438.795794 327.457132 
L 439.931479 320.274953 
L 441.067164 309.319023 
L 442.202849 282.802914 
L 444.47422 201.327394 
L 445.609905 174.204939 
L 446.74559 178.783735 
L 447.881275 204.148032 
L 449.016961 215.669494 
L 450.152646 212.071378 
L 451.288331 181.780384 
L 452.424016 103.469523 
L 453.559701 81.045411 
L 454.695387 93.757125 
L 455.831072 117.736337 
L 456.966757 135.048276 
L 458.102442 161.083177 
L 459.238128 201.405462 
L 460.373813 257.342487 
L 461.509498 296.929724 
L 462.645183 315.492133 
L 463.780868 324.473679 
L 464.916554 330.168471 
L 466.052239 329.54052 
L 467.187924 321.518714 
L 468.323609 321.429913 
L 469.459294 279.711126 
L 470.59498 227.445014 
L 471.730665 197.660358 
L 472.86635 177.503181 
L 474.002035 187.123317 
L 475.13772 210.854511 
L 476.273406 218.597665 
L 477.409091 214.606828 
L 478.544776 184.61449 
L 479.680461 103.823392 
L 480.816147 80.597433 
L 481.951832 93.689652 
L 483.087517 115.458212 
L 484.223202 134.425347 
L 485.358887 156.841156 
L 486.494573 190.784115 
L 487.630258 245.068348 
L 488.765943 289.139788 
L 489.901628 311.536529 
L 491.037313 321.249558 
L 492.172999 324.982972 
L 493.308684 326.28606 
L 494.444369 318.485932 
L 495.580054 317.11167 
L 496.715739 276.668319 
L 497.851425 229.206654 
L 498.98711 204.065721 
L 500.122795 200.756458 
L 501.25848 196.6447 
L 502.394166 225.118303 
L 503.529851 234.740103 
L 504.665536 232.011859 
L 505.801221 208.084155 
L 506.936906 123.057639 
L 508.072592 95.289929 
L 509.208277 110.665333 
L 510.343962 134.648084 
L 511.479647 151.212898 
L 512.615332 171.015207 
L 513.751018 203.417173 
L 514.886703 250.355163 
L 516.022388 291.270418 
L 517.158073 317.771054 
L 518.293758 326.39467 
L 519.429444 333.555033 
L 520.565129 334.309231 
L 521.700814 333.95354 
L 522.836499 350.018357 
L 523.972185 337.583156 
L 526.243555 271.537037 
L 527.37924 254.973364 
L 528.514925 257.563698 
L 529.650611 268.792857 
L 530.786296 277.934358 
L 531.921981 278.818441 
L 533.057666 259.071899 
L 534.193351 164.138032 
L 535.329037 126.112448 
L 536.464722 137.087718 
L 537.600407 150.815603 
L 538.736092 159.09595 
L 539.871777 176.984738 
L 541.007463 209.781526 
L 542.143148 262.967535 
L 543.278833 303.001194 
L 544.414518 321.817284 
L 545.550204 330.225204 
L 546.685889 333.801166 
L 547.821574 331.940765 
L 550.092944 301.380567 
L 552.364315 222.293208 
L 553.5 198.532199 
L 554.635685 186.931018 
L 555.77137 196.877501 
L 556.907056 214.190041 
L 558.042741 217.478863 
L 559.178426 214.86682 
L 560.314111 192.600107 
L 561.449796 117.335465 
L 562.585482 101.993528 
L 563.721167 132.51516 
L 564.856852 170.251491 
L 565.992537 185.995634 
L 567.128223 197.658343 
L 568.263908 208.035827 
L 569.399593 236.957476 
L 570.535278 279.597673 
L 571.670963 311.627248 
L 572.806649 331.453341 
L 573.942334 334.219303 
L 575.078019 332.861936 
L 576.213704 322.093738 
L 577.349389 310.095902 
L 578.485075 275.965038 
L 579.62076 237.127941 
L 580.756445 215.329061 
L 581.89213 199.589172 
L 583.027815 206.487044 
L 584.163501 216.608593 
L 585.299186 224.87019 
L 586.434871 222.567382 
L 587.570556 199.333113 
L 588.706242 113.844519 
L 589.841927 79.128979 
L 590.977612 90.396904 
L 593.248982 131.748555 
L 594.384668 160.731501 
L 595.520353 205.509515 
L 596.656038 260.699182 
L 597.791723 300.907556 
L 598.927408 321.38101 
L 600.063094 327.44728 
L 601.198779 330.452714 
L 602.334464 328.019534 
L 604.605834 297.848952 
L 605.74152 262.296608 
L 606.877205 223.256311 
L 608.01289 200.592869 
L 609.148575 189.822737 
L 610.284261 198.621398 
L 611.419946 219.487528 
L 612.555631 226.186396 
L 613.691316 218.466889 
L 614.827001 198.104589 
L 615.962687 113.832013 
L 617.098372 77.087481 
L 620.505427 132.377558 
L 621.641113 157.370294 
L 622.776798 199.994172 
L 623.912483 256.225045 
L 625.048168 296.128565 
L 626.183853 317.768323 
L 627.319539 325.364656 
L 628.455224 329.453812 
L 629.590909 327.294879 
L 631.86228 297.565766 
L 632.997965 260.769436 
L 634.13365 219.855535 
L 635.269335 198.311728 
L 636.40502 188.741057 
L 637.540706 192.525776 
L 638.676391 212.729178 
L 639.812076 217.749093 
L 640.947761 214.027422 
L 642.083446 195.068948 
L 643.219132 112.374916 
L 644.354817 76.124595 
L 645.490502 87.944952 
L 647.761872 130.370076 
L 648.897558 155.372402 
L 650.033243 198.675095 
L 651.168928 257.526311 
L 652.304613 294.771855 
L 653.440299 313.229392 
L 654.575984 320.396441 
L 655.711669 324.055477 
L 656.847354 324.452135 
L 659.118725 296.34078 
L 661.390095 223.876687 
L 662.52578 204.505284 
L 663.661465 187.682976 
L 664.797151 194.838175 
L 665.932836 214.135679 
L 667.068521 217.79644 
L 668.204206 214.278112 
L 669.339891 192.65262 
L 670.475577 112.913885 
L 671.611262 75.947085 
L 672.746947 90.510202 
L 676.154003 155.676984 
L 677.289688 195.983773 
L 678.425373 250.698814 
L 679.561058 292.290855 
L 680.696744 313.922113 
L 681.832429 323.702083 
L 682.968114 328.035643 
L 684.103799 327.306715 
L 685.239484 317.980719 
L 686.37517 312.233049 
L 687.510855 267.21232 
L 688.64654 211.232737 
L 689.782225 176.101725 
L 690.91791 165.137782 
L 692.053596 173.783563 
L 693.189281 202.303856 
L 694.324966 213.596427 
L 695.460651 215.600119 
L 696.596336 191.011719 
L 697.732022 122.633855 
L 698.867707 98.391461 
L 700.003392 115.009003 
L 701.139077 136.486121 
L 703.410448 170.483217 
L 704.546133 202.537544 
L 706.817503 294.202045 
L 707.953189 321.040768 
L 709.088874 332.845841 
L 710.224559 336.619803 
L 711.360244 339.467871 
L 712.495929 337.010457 
L 713.631615 350.513656 
L 714.7673 337.856861 
L 717.03867 263.281073 
L 718.174355 244.674187 
L 719.310041 248.188825 
L 720.445726 259.037131 
L 721.581411 266.563629 
L 722.717096 263.295753 
L 723.852782 231.356826 
L 724.988467 160.053201 
L 726.124152 135.63272 
L 728.395522 154.990999 
L 729.531208 166.047377 
L 730.666893 180.190953 
L 731.802578 218.704557 
L 732.938263 271.93654 
L 734.073948 310.496938 
L 735.209634 328.395552 
L 736.345319 334.485844 
L 737.481004 337.61579 
L 738.616689 335.329907 
L 739.752374 321.462931 
L 740.88806 303.508685 
L 743.15943 225.672806 
L 744.295115 200.133453 
L 745.430801 185.283674 
L 746.566486 194.310813 
L 747.702171 213.342766 
L 748.837856 220.243665 
L 749.973541 217.554907 
L 751.109227 190.501707 
L 752.244912 115.169287 
L 753.380597 81.852184 
L 754.516282 94.530227 
L 756.787653 133.709599 
L 757.923338 161.36973 
L 759.059023 204.123286 
L 760.194708 260.925854 
L 761.330393 301.802161 
L 762.466079 319.369412 
L 763.601764 326.549647 
L 764.737449 328.815562 
L 765.873134 327.911169 
L 768.144505 299.809476 
L 770.415875 226.725316 
L 771.55156 201.745066 
L 772.687246 188.578781 
L 773.822931 194.441599 
L 774.958616 208.52076 
L 776.094301 214.987902 
L 777.229986 212.939007 
L 778.365672 192.793605 
L 779.501357 115.786539 
L 780.637042 77.39626 
L 781.772727 92.117383 
L 784.044098 133.324991 
L 785.179783 161.8248 
L 786.315468 208.477639 
L 787.451153 262.230635 
L 788.586839 298.968745 
L 789.722524 316.705038 
L 790.858209 324.415583 
L 791.993894 326.857975 
L 793.129579 324.5699 
L 795.40095 293.569818 
L 796.536635 261.190905 
L 797.67232 221.477445 
L 798.808005 198.814991 
L 799.943691 183.884212 
L 801.079376 192.4683 
L 802.215061 211.20869 
L 803.350746 220.677596 
L 804.486431 215.032774 
L 805.622117 186.351087 
L 806.757802 110.838933 
L 807.893487 76.331588 
L 809.029172 89.456598 
L 810.164858 112.514963 
L 811.300543 132.660102 
L 812.436228 159.373819 
L 813.571913 203.903356 
L 814.707598 256.701332 
L 815.843284 294.92117 
L 816.978969 313.557652 
L 818.114654 321.738954 
L 819.250339 325.892227 
L 820.386024 323.382511 
L 822.657395 295.368325 
L 824.928765 210.47849 
L 826.06445 189.07114 
L 827.200136 172.097925 
L 828.335821 184.860402 
L 829.471506 200.655854 
L 830.607191 207.761622 
L 831.742877 205.530439 
L 832.878562 186.146576 
L 834.014247 111.209505 
L 835.149932 72.07517 
L 836.285617 84.173168 
L 837.421303 109.416534 
L 838.556988 129.722804 
L 839.692673 157.47634 
L 840.828358 200.414071 
L 841.964043 255.955501 
L 843.099729 293.590007 
L 844.235414 313.375732 
L 845.371099 321.576348 
L 846.506784 323.947652 
L 847.642469 321.757957 
L 848.778155 307.477576 
L 849.91384 291.168461 
L 852.18521 219.802294 
L 853.320896 196.893293 
L 854.456581 180.93763 
L 855.592266 186.340585 
L 856.727951 205.382614 
L 857.863636 211.554194 
L 858.999322 203.996887 
L 860.135007 180.702544 
L 861.270692 108.663091 
L 862.406377 77.479088 
L 863.542062 92.182454 
L 866.949118 157.962414 
L 868.084803 195.537776 
L 869.220488 250.435343 
L 870.356174 290.383492 
L 871.491859 310.64125 
L 872.627544 319.563973 
L 873.763229 324.384254 
L 874.898915 321.114326 
L 876.0346 311.250436 
L 877.170285 306.898204 
L 878.30597 267.376322 
L 879.441655 219.615355 
L 880.577341 190.60187 
L 881.713026 180.462707 
L 882.848711 190.831617 
L 883.984396 218.934547 
L 885.120081 231.18738 
L 886.255767 229.898547 
L 887.391452 212.68106 
L 888.527137 139.592716 
L 889.662822 99.051908 
L 890.798507 112.247111 
L 891.934193 132.958512 
L 893.069878 149.345178 
L 894.205563 170.185422 
L 895.341248 203.381445 
L 896.476934 251.464519 
L 897.612619 291.716775 
L 898.748304 314.156898 
L 899.883989 326.242633 
L 901.019674 333.663703 
L 902.15536 335.739095 
L 903.291045 334.817075 
L 904.42673 348.894632 
L 905.562415 334.509897 
L 907.833786 261.089801 
L 908.969471 241.084428 
L 910.105156 243.296709 
L 911.240841 260.501109 
L 912.376526 269.059254 
L 913.512212 271.561172 
L 914.647897 249.497569 
L 915.783582 171.973073 
L 916.919267 130.354002 
L 918.054953 138.785448 
L 919.190638 148.683856 
L 920.326323 161.053705 
L 921.462008 178.923525 
L 922.597693 219.046709 
L 923.733379 271.443122 
L 924.869064 305.992217 
L 926.004749 323.713962 
L 927.140434 330.868388 
L 928.276119 333.360428 
L 929.411805 331.121647 
L 930.54749 316.017616 
L 931.683175 295.493691 
L 932.81886 252.998452 
L 933.954545 206.246543 
L 933.954545 206.246543 
" clip-path="url(#p2d058f0767)" style="fill: none; stroke: #ff7f0e; stroke-width: 1.5; stroke-linecap: square"/>
   </g>
   <g id="patch_3">
    <path d="M 135 384.48 
L 135 51.84 
" style="fill: none; stroke: #000000; stroke-width: 0.8; stroke-linejoin: miter; stroke-linecap: square"/>
   </g>
   <g id="patch_4">
    <path d="M 972 384.48 
L 972 51.84 
" style="fill: none; stroke: #000000; stroke-width: 0.8; stroke-linejoin: miter; stroke-linecap: square"/>
   </g>
   <g id="patch_5">
    <path d="M 135 384.48 
L 972 384.48 
" style="fill: none; stroke: #000000; stroke-width: 0.8; stroke-linejoin: miter; stroke-linecap: square"/>
   </g>
   <g id="patch_6">
    <path d="M 135 51.84 
L 972 51.84 
" style="fill: none; stroke: #000000; stroke-width: 0.8; stroke-linejoin: miter; stroke-linecap: square"/>
   </g>
   <g id="text_20">
    <!-- Load forecasting -->
    <g transform="translate(503.65875 45.84) scale(0.12 -0.12)">
     <defs>
      <path id="DejaVuSans-66" d="M 2375 4863 
L 2375 4384 
L 1825 4384 
Q 1516 4384 1395 4259 
Q 1275 4134 1275 3809 
L 1275 3500 
L 2222 3500 
L 2222 3053 
L 1275 3053 
L 1275 0 
L 697 0 
L 697 3053 
L 147 3053 
L 147 3500 
L 697 3500 
L 697 3744 
Q 697 4328 969 4595 
Q 1241 4863 1831 4863 
L 2375 4863 
z
" transform="scale(0.015625)"/>
      <path id="DejaVuSans-72" d="M 2631 2963 
Q 2534 3019 2420 3045 
Q 2306 3072 2169 3072 
Q 1681 3072 1420 2755 
Q 1159 2438 1159 1844 
L 1159 0 
L 581 0 
L 581 3500 
L 1159 3500 
L 1159 2956 
Q 1341 3275 1631 3429 
Q 1922 3584 2338 3584 
Q 2397 3584 2469 3576 
Q 2541 3569 2628 3553 
L 2631 2963 
z
" transform="scale(0.015625)"/>
      <path id="DejaVuSans-63" d="M 3122 3366 
L 3122 2828 
Q 2878 2963 2633 3030 
Q 2388 3097 2138 3097 
Q 1578 3097 1268 2742 
Q 959 2388 959 1747 
Q 959 1106 1268 751 
Q 1578 397 2138 397 
Q 2388 397 2633 464 
Q 2878 531 3122 666 
L 3122 134 
Q 2881 22 2623 -34 
Q 2366 -91 2075 -91 
Q 1284 -91 818 406 
Q 353 903 353 1747 
Q 353 2603 823 3093 
Q 1294 3584 2113 3584 
Q 2378 3584 2631 3529 
Q 2884 3475 3122 3366 
z
" transform="scale(0.015625)"/>
      <path id="DejaVuSans-6e" d="M 3513 2113 
L 3513 0 
L 2938 0 
L 2938 2094 
Q 2938 2591 2744 2837 
Q 2550 3084 2163 3084 
Q 1697 3084 1428 2787 
Q 1159 2491 1159 1978 
L 1159 0 
L 581 0 
L 581 3500 
L 1159 3500 
L 1159 2956 
Q 1366 3272 1645 3428 
Q 1925 3584 2291 3584 
Q 2894 3584 3203 3211 
Q 3513 2838 3513 2113 
z
" transform="scale(0.015625)"/>
      <path id="DejaVuSans-67" d="M 2906 1791 
Q 2906 2416 2648 2759 
Q 2391 3103 1925 3103 
Q 1463 3103 1205 2759 
Q 947 2416 947 1791 
Q 947 1169 1205 825 
Q 1463 481 1925 481 
Q 2391 481 2648 825 
Q 2906 1169 2906 1791 
z
M 3481 434 
Q 3481 -459 3084 -895 
Q 2688 -1331 1869 -1331 
Q 1566 -1331 1297 -1286 
Q 1028 -1241 775 -1147 
L 775 -588 
Q 1028 -725 1275 -790 
Q 1522 -856 1778 -856 
Q 2344 -856 2625 -561 
Q 2906 -266 2906 331 
L 2906 616 
Q 2728 306 2450 153 
Q 2172 0 1784 0 
Q 1141 0 747 490 
Q 353 981 353 1791 
Q 353 2603 747 3093 
Q 1141 3584 1784 3584 
Q 2172 3584 2450 3431 
Q 2728 3278 2906 2969 
L 2906 3500 
L 3481 3500 
L 3481 434 
z
" transform="scale(0.015625)"/>
     </defs>
     <use xlink:href="#DejaVuSans-4c"/>
     <use xlink:href="#DejaVuSans-6f" x="53.962891"/>
     <use xlink:href="#DejaVuSans-61" x="115.144531"/>
     <use xlink:href="#DejaVuSans-64" x="176.423828"/>
     <use xlink:href="#DejaVuSans-20" x="239.900391"/>
     <use xlink:href="#DejaVuSans-66" x="271.6875"/>
     <use xlink:href="#DejaVuSans-6f" x="306.892578"/>
     <use xlink:href="#DejaVuSans-72" x="368.074219"/>
     <use xlink:href="#DejaVuSans-65" x="406.9375"/>
     <use xlink:href="#DejaVuSans-63" x="468.460938"/>
     <use xlink:href="#DejaVuSans-61" x="523.441406"/>
     <use xlink:href="#DejaVuSans-73" x="584.720703"/>
     <use xlink:href="#DejaVuSans-74" x="636.820312"/>
     <use xlink:href="#DejaVuSans-69" x="676.029297"/>
     <use xlink:href="#DejaVuSans-6e" x="703.8125"/>
     <use xlink:href="#DejaVuSans-67" x="767.191406"/>
    </g>
   </g>
   <g id="legend_1">
    <g id="patch_7">
     <path d="M 883.326563 89.19625 
L 965 89.19625 
Q 967 89.19625 967 87.19625 
L 967 58.84 
Q 967 56.84 965 56.84 
L 883.326563 56.84 
Q 881.326563 56.84 881.326563 58.84 
L 881.326563 87.19625 
Q 881.326563 89.19625 883.326563 89.19625 
z
" style="fill: #ffffff; opacity: 0.8; stroke: #cccccc; stroke-linejoin: miter"/>
    </g>
    <g id="line2d_20">
     <path d="M 885.326563 64.938437 
L 895.326563 64.938437 
L 905.326563 64.938437 
" style="fill: none; stroke: #1f77b4; stroke-width: 1.5; stroke-linecap: square"/>
    </g>
    <g id="text_21">
     <!-- Prediction -->
     <g transform="translate(913.326563 68.438437) scale(0.1 -0.1)">
      <defs>
       <path id="DejaVuSans-50" d="M 1259 4147 
L 1259 2394 
L 2053 2394 
Q 2494 2394 2734 2622 
Q 2975 2850 2975 3272 
Q 2975 3691 2734 3919 
Q 2494 4147 2053 4147 
L 1259 4147 
z
M 628 4666 
L 2053 4666 
Q 2838 4666 3239 4311 
Q 3641 3956 3641 3272 
Q 3641 2581 3239 2228 
Q 2838 1875 2053 1875 
L 1259 1875 
L 1259 0 
L 628 0 
L 628 4666 
z
" transform="scale(0.015625)"/>
      </defs>
      <use xlink:href="#DejaVuSans-50"/>
      <use xlink:href="#DejaVuSans-72" x="58.552734"/>
      <use xlink:href="#DejaVuSans-65" x="97.416016"/>
      <use xlink:href="#DejaVuSans-64" x="158.939453"/>
      <use xlink:href="#DejaVuSans-69" x="222.416016"/>
      <use xlink:href="#DejaVuSans-63" x="250.199219"/>
      <use xlink:href="#DejaVuSans-74" x="305.179688"/>
      <use xlink:href="#DejaVuSans-69" x="344.388672"/>
      <use xlink:href="#DejaVuSans-6f" x="372.171875"/>
      <use xlink:href="#DejaVuSans-6e" x="433.353516"/>
     </g>
    </g>
    <g id="line2d_21">
     <path d="M 885.326563 79.616562 
L 895.326563 79.616562 
L 905.326563 79.616562 
" style="fill: none; stroke: #ff7f0e; stroke-width: 1.5; stroke-linecap: square"/>
    </g>
    <g id="text_22">
     <!-- Actual -->
     <g transform="translate(913.326563 83.116562) scale(0.1 -0.1)">
      <defs>
       <path id="DejaVuSans-41" d="M 2188 4044 
L 1331 1722 
L 3047 1722 
L 2188 4044 
z
M 1831 4666 
L 2547 4666 
L 4325 0 
L 3669 0 
L 3244 1197 
L 1141 1197 
L 716 0 
L 50 0 
L 1831 4666 
z
" transform="scale(0.015625)"/>
       <path id="DejaVuSans-75" d="M 544 1381 
L 544 3500 
L 1119 3500 
L 1119 1403 
Q 1119 906 1312 657 
Q 1506 409 1894 409 
Q 2359 409 2629 706 
Q 2900 1003 2900 1516 
L 2900 3500 
L 3475 3500 
L 3475 0 
L 2900 0 
L 2900 538 
Q 2691 219 2414 64 
Q 2138 -91 1772 -91 
Q 1169 -91 856 284 
Q 544 659 544 1381 
z
M 1991 3584 
L 1991 3584 
z
" transform="scale(0.015625)"/>
       <path id="DejaVuSans-6c" d="M 603 4863 
L 1178 4863 
L 1178 0 
L 603 0 
L 603 4863 
z
" transform="scale(0.015625)"/>
      </defs>
      <use xlink:href="#DejaVuSans-41"/>
      <use xlink:href="#DejaVuSans-63" x="66.658203"/>
      <use xlink:href="#DejaVuSans-74" x="121.638672"/>
      <use xlink:href="#DejaVuSans-75" x="160.847656"/>
      <use xlink:href="#DejaVuSans-61" x="224.226562"/>
      <use xlink:href="#DejaVuSans-6c" x="285.505859"/>
     </g>
    </g>
   </g>
  </g>
 </g>
 <defs>
  <clipPath id="p2d058f0767">
   <rect x="135" y="51.84" width="837" height="332.64"/>
  </clipPath>
 </defs>
</svg>
