<?xml version="1.0" encoding="utf-8" standalone="no"?>
<!DOCTYPE svg PUBLIC "-//W3C//DTD SVG 1.1//EN"
  "http://www.w3.org/Graphics/SVG/1.1/DTD/svg11.dtd">
<svg xmlns:xlink="http://www.w3.org/1999/xlink" width="1080pt" height="432pt" viewBox="0 0 1080 432" xmlns="http://www.w3.org/2000/svg" version="1.1">
 <metadata>
  <rdf:RDF xmlns:dc="http://purl.org/dc/elements/1.1/" xmlns:cc="http://creativecommons.org/ns#" xmlns:rdf="http://www.w3.org/1999/02/22-rdf-syntax-ns#">
   <cc:Work>
    <dc:type rdf:resource="http://purl.org/dc/dcmitype/StillImage"/>
    <dc:date>2024-02-25T09:56:59.070330</dc:date>
    <dc:format>image/svg+xml</dc:format>
    <dc:creator>
     <cc:Agent>
      <dc:title>Matplotlib v3.7.1, https://matplotlib.org/</dc:title>
     </cc:Agent>
    </dc:creator>
   </cc:Work>
  </rdf:RDF>
 </metadata>
 <defs>
  <style type="text/css">*{stroke-linejoin: round; stroke-linecap: butt}</style>
 </defs>
 <g id="figure_1">
  <g id="patch_1">
   <path d="M 0 432 
L 1080 432 
L 1080 0 
L 0 0 
z
" style="fill: #ffffff"/>
  </g>
  <g id="axes_1">
   <g id="patch_2">
    <path d="M 135 384.48 
L 972 384.48 
L 972 51.84 
L 135 51.84 
z
" style="fill: #ffffff"/>
   </g>
   <g id="matplotlib.axis_1">
    <g id="xtick_1">
     <g id="line2d_1">
      <defs>
       <path id="me7e49490db" d="M 0 0 
L 0 3.5 
" style="stroke: #000000; stroke-width: 0.8"/>
      </defs>
      <g>
       <use xlink:href="#me7e49490db" x="135" y="384.48" style="stroke: #000000; stroke-width: 0.8"/>
      </g>
     </g>
     <g id="text_1">
      <!-- 0 -->
      <g transform="translate(131.81875 399.078438) scale(0.1 -0.1)">
       <defs>
        <path id="DejaVuSans-30" d="M 2034 4250 
Q 1547 4250 1301 3770 
Q 1056 3291 1056 2328 
Q 1056 1369 1301 889 
Q 1547 409 2034 409 
Q 2525 409 2770 889 
Q 3016 1369 3016 2328 
Q 3016 3291 2770 3770 
Q 2525 4250 2034 4250 
z
M 2034 4750 
Q 2819 4750 3233 4129 
Q 3647 3509 3647 2328 
Q 3647 1150 3233 529 
Q 2819 -91 2034 -91 
Q 1250 -91 836 529 
Q 422 1150 422 2328 
Q 422 3509 836 4129 
Q 1250 4750 2034 4750 
z
" transform="scale(0.015625)"/>
       </defs>
       <use xlink:href="#DejaVuSans-30"/>
      </g>
     </g>
    </g>
    <g id="xtick_2">
     <g id="line2d_2">
      <g>
       <use xlink:href="#me7e49490db" x="302.4" y="384.48" style="stroke: #000000; stroke-width: 0.8"/>
      </g>
     </g>
     <g id="text_2">
      <!-- 100 -->
      <g transform="translate(292.85625 399.078438) scale(0.1 -0.1)">
       <defs>
        <path id="DejaVuSans-31" d="M 794 531 
L 1825 531 
L 1825 4091 
L 703 3866 
L 703 4441 
L 1819 4666 
L 2450 4666 
L 2450 531 
L 3481 531 
L 3481 0 
L 794 0 
L 794 531 
z
" transform="scale(0.015625)"/>
       </defs>
       <use xlink:href="#DejaVuSans-31"/>
       <use xlink:href="#DejaVuSans-30" x="63.623047"/>
       <use xlink:href="#DejaVuSans-30" x="127.246094"/>
      </g>
     </g>
    </g>
    <g id="xtick_3">
     <g id="line2d_3">
      <g>
       <use xlink:href="#me7e49490db" x="469.8" y="384.48" style="stroke: #000000; stroke-width: 0.8"/>
      </g>
     </g>
     <g id="text_3">
      <!-- 200 -->
      <g transform="translate(460.25625 399.078438) scale(0.1 -0.1)">
       <defs>
        <path id="DejaVuSans-32" d="M 1228 531 
L 3431 531 
L 3431 0 
L 469 0 
L 469 531 
Q 828 903 1448 1529 
Q 2069 2156 2228 2338 
Q 2531 2678 2651 2914 
Q 2772 3150 2772 3378 
Q 2772 3750 2511 3984 
Q 2250 4219 1831 4219 
Q 1534 4219 1204 4116 
Q 875 4013 500 3803 
L 500 4441 
Q 881 4594 1212 4672 
Q 1544 4750 1819 4750 
Q 2544 4750 2975 4387 
Q 3406 4025 3406 3419 
Q 3406 3131 3298 2873 
Q 3191 2616 2906 2266 
Q 2828 2175 2409 1742 
Q 1991 1309 1228 531 
z
" transform="scale(0.015625)"/>
       </defs>
       <use xlink:href="#DejaVuSans-32"/>
       <use xlink:href="#DejaVuSans-30" x="63.623047"/>
       <use xlink:href="#DejaVuSans-30" x="127.246094"/>
      </g>
     </g>
    </g>
    <g id="xtick_4">
     <g id="line2d_4">
      <g>
       <use xlink:href="#me7e49490db" x="637.2" y="384.48" style="stroke: #000000; stroke-width: 0.8"/>
      </g>
     </g>
     <g id="text_4">
      <!-- 300 -->
      <g transform="translate(627.65625 399.078438) scale(0.1 -0.1)">
       <defs>
        <path id="DejaVuSans-33" d="M 2597 2516 
Q 3050 2419 3304 2112 
Q 3559 1806 3559 1356 
Q 3559 666 3084 287 
Q 2609 -91 1734 -91 
Q 1441 -91 1130 -33 
Q 819 25 488 141 
L 488 750 
Q 750 597 1062 519 
Q 1375 441 1716 441 
Q 2309 441 2620 675 
Q 2931 909 2931 1356 
Q 2931 1769 2642 2001 
Q 2353 2234 1838 2234 
L 1294 2234 
L 1294 2753 
L 1863 2753 
Q 2328 2753 2575 2939 
Q 2822 3125 2822 3475 
Q 2822 3834 2567 4026 
Q 2313 4219 1838 4219 
Q 1578 4219 1281 4162 
Q 984 4106 628 3988 
L 628 4550 
Q 988 4650 1302 4700 
Q 1616 4750 1894 4750 
Q 2613 4750 3031 4423 
Q 3450 4097 3450 3541 
Q 3450 3153 3228 2886 
Q 3006 2619 2597 2516 
z
" transform="scale(0.015625)"/>
       </defs>
       <use xlink:href="#DejaVuSans-33"/>
       <use xlink:href="#DejaVuSans-30" x="63.623047"/>
       <use xlink:href="#DejaVuSans-30" x="127.246094"/>
      </g>
     </g>
    </g>
    <g id="xtick_5">
     <g id="line2d_5">
      <g>
       <use xlink:href="#me7e49490db" x="804.6" y="384.48" style="stroke: #000000; stroke-width: 0.8"/>
      </g>
     </g>
     <g id="text_5">
      <!-- 400 -->
      <g transform="translate(795.05625 399.078438) scale(0.1 -0.1)">
       <defs>
        <path id="DejaVuSans-34" d="M 2419 4116 
L 825 1625 
L 2419 1625 
L 2419 4116 
z
M 2253 4666 
L 3047 4666 
L 3047 1625 
L 3713 1625 
L 3713 1100 
L 3047 1100 
L 3047 0 
L 2419 0 
L 2419 1100 
L 313 1100 
L 313 1709 
L 2253 4666 
z
" transform="scale(0.015625)"/>
       </defs>
       <use xlink:href="#DejaVuSans-34"/>
       <use xlink:href="#DejaVuSans-30" x="63.623047"/>
       <use xlink:href="#DejaVuSans-30" x="127.246094"/>
      </g>
     </g>
    </g>
    <g id="xtick_6">
     <g id="line2d_6">
      <g>
       <use xlink:href="#me7e49490db" x="972" y="384.48" style="stroke: #000000; stroke-width: 0.8"/>
      </g>
     </g>
     <g id="text_6">
      <!-- 500 -->
      <g transform="translate(962.45625 399.078438) scale(0.1 -0.1)">
       <defs>
        <path id="DejaVuSans-35" d="M 691 4666 
L 3169 4666 
L 3169 4134 
L 1269 4134 
L 1269 2991 
Q 1406 3038 1543 3061 
Q 1681 3084 1819 3084 
Q 2600 3084 3056 2656 
Q 3513 2228 3513 1497 
Q 3513 744 3044 326 
Q 2575 -91 1722 -91 
Q 1428 -91 1123 -41 
Q 819 9 494 109 
L 494 744 
Q 775 591 1075 516 
Q 1375 441 1709 441 
Q 2250 441 2565 725 
Q 2881 1009 2881 1497 
Q 2881 1984 2565 2268 
Q 2250 2553 1709 2553 
Q 1456 2553 1204 2497 
Q 953 2441 691 2322 
L 691 4666 
z
" transform="scale(0.015625)"/>
       </defs>
       <use xlink:href="#DejaVuSans-35"/>
       <use xlink:href="#DejaVuSans-30" x="63.623047"/>
       <use xlink:href="#DejaVuSans-30" x="127.246094"/>
      </g>
     </g>
    </g>
   </g>
   <g id="matplotlib.axis_2">
    <g id="ytick_1">
     <g id="line2d_7">
      <defs>
       <path id="m62003a85f4" d="M 0 0 
L -3.5 0 
" style="stroke: #000000; stroke-width: 0.8"/>
      </defs>
      <g>
       <use xlink:href="#m62003a85f4" x="135" y="349.305437" style="stroke: #000000; stroke-width: 0.8"/>
      </g>
     </g>
     <g id="text_7">
      <!-- 350 -->
      <g transform="translate(108.9125 353.104656) scale(0.1 -0.1)">
       <use xlink:href="#DejaVuSans-33"/>
       <use xlink:href="#DejaVuSans-35" x="63.623047"/>
       <use xlink:href="#DejaVuSans-30" x="127.246094"/>
      </g>
     </g>
    </g>
    <g id="ytick_2">
     <g id="line2d_8">
      <g>
       <use xlink:href="#m62003a85f4" x="135" y="308.589423" style="stroke: #000000; stroke-width: 0.8"/>
      </g>
     </g>
     <g id="text_8">
      <!-- 400 -->
      <g transform="translate(108.9125 312.388642) scale(0.1 -0.1)">
       <use xlink:href="#DejaVuSans-34"/>
       <use xlink:href="#DejaVuSans-30" x="63.623047"/>
       <use xlink:href="#DejaVuSans-30" x="127.246094"/>
      </g>
     </g>
    </g>
    <g id="ytick_3">
     <g id="line2d_9">
      <g>
       <use xlink:href="#m62003a85f4" x="135" y="267.873409" style="stroke: #000000; stroke-width: 0.8"/>
      </g>
     </g>
     <g id="text_9">
      <!-- 450 -->
      <g transform="translate(108.9125 271.672627) scale(0.1 -0.1)">
       <use xlink:href="#DejaVuSans-34"/>
       <use xlink:href="#DejaVuSans-35" x="63.623047"/>
       <use xlink:href="#DejaVuSans-30" x="127.246094"/>
      </g>
     </g>
    </g>
    <g id="ytick_4">
     <g id="line2d_10">
      <g>
       <use xlink:href="#m62003a85f4" x="135" y="227.157394" style="stroke: #000000; stroke-width: 0.8"/>
      </g>
     </g>
     <g id="text_10">
      <!-- 500 -->
      <g transform="translate(108.9125 230.956613) scale(0.1 -0.1)">
       <use xlink:href="#DejaVuSans-35"/>
       <use xlink:href="#DejaVuSans-30" x="63.623047"/>
       <use xlink:href="#DejaVuSans-30" x="127.246094"/>
      </g>
     </g>
    </g>
    <g id="ytick_5">
     <g id="line2d_11">
      <g>
       <use xlink:href="#m62003a85f4" x="135" y="186.44138" style="stroke: #000000; stroke-width: 0.8"/>
      </g>
     </g>
     <g id="text_11">
      <!-- 550 -->
      <g transform="translate(108.9125 190.240599) scale(0.1 -0.1)">
       <use xlink:href="#DejaVuSans-35"/>
       <use xlink:href="#DejaVuSans-35" x="63.623047"/>
       <use xlink:href="#DejaVuSans-30" x="127.246094"/>
      </g>
     </g>
    </g>
    <g id="ytick_6">
     <g id="line2d_12">
      <g>
       <use xlink:href="#m62003a85f4" x="135" y="145.725366" style="stroke: #000000; stroke-width: 0.8"/>
      </g>
     </g>
     <g id="text_12">
      <!-- 600 -->
      <g transform="translate(108.9125 149.524585) scale(0.1 -0.1)">
       <defs>
        <path id="DejaVuSans-36" d="M 2113 2584 
Q 1688 2584 1439 2293 
Q 1191 2003 1191 1497 
Q 1191 994 1439 701 
Q 1688 409 2113 409 
Q 2538 409 2786 701 
Q 3034 994 3034 1497 
Q 3034 2003 2786 2293 
Q 2538 2584 2113 2584 
z
M 3366 4563 
L 3366 3988 
Q 3128 4100 2886 4159 
Q 2644 4219 2406 4219 
Q 1781 4219 1451 3797 
Q 1122 3375 1075 2522 
Q 1259 2794 1537 2939 
Q 1816 3084 2150 3084 
Q 2853 3084 3261 2657 
Q 3669 2231 3669 1497 
Q 3669 778 3244 343 
Q 2819 -91 2113 -91 
Q 1303 -91 875 529 
Q 447 1150 447 2328 
Q 447 3434 972 4092 
Q 1497 4750 2381 4750 
Q 2619 4750 2861 4703 
Q 3103 4656 3366 4563 
z
" transform="scale(0.015625)"/>
       </defs>
       <use xlink:href="#DejaVuSans-36"/>
       <use xlink:href="#DejaVuSans-30" x="63.623047"/>
       <use xlink:href="#DejaVuSans-30" x="127.246094"/>
      </g>
     </g>
    </g>
    <g id="ytick_7">
     <g id="line2d_13">
      <g>
       <use xlink:href="#m62003a85f4" x="135" y="105.009351" style="stroke: #000000; stroke-width: 0.8"/>
      </g>
     </g>
     <g id="text_13">
      <!-- 650 -->
      <g transform="translate(108.9125 108.80857) scale(0.1 -0.1)">
       <use xlink:href="#DejaVuSans-36"/>
       <use xlink:href="#DejaVuSans-35" x="63.623047"/>
       <use xlink:href="#DejaVuSans-30" x="127.246094"/>
      </g>
     </g>
    </g>
    <g id="ytick_8">
     <g id="line2d_14">
      <g>
       <use xlink:href="#m62003a85f4" x="135" y="64.293337" style="stroke: #000000; stroke-width: 0.8"/>
      </g>
     </g>
     <g id="text_14">
      <!-- 700 -->
      <g transform="translate(108.9125 68.092556) scale(0.1 -0.1)">
       <defs>
        <path id="DejaVuSans-37" d="M 525 4666 
L 3525 4666 
L 3525 4397 
L 1831 0 
L 1172 0 
L 2766 4134 
L 525 4134 
L 525 4666 
z
" transform="scale(0.015625)"/>
       </defs>
       <use xlink:href="#DejaVuSans-37"/>
       <use xlink:href="#DejaVuSans-30" x="63.623047"/>
       <use xlink:href="#DejaVuSans-30" x="127.246094"/>
      </g>
     </g>
    </g>
   </g>
   <g id="line2d_15">
    <path d="M 135 125.095068 
L 136.674 157.468616 
L 138.348 184.366428 
L 140.022 201.022477 
L 141.696 211.28588 
L 143.37 218.836094 
L 145.044 222.749586 
L 146.718 227.769442 
L 148.392 215.095972 
L 150.066 182.078418 
L 151.74 146.544 
L 153.414 121.109459 
L 155.088 102.459206 
L 156.762 95.760613 
L 158.436 122.359353 
L 160.11 125.726645 
L 161.784 124.684507 
L 163.458 125.521559 
L 165.132 112.64571 
L 166.806 118.935886 
L 168.48 121.903155 
L 170.154 99.255821 
L 171.828 90.030855 
L 173.502 106.747431 
L 175.176 127.343604 
L 178.524 182.117685 
L 180.198 200.5012 
L 181.872 212.623719 
L 183.546 220.243922 
L 185.22 224.797809 
L 186.894 235.991032 
L 188.568 233.453851 
L 190.242 216.674378 
L 191.916 194.934401 
L 193.59 167.428143 
L 195.264 147.272865 
L 196.938 140.406341 
L 198.612 153.798544 
L 200.286 157.41693 
L 201.96 162.156494 
L 203.634 167.451423 
L 205.308 156.395245 
L 206.982 153.54619 
L 208.656 151.977754 
L 210.33 123.351703 
L 212.004 106.309931 
L 213.678 116.015318 
L 215.352 133.792306 
L 217.026 166.182484 
L 218.7 194.923821 
L 220.374 209.260255 
L 222.048 216.901415 
L 223.722 222.182619 
L 225.396 225.040182 
L 227.07 229.275086 
L 228.744 212.206194 
L 230.418 174.555246 
L 232.092 140.729385 
L 233.766 114.886039 
L 235.44 95.454439 
L 237.114 89.464181 
L 238.788 130.142621 
L 240.462 149.326902 
L 242.136 186.424805 
L 243.81 187.813865 
L 245.484 156.339356 
L 247.158 136.286656 
L 248.832 148.858273 
L 250.506 123.712126 
L 252.18 117.976845 
L 253.854 134.894952 
L 257.202 188.104597 
L 258.876 206.246679 
L 260.55 213.049419 
L 262.224 208.878041 
L 263.898 215.032058 
L 265.572 216.686738 
L 267.246 219.244182 
L 268.92 205.81235 
L 272.268 135.06269 
L 273.942 103.294441 
L 275.616 95.446814 
L 277.29 120.227903 
L 278.964 170.020868 
L 280.638 177.432658 
L 282.312 178.569725 
L 283.986 174.679396 
L 285.66 163.759986 
L 289.008 145.52153 
L 290.682 123.820984 
L 292.356 171.159434 
L 294.03 133.954492 
L 295.704 145.510903 
L 297.378 171.940459 
L 299.052 176.550625 
L 300.726 194.827116 
L 302.4 208.681656 
L 304.074 215.55996 
L 305.748 218.006402 
L 307.422 222.459905 
L 309.096 207.908396 
L 312.444 132.966319 
L 314.118 109.050544 
L 315.792 117.526169 
L 317.466 171.673833 
L 319.14 207.617281 
L 320.814 232.699604 
L 322.488 209.09681 
L 324.162 194.585504 
L 325.836 161.626983 
L 327.51 144.914996 
L 329.184 136.81972 
L 330.858 120.599919 
L 332.532 122.12372 
L 334.206 136.555204 
L 335.88 148.419351 
L 337.554 167.724965 
L 340.902 187.098897 
L 342.576 199.875631 
L 344.25 207.484481 
L 347.598 216.756208 
L 349.272 201.979733 
L 350.946 163.745893 
L 352.62 129.043305 
L 354.294 111.903144 
L 355.968 117.165066 
L 357.642 124.686317 
L 359.316 156.251617 
L 360.99 164.560089 
L 362.664 196.290922 
L 364.338 201.055892 
L 366.012 195.921469 
L 367.686 171.984743 
L 369.36 194.236161 
L 371.034 170.174318 
L 372.708 139.145407 
L 374.382 159.380891 
L 376.056 176.56348 
L 377.73 196.678627 
L 379.404 164.033019 
L 381.078 184.182841 
L 382.752 200.716483 
L 384.426 206.162644 
L 386.1 209.915713 
L 387.774 212.118728 
L 389.448 196.564147 
L 392.796 121.058718 
L 394.47 94.731778 
L 396.144 118.711246 
L 397.818 129.067389 
L 399.492 169.294167 
L 401.166 185.558493 
L 402.84 187.411231 
L 406.188 158.100827 
L 407.862 157.679882 
L 409.536 150.266659 
L 411.21 127.441673 
L 412.884 117.035238 
L 414.558 139.641953 
L 416.232 152.235457 
L 417.906 168.056981 
L 419.58 171.821889 
L 422.928 200.741966 
L 424.602 206.424565 
L 426.276 210.99209 
L 427.95 218.474212 
L 429.624 207.242495 
L 432.972 133.073682 
L 434.646 115.124602 
L 436.32 134.068004 
L 437.994 158.704606 
L 439.668 206.901081 
L 441.342 185.960484 
L 443.016 175.078365 
L 444.69 189.6678 
L 446.364 184.451181 
L 448.038 167.274071 
L 449.712 152.102687 
L 451.386 125.3744 
L 453.06 137.194438 
L 454.734 153.23123 
L 456.408 167.184498 
L 458.082 171.858312 
L 459.756 169.923759 
L 461.43 180.867507 
L 463.104 193.951108 
L 466.452 208.337891 
L 468.126 222.176956 
L 469.8 219.382712 
L 471.474 198.430363 
L 473.148 171.340871 
L 474.822 141.906487 
L 476.496 122.105123 
L 478.17 116.755861 
L 479.844 140.961668 
L 481.518 159.84525 
L 483.192 160.692262 
L 484.866 153.841776 
L 486.54 164.136459 
L 488.214 169.764791 
L 489.888 144.377801 
L 491.562 108.134624 
L 493.236 97.668678 
L 494.91 122.18498 
L 496.584 144.710927 
L 498.258 165.718975 
L 499.932 180.611574 
L 501.606 196.972695 
L 503.28 207.644905 
L 504.954 214.89325 
L 506.628 217.848655 
L 508.302 221.32917 
L 509.976 207.528407 
L 511.65 172.881797 
L 513.324 155.757404 
L 514.998 153.356956 
L 516.672 172.073278 
L 518.346 186.468026 
L 520.02 216.3608 
L 521.694 211.616523 
L 523.368 195.281319 
L 525.042 170.155293 
L 526.716 166.60459 
L 528.39 201.233603 
L 530.064 183.299714 
L 531.738 141.319893 
L 533.412 126.111574 
L 535.086 150.046284 
L 536.76 148.754381 
L 538.434 159.654072 
L 540.108 189.02203 
L 541.782 184.102583 
L 543.456 197.317158 
L 545.13 208.175289 
L 546.804 208.98323 
L 548.478 211.034663 
L 550.152 200.671294 
L 551.826 162.079468 
L 553.5 127.788987 
L 555.174 137.284727 
L 556.848 157.610444 
L 558.522 166.450746 
L 560.196 202.059405 
L 561.87 196.158838 
L 563.544 186.049033 
L 565.218 169.90661 
L 566.892 178.702854 
L 568.566 175.649446 
L 571.914 132.975629 
L 573.588 149.558116 
L 575.262 115.317156 
L 576.936 103.19227 
L 578.61 129.851118 
L 580.284 159.350733 
L 581.958 180.390296 
L 583.632 192.772761 
L 585.306 199.124272 
L 586.98 202.677273 
L 588.654 207.045621 
L 590.328 197.800044 
L 593.676 134.873672 
L 595.35 109.908504 
L 597.024 91.939088 
L 598.698 83.413203 
L 600.372 103.638483 
L 602.046 105.542358 
L 603.72 102.797683 
L 605.394 104.395815 
L 607.068 93.389826 
L 610.416 107.712107 
L 612.09 76.859892 
L 613.764 67.492405 
L 615.438 87.619555 
L 618.786 135.236922 
L 620.46 162.580204 
L 622.134 183.663063 
L 623.808 195.845308 
L 625.482 204.3525 
L 628.83 215.322408 
L 630.504 205.402472 
L 633.852 142.111666 
L 635.526 114.597827 
L 637.2 93.135758 
L 638.874 84.298252 
L 640.548 104.694975 
L 642.222 106.376173 
L 643.896 104.997103 
L 645.57 102.407207 
L 647.244 98.383725 
L 648.918 107.614997 
L 650.592 114.963634 
L 652.266 85.357719 
L 653.94 76.135908 
L 655.614 98.325138 
L 657.288 122.60224 
L 658.962 143.535095 
L 660.636 169.111222 
L 662.31 190.357161 
L 663.984 206.076964 
L 665.658 213.416971 
L 667.332 218.659907 
L 669.006 229.840361 
L 670.68 229.775397 
L 672.354 213.224547 
L 675.702 166.990968 
L 677.376 151.651225 
L 679.05 146.22852 
L 680.724 159.583508 
L 682.398 163.304612 
L 684.072 169.747543 
L 685.746 174.50564 
L 687.42 174.460471 
L 689.094 191.956714 
L 690.768 211.523205 
L 692.442 191.103021 
L 694.116 187.367103 
L 695.79 207.443601 
L 697.464 233.08526 
L 699.138 255.358816 
L 700.812 279.791339 
L 702.486 302.470741 
L 704.16 317.473993 
L 705.834 327.516005 
L 707.508 336.067233 
L 710.856 367.909542 
L 712.53 369.36 
L 714.204 361.702786 
L 715.878 353.299138 
L 717.552 349.572533 
L 719.226 336.945942 
L 720.9 312.450467 
L 722.574 290.178877 
L 724.248 274.231461 
L 725.922 255.117742 
L 727.596 225.976191 
L 729.27 205.260376 
L 730.944 187.082656 
L 732.618 143.810105 
L 734.292 126.422605 
L 735.966 138.220263 
L 737.64 154.409922 
L 739.314 173.571915 
L 740.988 198.876028 
L 742.662 217.555171 
L 744.336 229.606922 
L 746.01 237.722581 
L 747.684 242.212628 
L 749.358 250.596535 
L 751.032 245.585984 
L 752.706 223.398208 
L 754.38 199.235731 
L 756.054 168.255383 
L 757.728 145.380741 
L 759.402 134.262171 
L 761.076 144.922171 
L 762.75 146.666411 
L 764.424 152.140355 
L 766.098 152.57188 
L 767.772 143.660887 
L 769.446 147.482044 
L 771.12 145.884124 
L 772.794 105.161962 
L 774.468 91.45636 
L 776.142 102.380592 
L 777.816 123.574134 
L 781.164 181.159417 
L 782.838 199.381692 
L 784.512 210.953193 
L 786.186 218.044821 
L 787.86 221.16139 
L 789.534 225.935053 
L 791.208 219.410663 
L 792.882 189.283059 
L 794.556 154.352206 
L 796.23 127.801864 
L 797.904 108.620174 
L 799.578 98.757567 
L 801.252 120.637561 
L 802.926 121.704409 
L 804.6 121.962438 
L 806.274 118.488515 
L 807.948 109.070582 
L 809.622 113.436958 
L 811.296 118.996293 
L 812.97 81.780424 
L 814.644 76.278463 
L 816.318 92.981066 
L 817.992 119.320646 
L 819.666 155.495025 
L 821.34 184.423408 
L 823.014 201.041544 
L 824.688 211.086808 
L 826.362 218.145925 
L 828.036 221.354821 
L 829.71 226.06248 
L 831.384 215.469183 
L 833.058 182.424305 
L 834.732 147.034127 
L 836.406 120.120616 
L 838.08 97.481175 
L 839.754 89.735191 
L 841.428 114.549038 
L 843.102 117.596272 
L 844.776 116.187421 
L 846.45 111.866429 
L 848.124 101.311515 
L 849.798 102.455368 
L 851.472 102.707375 
L 853.146 70.96258 
L 854.82 72.908654 
L 856.494 91.090027 
L 858.168 115.661631 
L 859.842 151.127242 
L 861.516 180.399459 
L 863.19 198.959665 
L 864.864 209.734014 
L 866.538 219.077743 
L 868.212 222.312545 
L 869.886 226.607052 
L 871.56 214.396296 
L 874.908 145.815707 
L 876.582 117.252622 
L 878.256 95.785566 
L 879.93 89.427158 
L 881.604 113.218211 
L 883.278 117.617569 
L 884.952 120.391757 
L 886.626 115.468812 
L 888.3 102.655034 
L 889.974 95.397206 
L 891.648 97.514458 
L 893.322 66.96 
L 894.996 68.762868 
L 896.67 91.222928 
L 898.344 118.513463 
L 900.018 152.756868 
L 901.692 181.078984 
L 903.366 201.115464 
L 905.04 212.903098 
L 906.714 218.667238 
L 910.062 226.124949 
L 911.736 216.408914 
L 915.084 143.229774 
L 916.758 115.49273 
L 918.432 98.703407 
L 920.106 105.596575 
L 921.78 156.675839 
L 923.454 154.218936 
L 925.128 157.38078 
L 926.802 156.521791 
L 928.476 162.002165 
L 930.15 158.70566 
L 931.824 146.039384 
L 933.498 143.160577 
L 935.172 171.743922 
L 936.846 180.478407 
L 938.52 201.547734 
L 941.868 176.679196 
L 943.542 195.179432 
L 945.216 207.841572 
L 946.89 215.836191 
L 950.238 224.861258 
L 951.912 212.343631 
L 955.26 138.858091 
L 956.934 111.570048 
L 958.608 92.80499 
L 960.282 101.064152 
L 961.956 165.60768 
L 963.63 206.315225 
L 965.304 231.694898 
L 966.978 242.851384 
L 968.652 228.422166 
L 970.326 192.104105 
L 970.326 192.104105 
" clip-path="url(#p2af6501d51)" style="fill: none; stroke: #1f77b4; stroke-width: 1.5; stroke-linecap: square"/>
   </g>
   <g id="line2d_16">
    <path d="M 135 127.311956 
L 138.348 191.675615 
L 140.022 214.705312 
L 141.696 222.124255 
L 143.37 223.086538 
L 145.044 231.156679 
L 146.718 232.659871 
L 148.392 214.164354 
L 150.066 180.216631 
L 151.74 152.909267 
L 153.414 121.345261 
L 155.088 109.489902 
L 156.762 107.608079 
L 158.436 122.754814 
L 160.11 123.74846 
L 161.784 125.079136 
L 163.458 122.78886 
L 166.806 111.762584 
L 168.48 115.111217 
L 170.154 98.56134 
L 171.828 90.560485 
L 173.502 108.584627 
L 175.176 132.597483 
L 176.85 159.523333 
L 178.524 188.939013 
L 180.198 210.612537 
L 181.872 220.332591 
L 183.546 224.642316 
L 185.22 233.423421 
L 186.894 236.30063 
L 188.568 227.088109 
L 190.242 204.048124 
L 191.916 191.431925 
L 193.59 169.278775 
L 195.264 149.650843 
L 196.938 141.553714 
L 198.612 151.489674 
L 200.286 154.792979 
L 201.96 158.941023 
L 203.634 159.106531 
L 205.308 158.334606 
L 206.982 152.502306 
L 208.656 147.482536 
L 210.33 126.707677 
L 212.004 115.126376 
L 213.678 123.153823 
L 215.352 139.548082 
L 217.026 162.44264 
L 218.7 195.119328 
L 220.374 222.620755 
L 222.048 233.041137 
L 223.722 232.622222 
L 225.396 237.517587 
L 227.07 238.258 
L 228.744 219.17888 
L 230.418 178.319599 
L 233.766 118.214968 
L 235.44 104.425749 
L 237.114 101.3049 
L 238.788 115.947804 
L 240.462 131.894297 
L 242.136 145.791321 
L 243.81 180.906746 
L 245.484 178.302352 
L 247.158 151.222276 
L 248.832 109.952182 
L 252.18 129.582997 
L 253.854 136.716451 
L 255.528 150.195032 
L 257.202 184.209554 
L 258.876 222.386111 
L 260.55 241.376289 
L 262.224 235.872197 
L 263.898 225.799332 
L 265.572 230.165643 
L 267.246 223.081568 
L 268.92 206.735073 
L 270.594 178.396538 
L 273.942 115.669472 
L 275.616 96.515897 
L 277.29 103.083144 
L 278.964 129.491495 
L 280.638 164.597576 
L 282.312 172.519356 
L 283.986 170.553287 
L 285.66 159.221641 
L 287.334 146.76096 
L 289.008 127.598042 
L 290.682 123.710835 
L 292.356 128.233484 
L 294.03 176.376393 
L 295.704 173.920212 
L 297.378 195.838022 
L 299.052 209.712729 
L 300.726 214.459236 
L 302.4 215.953284 
L 304.074 219.237528 
L 305.748 229.672622 
L 307.422 231.073502 
L 309.096 216.537533 
L 310.77 179.777662 
L 312.444 147.676126 
L 314.118 112.245987 
L 315.792 101.700678 
L 317.466 115.639899 
L 319.14 168.866545 
L 320.814 202.035932 
L 322.488 228.005785 
L 324.162 198.635558 
L 325.836 178.943759 
L 327.51 135.865699 
L 329.184 131.298119 
L 330.858 139.025017 
L 332.532 131.991614 
L 334.206 134.733632 
L 335.88 158.830386 
L 337.554 190.445536 
L 339.228 213.328313 
L 340.902 210.137385 
L 342.576 208.596568 
L 344.25 216.497522 
L 345.924 220.865175 
L 347.598 216.97854 
L 349.272 210.541463 
L 350.946 177.145534 
L 352.62 137.254079 
L 354.294 108.529507 
L 355.968 105.360945 
L 359.316 141.725783 
L 360.99 152.159858 
L 362.664 154.935475 
L 364.338 186.322244 
L 366.012 188.929272 
L 367.686 184.43376 
L 369.36 141.700186 
L 371.034 160.558132 
L 372.708 174.620664 
L 374.382 164.410696 
L 376.056 170.192996 
L 377.73 193.280746 
L 379.404 228.616327 
L 381.078 222.972944 
L 382.752 209.971976 
L 384.426 215.967101 
L 386.1 236.15115 
L 387.774 216.21591 
L 389.448 200.735375 
L 391.122 176.005416 
L 392.796 140.662306 
L 394.47 102.231597 
L 396.144 90.324051 
L 397.818 117.107057 
L 399.492 133.165778 
L 401.166 169.442842 
L 402.84 174.313654 
L 404.514 183.643993 
L 406.188 160.902568 
L 407.862 142.5573 
L 409.536 129.379019 
L 411.21 139.052949 
L 412.884 132.748627 
L 414.558 133.994511 
L 416.232 155.785034 
L 417.906 184.600462 
L 419.58 210.266759 
L 422.928 206.206391 
L 424.602 217.604539 
L 426.276 223.947653 
L 427.95 215.038416 
L 429.624 211.143704 
L 431.298 184.177347 
L 432.972 146.118858 
L 434.646 111.592851 
L 436.32 106.603847 
L 437.994 130.218141 
L 439.668 162.250143 
L 441.342 199.931442 
L 443.016 179.733128 
L 444.69 170.61129 
L 446.364 166.404697 
L 448.038 165.25787 
L 449.712 152.657575 
L 451.386 136.381011 
L 453.06 126.471741 
L 456.408 173.875778 
L 458.082 201.599944 
L 459.756 216.151695 
L 461.43 206.70873 
L 463.104 203.372423 
L 464.778 212.981591 
L 466.452 217.071483 
L 468.126 213.370461 
L 469.8 218.048752 
L 471.474 199.980747 
L 473.148 175.195768 
L 474.822 146.314386 
L 476.496 129.474795 
L 478.17 122.697358 
L 479.844 125.559855 
L 483.192 158.506129 
L 484.866 158.936351 
L 486.54 146.100567 
L 488.214 155.482796 
L 489.888 157.021276 
L 491.562 118.335596 
L 493.236 108.734877 
L 494.91 114.977171 
L 496.584 142.455957 
L 498.258 167.733485 
L 499.932 197.981925 
L 501.606 215.282553 
L 504.954 225.650176 
L 506.628 232.695284 
L 508.302 226.857864 
L 509.976 210.35508 
L 511.65 176.119234 
L 513.324 146.731835 
L 514.998 132.4444 
L 516.672 138.891417 
L 520.02 190.622724 
L 521.694 208.133493 
L 523.368 202.114511 
L 525.042 189.430419 
L 526.716 157.435594 
L 528.39 156.677586 
L 530.064 194.732795 
L 531.738 180.917829 
L 533.412 139.291967 
L 535.086 145.310899 
L 536.76 170.010341 
L 538.434 190.780876 
L 540.108 199.194011 
L 541.782 206.976227 
L 543.456 207.243476 
L 545.13 215.055414 
L 546.804 219.146002 
L 548.478 222.715387 
L 550.152 210.020833 
L 553.5 135.454562 
L 555.174 108.570412 
L 556.848 126.119352 
L 560.196 174.908937 
L 561.87 193.061162 
L 563.544 188.370967 
L 565.218 180.863753 
L 566.892 158.122776 
L 568.566 161.754414 
L 570.24 162.071911 
L 571.914 144.43639 
L 573.588 132.368704 
L 575.262 159.521643 
L 576.936 155.582846 
L 578.61 162.9165 
L 580.284 165.796045 
L 583.632 205.582728 
L 585.306 208.619083 
L 586.98 213.11032 
L 588.654 221.957579 
L 590.328 210.266014 
L 592.002 165.196487 
L 595.35 112.203442 
L 597.024 98.106665 
L 598.698 92.146928 
L 602.046 119.265225 
L 605.394 103.845575 
L 607.068 100.701516 
L 608.742 99.111643 
L 610.416 102.207939 
L 613.764 75.057683 
L 615.438 89.883541 
L 617.112 113.279295 
L 620.46 170.53445 
L 622.134 192.462947 
L 623.808 203.728589 
L 625.482 209.785742 
L 627.156 217.458837 
L 628.83 219.816658 
L 630.504 206.459176 
L 632.178 170.563129 
L 635.526 115.376627 
L 637.2 101.77384 
L 638.874 97.216201 
L 640.548 110.580666 
L 642.222 107.773736 
L 643.896 108.013002 
L 645.57 105.632219 
L 647.244 97.19304 
L 648.918 101.941982 
L 650.592 109.796664 
L 652.266 92.561494 
L 653.94 77.845378 
L 655.614 97.232901 
L 657.288 122.318926 
L 660.636 177.65026 
L 662.31 197.867162 
L 665.658 218.552607 
L 667.332 227.420368 
L 669.006 228.696049 
L 670.68 222.065109 
L 672.354 200.357937 
L 674.028 186.487007 
L 675.702 161.919325 
L 677.376 148.198893 
L 679.05 142.588612 
L 680.724 154.0886 
L 682.398 157.589024 
L 684.072 162.09716 
L 685.746 165.841125 
L 687.42 164.482267 
L 689.094 168.468779 
L 690.768 178.456976 
L 692.442 177.316062 
L 694.116 180.978317 
L 695.79 198.663143 
L 697.464 220.446185 
L 700.812 278.940068 
L 702.486 298.674611 
L 704.16 313.027677 
L 705.834 332.663412 
L 707.508 348.274092 
L 709.182 346.647241 
L 710.856 348.184504 
L 712.53 359.333992 
L 714.204 367.189295 
L 715.878 349.353226 
L 719.226 335.435476 
L 720.9 330.185486 
L 722.574 293.7744 
L 724.248 273.832102 
L 725.922 255.934079 
L 727.596 241.241249 
L 729.27 213.681994 
L 730.944 194.572505 
L 732.618 158.502152 
L 734.292 144.01074 
L 735.966 154.1554 
L 737.64 173.097939 
L 739.314 193.913256 
L 740.988 210.981675 
L 742.662 229.288424 
L 744.336 240.312613 
L 746.01 241.088042 
L 747.684 247.190424 
L 749.358 257.468459 
L 751.032 252.637508 
L 752.706 214.907848 
L 754.38 193.302168 
L 756.054 170.178285 
L 757.728 151.286988 
L 759.402 158.046632 
L 761.076 169.450247 
L 762.75 170.240661 
L 764.424 155.73235 
L 766.098 154.005448 
L 767.772 148.454313 
L 771.12 141.944273 
L 772.794 121.925335 
L 774.468 106.938839 
L 776.142 115.708289 
L 777.816 130.410786 
L 779.49 156.609295 
L 781.164 187.306347 
L 782.838 212.110312 
L 784.512 223.140018 
L 786.186 228.479522 
L 787.86 235.013816 
L 789.534 233.900413 
L 791.208 218.042961 
L 792.882 186.657684 
L 794.556 160.722795 
L 796.23 128.185223 
L 797.904 113.913147 
L 799.578 109.360975 
L 801.252 123.994038 
L 802.926 126.458818 
L 804.6 122.764953 
L 806.274 121.991687 
L 807.948 113.910214 
L 809.622 111.954086 
L 811.296 109.425588 
L 812.97 95.133929 
L 814.644 85.0759 
L 816.318 100.553552 
L 817.992 120.527958 
L 819.666 151.277098 
L 821.34 186.111755 
L 823.014 211.866921 
L 824.688 220.569273 
L 826.362 223.8356 
L 828.036 233.024586 
L 829.71 232.123734 
L 831.384 213.864302 
L 833.058 180.155249 
L 834.732 151.919945 
L 836.406 120.879651 
L 838.08 107.386855 
L 839.754 103.919383 
L 841.428 118.050007 
L 843.102 117.052087 
L 844.776 118.648272 
L 846.45 115.81674 
L 848.124 107.760814 
L 849.798 103.555414 
L 851.472 96.503571 
L 853.146 81.658528 
L 854.82 80.651364 
L 856.494 98.584353 
L 858.168 120.771598 
L 859.842 151.204284 
L 861.516 184.310797 
L 863.19 207.833093 
L 864.864 217.317807 
L 866.538 221.960138 
L 868.212 233.081445 
L 869.886 232.157059 
L 871.56 214.663612 
L 873.234 178.454441 
L 874.908 147.052861 
L 876.582 119.116864 
L 878.256 104.501644 
L 879.93 105.479136 
L 881.604 115.369122 
L 883.278 115.651679 
L 884.952 117.263868 
L 886.626 118.378986 
L 888.3 110.569036 
L 889.974 103.386973 
L 891.648 88.016181 
L 893.322 78.851151 
L 894.996 78.200997 
L 896.67 95.476526 
L 898.344 118.703392 
L 901.692 186.913153 
L 903.366 209.495133 
L 905.04 218.885637 
L 908.388 232.262155 
L 910.062 228.068087 
L 911.736 213.118819 
L 915.084 148.818729 
L 916.758 116.402827 
L 918.432 104.266801 
L 920.106 108.762859 
L 921.78 126.171142 
L 923.454 153.210562 
L 925.128 150.036631 
L 926.802 150.37719 
L 928.476 140.239986 
L 930.15 148.034528 
L 931.824 133.179197 
L 933.498 113.556534 
L 935.172 141.990546 
L 936.846 182.784344 
L 938.52 203.066854 
L 940.194 228.24781 
L 941.868 237.563189 
L 943.542 219.41571 
L 945.216 211.834664 
L 946.89 224.099344 
L 948.564 231.010704 
L 950.238 222.297541 
L 951.912 222.927168 
L 953.586 197.514774 
L 955.26 155.080059 
L 956.934 121.691287 
L 958.608 105.410349 
L 960.282 96.163161 
L 961.956 106.600318 
L 963.63 159.75574 
L 965.304 202.61526 
L 966.978 233.48028 
L 968.652 234.833397 
L 970.326 202.112672 
L 970.326 202.112672 
" clip-path="url(#p2af6501d51)" style="fill: none; stroke: #ff7f0e; stroke-width: 1.5; stroke-linecap: square"/>
   </g>
   <g id="patch_3">
    <path d="M 135 384.48 
L 135 51.84 
" style="fill: none; stroke: #000000; stroke-width: 0.8; stroke-linejoin: miter; stroke-linecap: square"/>
   </g>
   <g id="patch_4">
    <path d="M 972 384.48 
L 972 51.84 
" style="fill: none; stroke: #000000; stroke-width: 0.8; stroke-linejoin: miter; stroke-linecap: square"/>
   </g>
   <g id="patch_5">
    <path d="M 135 384.48 
L 972 384.48 
" style="fill: none; stroke: #000000; stroke-width: 0.8; stroke-linejoin: miter; stroke-linecap: square"/>
   </g>
   <g id="patch_6">
    <path d="M 135 51.84 
L 972 51.84 
" style="fill: none; stroke: #000000; stroke-width: 0.8; stroke-linejoin: miter; stroke-linecap: square"/>
   </g>
  </g>
 </g>
 <defs>
  <clipPath id="p2af6501d51">
   <rect x="135" y="51.84" width="837" height="332.64"/>
  </clipPath>
 </defs>
</svg>
