<?xml version="1.0" encoding="utf-8" standalone="no"?>
<!DOCTYPE svg PUBLIC "-//W3C//DTD SVG 1.1//EN"
  "http://www.w3.org/Graphics/SVG/1.1/DTD/svg11.dtd">
<svg xmlns:xlink="http://www.w3.org/1999/xlink" width="1080pt" height="432pt" viewBox="0 0 1080 432" xmlns="http://www.w3.org/2000/svg" version="1.1">
 <metadata>
  <rdf:RDF xmlns:dc="http://purl.org/dc/elements/1.1/" xmlns:cc="http://creativecommons.org/ns#" xmlns:rdf="http://www.w3.org/1999/02/22-rdf-syntax-ns#">
   <cc:Work>
    <dc:type rdf:resource="http://purl.org/dc/dcmitype/StillImage"/>
    <dc:date>2024-02-16T08:50:11.028775</dc:date>
    <dc:format>image/svg+xml</dc:format>
    <dc:creator>
     <cc:Agent>
      <dc:title>Matplotlib v3.7.1, https://matplotlib.org/</dc:title>
     </cc:Agent>
    </dc:creator>
   </cc:Work>
  </rdf:RDF>
 </metadata>
 <defs>
  <style type="text/css">*{stroke-linejoin: round; stroke-linecap: butt}</style>
 </defs>
 <g id="figure_1">
  <g id="patch_1">
   <path d="M 0 432 
L 1080 432 
L 1080 0 
L 0 0 
z
" style="fill: #ffffff"/>
  </g>
  <g id="axes_1">
   <g id="patch_2">
    <path d="M 135 384.48 
L 972 384.48 
L 972 51.84 
L 135 51.84 
z
" style="fill: #ffffff"/>
   </g>
   <g id="matplotlib.axis_1">
    <g id="xtick_1">
     <g id="line2d_1">
      <defs>
       <path id="mbf485c90de" d="M 0 0 
L 0 3.5 
" style="stroke: #000000; stroke-width: 0.8"/>
      </defs>
      <g>
       <use xlink:href="#mbf485c90de" x="135" y="384.48" style="stroke: #000000; stroke-width: 0.8"/>
      </g>
     </g>
     <g id="text_1">
      <!-- 0 -->
      <g transform="translate(131.81875 399.078438) scale(0.1 -0.1)">
       <defs>
        <path id="DejaVuSans-30" d="M 2034 4250 
Q 1547 4250 1301 3770 
Q 1056 3291 1056 2328 
Q 1056 1369 1301 889 
Q 1547 409 2034 409 
Q 2525 409 2770 889 
Q 3016 1369 3016 2328 
Q 3016 3291 2770 3770 
Q 2525 4250 2034 4250 
z
M 2034 4750 
Q 2819 4750 3233 4129 
Q 3647 3509 3647 2328 
Q 3647 1150 3233 529 
Q 2819 -91 2034 -91 
Q 1250 -91 836 529 
Q 422 1150 422 2328 
Q 422 3509 836 4129 
Q 1250 4750 2034 4750 
z
" transform="scale(0.015625)"/>
       </defs>
       <use xlink:href="#DejaVuSans-30"/>
      </g>
     </g>
    </g>
    <g id="xtick_2">
     <g id="line2d_2">
      <g>
       <use xlink:href="#mbf485c90de" x="302.4" y="384.48" style="stroke: #000000; stroke-width: 0.8"/>
      </g>
     </g>
     <g id="text_2">
      <!-- 100 -->
      <g transform="translate(292.85625 399.078438) scale(0.1 -0.1)">
       <defs>
        <path id="DejaVuSans-31" d="M 794 531 
L 1825 531 
L 1825 4091 
L 703 3866 
L 703 4441 
L 1819 4666 
L 2450 4666 
L 2450 531 
L 3481 531 
L 3481 0 
L 794 0 
L 794 531 
z
" transform="scale(0.015625)"/>
       </defs>
       <use xlink:href="#DejaVuSans-31"/>
       <use xlink:href="#DejaVuSans-30" x="63.623047"/>
       <use xlink:href="#DejaVuSans-30" x="127.246094"/>
      </g>
     </g>
    </g>
    <g id="xtick_3">
     <g id="line2d_3">
      <g>
       <use xlink:href="#mbf485c90de" x="469.8" y="384.48" style="stroke: #000000; stroke-width: 0.8"/>
      </g>
     </g>
     <g id="text_3">
      <!-- 200 -->
      <g transform="translate(460.25625 399.078438) scale(0.1 -0.1)">
       <defs>
        <path id="DejaVuSans-32" d="M 1228 531 
L 3431 531 
L 3431 0 
L 469 0 
L 469 531 
Q 828 903 1448 1529 
Q 2069 2156 2228 2338 
Q 2531 2678 2651 2914 
Q 2772 3150 2772 3378 
Q 2772 3750 2511 3984 
Q 2250 4219 1831 4219 
Q 1534 4219 1204 4116 
Q 875 4013 500 3803 
L 500 4441 
Q 881 4594 1212 4672 
Q 1544 4750 1819 4750 
Q 2544 4750 2975 4387 
Q 3406 4025 3406 3419 
Q 3406 3131 3298 2873 
Q 3191 2616 2906 2266 
Q 2828 2175 2409 1742 
Q 1991 1309 1228 531 
z
" transform="scale(0.015625)"/>
       </defs>
       <use xlink:href="#DejaVuSans-32"/>
       <use xlink:href="#DejaVuSans-30" x="63.623047"/>
       <use xlink:href="#DejaVuSans-30" x="127.246094"/>
      </g>
     </g>
    </g>
    <g id="xtick_4">
     <g id="line2d_4">
      <g>
       <use xlink:href="#mbf485c90de" x="637.2" y="384.48" style="stroke: #000000; stroke-width: 0.8"/>
      </g>
     </g>
     <g id="text_4">
      <!-- 300 -->
      <g transform="translate(627.65625 399.078438) scale(0.1 -0.1)">
       <defs>
        <path id="DejaVuSans-33" d="M 2597 2516 
Q 3050 2419 3304 2112 
Q 3559 1806 3559 1356 
Q 3559 666 3084 287 
Q 2609 -91 1734 -91 
Q 1441 -91 1130 -33 
Q 819 25 488 141 
L 488 750 
Q 750 597 1062 519 
Q 1375 441 1716 441 
Q 2309 441 2620 675 
Q 2931 909 2931 1356 
Q 2931 1769 2642 2001 
Q 2353 2234 1838 2234 
L 1294 2234 
L 1294 2753 
L 1863 2753 
Q 2328 2753 2575 2939 
Q 2822 3125 2822 3475 
Q 2822 3834 2567 4026 
Q 2313 4219 1838 4219 
Q 1578 4219 1281 4162 
Q 984 4106 628 3988 
L 628 4550 
Q 988 4650 1302 4700 
Q 1616 4750 1894 4750 
Q 2613 4750 3031 4423 
Q 3450 4097 3450 3541 
Q 3450 3153 3228 2886 
Q 3006 2619 2597 2516 
z
" transform="scale(0.015625)"/>
       </defs>
       <use xlink:href="#DejaVuSans-33"/>
       <use xlink:href="#DejaVuSans-30" x="63.623047"/>
       <use xlink:href="#DejaVuSans-30" x="127.246094"/>
      </g>
     </g>
    </g>
    <g id="xtick_5">
     <g id="line2d_5">
      <g>
       <use xlink:href="#mbf485c90de" x="804.6" y="384.48" style="stroke: #000000; stroke-width: 0.8"/>
      </g>
     </g>
     <g id="text_5">
      <!-- 400 -->
      <g transform="translate(795.05625 399.078438) scale(0.1 -0.1)">
       <defs>
        <path id="DejaVuSans-34" d="M 2419 4116 
L 825 1625 
L 2419 1625 
L 2419 4116 
z
M 2253 4666 
L 3047 4666 
L 3047 1625 
L 3713 1625 
L 3713 1100 
L 3047 1100 
L 3047 0 
L 2419 0 
L 2419 1100 
L 313 1100 
L 313 1709 
L 2253 4666 
z
" transform="scale(0.015625)"/>
       </defs>
       <use xlink:href="#DejaVuSans-34"/>
       <use xlink:href="#DejaVuSans-30" x="63.623047"/>
       <use xlink:href="#DejaVuSans-30" x="127.246094"/>
      </g>
     </g>
    </g>
    <g id="xtick_6">
     <g id="line2d_6">
      <g>
       <use xlink:href="#mbf485c90de" x="972" y="384.48" style="stroke: #000000; stroke-width: 0.8"/>
      </g>
     </g>
     <g id="text_6">
      <!-- 500 -->
      <g transform="translate(962.45625 399.078438) scale(0.1 -0.1)">
       <defs>
        <path id="DejaVuSans-35" d="M 691 4666 
L 3169 4666 
L 3169 4134 
L 1269 4134 
L 1269 2991 
Q 1406 3038 1543 3061 
Q 1681 3084 1819 3084 
Q 2600 3084 3056 2656 
Q 3513 2228 3513 1497 
Q 3513 744 3044 326 
Q 2575 -91 1722 -91 
Q 1428 -91 1123 -41 
Q 819 9 494 109 
L 494 744 
Q 775 591 1075 516 
Q 1375 441 1709 441 
Q 2250 441 2565 725 
Q 2881 1009 2881 1497 
Q 2881 1984 2565 2268 
Q 2250 2553 1709 2553 
Q 1456 2553 1204 2497 
Q 953 2441 691 2322 
L 691 4666 
z
" transform="scale(0.015625)"/>
       </defs>
       <use xlink:href="#DejaVuSans-35"/>
       <use xlink:href="#DejaVuSans-30" x="63.623047"/>
       <use xlink:href="#DejaVuSans-30" x="127.246094"/>
      </g>
     </g>
    </g>
   </g>
   <g id="matplotlib.axis_2">
    <g id="ytick_1">
     <g id="line2d_7">
      <defs>
       <path id="mf399468eef" d="M 0 0 
L -3.5 0 
" style="stroke: #000000; stroke-width: 0.8"/>
      </defs>
      <g>
       <use xlink:href="#mf399468eef" x="135" y="350.605454" style="stroke: #000000; stroke-width: 0.8"/>
      </g>
     </g>
     <g id="text_7">
      <!-- 350 -->
      <g transform="translate(108.9125 354.404672) scale(0.1 -0.1)">
       <use xlink:href="#DejaVuSans-33"/>
       <use xlink:href="#DejaVuSans-35" x="63.623047"/>
       <use xlink:href="#DejaVuSans-30" x="127.246094"/>
      </g>
     </g>
    </g>
    <g id="ytick_2">
     <g id="line2d_8">
      <g>
       <use xlink:href="#mf399468eef" x="135" y="312.528813" style="stroke: #000000; stroke-width: 0.8"/>
      </g>
     </g>
     <g id="text_8">
      <!-- 400 -->
      <g transform="translate(108.9125 316.328032) scale(0.1 -0.1)">
       <use xlink:href="#DejaVuSans-34"/>
       <use xlink:href="#DejaVuSans-30" x="63.623047"/>
       <use xlink:href="#DejaVuSans-30" x="127.246094"/>
      </g>
     </g>
    </g>
    <g id="ytick_3">
     <g id="line2d_9">
      <g>
       <use xlink:href="#mf399468eef" x="135" y="274.452173" style="stroke: #000000; stroke-width: 0.8"/>
      </g>
     </g>
     <g id="text_9">
      <!-- 450 -->
      <g transform="translate(108.9125 278.251391) scale(0.1 -0.1)">
       <use xlink:href="#DejaVuSans-34"/>
       <use xlink:href="#DejaVuSans-35" x="63.623047"/>
       <use xlink:href="#DejaVuSans-30" x="127.246094"/>
      </g>
     </g>
    </g>
    <g id="ytick_4">
     <g id="line2d_10">
      <g>
       <use xlink:href="#mf399468eef" x="135" y="236.375532" style="stroke: #000000; stroke-width: 0.8"/>
      </g>
     </g>
     <g id="text_10">
      <!-- 500 -->
      <g transform="translate(108.9125 240.174751) scale(0.1 -0.1)">
       <use xlink:href="#DejaVuSans-35"/>
       <use xlink:href="#DejaVuSans-30" x="63.623047"/>
       <use xlink:href="#DejaVuSans-30" x="127.246094"/>
      </g>
     </g>
    </g>
    <g id="ytick_5">
     <g id="line2d_11">
      <g>
       <use xlink:href="#mf399468eef" x="135" y="198.298892" style="stroke: #000000; stroke-width: 0.8"/>
      </g>
     </g>
     <g id="text_11">
      <!-- 550 -->
      <g transform="translate(108.9125 202.098111) scale(0.1 -0.1)">
       <use xlink:href="#DejaVuSans-35"/>
       <use xlink:href="#DejaVuSans-35" x="63.623047"/>
       <use xlink:href="#DejaVuSans-30" x="127.246094"/>
      </g>
     </g>
    </g>
    <g id="ytick_6">
     <g id="line2d_12">
      <g>
       <use xlink:href="#mf399468eef" x="135" y="160.222251" style="stroke: #000000; stroke-width: 0.8"/>
      </g>
     </g>
     <g id="text_12">
      <!-- 600 -->
      <g transform="translate(108.9125 164.02147) scale(0.1 -0.1)">
       <defs>
        <path id="DejaVuSans-36" d="M 2113 2584 
Q 1688 2584 1439 2293 
Q 1191 2003 1191 1497 
Q 1191 994 1439 701 
Q 1688 409 2113 409 
Q 2538 409 2786 701 
Q 3034 994 3034 1497 
Q 3034 2003 2786 2293 
Q 2538 2584 2113 2584 
z
M 3366 4563 
L 3366 3988 
Q 3128 4100 2886 4159 
Q 2644 4219 2406 4219 
Q 1781 4219 1451 3797 
Q 1122 3375 1075 2522 
Q 1259 2794 1537 2939 
Q 1816 3084 2150 3084 
Q 2853 3084 3261 2657 
Q 3669 2231 3669 1497 
Q 3669 778 3244 343 
Q 2819 -91 2113 -91 
Q 1303 -91 875 529 
Q 447 1150 447 2328 
Q 447 3434 972 4092 
Q 1497 4750 2381 4750 
Q 2619 4750 2861 4703 
Q 3103 4656 3366 4563 
z
" transform="scale(0.015625)"/>
       </defs>
       <use xlink:href="#DejaVuSans-36"/>
       <use xlink:href="#DejaVuSans-30" x="63.623047"/>
       <use xlink:href="#DejaVuSans-30" x="127.246094"/>
      </g>
     </g>
    </g>
    <g id="ytick_7">
     <g id="line2d_13">
      <g>
       <use xlink:href="#mf399468eef" x="135" y="122.145611" style="stroke: #000000; stroke-width: 0.8"/>
      </g>
     </g>
     <g id="text_13">
      <!-- 650 -->
      <g transform="translate(108.9125 125.94483) scale(0.1 -0.1)">
       <use xlink:href="#DejaVuSans-36"/>
       <use xlink:href="#DejaVuSans-35" x="63.623047"/>
       <use xlink:href="#DejaVuSans-30" x="127.246094"/>
      </g>
     </g>
    </g>
    <g id="ytick_8">
     <g id="line2d_14">
      <g>
       <use xlink:href="#mf399468eef" x="135" y="84.068971" style="stroke: #000000; stroke-width: 0.8"/>
      </g>
     </g>
     <g id="text_14">
      <!-- 700 -->
      <g transform="translate(108.9125 87.868189) scale(0.1 -0.1)">
       <defs>
        <path id="DejaVuSans-37" d="M 525 4666 
L 3525 4666 
L 3525 4397 
L 1831 0 
L 1172 0 
L 2766 4134 
L 525 4134 
L 525 4666 
z
" transform="scale(0.015625)"/>
       </defs>
       <use xlink:href="#DejaVuSans-37"/>
       <use xlink:href="#DejaVuSans-30" x="63.623047"/>
       <use xlink:href="#DejaVuSans-30" x="127.246094"/>
      </g>
     </g>
    </g>
   </g>
   <g id="line2d_15">
    <path d="M 135 140.929291 
L 136.674 171.204257 
L 138.348 196.358447 
L 140.022 211.934784 
L 141.696 221.532872 
L 143.37 228.593652 
L 145.044 232.253456 
L 146.718 236.947905 
L 148.392 225.095979 
L 150.066 194.218754 
L 151.74 160.987819 
L 153.414 137.202046 
L 155.088 119.760776 
L 156.762 113.496412 
L 158.436 138.370917 
L 160.11 141.519927 
L 161.784 140.545345 
L 163.458 141.328136 
L 165.132 129.28695 
L 166.806 135.169372 
L 168.48 137.944291 
L 170.154 116.765047 
L 171.828 108.13808 
L 173.502 123.771021 
L 175.176 143.032068 
L 178.524 194.255476 
L 180.198 211.447299 
L 181.872 222.783987 
L 183.546 229.910218 
L 185.22 234.168905 
L 186.894 244.636539 
L 188.568 242.263827 
L 190.242 226.572067 
L 191.916 206.241361 
L 193.59 180.518168 
L 195.264 161.669436 
L 196.938 155.248027 
L 198.612 167.772095 
L 200.286 171.155922 
L 201.96 175.588249 
L 203.634 180.539939 
L 205.308 170.200467 
L 206.982 167.536099 
L 208.656 166.069335 
L 210.33 139.298939 
L 212.004 123.361882 
L 213.678 132.438127 
L 215.352 149.06274 
L 217.026 179.353258 
L 218.7 206.231467 
L 220.374 219.638557 
L 222.048 226.784386 
L 223.722 231.723242 
L 225.396 234.395566 
L 227.07 238.355946 
L 228.744 222.393528 
L 230.418 187.183264 
L 232.092 155.55013 
L 233.766 131.382052 
L 235.44 113.210086 
L 237.114 107.60814 
L 238.788 145.649642 
L 240.462 163.590322 
L 242.136 198.283391 
L 243.81 199.582407 
L 245.484 170.148201 
L 247.158 151.395396 
L 248.832 163.152071 
L 250.506 139.635997 
L 252.18 134.2725 
L 253.854 150.093908 
L 257.202 199.854292 
L 258.876 216.820333 
L 260.55 223.182092 
L 262.224 219.281119 
L 263.898 225.036208 
L 265.572 226.583625 
L 267.246 228.975285 
L 268.92 216.414159 
L 272.268 150.250773 
L 273.942 120.541868 
L 275.616 113.202955 
L 277.29 136.377636 
L 278.964 182.942823 
L 280.638 189.874151 
L 282.312 190.937509 
L 283.986 187.299366 
L 285.66 177.087796 
L 289.008 160.031629 
L 290.682 139.737799 
L 292.356 184.007583 
L 294.03 149.214413 
L 295.704 160.021691 
L 297.378 184.737978 
L 299.052 189.049295 
L 300.726 206.141031 
L 302.4 219.097465 
L 304.074 225.52989 
L 305.748 227.817743 
L 307.422 231.982553 
L 309.096 218.374331 
L 312.444 148.290296 
L 314.118 125.924837 
L 315.792 133.851039 
L 317.466 184.488636 
L 319.14 218.102086 
L 320.814 241.558474 
L 322.488 219.485707 
L 324.162 205.915081 
L 325.836 175.093063 
L 327.51 159.464413 
L 329.184 151.893905 
L 330.858 136.725536 
L 332.532 138.150558 
L 334.206 151.646536 
L 335.88 162.741601 
L 337.554 180.795749 
L 340.902 198.913786 
L 342.576 210.862282 
L 344.25 217.977895 
L 347.598 226.648592 
L 349.272 212.829987 
L 350.946 177.074617 
L 352.62 144.621588 
L 354.294 128.592521 
L 355.968 133.513344 
L 357.642 140.547037 
L 359.316 170.06615 
L 360.99 177.836033 
L 362.664 207.509947 
L 364.338 211.966033 
L 366.012 207.164444 
L 367.686 184.779391 
L 369.36 205.588384 
L 371.034 183.086326 
L 372.708 154.068832 
L 374.382 172.992571 
L 376.056 189.061317 
L 377.73 207.87252 
L 379.404 177.343129 
L 381.078 196.18676 
L 382.752 211.648626 
L 384.426 216.741745 
L 386.1 220.251525 
L 387.774 222.311732 
L 389.448 207.76546 
L 392.796 137.154593 
L 394.47 112.53427 
L 396.144 134.959295 
L 397.818 144.644111 
L 399.492 182.263229 
L 401.166 197.473237 
L 402.84 199.205874 
L 406.188 171.795486 
L 407.862 171.401828 
L 409.536 164.46916 
L 411.21 143.12378 
L 412.884 133.391931 
L 414.558 154.53319 
L 416.232 166.310333 
L 417.906 181.106242 
L 419.58 184.627094 
L 422.928 211.672457 
L 424.602 216.986688 
L 426.276 221.258127 
L 427.95 228.255228 
L 429.624 217.751596 
L 432.972 148.3907 
L 434.646 131.605151 
L 436.32 149.320567 
L 437.994 172.360126 
L 439.668 217.432314 
L 441.342 197.849169 
L 443.016 187.672472 
L 444.69 201.316162 
L 446.364 196.437706 
L 448.038 180.374084 
L 449.712 166.18617 
L 451.386 141.190516 
L 453.06 152.244332 
L 454.734 167.241556 
L 456.408 180.290318 
L 458.082 184.661157 
L 459.756 182.852009 
L 461.43 193.086339 
L 463.104 205.321809 
L 466.452 218.775984 
L 468.126 231.717946 
L 469.8 229.104836 
L 471.474 209.510701 
L 473.148 184.177258 
L 474.822 156.650928 
L 476.496 138.133167 
L 478.17 133.130665 
L 479.844 155.767355 
L 481.518 173.426828 
L 483.192 174.218934 
L 484.866 167.812524 
L 486.54 177.439865 
L 488.214 182.703346 
L 489.888 158.962041 
L 491.562 125.068291 
L 493.236 115.280789 
L 494.91 138.207847 
L 496.584 159.273573 
L 498.258 178.919796 
L 499.932 192.846997 
L 501.606 208.147525 
L 503.28 218.12792 
L 504.954 224.906398 
L 506.628 227.670222 
L 508.302 230.925116 
L 509.976 218.018974 
L 511.65 185.618295 
L 513.324 169.603973 
L 514.998 167.359132 
L 516.672 184.862188 
L 518.346 198.323811 
L 520.02 226.278816 
L 521.694 221.842082 
L 523.368 206.56579 
L 525.042 183.068533 
L 526.716 179.748001 
L 528.39 212.132224 
L 530.064 195.360881 
L 531.738 156.102359 
L 533.412 141.879904 
L 535.086 164.26307 
L 536.76 163.054914 
L 538.434 173.248044 
L 540.108 200.712254 
L 541.782 196.111705 
L 543.456 208.469659 
L 545.13 218.623922 
L 546.804 219.37949 
L 548.478 221.29794 
L 550.152 211.606366 
L 551.826 175.516216 
L 553.5 143.44858 
L 555.174 152.328768 
L 556.848 171.336892 
L 558.522 179.60413 
L 560.196 212.904494 
L 561.87 207.386426 
L 563.544 197.931978 
L 565.218 182.835971 
L 566.892 191.062008 
L 568.566 188.206534 
L 571.914 148.299003 
L 573.588 163.806547 
L 575.262 131.785223 
L 576.936 120.44632 
L 578.61 145.377035 
L 580.284 172.964368 
L 581.958 192.640063 
L 583.632 204.219847 
L 585.306 210.159628 
L 586.98 213.48231 
L 588.654 217.567484 
L 590.328 208.921242 
L 593.676 150.074007 
L 595.35 126.727181 
L 597.024 109.922614 
L 598.698 101.949411 
L 600.372 120.863608 
L 602.046 122.644066 
L 603.72 120.077311 
L 605.394 121.571846 
L 607.068 111.279309 
L 610.416 124.673163 
L 612.09 95.820911 
L 613.764 87.060662 
L 615.438 105.88309 
L 618.786 150.41371 
L 620.46 175.984492 
L 622.134 195.700677 
L 623.808 207.09322 
L 625.482 215.048942 
L 628.83 225.307737 
L 630.504 216.03085 
L 633.852 156.842806 
L 635.526 131.112523 
L 637.2 111.041711 
L 638.874 102.777087 
L 640.548 121.851614 
L 642.222 123.423829 
L 643.896 122.134157 
L 645.57 119.712148 
L 647.244 115.949484 
L 648.918 124.582348 
L 650.592 131.454617 
L 652.266 103.767876 
L 653.94 95.143858 
L 655.614 115.894695 
L 657.288 138.598058 
L 658.962 158.173963 
L 660.636 182.092143 
L 662.31 201.960837 
L 663.984 216.661619 
L 665.658 223.525818 
L 667.332 228.428886 
L 669.006 238.884579 
L 670.68 238.823825 
L 672.354 223.345867 
L 675.702 180.109333 
L 677.376 165.763973 
L 679.05 160.69279 
L 680.724 173.182054 
L 682.398 176.661941 
L 684.072 182.687216 
L 685.746 187.136874 
L 687.42 187.094633 
L 689.094 203.456699 
L 690.768 221.754813 
L 692.442 202.658347 
L 694.116 199.164605 
L 695.79 217.939665 
L 697.464 241.91913 
L 699.138 262.748826 
L 700.812 285.597535 
L 702.486 306.806768 
L 704.16 320.837451 
L 705.834 330.228499 
L 707.508 338.225402 
L 710.856 368.003567 
L 712.53 369.36 
L 714.204 362.199157 
L 715.878 354.340267 
L 717.552 350.855235 
L 719.226 339.04715 
L 720.9 316.139569 
L 722.574 295.311712 
L 724.248 280.398071 
L 725.922 262.523379 
L 727.596 235.270899 
L 729.27 215.897966 
L 730.944 198.898597 
L 732.618 158.431145 
L 734.292 142.170773 
L 735.966 153.20366 
L 737.64 168.34384 
L 739.314 186.263677 
L 740.988 209.927476 
L 742.662 227.395764 
L 744.336 238.666272 
L 746.01 246.255842 
L 747.684 250.454825 
L 749.358 258.295254 
L 751.032 253.609508 
L 752.706 232.860031 
L 754.38 210.263862 
L 756.054 181.291783 
L 757.728 159.899966 
L 759.402 149.502146 
L 761.076 159.471123 
L 762.75 161.102295 
L 764.424 166.221396 
L 766.098 166.624947 
L 767.772 158.2916 
L 769.446 161.865054 
L 771.12 160.370718 
L 772.794 122.288329 
L 774.468 109.471178 
L 776.142 119.687258 
L 777.816 139.506951 
L 781.164 193.359327 
L 782.838 210.400362 
L 784.512 221.221752 
L 786.186 227.853672 
L 787.86 230.768213 
L 789.534 235.232428 
L 791.208 229.130975 
L 792.882 200.956362 
L 794.556 168.289865 
L 796.23 143.460623 
L 797.904 125.522365 
L 799.578 116.299092 
L 801.252 136.760738 
L 802.926 137.758429 
L 804.6 137.999731 
L 806.274 134.751002 
L 807.948 125.943576 
L 809.622 130.026907 
L 811.296 135.225863 
L 812.97 100.422475 
L 814.644 95.277173 
L 816.318 110.897047 
L 817.992 135.529191 
L 819.666 169.358603 
L 821.34 196.411733 
L 823.014 211.952615 
L 824.688 221.346705 
L 826.362 227.948222 
L 828.036 230.949105 
L 829.71 235.351595 
L 831.384 225.444998 
L 833.058 194.542219 
L 834.732 161.446174 
L 836.406 136.277303 
L 838.08 115.105441 
L 839.754 107.861582 
L 841.428 131.066897 
L 843.102 133.916597 
L 844.776 132.599074 
L 846.45 128.558186 
L 848.124 118.687483 
L 849.798 119.757187 
L 851.472 119.992857 
L 853.146 90.305886 
L 854.82 92.125808 
L 856.494 109.128592 
L 858.168 132.107368 
L 859.842 165.273957 
L 861.516 192.648632 
L 863.19 210.005692 
L 864.864 220.081605 
L 866.538 228.819636 
L 868.212 231.844746 
L 869.886 235.860866 
L 871.56 224.441659 
L 874.908 160.306737 
L 876.582 133.595224 
L 878.256 113.519748 
L 879.93 107.573517 
L 881.604 129.822339 
L 883.278 133.936513 
L 884.952 136.530868 
L 886.626 131.927048 
L 888.3 119.94391 
L 889.974 113.156563 
L 891.648 115.136567 
L 893.322 86.56277 
L 894.996 88.248769 
L 896.67 109.252878 
L 898.344 134.774333 
L 900.018 166.797943 
L 901.692 193.284108 
L 903.366 212.021743 
L 905.04 223.045256 
L 906.714 228.435742 
L 910.062 235.410015 
L 911.736 226.323811 
L 915.084 157.888434 
L 916.758 131.949415 
L 918.432 116.248443 
L 920.106 122.694768 
L 921.78 170.462872 
L 923.454 168.165235 
L 925.128 171.122115 
L 926.802 170.318809 
L 928.476 175.443924 
L 930.15 172.361111 
L 931.824 160.515914 
L 933.498 157.823722 
L 935.172 184.554181 
L 936.846 192.722463 
L 938.52 212.425992 
L 941.868 189.169531 
L 943.542 206.470509 
L 945.216 218.311838 
L 946.89 225.788214 
L 950.238 234.22824 
L 951.912 222.522056 
L 955.26 153.800141 
L 956.934 128.281017 
L 958.608 110.732385 
L 960.282 118.456155 
L 961.956 178.815715 
L 963.63 216.884435 
L 965.304 240.618897 
L 966.978 251.052176 
L 968.652 237.558317 
L 970.326 203.594536 
L 970.326 203.594536 
" clip-path="url(#pec8b01b436)" style="fill: none; stroke: #1f77b4; stroke-width: 1.5; stroke-linecap: square"/>
   </g>
   <g id="line2d_16">
    <path d="M 135 136.439411 
L 138.348 196.837366 
L 140.022 213.268003 
L 141.696 221.22115 
L 143.37 225.489759 
L 145.044 233.690739 
L 146.718 235.333305 
L 148.392 217.348972 
L 150.066 190.653723 
L 151.74 160.087087 
L 153.414 133.499719 
L 155.088 119.956715 
L 156.762 120.326141 
L 158.436 130.579178 
L 160.11 142.932333 
L 161.784 136.881392 
L 163.458 133.410152 
L 166.806 123.360048 
L 168.48 133.484939 
L 170.154 119.36702 
L 171.828 94.818324 
L 175.176 140.401808 
L 178.524 193.284553 
L 180.198 212.088381 
L 181.872 221.676332 
L 183.546 227.695852 
L 185.22 235.86146 
L 186.894 237.252801 
L 188.568 226.992048 
L 190.242 211.706592 
L 191.916 198.041856 
L 193.59 179.030448 
L 195.264 155.942255 
L 196.938 149.216048 
L 198.612 154.518796 
L 200.286 168.277841 
L 201.96 169.436036 
L 203.634 167.610337 
L 205.308 168.973836 
L 206.982 159.974837 
L 208.656 162.979043 
L 210.33 151.342474 
L 212.004 113.860502 
L 213.678 124.486218 
L 215.352 140.465764 
L 217.026 160.610641 
L 218.7 195.203306 
L 220.374 221.222731 
L 222.048 231.302512 
L 223.722 234.039317 
L 225.396 235.655692 
L 227.07 234.449366 
L 228.744 222.699827 
L 230.418 190.178463 
L 232.092 154.931448 
L 233.766 131.360325 
L 235.44 115.599376 
L 237.114 114.071941 
L 238.788 125.591612 
L 240.462 145.995848 
L 242.136 157.996311 
L 243.81 197.906226 
L 245.484 177.935512 
L 247.158 155.887455 
L 248.832 144.415937 
L 250.506 147.428324 
L 252.18 105.814581 
L 253.854 132.258045 
L 258.876 217.229052 
L 260.55 228.642818 
L 262.224 229.946892 
L 263.898 223.240207 
L 265.572 230.936759 
L 267.246 224.668639 
L 268.92 210.874967 
L 270.594 182.18274 
L 272.268 150.032753 
L 273.942 131.990691 
L 275.616 107.102038 
L 277.29 113.790224 
L 278.964 142.093875 
L 280.638 173.905347 
L 282.312 183.114948 
L 283.986 181.443564 
L 285.66 166.504339 
L 287.334 173.569434 
L 289.008 152.197107 
L 290.682 135.926083 
L 292.356 123.94635 
L 294.03 189.299335 
L 295.704 161.895634 
L 297.378 178.782011 
L 299.052 194.296011 
L 300.726 201.719282 
L 302.4 215.23398 
L 304.074 223.021052 
L 305.748 231.7926 
L 307.422 224.07225 
L 309.096 211.532012 
L 310.77 185.629252 
L 312.444 151.559816 
L 314.118 123.105568 
L 315.792 109.740955 
L 317.466 129.019207 
L 319.14 180.451536 
L 320.814 213.538426 
L 322.488 234.806893 
L 324.162 180.949758 
L 325.836 208.421924 
L 327.51 147.776879 
L 329.184 143.484147 
L 330.858 138.219094 
L 332.532 123.539043 
L 334.206 145.787012 
L 335.88 161.156458 
L 339.228 201.48623 
L 340.902 205.010225 
L 342.576 212.449207 
L 344.25 219.33354 
L 345.924 220.522319 
L 347.598 216.282993 
L 349.272 207.079992 
L 350.946 179.726815 
L 352.62 147.050532 
L 354.294 124.109867 
L 355.968 113.79794 
L 357.642 132.324466 
L 359.316 149.488748 
L 360.99 168.880829 
L 362.664 167.214697 
L 364.338 206.671755 
L 366.012 189.303471 
L 367.686 203.324571 
L 369.36 163.006792 
L 371.034 203.582072 
L 372.708 150.10503 
L 374.382 149.192947 
L 376.056 173.081577 
L 377.73 191.89312 
L 379.404 217.232353 
L 381.078 185.124523 
L 382.752 208.735201 
L 384.426 211.584488 
L 386.1 225.217385 
L 387.774 218.710193 
L 389.448 206.978665 
L 392.796 142.205614 
L 394.47 115.589196 
L 396.144 98.332326 
L 397.818 129.985997 
L 399.492 144.3055 
L 401.166 173.687075 
L 402.84 182.116041 
L 404.514 188.419231 
L 406.188 167.705576 
L 407.862 167.406243 
L 409.536 167.479263 
L 411.21 155.499623 
L 412.884 135.54764 
L 414.558 142.782481 
L 416.232 164.8733 
L 419.58 200.586558 
L 421.254 199.782217 
L 424.602 221.127074 
L 426.276 224.835596 
L 427.95 218.261844 
L 429.624 209.690045 
L 431.298 186.00472 
L 432.972 151.510825 
L 434.646 123.090834 
L 436.32 117.463188 
L 437.994 142.616686 
L 439.668 172.655446 
L 441.342 208.24251 
L 443.016 176.538129 
L 444.69 179.281302 
L 446.364 187.089058 
L 448.038 187.126335 
L 449.712 156.566252 
L 451.386 153.271266 
L 453.06 124.813393 
L 454.734 154.154995 
L 456.408 171.818708 
L 458.082 191.209349 
L 459.756 197.834507 
L 461.43 195.738991 
L 463.104 203.310256 
L 464.778 211.405074 
L 466.452 216.222894 
L 468.126 214.316366 
L 469.8 218.558435 
L 471.474 201.464431 
L 473.148 180.574894 
L 474.822 162.822033 
L 476.496 131.323699 
L 478.17 125.426142 
L 479.844 136.664933 
L 481.518 155.131825 
L 483.192 171.30617 
L 484.866 167.075442 
L 486.54 153.962056 
L 488.214 176.329386 
L 489.888 180.766347 
L 491.562 142.932473 
L 493.236 117.900103 
L 494.91 124.795126 
L 496.584 146.773463 
L 499.932 197.188153 
L 503.28 220.582837 
L 506.628 234.340393 
L 508.302 231.713979 
L 509.976 218.127888 
L 511.65 186.843178 
L 513.324 151.288557 
L 514.998 147.754522 
L 516.672 149.594165 
L 518.346 175.186157 
L 520.02 197.035744 
L 521.694 217.227937 
L 525.042 191.037465 
L 526.716 157.644316 
L 528.39 173.403685 
L 530.064 211.690045 
L 531.738 170.5656 
L 533.412 143.011907 
L 535.086 149.027617 
L 536.76 170.491557 
L 538.434 180.216253 
L 541.782 216.145458 
L 543.456 211.578538 
L 545.13 222.119335 
L 546.804 218.794601 
L 548.478 216.011223 
L 550.152 207.03379 
L 551.826 189.043042 
L 553.5 148.8106 
L 555.174 125.140567 
L 556.848 140.015975 
L 558.522 165.051087 
L 560.196 181.17607 
L 561.87 205.292639 
L 563.544 186.493367 
L 565.218 190.661207 
L 566.892 165.580916 
L 568.566 189.106349 
L 570.24 174.128406 
L 571.914 149.09427 
L 573.588 143.213539 
L 575.262 164.973326 
L 576.936 142.004215 
L 578.61 149.486098 
L 580.284 168.709549 
L 581.958 192.421136 
L 583.632 210.205232 
L 585.306 216.859953 
L 586.98 216.109157 
L 588.654 211.37212 
L 590.328 205.521136 
L 592.002 185.535316 
L 593.676 151.621541 
L 597.024 111.226651 
L 598.698 108.787599 
L 602.046 131.530164 
L 603.72 131.035428 
L 605.394 127.562794 
L 607.068 121.921901 
L 608.742 111.698519 
L 610.416 123.72924 
L 612.09 125.013119 
L 613.764 88.463355 
L 615.438 99.179801 
L 617.112 121.045516 
L 618.786 152.519494 
L 620.46 179.20117 
L 622.134 197.062284 
L 623.808 208.902623 
L 625.482 217.017846 
L 627.156 223.966229 
L 628.83 220.830112 
L 630.504 207.245183 
L 632.178 182.576335 
L 633.852 151.151486 
L 635.526 129.309058 
L 637.2 112.493796 
L 638.874 109.820902 
L 640.548 118.904867 
L 642.222 127.340293 
L 643.896 121.318076 
L 645.57 117.35977 
L 647.244 109.956113 
L 648.918 114.792339 
L 650.592 125.143496 
L 652.266 116.08528 
L 653.94 81.179896 
L 657.288 129.797473 
L 658.962 160.076303 
L 660.636 185.499386 
L 662.31 202.59274 
L 663.984 214.383577 
L 665.658 224.235954 
L 667.332 231.33133 
L 669.006 232.562105 
L 670.68 223.703243 
L 672.354 208.740778 
L 674.028 191.41019 
L 675.702 172.668414 
L 677.376 156.690773 
L 679.05 152.413984 
L 680.724 159.642317 
L 682.398 172.743386 
L 684.072 172.369732 
L 685.746 174.34677 
L 687.42 175.930771 
L 689.094 180.573639 
L 690.768 204.934509 
L 692.442 207.817727 
L 694.116 160.727167 
L 695.79 196.169259 
L 697.464 220.224055 
L 699.138 241.498937 
L 702.486 289.250609 
L 704.16 308.561675 
L 705.834 320.988107 
L 707.508 330.678616 
L 709.182 334.634134 
L 710.856 340.679893 
L 712.53 359.057403 
L 714.204 365.030002 
L 715.878 355.170909 
L 717.552 351.651492 
L 719.226 352.633388 
L 720.9 329.952176 
L 722.574 304.019693 
L 725.922 277.395559 
L 727.596 253.56252 
L 729.27 222.157542 
L 730.944 203.058937 
L 732.618 179.19034 
L 734.292 147.282143 
L 737.64 187.616935 
L 739.314 201.001627 
L 740.988 218.332541 
L 742.662 232.758763 
L 744.336 242.39496 
L 746.01 250.640328 
L 747.684 252.261886 
L 749.358 248.857368 
L 751.032 246.243132 
L 752.706 226.490433 
L 754.38 200.252737 
L 756.054 186.157919 
L 757.728 156.071656 
L 759.402 145.906792 
L 761.076 151.235848 
L 762.75 160.913553 
L 764.424 162.547288 
L 766.098 168.45335 
L 767.772 160.621052 
L 769.446 150.787778 
L 771.12 163.905488 
L 772.794 151.628002 
L 774.468 105.173804 
L 776.142 127.416195 
L 777.816 137.361161 
L 779.49 162.930471 
L 781.164 193.374586 
L 782.838 214.230238 
L 784.512 224.1198 
L 786.186 229.177132 
L 787.86 233.792252 
L 789.534 236.994161 
L 791.208 225.586113 
L 794.556 164.805625 
L 796.23 140.931822 
L 797.904 123.880301 
L 799.578 118.808606 
L 801.252 128.146958 
L 802.926 141.427627 
L 804.6 137.792498 
L 806.274 134.548826 
L 807.948 121.324723 
L 809.622 121.862453 
L 811.296 131.572368 
L 812.97 121.724128 
L 814.644 76.875962 
L 816.318 113.806213 
L 817.992 128.562956 
L 821.34 194.684539 
L 823.014 214.80571 
L 824.688 223.606378 
L 826.362 228.654136 
L 828.036 235.043663 
L 829.71 235.998298 
L 831.384 221.11392 
L 833.058 191.462527 
L 834.732 158.099079 
L 836.406 131.998453 
L 838.08 118.716761 
L 839.754 114.052094 
L 841.428 125.555915 
L 843.102 137.897172 
L 846.45 127.495769 
L 848.124 115.973728 
L 849.798 115.234738 
L 851.472 119.215587 
L 853.146 103.177244 
L 854.82 71.620391 
L 856.494 109.678114 
L 858.168 130.575273 
L 859.842 162.865817 
L 861.516 192.47575 
L 863.19 210.593807 
L 864.864 220.34086 
L 866.538 225.504819 
L 868.212 234.109154 
L 869.886 233.821836 
L 871.56 217.481905 
L 874.908 156.791217 
L 876.582 132.043539 
L 878.256 115.540392 
L 879.93 115.57739 
L 881.604 126.171639 
L 883.278 135.469228 
L 884.952 129.704837 
L 886.626 129.407503 
L 888.3 118.252795 
L 889.974 116.224721 
L 891.648 109.258444 
L 893.322 99.44511 
L 894.996 66.96 
L 896.67 103.867662 
L 898.344 127.575018 
L 900.018 161.466017 
L 901.692 192.453997 
L 903.366 211.366263 
L 905.04 221.247505 
L 906.714 226.826997 
L 908.388 233.448948 
L 910.062 235.8025 
L 911.736 215.568173 
L 913.41 187.617028 
L 915.084 156.509454 
L 916.758 128.102198 
L 918.432 115.353402 
L 920.106 117.296696 
L 921.78 136.143331 
L 923.454 163.425997 
L 925.128 155.65259 
L 926.802 161.744294 
L 928.476 147.312913 
L 930.15 181.059823 
L 931.824 146.778158 
L 933.498 119.917626 
L 935.172 140.652801 
L 936.846 183.068654 
L 938.52 193.451882 
L 940.194 220.080199 
L 941.868 206.747146 
L 943.542 198.964536 
L 945.216 211.828788 
L 946.89 218.68342 
L 948.564 234.25136 
L 950.238 231.630338 
L 951.912 220.924746 
L 953.586 189.389878 
L 955.26 153.783014 
L 956.934 131.107798 
L 958.608 111.137688 
L 960.282 105.019675 
L 961.956 124.037358 
L 965.304 205.348323 
L 966.978 233.806149 
L 968.652 229.789719 
L 970.326 230.035879 
L 970.326 230.035879 
" clip-path="url(#pec8b01b436)" style="fill: none; stroke: #ff7f0e; stroke-width: 1.5; stroke-linecap: square"/>
   </g>
   <g id="patch_3">
    <path d="M 135 384.48 
L 135 51.84 
" style="fill: none; stroke: #000000; stroke-width: 0.8; stroke-linejoin: miter; stroke-linecap: square"/>
   </g>
   <g id="patch_4">
    <path d="M 972 384.48 
L 972 51.84 
" style="fill: none; stroke: #000000; stroke-width: 0.8; stroke-linejoin: miter; stroke-linecap: square"/>
   </g>
   <g id="patch_5">
    <path d="M 135 384.48 
L 972 384.48 
" style="fill: none; stroke: #000000; stroke-width: 0.8; stroke-linejoin: miter; stroke-linecap: square"/>
   </g>
   <g id="patch_6">
    <path d="M 135 51.84 
L 972 51.84 
" style="fill: none; stroke: #000000; stroke-width: 0.8; stroke-linejoin: miter; stroke-linecap: square"/>
   </g>
  </g>
 </g>
 <defs>
  <clipPath id="pec8b01b436">
   <rect x="135" y="51.84" width="837" height="332.64"/>
  </clipPath>
 </defs>
</svg>
