<?xml version="1.0" encoding="utf-8" standalone="no"?>
<!DOCTYPE svg PUBLIC "-//W3C//DTD SVG 1.1//EN"
  "http://www.w3.org/Graphics/SVG/1.1/DTD/svg11.dtd">
<svg xmlns:xlink="http://www.w3.org/1999/xlink" width="1080pt" height="432pt" viewBox="0 0 1080 432" xmlns="http://www.w3.org/2000/svg" version="1.1">
 <metadata>
  <rdf:RDF xmlns:dc="http://purl.org/dc/elements/1.1/" xmlns:cc="http://creativecommons.org/ns#" xmlns:rdf="http://www.w3.org/1999/02/22-rdf-syntax-ns#">
   <cc:Work>
    <dc:type rdf:resource="http://purl.org/dc/dcmitype/StillImage"/>
    <dc:date>2024-02-25T12:39:52.138752</dc:date>
    <dc:format>image/svg+xml</dc:format>
    <dc:creator>
     <cc:Agent>
      <dc:title>Matplotlib v3.7.1, https://matplotlib.org/</dc:title>
     </cc:Agent>
    </dc:creator>
   </cc:Work>
  </rdf:RDF>
 </metadata>
 <defs>
  <style type="text/css">*{stroke-linejoin: round; stroke-linecap: butt}</style>
 </defs>
 <g id="figure_1">
  <g id="patch_1">
   <path d="M 0 432 
L 1080 432 
L 1080 0 
L 0 0 
z
" style="fill: #ffffff"/>
  </g>
  <g id="axes_1">
   <g id="patch_2">
    <path d="M 135 384.48 
L 972 384.48 
L 972 51.84 
L 135 51.84 
z
" style="fill: #ffffff"/>
   </g>
   <g id="matplotlib.axis_1">
    <g id="xtick_1">
     <g id="line2d_1">
      <defs>
       <path id="m65da7fc6ce" d="M 0 0 
L 0 3.5 
" style="stroke: #000000; stroke-width: 0.8"/>
      </defs>
      <g>
       <use xlink:href="#m65da7fc6ce" x="135" y="384.48" style="stroke: #000000; stroke-width: 0.8"/>
      </g>
     </g>
     <g id="text_1">
      <!-- 0 -->
      <g transform="translate(131.81875 399.078438) scale(0.1 -0.1)">
       <defs>
        <path id="DejaVuSans-30" d="M 2034 4250 
Q 1547 4250 1301 3770 
Q 1056 3291 1056 2328 
Q 1056 1369 1301 889 
Q 1547 409 2034 409 
Q 2525 409 2770 889 
Q 3016 1369 3016 2328 
Q 3016 3291 2770 3770 
Q 2525 4250 2034 4250 
z
M 2034 4750 
Q 2819 4750 3233 4129 
Q 3647 3509 3647 2328 
Q 3647 1150 3233 529 
Q 2819 -91 2034 -91 
Q 1250 -91 836 529 
Q 422 1150 422 2328 
Q 422 3509 836 4129 
Q 1250 4750 2034 4750 
z
" transform="scale(0.015625)"/>
       </defs>
       <use xlink:href="#DejaVuSans-30"/>
      </g>
     </g>
    </g>
    <g id="xtick_2">
     <g id="line2d_2">
      <g>
       <use xlink:href="#m65da7fc6ce" x="302.4" y="384.48" style="stroke: #000000; stroke-width: 0.8"/>
      </g>
     </g>
     <g id="text_2">
      <!-- 100 -->
      <g transform="translate(292.85625 399.078438) scale(0.1 -0.1)">
       <defs>
        <path id="DejaVuSans-31" d="M 794 531 
L 1825 531 
L 1825 4091 
L 703 3866 
L 703 4441 
L 1819 4666 
L 2450 4666 
L 2450 531 
L 3481 531 
L 3481 0 
L 794 0 
L 794 531 
z
" transform="scale(0.015625)"/>
       </defs>
       <use xlink:href="#DejaVuSans-31"/>
       <use xlink:href="#DejaVuSans-30" x="63.623047"/>
       <use xlink:href="#DejaVuSans-30" x="127.246094"/>
      </g>
     </g>
    </g>
    <g id="xtick_3">
     <g id="line2d_3">
      <g>
       <use xlink:href="#m65da7fc6ce" x="469.8" y="384.48" style="stroke: #000000; stroke-width: 0.8"/>
      </g>
     </g>
     <g id="text_3">
      <!-- 200 -->
      <g transform="translate(460.25625 399.078438) scale(0.1 -0.1)">
       <defs>
        <path id="DejaVuSans-32" d="M 1228 531 
L 3431 531 
L 3431 0 
L 469 0 
L 469 531 
Q 828 903 1448 1529 
Q 2069 2156 2228 2338 
Q 2531 2678 2651 2914 
Q 2772 3150 2772 3378 
Q 2772 3750 2511 3984 
Q 2250 4219 1831 4219 
Q 1534 4219 1204 4116 
Q 875 4013 500 3803 
L 500 4441 
Q 881 4594 1212 4672 
Q 1544 4750 1819 4750 
Q 2544 4750 2975 4387 
Q 3406 4025 3406 3419 
Q 3406 3131 3298 2873 
Q 3191 2616 2906 2266 
Q 2828 2175 2409 1742 
Q 1991 1309 1228 531 
z
" transform="scale(0.015625)"/>
       </defs>
       <use xlink:href="#DejaVuSans-32"/>
       <use xlink:href="#DejaVuSans-30" x="63.623047"/>
       <use xlink:href="#DejaVuSans-30" x="127.246094"/>
      </g>
     </g>
    </g>
    <g id="xtick_4">
     <g id="line2d_4">
      <g>
       <use xlink:href="#m65da7fc6ce" x="637.2" y="384.48" style="stroke: #000000; stroke-width: 0.8"/>
      </g>
     </g>
     <g id="text_4">
      <!-- 300 -->
      <g transform="translate(627.65625 399.078438) scale(0.1 -0.1)">
       <defs>
        <path id="DejaVuSans-33" d="M 2597 2516 
Q 3050 2419 3304 2112 
Q 3559 1806 3559 1356 
Q 3559 666 3084 287 
Q 2609 -91 1734 -91 
Q 1441 -91 1130 -33 
Q 819 25 488 141 
L 488 750 
Q 750 597 1062 519 
Q 1375 441 1716 441 
Q 2309 441 2620 675 
Q 2931 909 2931 1356 
Q 2931 1769 2642 2001 
Q 2353 2234 1838 2234 
L 1294 2234 
L 1294 2753 
L 1863 2753 
Q 2328 2753 2575 2939 
Q 2822 3125 2822 3475 
Q 2822 3834 2567 4026 
Q 2313 4219 1838 4219 
Q 1578 4219 1281 4162 
Q 984 4106 628 3988 
L 628 4550 
Q 988 4650 1302 4700 
Q 1616 4750 1894 4750 
Q 2613 4750 3031 4423 
Q 3450 4097 3450 3541 
Q 3450 3153 3228 2886 
Q 3006 2619 2597 2516 
z
" transform="scale(0.015625)"/>
       </defs>
       <use xlink:href="#DejaVuSans-33"/>
       <use xlink:href="#DejaVuSans-30" x="63.623047"/>
       <use xlink:href="#DejaVuSans-30" x="127.246094"/>
      </g>
     </g>
    </g>
    <g id="xtick_5">
     <g id="line2d_5">
      <g>
       <use xlink:href="#m65da7fc6ce" x="804.6" y="384.48" style="stroke: #000000; stroke-width: 0.8"/>
      </g>
     </g>
     <g id="text_5">
      <!-- 400 -->
      <g transform="translate(795.05625 399.078438) scale(0.1 -0.1)">
       <defs>
        <path id="DejaVuSans-34" d="M 2419 4116 
L 825 1625 
L 2419 1625 
L 2419 4116 
z
M 2253 4666 
L 3047 4666 
L 3047 1625 
L 3713 1625 
L 3713 1100 
L 3047 1100 
L 3047 0 
L 2419 0 
L 2419 1100 
L 313 1100 
L 313 1709 
L 2253 4666 
z
" transform="scale(0.015625)"/>
       </defs>
       <use xlink:href="#DejaVuSans-34"/>
       <use xlink:href="#DejaVuSans-30" x="63.623047"/>
       <use xlink:href="#DejaVuSans-30" x="127.246094"/>
      </g>
     </g>
    </g>
    <g id="xtick_6">
     <g id="line2d_6">
      <g>
       <use xlink:href="#m65da7fc6ce" x="972" y="384.48" style="stroke: #000000; stroke-width: 0.8"/>
      </g>
     </g>
     <g id="text_6">
      <!-- 500 -->
      <g transform="translate(962.45625 399.078438) scale(0.1 -0.1)">
       <defs>
        <path id="DejaVuSans-35" d="M 691 4666 
L 3169 4666 
L 3169 4134 
L 1269 4134 
L 1269 2991 
Q 1406 3038 1543 3061 
Q 1681 3084 1819 3084 
Q 2600 3084 3056 2656 
Q 3513 2228 3513 1497 
Q 3513 744 3044 326 
Q 2575 -91 1722 -91 
Q 1428 -91 1123 -41 
Q 819 9 494 109 
L 494 744 
Q 775 591 1075 516 
Q 1375 441 1709 441 
Q 2250 441 2565 725 
Q 2881 1009 2881 1497 
Q 2881 1984 2565 2268 
Q 2250 2553 1709 2553 
Q 1456 2553 1204 2497 
Q 953 2441 691 2322 
L 691 4666 
z
" transform="scale(0.015625)"/>
       </defs>
       <use xlink:href="#DejaVuSans-35"/>
       <use xlink:href="#DejaVuSans-30" x="63.623047"/>
       <use xlink:href="#DejaVuSans-30" x="127.246094"/>
      </g>
     </g>
    </g>
   </g>
   <g id="matplotlib.axis_2">
    <g id="ytick_1">
     <g id="line2d_7">
      <defs>
       <path id="m6a7dedec79" d="M 0 0 
L -3.5 0 
" style="stroke: #000000; stroke-width: 0.8"/>
      </defs>
      <g>
       <use xlink:href="#m6a7dedec79" x="135" y="349.305437" style="stroke: #000000; stroke-width: 0.8"/>
      </g>
     </g>
     <g id="text_7">
      <!-- 350 -->
      <g transform="translate(108.9125 353.104656) scale(0.1 -0.1)">
       <use xlink:href="#DejaVuSans-33"/>
       <use xlink:href="#DejaVuSans-35" x="63.623047"/>
       <use xlink:href="#DejaVuSans-30" x="127.246094"/>
      </g>
     </g>
    </g>
    <g id="ytick_2">
     <g id="line2d_8">
      <g>
       <use xlink:href="#m6a7dedec79" x="135" y="308.589423" style="stroke: #000000; stroke-width: 0.8"/>
      </g>
     </g>
     <g id="text_8">
      <!-- 400 -->
      <g transform="translate(108.9125 312.388642) scale(0.1 -0.1)">
       <use xlink:href="#DejaVuSans-34"/>
       <use xlink:href="#DejaVuSans-30" x="63.623047"/>
       <use xlink:href="#DejaVuSans-30" x="127.246094"/>
      </g>
     </g>
    </g>
    <g id="ytick_3">
     <g id="line2d_9">
      <g>
       <use xlink:href="#m6a7dedec79" x="135" y="267.873409" style="stroke: #000000; stroke-width: 0.8"/>
      </g>
     </g>
     <g id="text_9">
      <!-- 450 -->
      <g transform="translate(108.9125 271.672627) scale(0.1 -0.1)">
       <use xlink:href="#DejaVuSans-34"/>
       <use xlink:href="#DejaVuSans-35" x="63.623047"/>
       <use xlink:href="#DejaVuSans-30" x="127.246094"/>
      </g>
     </g>
    </g>
    <g id="ytick_4">
     <g id="line2d_10">
      <g>
       <use xlink:href="#m6a7dedec79" x="135" y="227.157394" style="stroke: #000000; stroke-width: 0.8"/>
      </g>
     </g>
     <g id="text_10">
      <!-- 500 -->
      <g transform="translate(108.9125 230.956613) scale(0.1 -0.1)">
       <use xlink:href="#DejaVuSans-35"/>
       <use xlink:href="#DejaVuSans-30" x="63.623047"/>
       <use xlink:href="#DejaVuSans-30" x="127.246094"/>
      </g>
     </g>
    </g>
    <g id="ytick_5">
     <g id="line2d_11">
      <g>
       <use xlink:href="#m6a7dedec79" x="135" y="186.44138" style="stroke: #000000; stroke-width: 0.8"/>
      </g>
     </g>
     <g id="text_11">
      <!-- 550 -->
      <g transform="translate(108.9125 190.240599) scale(0.1 -0.1)">
       <use xlink:href="#DejaVuSans-35"/>
       <use xlink:href="#DejaVuSans-35" x="63.623047"/>
       <use xlink:href="#DejaVuSans-30" x="127.246094"/>
      </g>
     </g>
    </g>
    <g id="ytick_6">
     <g id="line2d_12">
      <g>
       <use xlink:href="#m6a7dedec79" x="135" y="145.725366" style="stroke: #000000; stroke-width: 0.8"/>
      </g>
     </g>
     <g id="text_12">
      <!-- 600 -->
      <g transform="translate(108.9125 149.524585) scale(0.1 -0.1)">
       <defs>
        <path id="DejaVuSans-36" d="M 2113 2584 
Q 1688 2584 1439 2293 
Q 1191 2003 1191 1497 
Q 1191 994 1439 701 
Q 1688 409 2113 409 
Q 2538 409 2786 701 
Q 3034 994 3034 1497 
Q 3034 2003 2786 2293 
Q 2538 2584 2113 2584 
z
M 3366 4563 
L 3366 3988 
Q 3128 4100 2886 4159 
Q 2644 4219 2406 4219 
Q 1781 4219 1451 3797 
Q 1122 3375 1075 2522 
Q 1259 2794 1537 2939 
Q 1816 3084 2150 3084 
Q 2853 3084 3261 2657 
Q 3669 2231 3669 1497 
Q 3669 778 3244 343 
Q 2819 -91 2113 -91 
Q 1303 -91 875 529 
Q 447 1150 447 2328 
Q 447 3434 972 4092 
Q 1497 4750 2381 4750 
Q 2619 4750 2861 4703 
Q 3103 4656 3366 4563 
z
" transform="scale(0.015625)"/>
       </defs>
       <use xlink:href="#DejaVuSans-36"/>
       <use xlink:href="#DejaVuSans-30" x="63.623047"/>
       <use xlink:href="#DejaVuSans-30" x="127.246094"/>
      </g>
     </g>
    </g>
    <g id="ytick_7">
     <g id="line2d_13">
      <g>
       <use xlink:href="#m6a7dedec79" x="135" y="105.009351" style="stroke: #000000; stroke-width: 0.8"/>
      </g>
     </g>
     <g id="text_13">
      <!-- 650 -->
      <g transform="translate(108.9125 108.80857) scale(0.1 -0.1)">
       <use xlink:href="#DejaVuSans-36"/>
       <use xlink:href="#DejaVuSans-35" x="63.623047"/>
       <use xlink:href="#DejaVuSans-30" x="127.246094"/>
      </g>
     </g>
    </g>
    <g id="ytick_8">
     <g id="line2d_14">
      <g>
       <use xlink:href="#m6a7dedec79" x="135" y="64.293337" style="stroke: #000000; stroke-width: 0.8"/>
      </g>
     </g>
     <g id="text_14">
      <!-- 700 -->
      <g transform="translate(108.9125 68.092556) scale(0.1 -0.1)">
       <defs>
        <path id="DejaVuSans-37" d="M 525 4666 
L 3525 4666 
L 3525 4397 
L 1831 0 
L 1172 0 
L 2766 4134 
L 525 4134 
L 525 4666 
z
" transform="scale(0.015625)"/>
       </defs>
       <use xlink:href="#DejaVuSans-37"/>
       <use xlink:href="#DejaVuSans-30" x="63.623047"/>
       <use xlink:href="#DejaVuSans-30" x="127.246094"/>
      </g>
     </g>
    </g>
   </g>
   <g id="line2d_15">
    <path d="M 135 125.095068 
L 136.674 157.468616 
L 138.348 184.366428 
L 140.022 201.022477 
L 141.696 211.28588 
L 143.37 218.836094 
L 145.044 222.749586 
L 146.718 227.769442 
L 148.392 215.095972 
L 150.066 182.078418 
L 151.74 146.544 
L 153.414 121.109459 
L 155.088 102.459206 
L 156.762 95.760613 
L 158.436 122.359353 
L 160.11 125.726645 
L 161.784 124.684507 
L 163.458 125.521559 
L 165.132 112.64571 
L 166.806 118.935886 
L 168.48 121.903155 
L 170.154 99.255821 
L 171.828 90.030855 
L 173.502 106.747431 
L 175.176 127.343604 
L 178.524 182.117685 
L 180.198 200.5012 
L 181.872 212.623719 
L 183.546 220.243922 
L 185.22 224.797809 
L 186.894 235.991032 
L 188.568 233.453851 
L 190.242 216.674378 
L 191.916 194.934401 
L 193.59 167.428143 
L 195.264 147.272865 
L 196.938 140.406341 
L 198.612 153.798544 
L 200.286 157.41693 
L 201.96 162.156494 
L 203.634 167.451423 
L 205.308 156.395245 
L 206.982 153.54619 
L 208.656 151.977754 
L 210.33 123.351703 
L 212.004 106.309931 
L 213.678 116.015318 
L 215.352 133.792306 
L 217.026 166.182484 
L 218.7 194.923821 
L 220.374 209.260255 
L 222.048 216.901415 
L 223.722 222.182619 
L 225.396 225.040182 
L 227.07 229.275086 
L 228.744 212.206194 
L 230.418 174.555246 
L 232.092 140.729385 
L 233.766 114.886039 
L 235.44 95.454439 
L 237.114 89.464181 
L 238.788 130.142621 
L 240.462 149.326902 
L 242.136 186.424805 
L 243.81 187.813865 
L 245.484 156.339356 
L 247.158 136.286656 
L 248.832 148.858273 
L 250.506 123.712126 
L 252.18 117.976845 
L 253.854 134.894952 
L 257.202 188.104597 
L 258.876 206.246679 
L 260.55 213.049419 
L 262.224 208.878041 
L 263.898 215.032058 
L 265.572 216.686738 
L 267.246 219.244182 
L 268.92 205.81235 
L 272.268 135.06269 
L 273.942 103.294441 
L 275.616 95.446814 
L 277.29 120.227903 
L 278.964 170.020868 
L 280.638 177.432658 
L 282.312 178.569725 
L 283.986 174.679396 
L 285.66 163.759986 
L 289.008 145.52153 
L 290.682 123.820984 
L 292.356 171.159434 
L 294.03 133.954492 
L 295.704 145.510903 
L 297.378 171.940459 
L 299.052 176.550625 
L 300.726 194.827116 
L 302.4 208.681656 
L 304.074 215.55996 
L 305.748 218.006402 
L 307.422 222.459905 
L 309.096 207.908396 
L 312.444 132.966319 
L 314.118 109.050544 
L 315.792 117.526169 
L 317.466 171.673833 
L 319.14 207.617281 
L 320.814 232.699604 
L 322.488 209.09681 
L 324.162 194.585504 
L 325.836 161.626983 
L 327.51 144.914996 
L 329.184 136.81972 
L 330.858 120.599919 
L 332.532 122.12372 
L 334.206 136.555204 
L 335.88 148.419351 
L 337.554 167.724965 
L 340.902 187.098897 
L 342.576 199.875631 
L 344.25 207.484481 
L 347.598 216.756208 
L 349.272 201.979733 
L 350.946 163.745893 
L 352.62 129.043305 
L 354.294 111.903144 
L 355.968 117.165066 
L 357.642 124.686317 
L 359.316 156.251617 
L 360.99 164.560089 
L 362.664 196.290922 
L 364.338 201.055892 
L 366.012 195.921469 
L 367.686 171.984743 
L 369.36 194.236161 
L 371.034 170.174318 
L 372.708 139.145407 
L 374.382 159.380891 
L 376.056 176.56348 
L 377.73 196.678627 
L 379.404 164.033019 
L 381.078 184.182841 
L 382.752 200.716483 
L 384.426 206.162644 
L 386.1 209.915713 
L 387.774 212.118728 
L 389.448 196.564147 
L 392.796 121.058718 
L 394.47 94.731778 
L 396.144 118.711246 
L 397.818 129.067389 
L 399.492 169.294167 
L 401.166 185.558493 
L 402.84 187.411231 
L 406.188 158.100827 
L 407.862 157.679882 
L 409.536 150.266659 
L 411.21 127.441673 
L 412.884 117.035238 
L 414.558 139.641953 
L 416.232 152.235457 
L 417.906 168.056981 
L 419.58 171.821889 
L 422.928 200.741966 
L 424.602 206.424565 
L 426.276 210.99209 
L 427.95 218.474212 
L 429.624 207.242495 
L 432.972 133.073682 
L 434.646 115.124602 
L 436.32 134.068004 
L 437.994 158.704606 
L 439.668 206.901081 
L 441.342 185.960484 
L 443.016 175.078365 
L 444.69 189.6678 
L 446.364 184.451181 
L 448.038 167.274071 
L 449.712 152.102687 
L 451.386 125.3744 
L 453.06 137.194438 
L 454.734 153.23123 
L 456.408 167.184498 
L 458.082 171.858312 
L 459.756 169.923759 
L 461.43 180.867507 
L 463.104 193.951108 
L 466.452 208.337891 
L 468.126 222.176956 
L 469.8 219.382712 
L 471.474 198.430363 
L 473.148 171.340871 
L 474.822 141.906487 
L 476.496 122.105123 
L 478.17 116.755861 
L 479.844 140.961668 
L 481.518 159.84525 
L 483.192 160.692262 
L 484.866 153.841776 
L 486.54 164.136459 
L 488.214 169.764791 
L 489.888 144.377801 
L 491.562 108.134624 
L 493.236 97.668678 
L 494.91 122.18498 
L 496.584 144.710927 
L 498.258 165.718975 
L 499.932 180.611574 
L 501.606 196.972695 
L 503.28 207.644905 
L 504.954 214.89325 
L 506.628 217.848655 
L 508.302 221.32917 
L 509.976 207.528407 
L 511.65 172.881797 
L 513.324 155.757404 
L 514.998 153.356956 
L 516.672 172.073278 
L 518.346 186.468026 
L 520.02 216.3608 
L 521.694 211.616523 
L 523.368 195.281319 
L 525.042 170.155293 
L 526.716 166.60459 
L 528.39 201.233603 
L 530.064 183.299714 
L 531.738 141.319893 
L 533.412 126.111574 
L 535.086 150.046284 
L 536.76 148.754381 
L 538.434 159.654072 
L 540.108 189.02203 
L 541.782 184.102583 
L 543.456 197.317158 
L 545.13 208.175289 
L 546.804 208.98323 
L 548.478 211.034663 
L 550.152 200.671294 
L 551.826 162.079468 
L 553.5 127.788987 
L 555.174 137.284727 
L 556.848 157.610444 
L 558.522 166.450746 
L 560.196 202.059405 
L 561.87 196.158838 
L 563.544 186.049033 
L 565.218 169.90661 
L 566.892 178.702854 
L 568.566 175.649446 
L 571.914 132.975629 
L 573.588 149.558116 
L 575.262 115.317156 
L 576.936 103.19227 
L 578.61 129.851118 
L 580.284 159.350733 
L 581.958 180.390296 
L 583.632 192.772761 
L 585.306 199.124272 
L 586.98 202.677273 
L 588.654 207.045621 
L 590.328 197.800044 
L 593.676 134.873672 
L 595.35 109.908504 
L 597.024 91.939088 
L 598.698 83.413203 
L 600.372 103.638483 
L 602.046 105.542358 
L 603.72 102.797683 
L 605.394 104.395815 
L 607.068 93.389826 
L 610.416 107.712107 
L 612.09 76.859892 
L 613.764 67.492405 
L 615.438 87.619555 
L 618.786 135.236922 
L 620.46 162.580204 
L 622.134 183.663063 
L 623.808 195.845308 
L 625.482 204.3525 
L 628.83 215.322408 
L 630.504 205.402472 
L 633.852 142.111666 
L 635.526 114.597827 
L 637.2 93.135758 
L 638.874 84.298252 
L 640.548 104.694975 
L 642.222 106.376173 
L 643.896 104.997103 
L 645.57 102.407207 
L 647.244 98.383725 
L 648.918 107.614997 
L 650.592 114.963634 
L 652.266 85.357719 
L 653.94 76.135908 
L 655.614 98.325138 
L 657.288 122.60224 
L 658.962 143.535095 
L 660.636 169.111222 
L 662.31 190.357161 
L 663.984 206.076964 
L 665.658 213.416971 
L 667.332 218.659907 
L 669.006 229.840361 
L 670.68 229.775397 
L 672.354 213.224547 
L 675.702 166.990968 
L 677.376 151.651225 
L 679.05 146.22852 
L 680.724 159.583508 
L 682.398 163.304612 
L 684.072 169.747543 
L 685.746 174.50564 
L 687.42 174.460471 
L 689.094 191.956714 
L 690.768 211.523205 
L 692.442 191.103021 
L 694.116 187.367103 
L 695.79 207.443601 
L 697.464 233.08526 
L 699.138 255.358816 
L 700.812 279.791339 
L 702.486 302.470741 
L 704.16 317.473993 
L 705.834 327.516005 
L 707.508 336.067233 
L 710.856 367.909542 
L 712.53 369.36 
L 714.204 361.702786 
L 715.878 353.299138 
L 717.552 349.572533 
L 719.226 336.945942 
L 720.9 312.450467 
L 722.574 290.178877 
L 724.248 274.231461 
L 725.922 255.117742 
L 727.596 225.976191 
L 729.27 205.260376 
L 730.944 187.082656 
L 732.618 143.810105 
L 734.292 126.422605 
L 735.966 138.220263 
L 737.64 154.409922 
L 739.314 173.571915 
L 740.988 198.876028 
L 742.662 217.555171 
L 744.336 229.606922 
L 746.01 237.722581 
L 747.684 242.212628 
L 749.358 250.596535 
L 751.032 245.585984 
L 752.706 223.398208 
L 754.38 199.235731 
L 756.054 168.255383 
L 757.728 145.380741 
L 759.402 134.262171 
L 761.076 144.922171 
L 762.75 146.666411 
L 764.424 152.140355 
L 766.098 152.57188 
L 767.772 143.660887 
L 769.446 147.482044 
L 771.12 145.884124 
L 772.794 105.161962 
L 774.468 91.45636 
L 776.142 102.380592 
L 777.816 123.574134 
L 781.164 181.159417 
L 782.838 199.381692 
L 784.512 210.953193 
L 786.186 218.044821 
L 787.86 221.16139 
L 789.534 225.935053 
L 791.208 219.410663 
L 792.882 189.283059 
L 794.556 154.352206 
L 796.23 127.801864 
L 797.904 108.620174 
L 799.578 98.757567 
L 801.252 120.637561 
L 802.926 121.704409 
L 804.6 121.962438 
L 806.274 118.488515 
L 807.948 109.070582 
L 809.622 113.436958 
L 811.296 118.996293 
L 812.97 81.780424 
L 814.644 76.278463 
L 816.318 92.981066 
L 817.992 119.320646 
L 819.666 155.495025 
L 821.34 184.423408 
L 823.014 201.041544 
L 824.688 211.086808 
L 826.362 218.145925 
L 828.036 221.354821 
L 829.71 226.06248 
L 831.384 215.469183 
L 833.058 182.424305 
L 834.732 147.034127 
L 836.406 120.120616 
L 838.08 97.481175 
L 839.754 89.735191 
L 841.428 114.549038 
L 843.102 117.596272 
L 844.776 116.187421 
L 846.45 111.866429 
L 848.124 101.311515 
L 849.798 102.455368 
L 851.472 102.707375 
L 853.146 70.96258 
L 854.82 72.908654 
L 856.494 91.090027 
L 858.168 115.661631 
L 859.842 151.127242 
L 861.516 180.399459 
L 863.19 198.959665 
L 864.864 209.734014 
L 866.538 219.077743 
L 868.212 222.312545 
L 869.886 226.607052 
L 871.56 214.396296 
L 874.908 145.815707 
L 876.582 117.252622 
L 878.256 95.785566 
L 879.93 89.427158 
L 881.604 113.218211 
L 883.278 117.617569 
L 884.952 120.391757 
L 886.626 115.468812 
L 888.3 102.655034 
L 889.974 95.397206 
L 891.648 97.514458 
L 893.322 66.96 
L 894.996 68.762868 
L 896.67 91.222928 
L 898.344 118.513463 
L 900.018 152.756868 
L 901.692 181.078984 
L 903.366 201.115464 
L 905.04 212.903098 
L 906.714 218.667238 
L 910.062 226.124949 
L 911.736 216.408914 
L 915.084 143.229774 
L 916.758 115.49273 
L 918.432 98.703407 
L 920.106 105.596575 
L 921.78 156.675839 
L 923.454 154.218936 
L 925.128 157.38078 
L 926.802 156.521791 
L 928.476 162.002165 
L 930.15 158.70566 
L 931.824 146.039384 
L 933.498 143.160577 
L 935.172 171.743922 
L 936.846 180.478407 
L 938.52 201.547734 
L 941.868 176.679196 
L 943.542 195.179432 
L 945.216 207.841572 
L 946.89 215.836191 
L 950.238 224.861258 
L 951.912 212.343631 
L 955.26 138.858091 
L 956.934 111.570048 
L 958.608 92.80499 
L 960.282 101.064152 
L 961.956 165.60768 
L 963.63 206.315225 
L 965.304 231.694898 
L 966.978 242.851384 
L 968.652 228.422166 
L 970.326 192.104105 
L 970.326 192.104105 
" clip-path="url(#pf3aff16054)" style="fill: none; stroke: #1f77b4; stroke-width: 1.5; stroke-linecap: square"/>
   </g>
   <g id="line2d_16">
    <path d="M 135 128.600385 
L 136.674 163.235986 
L 138.348 192.517271 
L 140.022 207.134032 
L 141.696 216.607463 
L 143.37 221.136524 
L 145.044 226.434476 
L 146.718 230.693405 
L 148.392 216.144637 
L 150.066 179.702015 
L 151.74 149.782703 
L 153.414 122.262315 
L 155.088 110.548807 
L 156.762 102.941642 
L 158.436 110.767695 
L 160.11 128.23408 
L 161.784 128.366586 
L 163.458 124.176495 
L 165.132 116.68941 
L 166.806 118.48838 
L 168.48 130.158449 
L 170.154 104.282756 
L 171.828 86.078542 
L 173.502 106.263138 
L 175.176 132.695496 
L 178.524 190.2346 
L 180.198 206.473937 
L 181.872 217.397579 
L 183.546 223.639724 
L 185.22 228.630989 
L 186.894 234.616521 
L 188.568 229.540315 
L 190.242 204.789332 
L 191.916 192.847741 
L 195.264 151.398073 
L 196.938 144.692903 
L 198.612 148.160175 
L 200.286 160.540488 
L 201.96 162.280809 
L 203.634 162.657104 
L 205.308 162.89483 
L 206.982 156.933254 
L 208.656 157.047917 
L 212.004 110.743838 
L 213.678 123.485983 
L 215.352 141.743825 
L 217.026 166.919015 
L 218.7 202.916753 
L 220.374 220.781004 
L 222.048 225.316028 
L 223.722 227.849596 
L 225.396 231.618984 
L 227.07 232.619215 
L 228.744 217.21875 
L 230.418 175.457549 
L 232.092 141.428315 
L 233.766 117.794737 
L 235.44 105.517556 
L 237.114 95.631 
L 238.788 124.404876 
L 240.462 134.26678 
L 242.136 148.325535 
L 243.81 179.775226 
L 245.484 164.616413 
L 247.158 146.054394 
L 248.832 120.971948 
L 250.506 143.946227 
L 252.18 92.779388 
L 253.854 132.239578 
L 255.528 154.031791 
L 257.202 193.329802 
L 258.876 218.4829 
L 260.55 227.391442 
L 262.224 226.804559 
L 263.898 218.638791 
L 265.572 221.854173 
L 267.246 218.674278 
L 268.92 205.406434 
L 272.268 138.582369 
L 273.942 114.693222 
L 275.616 95.397151 
L 277.29 101.691086 
L 278.964 134.901377 
L 280.638 161.904663 
L 282.312 166.251615 
L 283.986 163.573612 
L 285.66 151.115466 
L 287.334 148.220912 
L 289.008 140.839643 
L 290.682 112.436495 
L 292.356 99.468753 
L 294.03 192.245698 
L 295.704 175.909093 
L 297.378 191.473078 
L 299.052 194.545666 
L 300.726 202.677736 
L 302.4 215.55666 
L 304.074 221.253895 
L 305.748 225.307281 
L 307.422 227.907052 
L 309.096 216.965369 
L 310.77 176.142346 
L 312.444 138.592856 
L 314.118 111.680724 
L 315.792 100.53551 
L 317.466 124.795386 
L 319.14 162.308046 
L 322.488 213.182984 
L 324.162 179.918716 
L 325.836 168.816246 
L 327.51 131.185842 
L 329.184 131.602197 
L 330.858 119.652007 
L 332.532 94.506986 
L 334.206 133.558623 
L 335.88 158.722234 
L 337.554 178.190423 
L 339.228 195.929076 
L 340.902 199.417224 
L 344.25 213.185768 
L 345.924 217.235053 
L 347.598 223.629559 
L 349.272 210.712588 
L 350.946 168.092334 
L 352.62 132.295393 
L 354.294 107.484519 
L 355.968 99.366714 
L 357.642 130.756564 
L 359.316 137.022169 
L 360.99 151.909558 
L 362.664 149.573556 
L 364.338 188.463065 
L 366.012 187.873747 
L 367.686 190.989426 
L 369.36 145.283663 
L 371.034 205.149971 
L 372.708 150.204326 
L 374.382 156.619832 
L 376.056 177.176946 
L 377.73 200.195411 
L 379.404 231.501562 
L 381.078 202.384344 
L 382.752 211.233516 
L 384.426 216.158802 
L 386.1 220.03495 
L 387.774 220.665397 
L 389.448 208.227877 
L 392.796 128.130799 
L 394.47 101.197344 
L 396.144 89.867487 
L 397.818 129.476684 
L 399.492 135.387067 
L 401.166 158.201007 
L 402.84 160.760072 
L 404.514 175.006254 
L 406.188 150.741408 
L 407.862 147.607338 
L 409.536 152.24957 
L 411.21 118.758859 
L 412.884 109.793036 
L 414.558 130.998018 
L 416.232 168.15476 
L 417.906 182.859991 
L 419.58 200.667879 
L 421.254 192.950873 
L 422.928 206.307038 
L 424.602 214.212913 
L 426.276 216.441259 
L 427.95 222.049751 
L 429.624 214.130954 
L 431.298 174.1057 
L 432.972 137.621179 
L 434.646 109.286074 
L 436.32 105.621036 
L 437.994 145.479489 
L 439.668 150.94469 
L 441.342 189.476343 
L 443.016 165.465724 
L 444.69 163.111879 
L 446.364 164.8106 
L 448.038 172.777609 
L 449.712 149.954821 
L 451.386 122.128318 
L 453.06 113.450022 
L 454.734 151.430876 
L 456.408 178.080979 
L 458.082 197.868306 
L 459.756 195.960637 
L 461.43 192.573236 
L 463.104 198.098576 
L 464.778 208.282748 
L 466.452 211.414631 
L 468.126 220.024636 
L 469.8 224.256925 
L 471.474 193.399435 
L 473.148 169.61004 
L 474.822 143.583053 
L 476.496 124.184 
L 478.17 115.755755 
L 479.844 121.68413 
L 481.518 141.738705 
L 483.192 158.708267 
L 484.866 156.983801 
L 486.54 144.769394 
L 488.214 165.692565 
L 489.888 172.588293 
L 491.562 117.781367 
L 493.236 113.012146 
L 494.91 115.334877 
L 496.584 152.385257 
L 498.258 180.731347 
L 499.932 199.310364 
L 501.606 200.354358 
L 503.28 213.926429 
L 504.954 219.766011 
L 506.628 224.144325 
L 508.302 226.134499 
L 509.976 215.76367 
L 511.65 173.560368 
L 513.324 139.967171 
L 514.998 133.979004 
L 516.672 147.334573 
L 518.346 183.660047 
L 520.02 184.222477 
L 521.694 206.213697 
L 523.368 191.908718 
L 525.042 181.717388 
L 526.716 152.299173 
L 528.39 165.80022 
L 530.064 218.727062 
L 531.738 159.159961 
L 533.412 154.503166 
L 535.086 142.434088 
L 536.76 169.829773 
L 538.434 178.313187 
L 541.782 212.714939 
L 543.456 202.691304 
L 545.13 216.979683 
L 546.804 218.76419 
L 548.478 220.131571 
L 550.152 204.162588 
L 551.826 164.957867 
L 553.5 129.669628 
L 555.174 105.282216 
L 558.522 168.570519 
L 560.196 165.067113 
L 561.87 185.284512 
L 563.544 173.899038 
L 565.218 173.524632 
L 566.892 151.238728 
L 568.566 180.23184 
L 570.24 172.08476 
L 571.914 127.72349 
L 573.588 131.086786 
L 575.262 162.917295 
L 576.936 154.012605 
L 578.61 147.608382 
L 580.284 161.194916 
L 581.958 195.944285 
L 583.632 210.259155 
L 585.306 208.660584 
L 588.654 218.300642 
L 590.328 203.204827 
L 592.002 164.085396 
L 593.676 132.905289 
L 595.35 110.624056 
L 597.024 97.079669 
L 598.698 87.955097 
L 600.372 108.615641 
L 602.046 108.774638 
L 603.72 107.952813 
L 605.394 106.261399 
L 607.068 100.189385 
L 608.742 102.824047 
L 610.416 115.246457 
L 612.09 100.754647 
L 613.764 78.241852 
L 615.438 92.225457 
L 617.112 115.185771 
L 618.786 150.337031 
L 620.46 171.212388 
L 622.134 189.059839 
L 623.808 201.759935 
L 625.482 208.805118 
L 628.83 220.274862 
L 630.504 210.953097 
L 632.178 170.225154 
L 633.852 140.489938 
L 635.526 115.950289 
L 637.2 101.549335 
L 638.874 93.893064 
L 640.548 97.278229 
L 642.222 109.852331 
L 643.896 111.050103 
L 645.57 108.07349 
L 647.244 99.173721 
L 648.918 109.003219 
L 650.592 121.342477 
L 652.266 101.451472 
L 653.94 84.023507 
L 655.614 98.931771 
L 657.288 124.036036 
L 658.962 157.987337 
L 660.636 177.88222 
L 662.31 193.635719 
L 663.984 207.68175 
L 665.658 219.124232 
L 667.332 221.768089 
L 669.006 229.420657 
L 670.68 229.243096 
L 672.354 200.669718 
L 674.028 188.349794 
L 675.702 164.429484 
L 677.376 151.889776 
L 679.05 147.905849 
L 680.724 150.828486 
L 682.398 162.615504 
L 684.072 164.98918 
L 685.746 168.94085 
L 687.42 169.386927 
L 689.094 176.676246 
L 690.768 201.194971 
L 692.442 213.82454 
L 694.116 171.277647 
L 695.79 203.701799 
L 697.464 223.462908 
L 699.138 255.912607 
L 700.812 280.149844 
L 702.486 300.272759 
L 704.16 318.090141 
L 705.834 325.594248 
L 707.508 330.640783 
L 709.182 343.226365 
L 710.856 354.881523 
L 712.53 359.313689 
L 714.204 360.695011 
L 715.878 350.56074 
L 717.552 345.731479 
L 719.226 347.064068 
L 720.9 331.123018 
L 722.574 301.713203 
L 724.248 280.490055 
L 725.922 267.771196 
L 727.596 251.46737 
L 729.27 220.554611 
L 730.944 200.061463 
L 732.618 168.419027 
L 734.292 148.912666 
L 735.966 151.061788 
L 737.64 169.138515 
L 739.314 189.117196 
L 740.988 205.565779 
L 742.662 220.05411 
L 747.684 250.035798 
L 749.358 250.270964 
L 751.032 242.932688 
L 752.706 211.640279 
L 754.38 197.997631 
L 756.054 176.444286 
L 757.728 146.977165 
L 759.402 135.677874 
L 761.076 137.98321 
L 762.75 164.037681 
L 764.424 157.419093 
L 766.098 156.425397 
L 767.772 148.897507 
L 769.446 148.021407 
L 771.12 154.804759 
L 772.794 122.530955 
L 774.468 110.305714 
L 776.142 118.429682 
L 777.816 133.423831 
L 781.164 191.262888 
L 782.838 209.956618 
L 784.512 217.486595 
L 786.186 222.780299 
L 787.86 227.178195 
L 789.534 229.39183 
L 791.208 221.275814 
L 792.882 185.776415 
L 796.23 126.768164 
L 797.904 115.413605 
L 799.578 106.432275 
L 801.252 122.722806 
L 802.926 128.61962 
L 804.6 126.345597 
L 806.274 123.37634 
L 807.948 111.609352 
L 809.622 117.373113 
L 811.296 124.098711 
L 812.97 100.460162 
L 814.644 87.100369 
L 816.318 104.181711 
L 817.992 122.632696 
L 819.666 160.12468 
L 821.34 191.833916 
L 823.014 210.133856 
L 824.688 217.477997 
L 826.362 220.69154 
L 828.036 225.877539 
L 829.71 227.724148 
L 831.384 218.772763 
L 833.058 178.72656 
L 836.406 121.212158 
L 838.08 108.236314 
L 839.754 98.922427 
L 841.428 107.110163 
L 843.102 123.18439 
L 844.776 122.833493 
L 846.45 116.880117 
L 848.124 105.791216 
L 849.798 110.157104 
L 851.472 112.683316 
L 853.146 79.782669 
L 854.82 74.750474 
L 856.494 99.042805 
L 858.168 120.862255 
L 859.842 157.744642 
L 861.516 184.704389 
L 863.19 204.96826 
L 864.864 215.913522 
L 866.538 219.147045 
L 868.212 226.640865 
L 869.886 229.274533 
L 871.56 221.09045 
L 873.234 177.230028 
L 874.908 146.067018 
L 876.582 120.966083 
L 878.256 103.952485 
L 879.93 98.496479 
L 881.604 104.564517 
L 883.278 122.992341 
L 884.952 122.308836 
L 886.626 119.716521 
L 888.3 107.838051 
L 889.974 110.430118 
L 891.648 101.974885 
L 893.322 79.680531 
L 894.996 69.596111 
L 896.67 97.199501 
L 898.344 121.030397 
L 900.018 160.351669 
L 901.692 185.30489 
L 903.366 204.101057 
L 905.04 217.822458 
L 910.062 229.181987 
L 911.736 219.580945 
L 913.41 179.700872 
L 915.084 147.361859 
L 916.758 118.468052 
L 918.432 103.575444 
L 920.106 101.819964 
L 921.78 117.921378 
L 923.454 155.603025 
L 925.128 151.0931 
L 926.802 147.754059 
L 928.476 129.806557 
L 930.15 155.230855 
L 931.824 144.30781 
L 933.498 106.275812 
L 935.172 129.589607 
L 936.846 187.67623 
L 938.52 192.973437 
L 940.194 227.009456 
L 941.868 207.408984 
L 943.542 196.349606 
L 945.216 204.81473 
L 946.89 219.587034 
L 948.564 223.827896 
L 950.238 225.026215 
L 951.912 227.332097 
L 955.26 145.758815 
L 956.934 115.869374 
L 958.608 101.407684 
L 960.282 97.867051 
L 961.956 108.565691 
L 963.63 152.371191 
L 965.304 187.137359 
L 966.978 217.980237 
L 968.652 220.925289 
L 970.326 201.648652 
L 970.326 201.648652 
" clip-path="url(#pf3aff16054)" style="fill: none; stroke: #ff7f0e; stroke-width: 1.5; stroke-linecap: square"/>
   </g>
   <g id="patch_3">
    <path d="M 135 384.48 
L 135 51.84 
" style="fill: none; stroke: #000000; stroke-width: 0.8; stroke-linejoin: miter; stroke-linecap: square"/>
   </g>
   <g id="patch_4">
    <path d="M 972 384.48 
L 972 51.84 
" style="fill: none; stroke: #000000; stroke-width: 0.8; stroke-linejoin: miter; stroke-linecap: square"/>
   </g>
   <g id="patch_5">
    <path d="M 135 384.48 
L 972 384.48 
" style="fill: none; stroke: #000000; stroke-width: 0.8; stroke-linejoin: miter; stroke-linecap: square"/>
   </g>
   <g id="patch_6">
    <path d="M 135 51.84 
L 972 51.84 
" style="fill: none; stroke: #000000; stroke-width: 0.8; stroke-linejoin: miter; stroke-linecap: square"/>
   </g>
  </g>
 </g>
 <defs>
  <clipPath id="pf3aff16054">
   <rect x="135" y="51.84" width="837" height="332.64"/>
  </clipPath>
 </defs>
</svg>
