<?xml version="1.0" encoding="utf-8" standalone="no"?>
<!DOCTYPE svg PUBLIC "-//W3C//DTD SVG 1.1//EN"
  "http://www.w3.org/Graphics/SVG/1.1/DTD/svg11.dtd">
<svg xmlns:xlink="http://www.w3.org/1999/xlink" width="1080pt" height="432pt" viewBox="0 0 1080 432" xmlns="http://www.w3.org/2000/svg" version="1.1">
 <metadata>
  <rdf:RDF xmlns:dc="http://purl.org/dc/elements/1.1/" xmlns:cc="http://creativecommons.org/ns#" xmlns:rdf="http://www.w3.org/1999/02/22-rdf-syntax-ns#">
   <cc:Work>
    <dc:type rdf:resource="http://purl.org/dc/dcmitype/StillImage"/>
    <dc:date>2024-02-17T19:22:11.260857</dc:date>
    <dc:format>image/svg+xml</dc:format>
    <dc:creator>
     <cc:Agent>
      <dc:title>Matplotlib v3.7.1, https://matplotlib.org/</dc:title>
     </cc:Agent>
    </dc:creator>
   </cc:Work>
  </rdf:RDF>
 </metadata>
 <defs>
  <style type="text/css">*{stroke-linejoin: round; stroke-linecap: butt}</style>
 </defs>
 <g id="figure_1">
  <g id="patch_1">
   <path d="M 0 432 
L 1080 432 
L 1080 0 
L 0 0 
z
" style="fill: #ffffff"/>
  </g>
  <g id="axes_1">
   <g id="patch_2">
    <path d="M 135 384.48 
L 972 384.48 
L 972 51.84 
L 135 51.84 
z
" style="fill: #ffffff"/>
   </g>
   <g id="matplotlib.axis_1">
    <g id="xtick_1">
     <g id="line2d_1">
      <defs>
       <path id="mfc530c8747" d="M 0 0 
L 0 3.5 
" style="stroke: #000000; stroke-width: 0.8"/>
      </defs>
      <g>
       <use xlink:href="#mfc530c8747" x="135" y="384.48" style="stroke: #000000; stroke-width: 0.8"/>
      </g>
     </g>
     <g id="text_1">
      <!-- 0 -->
      <g transform="translate(131.81875 399.078438) scale(0.1 -0.1)">
       <defs>
        <path id="DejaVuSans-30" d="M 2034 4250 
Q 1547 4250 1301 3770 
Q 1056 3291 1056 2328 
Q 1056 1369 1301 889 
Q 1547 409 2034 409 
Q 2525 409 2770 889 
Q 3016 1369 3016 2328 
Q 3016 3291 2770 3770 
Q 2525 4250 2034 4250 
z
M 2034 4750 
Q 2819 4750 3233 4129 
Q 3647 3509 3647 2328 
Q 3647 1150 3233 529 
Q 2819 -91 2034 -91 
Q 1250 -91 836 529 
Q 422 1150 422 2328 
Q 422 3509 836 4129 
Q 1250 4750 2034 4750 
z
" transform="scale(0.015625)"/>
       </defs>
       <use xlink:href="#DejaVuSans-30"/>
      </g>
     </g>
    </g>
    <g id="xtick_2">
     <g id="line2d_2">
      <g>
       <use xlink:href="#mfc530c8747" x="302.4" y="384.48" style="stroke: #000000; stroke-width: 0.8"/>
      </g>
     </g>
     <g id="text_2">
      <!-- 100 -->
      <g transform="translate(292.85625 399.078438) scale(0.1 -0.1)">
       <defs>
        <path id="DejaVuSans-31" d="M 794 531 
L 1825 531 
L 1825 4091 
L 703 3866 
L 703 4441 
L 1819 4666 
L 2450 4666 
L 2450 531 
L 3481 531 
L 3481 0 
L 794 0 
L 794 531 
z
" transform="scale(0.015625)"/>
       </defs>
       <use xlink:href="#DejaVuSans-31"/>
       <use xlink:href="#DejaVuSans-30" x="63.623047"/>
       <use xlink:href="#DejaVuSans-30" x="127.246094"/>
      </g>
     </g>
    </g>
    <g id="xtick_3">
     <g id="line2d_3">
      <g>
       <use xlink:href="#mfc530c8747" x="469.8" y="384.48" style="stroke: #000000; stroke-width: 0.8"/>
      </g>
     </g>
     <g id="text_3">
      <!-- 200 -->
      <g transform="translate(460.25625 399.078438) scale(0.1 -0.1)">
       <defs>
        <path id="DejaVuSans-32" d="M 1228 531 
L 3431 531 
L 3431 0 
L 469 0 
L 469 531 
Q 828 903 1448 1529 
Q 2069 2156 2228 2338 
Q 2531 2678 2651 2914 
Q 2772 3150 2772 3378 
Q 2772 3750 2511 3984 
Q 2250 4219 1831 4219 
Q 1534 4219 1204 4116 
Q 875 4013 500 3803 
L 500 4441 
Q 881 4594 1212 4672 
Q 1544 4750 1819 4750 
Q 2544 4750 2975 4387 
Q 3406 4025 3406 3419 
Q 3406 3131 3298 2873 
Q 3191 2616 2906 2266 
Q 2828 2175 2409 1742 
Q 1991 1309 1228 531 
z
" transform="scale(0.015625)"/>
       </defs>
       <use xlink:href="#DejaVuSans-32"/>
       <use xlink:href="#DejaVuSans-30" x="63.623047"/>
       <use xlink:href="#DejaVuSans-30" x="127.246094"/>
      </g>
     </g>
    </g>
    <g id="xtick_4">
     <g id="line2d_4">
      <g>
       <use xlink:href="#mfc530c8747" x="637.2" y="384.48" style="stroke: #000000; stroke-width: 0.8"/>
      </g>
     </g>
     <g id="text_4">
      <!-- 300 -->
      <g transform="translate(627.65625 399.078438) scale(0.1 -0.1)">
       <defs>
        <path id="DejaVuSans-33" d="M 2597 2516 
Q 3050 2419 3304 2112 
Q 3559 1806 3559 1356 
Q 3559 666 3084 287 
Q 2609 -91 1734 -91 
Q 1441 -91 1130 -33 
Q 819 25 488 141 
L 488 750 
Q 750 597 1062 519 
Q 1375 441 1716 441 
Q 2309 441 2620 675 
Q 2931 909 2931 1356 
Q 2931 1769 2642 2001 
Q 2353 2234 1838 2234 
L 1294 2234 
L 1294 2753 
L 1863 2753 
Q 2328 2753 2575 2939 
Q 2822 3125 2822 3475 
Q 2822 3834 2567 4026 
Q 2313 4219 1838 4219 
Q 1578 4219 1281 4162 
Q 984 4106 628 3988 
L 628 4550 
Q 988 4650 1302 4700 
Q 1616 4750 1894 4750 
Q 2613 4750 3031 4423 
Q 3450 4097 3450 3541 
Q 3450 3153 3228 2886 
Q 3006 2619 2597 2516 
z
" transform="scale(0.015625)"/>
       </defs>
       <use xlink:href="#DejaVuSans-33"/>
       <use xlink:href="#DejaVuSans-30" x="63.623047"/>
       <use xlink:href="#DejaVuSans-30" x="127.246094"/>
      </g>
     </g>
    </g>
    <g id="xtick_5">
     <g id="line2d_5">
      <g>
       <use xlink:href="#mfc530c8747" x="804.6" y="384.48" style="stroke: #000000; stroke-width: 0.8"/>
      </g>
     </g>
     <g id="text_5">
      <!-- 400 -->
      <g transform="translate(795.05625 399.078438) scale(0.1 -0.1)">
       <defs>
        <path id="DejaVuSans-34" d="M 2419 4116 
L 825 1625 
L 2419 1625 
L 2419 4116 
z
M 2253 4666 
L 3047 4666 
L 3047 1625 
L 3713 1625 
L 3713 1100 
L 3047 1100 
L 3047 0 
L 2419 0 
L 2419 1100 
L 313 1100 
L 313 1709 
L 2253 4666 
z
" transform="scale(0.015625)"/>
       </defs>
       <use xlink:href="#DejaVuSans-34"/>
       <use xlink:href="#DejaVuSans-30" x="63.623047"/>
       <use xlink:href="#DejaVuSans-30" x="127.246094"/>
      </g>
     </g>
    </g>
    <g id="xtick_6">
     <g id="line2d_6">
      <g>
       <use xlink:href="#mfc530c8747" x="972" y="384.48" style="stroke: #000000; stroke-width: 0.8"/>
      </g>
     </g>
     <g id="text_6">
      <!-- 500 -->
      <g transform="translate(962.45625 399.078438) scale(0.1 -0.1)">
       <defs>
        <path id="DejaVuSans-35" d="M 691 4666 
L 3169 4666 
L 3169 4134 
L 1269 4134 
L 1269 2991 
Q 1406 3038 1543 3061 
Q 1681 3084 1819 3084 
Q 2600 3084 3056 2656 
Q 3513 2228 3513 1497 
Q 3513 744 3044 326 
Q 2575 -91 1722 -91 
Q 1428 -91 1123 -41 
Q 819 9 494 109 
L 494 744 
Q 775 591 1075 516 
Q 1375 441 1709 441 
Q 2250 441 2565 725 
Q 2881 1009 2881 1497 
Q 2881 1984 2565 2268 
Q 2250 2553 1709 2553 
Q 1456 2553 1204 2497 
Q 953 2441 691 2322 
L 691 4666 
z
" transform="scale(0.015625)"/>
       </defs>
       <use xlink:href="#DejaVuSans-35"/>
       <use xlink:href="#DejaVuSans-30" x="63.623047"/>
       <use xlink:href="#DejaVuSans-30" x="127.246094"/>
      </g>
     </g>
    </g>
   </g>
   <g id="matplotlib.axis_2">
    <g id="ytick_1">
     <g id="line2d_7">
      <defs>
       <path id="m6ae35e4f4f" d="M 0 0 
L -3.5 0 
" style="stroke: #000000; stroke-width: 0.8"/>
      </defs>
      <g>
       <use xlink:href="#m6ae35e4f4f" x="135" y="350.099876" style="stroke: #000000; stroke-width: 0.8"/>
      </g>
     </g>
     <g id="text_7">
      <!-- 350 -->
      <g transform="translate(108.9125 353.899094) scale(0.1 -0.1)">
       <use xlink:href="#DejaVuSans-33"/>
       <use xlink:href="#DejaVuSans-35" x="63.623047"/>
       <use xlink:href="#DejaVuSans-30" x="127.246094"/>
      </g>
     </g>
    </g>
    <g id="ytick_2">
     <g id="line2d_8">
      <g>
       <use xlink:href="#m6ae35e4f4f" x="135" y="310.99678" style="stroke: #000000; stroke-width: 0.8"/>
      </g>
     </g>
     <g id="text_8">
      <!-- 400 -->
      <g transform="translate(108.9125 314.795998) scale(0.1 -0.1)">
       <use xlink:href="#DejaVuSans-34"/>
       <use xlink:href="#DejaVuSans-30" x="63.623047"/>
       <use xlink:href="#DejaVuSans-30" x="127.246094"/>
      </g>
     </g>
    </g>
    <g id="ytick_3">
     <g id="line2d_9">
      <g>
       <use xlink:href="#m6ae35e4f4f" x="135" y="271.893684" style="stroke: #000000; stroke-width: 0.8"/>
      </g>
     </g>
     <g id="text_9">
      <!-- 450 -->
      <g transform="translate(108.9125 275.692903) scale(0.1 -0.1)">
       <use xlink:href="#DejaVuSans-34"/>
       <use xlink:href="#DejaVuSans-35" x="63.623047"/>
       <use xlink:href="#DejaVuSans-30" x="127.246094"/>
      </g>
     </g>
    </g>
    <g id="ytick_4">
     <g id="line2d_10">
      <g>
       <use xlink:href="#m6ae35e4f4f" x="135" y="232.790588" style="stroke: #000000; stroke-width: 0.8"/>
      </g>
     </g>
     <g id="text_10">
      <!-- 500 -->
      <g transform="translate(108.9125 236.589807) scale(0.1 -0.1)">
       <use xlink:href="#DejaVuSans-35"/>
       <use xlink:href="#DejaVuSans-30" x="63.623047"/>
       <use xlink:href="#DejaVuSans-30" x="127.246094"/>
      </g>
     </g>
    </g>
    <g id="ytick_5">
     <g id="line2d_11">
      <g>
       <use xlink:href="#m6ae35e4f4f" x="135" y="193.687492" style="stroke: #000000; stroke-width: 0.8"/>
      </g>
     </g>
     <g id="text_11">
      <!-- 550 -->
      <g transform="translate(108.9125 197.486711) scale(0.1 -0.1)">
       <use xlink:href="#DejaVuSans-35"/>
       <use xlink:href="#DejaVuSans-35" x="63.623047"/>
       <use xlink:href="#DejaVuSans-30" x="127.246094"/>
      </g>
     </g>
    </g>
    <g id="ytick_6">
     <g id="line2d_12">
      <g>
       <use xlink:href="#m6ae35e4f4f" x="135" y="154.584396" style="stroke: #000000; stroke-width: 0.8"/>
      </g>
     </g>
     <g id="text_12">
      <!-- 600 -->
      <g transform="translate(108.9125 158.383615) scale(0.1 -0.1)">
       <defs>
        <path id="DejaVuSans-36" d="M 2113 2584 
Q 1688 2584 1439 2293 
Q 1191 2003 1191 1497 
Q 1191 994 1439 701 
Q 1688 409 2113 409 
Q 2538 409 2786 701 
Q 3034 994 3034 1497 
Q 3034 2003 2786 2293 
Q 2538 2584 2113 2584 
z
M 3366 4563 
L 3366 3988 
Q 3128 4100 2886 4159 
Q 2644 4219 2406 4219 
Q 1781 4219 1451 3797 
Q 1122 3375 1075 2522 
Q 1259 2794 1537 2939 
Q 1816 3084 2150 3084 
Q 2853 3084 3261 2657 
Q 3669 2231 3669 1497 
Q 3669 778 3244 343 
Q 2819 -91 2113 -91 
Q 1303 -91 875 529 
Q 447 1150 447 2328 
Q 447 3434 972 4092 
Q 1497 4750 2381 4750 
Q 2619 4750 2861 4703 
Q 3103 4656 3366 4563 
z
" transform="scale(0.015625)"/>
       </defs>
       <use xlink:href="#DejaVuSans-36"/>
       <use xlink:href="#DejaVuSans-30" x="63.623047"/>
       <use xlink:href="#DejaVuSans-30" x="127.246094"/>
      </g>
     </g>
    </g>
    <g id="ytick_7">
     <g id="line2d_13">
      <g>
       <use xlink:href="#m6ae35e4f4f" x="135" y="115.4813" style="stroke: #000000; stroke-width: 0.8"/>
      </g>
     </g>
     <g id="text_13">
      <!-- 650 -->
      <g transform="translate(108.9125 119.280519) scale(0.1 -0.1)">
       <use xlink:href="#DejaVuSans-36"/>
       <use xlink:href="#DejaVuSans-35" x="63.623047"/>
       <use xlink:href="#DejaVuSans-30" x="127.246094"/>
      </g>
     </g>
    </g>
    <g id="ytick_8">
     <g id="line2d_14">
      <g>
       <use xlink:href="#m6ae35e4f4f" x="135" y="76.378204" style="stroke: #000000; stroke-width: 0.8"/>
      </g>
     </g>
     <g id="text_14">
      <!-- 700 -->
      <g transform="translate(108.9125 80.177423) scale(0.1 -0.1)">
       <defs>
        <path id="DejaVuSans-37" d="M 525 4666 
L 3525 4666 
L 3525 4397 
L 1831 0 
L 1172 0 
L 2766 4134 
L 525 4134 
L 525 4666 
z
" transform="scale(0.015625)"/>
       </defs>
       <use xlink:href="#DejaVuSans-37"/>
       <use xlink:href="#DejaVuSans-30" x="63.623047"/>
       <use xlink:href="#DejaVuSans-30" x="127.246094"/>
      </g>
     </g>
    </g>
   </g>
   <g id="line2d_15">
    <path d="M 135 134.771344 
L 136.674 165.862451 
L 138.348 191.694737 
L 140.022 207.690975 
L 141.696 217.547805 
L 143.37 224.798926 
L 145.044 228.55739 
L 146.718 233.37839 
L 148.392 221.206965 
L 150.066 189.497364 
L 151.74 155.370601 
L 153.414 130.943621 
L 155.088 113.032175 
L 156.762 106.598939 
L 158.436 132.144001 
L 160.11 135.377902 
L 161.784 134.377047 
L 163.458 135.18094 
L 165.132 122.815153 
L 166.806 128.85615 
L 168.48 131.705875 
L 170.154 109.955689 
L 171.828 101.096159 
L 173.502 117.150527 
L 175.176 136.930807 
L 178.524 189.535075 
L 180.198 207.190349 
L 181.872 218.832647 
L 183.546 226.150985 
L 185.22 230.524475 
L 186.894 241.274292 
L 188.568 238.837617 
L 190.242 222.722844 
L 191.916 201.844072 
L 193.59 175.427443 
L 195.264 156.070593 
L 196.938 149.476079 
L 198.612 162.337765 
L 200.286 165.812812 
L 201.96 170.364624 
L 203.634 175.4498 
L 205.308 164.8316 
L 206.982 162.095407 
L 208.656 160.589103 
L 210.33 133.097041 
L 212.004 116.730358 
L 213.678 126.051278 
L 215.352 143.12405 
L 217.026 174.231129 
L 218.7 201.83391 
L 220.374 215.602423 
L 222.048 222.940887 
L 223.722 228.012882 
L 225.396 230.757246 
L 227.07 234.824389 
L 228.744 218.431662 
L 230.418 182.272213 
L 232.092 149.786325 
L 233.766 124.966733 
L 235.44 106.304894 
L 237.114 100.551933 
L 238.788 139.618944 
L 240.462 158.043262 
L 242.136 193.671573 
L 243.81 195.005607 
L 245.484 164.777926 
L 247.158 145.51959 
L 248.832 157.593197 
L 250.506 133.443185 
L 252.18 127.935101 
L 253.854 144.183016 
L 257.202 195.284822 
L 258.876 212.708227 
L 260.55 219.241484 
L 262.224 215.23535 
L 263.898 221.145583 
L 265.572 222.734714 
L 267.246 225.190848 
L 268.92 212.291103 
L 272.268 144.34411 
L 273.942 113.834324 
L 275.616 106.297571 
L 277.29 130.096986 
L 278.964 177.91746 
L 280.638 185.03564 
L 282.312 186.127664 
L 283.986 182.391445 
L 285.66 171.904595 
L 289.008 154.388635 
L 290.682 133.547731 
L 292.356 179.010923 
L 294.03 143.279812 
L 295.704 154.378429 
L 297.378 179.761008 
L 299.052 184.188548 
L 300.726 201.741036 
L 302.4 215.046745 
L 304.074 221.652573 
L 305.748 224.002101 
L 307.422 228.279184 
L 309.096 214.304117 
L 312.444 142.330784 
L 314.118 119.362405 
L 315.792 127.502278 
L 317.466 179.504944 
L 319.14 214.024533 
L 320.814 238.113249 
L 322.488 215.445453 
L 324.162 201.508996 
L 325.836 169.856089 
L 327.51 153.806128 
L 329.184 146.031537 
L 330.858 130.454265 
L 332.532 131.917702 
L 334.206 145.7775 
L 335.88 157.171662 
L 337.554 175.712506 
L 340.902 194.318962 
L 342.576 206.589561 
L 344.25 213.896994 
L 347.598 222.801433 
L 349.272 208.610311 
L 350.946 171.891061 
L 352.62 138.563176 
L 354.294 122.102003 
L 355.968 127.15548 
L 357.642 134.378785 
L 359.316 164.693662 
L 360.99 172.673003 
L 362.664 203.146855 
L 364.338 207.723066 
L 366.012 202.792038 
L 367.686 179.803538 
L 369.36 201.173492 
L 371.034 178.064831 
L 372.708 148.265095 
L 374.382 167.698973 
L 376.056 184.200894 
L 377.73 203.519202 
L 379.404 172.166812 
L 381.078 191.518422 
L 382.752 207.397103 
L 384.426 212.627521 
L 386.1 216.231916 
L 387.774 218.347661 
L 389.448 203.409257 
L 392.796 130.894889 
L 394.47 105.610861 
L 396.144 128.64041 
L 397.818 138.586306 
L 399.492 177.219546 
L 401.166 192.83958 
L 402.84 194.618924 
L 406.188 166.469618 
L 407.862 166.065347 
L 409.536 158.945791 
L 411.21 137.02499 
L 412.884 127.030794 
L 414.558 148.741971 
L 416.232 160.836598 
L 417.906 176.03137 
L 419.58 179.647135 
L 422.928 207.421576 
L 424.602 212.879066 
L 426.276 217.265654 
L 427.95 224.451379 
L 429.624 213.664595 
L 432.972 142.433894 
L 434.646 125.195846 
L 436.32 143.388828 
L 437.994 167.049478 
L 439.668 213.336705 
L 441.342 193.225646 
L 443.016 182.774609 
L 444.69 196.786101 
L 446.364 191.776133 
L 448.038 175.279474 
L 449.712 160.709087 
L 451.386 135.03961 
L 453.06 146.391411 
L 454.734 161.792924 
L 456.408 175.19345 
L 458.082 179.682116 
L 459.756 177.824198 
L 461.43 188.334421 
L 463.104 200.89973 
L 466.452 214.716597 
L 468.126 228.007444 
L 469.8 225.323891 
L 471.474 205.201545 
L 473.148 179.185173 
L 474.822 150.916798 
L 476.496 131.899842 
L 478.17 126.762485 
L 479.844 150.009406 
L 481.518 168.144937 
L 483.192 168.958396 
L 484.866 162.379284 
L 486.54 172.266155 
L 488.214 177.671527 
L 489.888 153.290213 
L 491.562 118.482768 
L 493.236 108.431419 
L 494.91 131.976536 
L 496.584 153.610143 
L 498.258 173.785981 
L 499.932 188.088627 
L 501.606 203.801621 
L 503.28 214.051063 
L 504.954 221.012273 
L 506.628 223.850603 
L 508.302 227.193242 
L 509.976 213.93918 
L 511.65 180.665057 
L 513.324 164.219027 
L 514.998 161.91367 
L 516.672 179.888566 
L 518.346 193.713083 
L 520.02 222.421688 
L 521.694 217.865351 
L 523.368 202.177246 
L 525.042 178.046559 
L 526.716 174.636514 
L 528.39 207.893738 
L 530.064 190.670279 
L 531.738 150.353441 
L 533.412 135.747582 
L 535.086 158.734146 
L 536.76 157.49342 
L 538.434 167.961333 
L 540.108 196.165913 
L 541.782 191.441344 
L 543.456 204.132439 
L 545.13 214.560437 
L 546.804 215.336373 
L 548.478 217.30654 
L 550.152 207.353704 
L 551.826 170.290649 
L 553.5 137.358546 
L 555.174 146.478123 
L 556.848 165.998661 
L 558.522 174.488764 
L 560.196 208.686826 
L 561.87 203.020004 
L 563.544 193.310687 
L 565.218 177.807728 
L 566.892 186.255519 
L 568.566 183.323068 
L 571.914 142.339725 
L 573.588 158.265316 
L 575.262 125.380773 
L 576.936 113.7362 
L 578.61 139.338988 
L 580.284 167.67001 
L 581.958 187.876115 
L 583.632 199.768062 
L 585.306 205.867966 
L 586.98 209.280219 
L 588.654 213.47552 
L 590.328 204.596195 
L 593.676 144.162579 
L 595.35 120.186378 
L 597.024 102.9288 
L 598.698 94.740658 
L 600.372 114.164737 
L 602.046 115.993192 
L 603.72 113.357244 
L 605.394 114.892068 
L 607.068 104.322069 
L 610.416 118.076989 
L 612.09 88.446949 
L 613.764 79.450544 
L 615.438 98.78038 
L 618.786 144.51144 
L 620.46 170.77155 
L 622.134 191.019235 
L 623.808 202.718894 
L 625.482 210.889083 
L 628.83 221.424431 
L 630.504 211.897462 
L 633.852 151.113849 
L 635.526 124.689939 
L 637.2 104.078065 
L 638.874 95.590647 
L 640.548 115.179377 
L 642.222 116.793976 
L 643.896 115.469537 
L 645.57 112.982237 
L 647.244 109.11814 
L 648.918 117.983726 
L 650.592 125.041255 
L 652.266 96.608145 
L 653.94 87.751645 
L 655.614 109.061874 
L 657.288 132.377266 
L 658.962 152.48089 
L 660.636 177.043848 
L 662.31 197.448154 
L 663.984 212.545234 
L 665.658 219.594475 
L 667.332 224.629719 
L 669.006 235.367272 
L 670.68 235.304881 
L 672.354 219.409674 
L 675.702 175.007586 
L 677.376 160.275509 
L 679.05 155.067619 
L 680.724 167.893564 
L 682.398 171.46726 
L 684.072 177.654962 
L 685.746 182.224573 
L 687.42 182.181193 
L 689.094 198.984342 
L 690.768 217.775729 
L 692.442 198.164467 
L 694.116 194.576543 
L 695.79 213.857734 
L 697.464 238.483628 
L 699.138 259.874843 
L 700.812 283.339499 
L 702.486 305.120482 
L 704.16 319.529398 
L 705.834 329.173607 
L 707.508 337.386087 
L 710.856 367.967001 
L 712.53 369.36 
L 714.204 362.006118 
L 715.878 353.935371 
L 717.552 350.35639 
L 719.226 338.229988 
L 720.9 314.704873 
L 722.574 293.315546 
L 724.248 277.999869 
L 725.922 259.643318 
L 727.596 231.656177 
L 729.27 211.760995 
L 730.944 194.303364 
L 732.618 152.745006 
L 734.292 136.046292 
L 735.966 147.3766 
L 737.64 162.924924 
L 739.314 181.327836 
L 740.988 205.629555 
L 742.662 223.568746 
L 744.336 235.14308 
L 746.01 242.937247 
L 747.684 247.249425 
L 749.358 255.301213 
L 751.032 250.48915 
L 752.706 229.180317 
L 754.38 205.975009 
L 756.054 176.221912 
L 757.728 154.253423 
L 759.402 143.575302 
L 761.076 153.813019 
L 762.75 155.488163 
L 764.424 160.745263 
L 766.098 161.159693 
L 767.772 152.601699 
L 769.446 156.271485 
L 771.12 154.736865 
L 772.794 115.627865 
L 774.468 102.465195 
L 776.142 112.956676 
L 777.816 133.31066 
L 781.164 188.614768 
L 782.838 206.115189 
L 784.512 217.228298 
L 786.186 224.038998 
L 787.86 227.032109 
L 789.534 231.616668 
L 791.208 225.350734 
L 792.882 196.416601 
L 794.556 162.869493 
L 796.23 137.370914 
L 797.904 118.949084 
L 799.578 109.477173 
L 801.252 130.490416 
L 802.926 131.515002 
L 804.6 131.762809 
L 806.274 128.426502 
L 807.948 119.381649 
L 809.622 123.575057 
L 811.296 128.914164 
L 812.97 93.17256 
L 814.644 87.888553 
L 816.318 103.929502 
L 817.992 129.225669 
L 819.666 163.967041 
L 821.34 191.74946 
L 823.014 207.709287 
L 824.688 217.356619 
L 826.362 224.136097 
L 828.036 227.217877 
L 829.71 231.739048 
L 831.384 221.565392 
L 833.058 189.829548 
L 834.732 155.841313 
L 836.406 129.993949 
L 838.08 108.251344 
L 839.754 100.812208 
L 841.428 124.643083 
L 843.102 127.569604 
L 844.776 126.216563 
L 846.45 122.066742 
L 848.124 111.929949 
L 849.798 113.028489 
L 851.472 113.270513 
L 853.146 82.783252 
L 854.82 84.652235 
L 856.494 102.113373 
L 858.168 125.711602 
L 859.842 159.772283 
L 861.516 187.884915 
L 863.19 205.70988 
L 864.864 216.057415 
L 866.538 225.031003 
L 868.212 228.137662 
L 869.886 232.262047 
L 871.56 220.535006 
L 874.908 154.671159 
L 876.582 127.239567 
L 878.256 106.622904 
L 879.93 100.516377 
L 881.604 123.364974 
L 883.278 127.590057 
L 884.952 130.25435 
L 886.626 125.526421 
L 888.3 113.220246 
L 889.974 106.249929 
L 891.648 108.283308 
L 893.322 78.93923 
L 894.996 80.67068 
L 896.67 102.24101 
L 898.344 128.450462 
L 900.018 161.337353 
L 901.692 188.537521 
L 903.366 207.780279 
L 905.04 219.100959 
L 906.714 224.636759 
L 910.062 231.799042 
L 911.736 222.467896 
L 915.084 152.187664 
L 916.758 125.549392 
L 918.432 109.425158 
L 920.106 116.045261 
L 921.78 165.101079 
L 923.454 162.741504 
L 925.128 165.778094 
L 926.802 164.953133 
L 928.476 170.216408 
L 930.15 167.05049 
L 931.824 154.885975 
L 933.498 152.121208 
L 935.172 179.572257 
L 936.846 187.960736 
L 938.52 208.195425 
L 941.868 184.312026 
L 943.542 202.079396 
L 945.216 214.23994 
L 946.89 221.917861 
L 950.238 230.58541 
L 951.912 218.563654 
L 955.26 147.989161 
L 956.934 121.782102 
L 958.608 103.7604 
L 960.282 111.692385 
L 961.956 173.679095 
L 963.63 212.774057 
L 965.304 237.148344 
L 966.978 247.862879 
L 968.652 234.005257 
L 970.326 199.125894 
L 970.326 199.125894 
" clip-path="url(#p6c49f652e2)" style="fill: none; stroke: #1f77b4; stroke-width: 1.5; stroke-linecap: square"/>
   </g>
   <g id="line2d_16">
    <path d="M 135 133.92515 
L 136.674 161.672548 
L 138.348 195.558254 
L 140.022 210.267166 
L 141.696 219.40952 
L 143.37 223.817568 
L 145.044 230.558079 
L 146.718 227.216249 
L 148.392 215.920027 
L 150.066 187.684985 
L 151.74 154.908505 
L 153.414 126.451456 
L 155.088 114.232073 
L 156.762 114.355272 
L 158.436 125.910686 
L 160.11 133.694503 
L 161.784 132.201024 
L 163.458 128.406611 
L 165.132 122.810601 
L 166.806 121.534308 
L 168.48 129.185284 
L 170.154 101.227429 
L 171.828 91.653758 
L 173.502 112.016962 
L 175.176 139.204927 
L 176.85 161.500899 
L 178.524 192.628625 
L 180.198 207.772817 
L 181.872 218.455141 
L 185.22 230.594833 
L 186.894 232.405643 
L 188.568 228.952355 
L 191.916 193.879809 
L 193.59 175.193331 
L 195.264 153.059413 
L 196.938 144.729623 
L 198.612 156.086132 
L 200.286 164.820701 
L 201.96 164.742848 
L 203.634 164.487236 
L 205.308 163.44918 
L 206.982 159.815437 
L 208.656 157.823098 
L 212.004 109.374974 
L 213.678 122.094172 
L 215.352 145.187767 
L 217.026 161.740282 
L 218.7 201.858569 
L 220.374 219.346226 
L 222.048 225.015864 
L 223.722 227.25076 
L 225.396 235.645539 
L 227.07 230.041987 
L 228.744 210.223013 
L 230.418 180.150097 
L 232.092 146.75318 
L 233.766 121.87584 
L 235.44 107.481251 
L 237.114 106.023907 
L 238.788 125.490012 
L 240.462 138.220619 
L 242.136 150.006059 
L 243.81 174.444921 
L 245.484 164.529719 
L 247.158 149.582951 
L 248.832 136.807189 
L 250.506 140.986619 
L 252.18 126.762247 
L 253.854 155.83033 
L 255.528 168.691201 
L 257.202 190.900776 
L 258.876 220.045757 
L 260.55 229.467159 
L 262.224 225.765587 
L 263.898 213.310974 
L 265.572 220.504282 
L 267.246 211.501406 
L 268.92 214.547695 
L 270.594 195.192045 
L 272.268 153.258318 
L 273.942 119.466264 
L 275.616 97.578173 
L 277.29 110.351596 
L 278.964 138.301431 
L 280.638 156.426423 
L 282.312 165.496317 
L 285.66 158.685639 
L 287.334 160.567475 
L 289.008 135.844361 
L 290.682 120.500597 
L 292.356 130.425251 
L 294.03 196.159884 
L 295.704 157.812836 
L 299.052 197.871934 
L 300.726 199.775584 
L 302.4 214.591467 
L 304.074 214.573519 
L 305.748 221.436704 
L 307.422 220.402276 
L 309.096 222.247883 
L 310.77 194.60588 
L 312.444 145.077074 
L 314.118 116.523795 
L 315.792 104.455201 
L 317.466 126.507781 
L 319.14 168.893924 
L 320.814 183.870763 
L 322.488 207.559926 
L 324.162 182.602967 
L 325.836 190.763399 
L 327.51 150.911082 
L 329.184 131.731329 
L 330.858 120.774204 
L 332.532 106.869884 
L 335.88 155.804315 
L 337.554 173.938567 
L 339.228 193.679186 
L 340.902 195.890144 
L 342.576 201.575463 
L 344.25 211.284458 
L 345.924 214.412324 
L 347.598 213.83203 
L 349.272 215.11047 
L 350.946 183.334336 
L 352.62 144.630959 
L 354.294 120.950626 
L 355.968 110.062189 
L 357.642 132.863132 
L 359.316 147.946655 
L 360.99 164.683849 
L 362.664 162.050691 
L 364.338 188.856742 
L 366.012 192.809629 
L 367.686 191.674341 
L 369.36 153.623859 
L 371.034 206.675763 
L 372.708 159.398201 
L 374.382 163.985177 
L 376.056 181.335506 
L 377.73 196.565474 
L 379.404 223.603198 
L 381.078 178.801967 
L 382.752 186.983115 
L 384.426 211.409901 
L 386.1 223.337873 
L 387.774 208.707673 
L 389.448 206.204492 
L 391.122 187.852434 
L 392.796 137.460944 
L 394.47 112.317921 
L 396.144 98.608161 
L 397.818 129.461611 
L 399.492 141.920473 
L 401.166 164.267806 
L 402.84 176.469194 
L 404.514 186.065825 
L 406.188 176.599888 
L 407.862 147.626126 
L 409.536 138.975855 
L 411.21 144.318974 
L 412.884 153.233401 
L 414.558 142.784063 
L 419.58 195.680451 
L 421.254 185.316651 
L 422.928 196.733495 
L 424.602 210.965743 
L 426.276 211.354101 
L 427.95 208.956411 
L 429.624 218.972617 
L 431.298 196.273585 
L 432.972 143.698489 
L 434.646 118.359759 
L 436.32 111.149028 
L 437.994 144.938982 
L 439.668 168.449622 
L 441.342 193.711836 
L 443.016 177.404671 
L 444.69 170.70712 
L 446.364 194.260864 
L 448.038 172.933972 
L 449.712 154.961441 
L 451.386 142.377853 
L 453.06 131.046117 
L 454.734 146.405348 
L 456.408 171.843601 
L 458.082 192.158309 
L 459.756 188.870918 
L 461.43 179.47324 
L 464.778 206.42459 
L 466.452 206.306116 
L 468.126 207.126031 
L 469.8 226.168241 
L 471.474 213.68716 
L 473.148 174.669029 
L 474.822 160.048089 
L 476.496 135.303782 
L 478.17 123.79066 
L 479.844 130.448306 
L 481.518 152.581651 
L 483.192 161.164189 
L 484.866 157.117887 
L 486.54 150.754421 
L 488.214 172.622656 
L 489.888 162.930606 
L 491.562 135.19958 
L 493.236 130.981391 
L 494.91 119.522208 
L 496.584 144.523463 
L 498.258 172.040835 
L 499.932 195.493958 
L 501.606 197.760524 
L 503.28 211.913917 
L 504.954 221.580286 
L 506.628 223.444795 
L 508.302 215.08226 
L 509.976 216.341464 
L 511.65 189.14758 
L 513.324 146.015844 
L 514.998 138.854899 
L 516.672 149.07927 
L 518.346 182.903066 
L 520.02 189.943867 
L 521.694 214.04831 
L 523.368 207.453099 
L 526.716 166.795187 
L 528.39 171.701929 
L 530.064 204.256593 
L 531.738 173.299036 
L 533.412 175.418394 
L 535.086 149.51054 
L 536.76 171.958638 
L 538.434 176.188427 
L 540.108 191.197629 
L 541.782 203.559448 
L 543.456 196.963808 
L 545.13 210.446548 
L 546.804 218.563734 
L 548.478 208.681181 
L 550.152 206.24182 
L 551.826 181.675891 
L 553.5 150.665781 
L 555.174 125.035926 
L 556.848 142.531363 
L 558.522 177.984821 
L 560.196 183.762026 
L 561.87 200.829487 
L 563.544 194.047401 
L 565.218 185.981623 
L 566.892 168.805856 
L 568.566 177.210396 
L 570.24 165.24777 
L 571.914 142.916189 
L 573.588 139.57486 
L 575.262 162.572702 
L 576.936 131.513999 
L 578.61 132.241406 
L 580.284 153.367866 
L 581.958 177.857134 
L 583.632 194.949512 
L 585.306 193.740046 
L 586.98 198.020814 
L 588.654 205.570976 
L 590.328 196.881755 
L 592.002 167.581259 
L 593.676 157.267865 
L 597.024 115.246977 
L 598.698 101.948297 
L 602.046 130.182384 
L 603.72 121.331347 
L 605.394 116.187514 
L 607.068 112.395249 
L 608.742 107.880206 
L 610.416 116.718021 
L 612.09 112.381597 
L 613.764 82.156317 
L 615.438 92.368134 
L 617.112 123.797486 
L 618.786 143.610756 
L 620.46 170.489361 
L 623.808 200.965432 
L 625.482 209.352549 
L 627.156 216.235782 
L 628.83 218.553328 
L 630.504 205.55069 
L 632.178 178.380386 
L 633.852 143.35228 
L 635.526 120.357683 
L 637.2 105.728104 
L 638.874 100.933726 
L 640.548 112.63592 
L 642.222 116.652293 
L 643.896 115.707126 
L 645.57 113.31693 
L 647.244 104.788713 
L 648.918 111.294853 
L 650.592 120.648045 
L 653.94 87.421583 
L 655.614 103.00072 
L 657.288 132.902417 
L 658.962 151.311994 
L 660.636 177.759567 
L 663.984 207.667947 
L 665.658 219.898261 
L 667.332 223.274101 
L 669.006 229.184602 
L 670.68 229.567613 
L 675.702 166.56349 
L 677.376 152.352722 
L 679.05 148.097206 
L 680.724 158.538047 
L 682.398 167.911764 
L 684.072 168.274871 
L 685.746 170.472654 
L 687.42 170.440625 
L 689.094 177.71193 
L 690.768 196.072676 
L 692.442 206.620822 
L 694.116 173.442427 
L 695.79 194.960872 
L 697.464 228.627698 
L 699.138 245.887905 
L 700.812 276.123544 
L 702.486 292.232091 
L 709.182 351.382063 
L 710.856 351.332086 
L 712.53 362.553128 
L 714.204 357.262372 
L 715.878 347.26082 
L 717.552 346.173122 
L 719.226 349.437529 
L 720.9 323.940897 
L 722.574 291.699173 
L 724.248 274.457414 
L 725.922 266.488225 
L 727.596 248.666602 
L 729.27 207.447467 
L 730.944 197.182713 
L 732.618 167.702501 
L 734.292 140.616161 
L 735.966 143.432185 
L 737.64 157.445767 
L 740.988 191.49138 
L 742.662 218.037618 
L 744.336 211.837591 
L 746.01 222.388697 
L 747.684 238.425262 
L 749.358 235.986044 
L 751.032 237.080425 
L 752.706 225.267419 
L 754.38 202.447406 
L 756.054 183.472667 
L 757.728 159.427032 
L 759.402 146.209259 
L 761.076 149.236933 
L 762.75 167.326172 
L 764.424 162.861679 
L 766.098 160.286231 
L 767.772 153.098507 
L 769.446 149.608202 
L 771.12 157.470445 
L 772.794 132.803656 
L 774.468 116.651386 
L 776.142 123.320344 
L 777.816 142.306587 
L 779.49 155.273951 
L 781.164 193.234837 
L 782.838 209.720239 
L 784.512 218.654905 
L 786.186 224.628843 
L 787.86 231.103336 
L 789.534 229.697281 
L 791.208 215.080589 
L 792.882 194.12134 
L 794.556 158.002814 
L 796.23 130.860578 
L 797.904 116.143408 
L 799.578 111.394091 
L 801.252 130.339522 
L 802.926 136.258686 
L 804.6 130.196179 
L 806.274 130.772844 
L 807.948 117.780803 
L 809.622 119.926604 
L 811.296 127.188219 
L 814.644 89.240125 
L 816.318 106.647303 
L 817.992 131.839349 
L 819.666 154.145966 
L 821.34 193.279611 
L 823.014 208.196163 
L 824.688 217.14071 
L 826.362 221.634845 
L 828.036 230.515453 
L 829.71 224.910636 
L 831.384 209.49088 
L 833.058 186.057138 
L 834.732 153.807346 
L 836.406 126.035174 
L 838.08 112.14441 
L 839.754 107.81085 
L 841.428 123.093182 
L 843.102 127.473473 
L 844.776 126.137896 
L 846.45 123.128552 
L 848.124 110.981962 
L 849.798 112.627137 
L 851.472 115.889897 
L 853.146 86.823294 
L 854.82 76.211138 
L 858.168 127.930471 
L 859.842 152.162505 
L 861.516 188.345614 
L 863.19 204.874596 
L 864.864 216.735884 
L 866.538 221.209732 
L 868.212 230.271775 
L 869.886 228.875791 
L 871.56 216.077881 
L 873.234 184.519267 
L 874.908 150.01699 
L 876.582 125.447196 
L 878.256 111.11614 
L 879.93 108.501311 
L 881.604 121.923716 
L 883.278 126.132789 
L 884.952 126.39346 
L 886.626 124.39587 
L 888.3 114.22076 
L 889.974 113.633497 
L 891.648 106.643294 
L 893.322 85.183274 
L 894.996 66.96 
L 896.67 95.051794 
L 898.344 126.579858 
L 900.018 153.719851 
L 901.692 189.16801 
L 903.366 205.273789 
L 905.04 218.413947 
L 906.714 224.651826 
L 908.388 228.880636 
L 910.062 229.899097 
L 911.736 215.321356 
L 913.41 188.395877 
L 915.084 151.545648 
L 916.758 123.452613 
L 918.432 110.076462 
L 920.106 110.62907 
L 921.78 136.727761 
L 923.454 156.142983 
L 925.128 153.297411 
L 926.802 152.338116 
L 928.476 140.89435 
L 930.15 163.760306 
L 931.824 151.880736 
L 933.498 119.498293 
L 935.172 134.771938 
L 936.846 188.055205 
L 938.52 188.61039 
L 940.194 228.387957 
L 941.868 202.439053 
L 943.542 184.968389 
L 945.216 208.290293 
L 946.89 219.165316 
L 948.564 223.673891 
L 950.238 214.807746 
L 951.912 225.638688 
L 953.586 206.948702 
L 955.26 152.986381 
L 956.934 120.429713 
L 958.608 104.094671 
L 960.282 95.461202 
L 961.956 113.628294 
L 963.63 153.173973 
L 965.304 181.867445 
L 966.978 206.817387 
L 968.652 209.715799 
L 970.326 214.493088 
L 970.326 214.493088 
" clip-path="url(#p6c49f652e2)" style="fill: none; stroke: #ff7f0e; stroke-width: 1.5; stroke-linecap: square"/>
   </g>
   <g id="patch_3">
    <path d="M 135 384.48 
L 135 51.84 
" style="fill: none; stroke: #000000; stroke-width: 0.8; stroke-linejoin: miter; stroke-linecap: square"/>
   </g>
   <g id="patch_4">
    <path d="M 972 384.48 
L 972 51.84 
" style="fill: none; stroke: #000000; stroke-width: 0.8; stroke-linejoin: miter; stroke-linecap: square"/>
   </g>
   <g id="patch_5">
    <path d="M 135 384.48 
L 972 384.48 
" style="fill: none; stroke: #000000; stroke-width: 0.8; stroke-linejoin: miter; stroke-linecap: square"/>
   </g>
   <g id="patch_6">
    <path d="M 135 51.84 
L 972 51.84 
" style="fill: none; stroke: #000000; stroke-width: 0.8; stroke-linejoin: miter; stroke-linecap: square"/>
   </g>
  </g>
 </g>
 <defs>
  <clipPath id="p6c49f652e2">
   <rect x="135" y="51.84" width="837" height="332.64"/>
  </clipPath>
 </defs>
</svg>
