<?xml version="1.0" encoding="utf-8" standalone="no"?>
<!DOCTYPE svg PUBLIC "-//W3C//DTD SVG 1.1//EN"
  "http://www.w3.org/Graphics/SVG/1.1/DTD/svg11.dtd">
<svg xmlns:xlink="http://www.w3.org/1999/xlink" width="1080pt" height="432pt" viewBox="0 0 1080 432" xmlns="http://www.w3.org/2000/svg" version="1.1">
 <metadata>
  <rdf:RDF xmlns:dc="http://purl.org/dc/elements/1.1/" xmlns:cc="http://creativecommons.org/ns#" xmlns:rdf="http://www.w3.org/1999/02/22-rdf-syntax-ns#">
   <cc:Work>
    <dc:type rdf:resource="http://purl.org/dc/dcmitype/StillImage"/>
    <dc:date>2024-02-21T08:27:58.764632</dc:date>
    <dc:format>image/svg+xml</dc:format>
    <dc:creator>
     <cc:Agent>
      <dc:title>Matplotlib v3.7.1, https://matplotlib.org/</dc:title>
     </cc:Agent>
    </dc:creator>
   </cc:Work>
  </rdf:RDF>
 </metadata>
 <defs>
  <style type="text/css">*{stroke-linejoin: round; stroke-linecap: butt}</style>
 </defs>
 <g id="figure_1">
  <g id="patch_1">
   <path d="M 0 432 
L 1080 432 
L 1080 0 
L 0 0 
z
" style="fill: #ffffff"/>
  </g>
  <g id="axes_1">
   <g id="patch_2">
    <path d="M 135 384.48 
L 972 384.48 
L 972 51.84 
L 135 51.84 
z
" style="fill: #ffffff"/>
   </g>
   <g id="matplotlib.axis_1">
    <g id="xtick_1">
     <g id="line2d_1">
      <defs>
       <path id="m516ce3fe54" d="M 0 0 
L 0 3.5 
" style="stroke: #000000; stroke-width: 0.8"/>
      </defs>
      <g>
       <use xlink:href="#m516ce3fe54" x="135" y="384.48" style="stroke: #000000; stroke-width: 0.8"/>
      </g>
     </g>
     <g id="text_1">
      <!-- 0 -->
      <g transform="translate(131.81875 399.078438) scale(0.1 -0.1)">
       <defs>
        <path id="DejaVuSans-30" d="M 2034 4250 
Q 1547 4250 1301 3770 
Q 1056 3291 1056 2328 
Q 1056 1369 1301 889 
Q 1547 409 2034 409 
Q 2525 409 2770 889 
Q 3016 1369 3016 2328 
Q 3016 3291 2770 3770 
Q 2525 4250 2034 4250 
z
M 2034 4750 
Q 2819 4750 3233 4129 
Q 3647 3509 3647 2328 
Q 3647 1150 3233 529 
Q 2819 -91 2034 -91 
Q 1250 -91 836 529 
Q 422 1150 422 2328 
Q 422 3509 836 4129 
Q 1250 4750 2034 4750 
z
" transform="scale(0.015625)"/>
       </defs>
       <use xlink:href="#DejaVuSans-30"/>
      </g>
     </g>
    </g>
    <g id="xtick_2">
     <g id="line2d_2">
      <g>
       <use xlink:href="#m516ce3fe54" x="302.4" y="384.48" style="stroke: #000000; stroke-width: 0.8"/>
      </g>
     </g>
     <g id="text_2">
      <!-- 100 -->
      <g transform="translate(292.85625 399.078438) scale(0.1 -0.1)">
       <defs>
        <path id="DejaVuSans-31" d="M 794 531 
L 1825 531 
L 1825 4091 
L 703 3866 
L 703 4441 
L 1819 4666 
L 2450 4666 
L 2450 531 
L 3481 531 
L 3481 0 
L 794 0 
L 794 531 
z
" transform="scale(0.015625)"/>
       </defs>
       <use xlink:href="#DejaVuSans-31"/>
       <use xlink:href="#DejaVuSans-30" x="63.623047"/>
       <use xlink:href="#DejaVuSans-30" x="127.246094"/>
      </g>
     </g>
    </g>
    <g id="xtick_3">
     <g id="line2d_3">
      <g>
       <use xlink:href="#m516ce3fe54" x="469.8" y="384.48" style="stroke: #000000; stroke-width: 0.8"/>
      </g>
     </g>
     <g id="text_3">
      <!-- 200 -->
      <g transform="translate(460.25625 399.078438) scale(0.1 -0.1)">
       <defs>
        <path id="DejaVuSans-32" d="M 1228 531 
L 3431 531 
L 3431 0 
L 469 0 
L 469 531 
Q 828 903 1448 1529 
Q 2069 2156 2228 2338 
Q 2531 2678 2651 2914 
Q 2772 3150 2772 3378 
Q 2772 3750 2511 3984 
Q 2250 4219 1831 4219 
Q 1534 4219 1204 4116 
Q 875 4013 500 3803 
L 500 4441 
Q 881 4594 1212 4672 
Q 1544 4750 1819 4750 
Q 2544 4750 2975 4387 
Q 3406 4025 3406 3419 
Q 3406 3131 3298 2873 
Q 3191 2616 2906 2266 
Q 2828 2175 2409 1742 
Q 1991 1309 1228 531 
z
" transform="scale(0.015625)"/>
       </defs>
       <use xlink:href="#DejaVuSans-32"/>
       <use xlink:href="#DejaVuSans-30" x="63.623047"/>
       <use xlink:href="#DejaVuSans-30" x="127.246094"/>
      </g>
     </g>
    </g>
    <g id="xtick_4">
     <g id="line2d_4">
      <g>
       <use xlink:href="#m516ce3fe54" x="637.2" y="384.48" style="stroke: #000000; stroke-width: 0.8"/>
      </g>
     </g>
     <g id="text_4">
      <!-- 300 -->
      <g transform="translate(627.65625 399.078438) scale(0.1 -0.1)">
       <defs>
        <path id="DejaVuSans-33" d="M 2597 2516 
Q 3050 2419 3304 2112 
Q 3559 1806 3559 1356 
Q 3559 666 3084 287 
Q 2609 -91 1734 -91 
Q 1441 -91 1130 -33 
Q 819 25 488 141 
L 488 750 
Q 750 597 1062 519 
Q 1375 441 1716 441 
Q 2309 441 2620 675 
Q 2931 909 2931 1356 
Q 2931 1769 2642 2001 
Q 2353 2234 1838 2234 
L 1294 2234 
L 1294 2753 
L 1863 2753 
Q 2328 2753 2575 2939 
Q 2822 3125 2822 3475 
Q 2822 3834 2567 4026 
Q 2313 4219 1838 4219 
Q 1578 4219 1281 4162 
Q 984 4106 628 3988 
L 628 4550 
Q 988 4650 1302 4700 
Q 1616 4750 1894 4750 
Q 2613 4750 3031 4423 
Q 3450 4097 3450 3541 
Q 3450 3153 3228 2886 
Q 3006 2619 2597 2516 
z
" transform="scale(0.015625)"/>
       </defs>
       <use xlink:href="#DejaVuSans-33"/>
       <use xlink:href="#DejaVuSans-30" x="63.623047"/>
       <use xlink:href="#DejaVuSans-30" x="127.246094"/>
      </g>
     </g>
    </g>
    <g id="xtick_5">
     <g id="line2d_5">
      <g>
       <use xlink:href="#m516ce3fe54" x="804.6" y="384.48" style="stroke: #000000; stroke-width: 0.8"/>
      </g>
     </g>
     <g id="text_5">
      <!-- 400 -->
      <g transform="translate(795.05625 399.078438) scale(0.1 -0.1)">
       <defs>
        <path id="DejaVuSans-34" d="M 2419 4116 
L 825 1625 
L 2419 1625 
L 2419 4116 
z
M 2253 4666 
L 3047 4666 
L 3047 1625 
L 3713 1625 
L 3713 1100 
L 3047 1100 
L 3047 0 
L 2419 0 
L 2419 1100 
L 313 1100 
L 313 1709 
L 2253 4666 
z
" transform="scale(0.015625)"/>
       </defs>
       <use xlink:href="#DejaVuSans-34"/>
       <use xlink:href="#DejaVuSans-30" x="63.623047"/>
       <use xlink:href="#DejaVuSans-30" x="127.246094"/>
      </g>
     </g>
    </g>
    <g id="xtick_6">
     <g id="line2d_6">
      <g>
       <use xlink:href="#m516ce3fe54" x="972" y="384.48" style="stroke: #000000; stroke-width: 0.8"/>
      </g>
     </g>
     <g id="text_6">
      <!-- 500 -->
      <g transform="translate(962.45625 399.078438) scale(0.1 -0.1)">
       <defs>
        <path id="DejaVuSans-35" d="M 691 4666 
L 3169 4666 
L 3169 4134 
L 1269 4134 
L 1269 2991 
Q 1406 3038 1543 3061 
Q 1681 3084 1819 3084 
Q 2600 3084 3056 2656 
Q 3513 2228 3513 1497 
Q 3513 744 3044 326 
Q 2575 -91 1722 -91 
Q 1428 -91 1123 -41 
Q 819 9 494 109 
L 494 744 
Q 775 591 1075 516 
Q 1375 441 1709 441 
Q 2250 441 2565 725 
Q 2881 1009 2881 1497 
Q 2881 1984 2565 2268 
Q 2250 2553 1709 2553 
Q 1456 2553 1204 2497 
Q 953 2441 691 2322 
L 691 4666 
z
" transform="scale(0.015625)"/>
       </defs>
       <use xlink:href="#DejaVuSans-35"/>
       <use xlink:href="#DejaVuSans-30" x="63.623047"/>
       <use xlink:href="#DejaVuSans-30" x="127.246094"/>
      </g>
     </g>
    </g>
   </g>
   <g id="matplotlib.axis_2">
    <g id="ytick_1">
     <g id="line2d_7">
      <defs>
       <path id="mcbcb0f529c" d="M 0 0 
L -3.5 0 
" style="stroke: #000000; stroke-width: 0.8"/>
      </defs>
      <g>
       <use xlink:href="#mcbcb0f529c" x="135" y="350.054904" style="stroke: #000000; stroke-width: 0.8"/>
      </g>
     </g>
     <g id="text_7">
      <!-- 350 -->
      <g transform="translate(108.9125 353.854123) scale(0.1 -0.1)">
       <use xlink:href="#DejaVuSans-33"/>
       <use xlink:href="#DejaVuSans-35" x="63.623047"/>
       <use xlink:href="#DejaVuSans-30" x="127.246094"/>
      </g>
     </g>
    </g>
    <g id="ytick_2">
     <g id="line2d_8">
      <g>
       <use xlink:href="#mcbcb0f529c" x="135" y="310.860504" style="stroke: #000000; stroke-width: 0.8"/>
      </g>
     </g>
     <g id="text_8">
      <!-- 400 -->
      <g transform="translate(108.9125 314.659723) scale(0.1 -0.1)">
       <use xlink:href="#DejaVuSans-34"/>
       <use xlink:href="#DejaVuSans-30" x="63.623047"/>
       <use xlink:href="#DejaVuSans-30" x="127.246094"/>
      </g>
     </g>
    </g>
    <g id="ytick_3">
     <g id="line2d_9">
      <g>
       <use xlink:href="#mcbcb0f529c" x="135" y="271.666104" style="stroke: #000000; stroke-width: 0.8"/>
      </g>
     </g>
     <g id="text_9">
      <!-- 450 -->
      <g transform="translate(108.9125 275.465322) scale(0.1 -0.1)">
       <use xlink:href="#DejaVuSans-34"/>
       <use xlink:href="#DejaVuSans-35" x="63.623047"/>
       <use xlink:href="#DejaVuSans-30" x="127.246094"/>
      </g>
     </g>
    </g>
    <g id="ytick_4">
     <g id="line2d_10">
      <g>
       <use xlink:href="#mcbcb0f529c" x="135" y="232.471703" style="stroke: #000000; stroke-width: 0.8"/>
      </g>
     </g>
     <g id="text_10">
      <!-- 500 -->
      <g transform="translate(108.9125 236.270922) scale(0.1 -0.1)">
       <use xlink:href="#DejaVuSans-35"/>
       <use xlink:href="#DejaVuSans-30" x="63.623047"/>
       <use xlink:href="#DejaVuSans-30" x="127.246094"/>
      </g>
     </g>
    </g>
    <g id="ytick_5">
     <g id="line2d_11">
      <g>
       <use xlink:href="#mcbcb0f529c" x="135" y="193.277303" style="stroke: #000000; stroke-width: 0.8"/>
      </g>
     </g>
     <g id="text_11">
      <!-- 550 -->
      <g transform="translate(108.9125 197.076522) scale(0.1 -0.1)">
       <use xlink:href="#DejaVuSans-35"/>
       <use xlink:href="#DejaVuSans-35" x="63.623047"/>
       <use xlink:href="#DejaVuSans-30" x="127.246094"/>
      </g>
     </g>
    </g>
    <g id="ytick_6">
     <g id="line2d_12">
      <g>
       <use xlink:href="#mcbcb0f529c" x="135" y="154.082903" style="stroke: #000000; stroke-width: 0.8"/>
      </g>
     </g>
     <g id="text_12">
      <!-- 600 -->
      <g transform="translate(108.9125 157.882122) scale(0.1 -0.1)">
       <defs>
        <path id="DejaVuSans-36" d="M 2113 2584 
Q 1688 2584 1439 2293 
Q 1191 2003 1191 1497 
Q 1191 994 1439 701 
Q 1688 409 2113 409 
Q 2538 409 2786 701 
Q 3034 994 3034 1497 
Q 3034 2003 2786 2293 
Q 2538 2584 2113 2584 
z
M 3366 4563 
L 3366 3988 
Q 3128 4100 2886 4159 
Q 2644 4219 2406 4219 
Q 1781 4219 1451 3797 
Q 1122 3375 1075 2522 
Q 1259 2794 1537 2939 
Q 1816 3084 2150 3084 
Q 2853 3084 3261 2657 
Q 3669 2231 3669 1497 
Q 3669 778 3244 343 
Q 2819 -91 2113 -91 
Q 1303 -91 875 529 
Q 447 1150 447 2328 
Q 447 3434 972 4092 
Q 1497 4750 2381 4750 
Q 2619 4750 2861 4703 
Q 3103 4656 3366 4563 
z
" transform="scale(0.015625)"/>
       </defs>
       <use xlink:href="#DejaVuSans-36"/>
       <use xlink:href="#DejaVuSans-30" x="63.623047"/>
       <use xlink:href="#DejaVuSans-30" x="127.246094"/>
      </g>
     </g>
    </g>
    <g id="ytick_7">
     <g id="line2d_13">
      <g>
       <use xlink:href="#mcbcb0f529c" x="135" y="114.888503" style="stroke: #000000; stroke-width: 0.8"/>
      </g>
     </g>
     <g id="text_13">
      <!-- 650 -->
      <g transform="translate(108.9125 118.687722) scale(0.1 -0.1)">
       <use xlink:href="#DejaVuSans-36"/>
       <use xlink:href="#DejaVuSans-35" x="63.623047"/>
       <use xlink:href="#DejaVuSans-30" x="127.246094"/>
      </g>
     </g>
    </g>
    <g id="ytick_8">
     <g id="line2d_14">
      <g>
       <use xlink:href="#mcbcb0f529c" x="135" y="75.694103" style="stroke: #000000; stroke-width: 0.8"/>
      </g>
     </g>
     <g id="text_14">
      <!-- 700 -->
      <g transform="translate(108.9125 79.493321) scale(0.1 -0.1)">
       <defs>
        <path id="DejaVuSans-37" d="M 525 4666 
L 3525 4666 
L 3525 4397 
L 1831 0 
L 1172 0 
L 2766 4134 
L 525 4134 
L 525 4666 
z
" transform="scale(0.015625)"/>
       </defs>
       <use xlink:href="#DejaVuSans-37"/>
       <use xlink:href="#DejaVuSans-30" x="63.623047"/>
       <use xlink:href="#DejaVuSans-30" x="127.246094"/>
      </g>
     </g>
    </g>
   </g>
   <g id="line2d_15">
    <path d="M 135 134.223588 
L 136.674 165.387292 
L 138.348 191.279895 
L 140.022 207.313484 
L 141.696 217.19333 
L 143.37 224.461382 
L 145.044 228.228621 
L 146.718 233.060878 
L 148.392 220.861033 
L 150.066 189.077391 
L 151.74 154.870944 
L 153.414 130.386927 
L 155.088 112.43366 
L 156.762 105.985402 
L 158.436 131.590111 
L 160.11 134.831562 
L 161.784 133.828371 
L 163.458 134.634141 
L 165.132 122.23948 
L 166.806 128.294583 
L 168.48 131.150962 
L 170.154 109.34999 
L 171.828 100.469774 
L 173.502 116.561628 
L 175.176 136.388093 
L 178.524 189.115191 
L 180.198 206.811689 
L 181.872 218.481171 
L 183.546 225.816597 
L 185.22 230.200299 
L 186.894 240.975216 
L 188.568 238.532852 
L 190.242 222.380452 
L 191.916 201.452928 
L 193.59 174.974617 
L 195.264 155.57257 
L 196.938 148.962658 
L 198.612 161.854376 
L 200.286 165.337537 
L 201.96 169.899977 
L 203.634 174.997027 
L 205.308 164.354034 
L 206.982 161.611452 
L 208.656 160.10163 
L 210.33 132.545376 
L 212.004 116.140478 
L 213.678 125.483162 
L 215.352 142.595798 
L 217.026 173.77551 
L 218.7 201.442743 
L 220.374 215.243405 
L 222.048 222.599004 
L 223.722 227.682842 
L 225.396 230.433614 
L 227.07 234.510254 
L 228.744 218.07925 
L 230.418 181.835371 
L 232.092 149.273629 
L 233.766 124.396085 
L 235.44 105.690671 
L 237.114 99.924277 
L 238.788 139.082507 
L 240.462 157.549845 
L 242.136 193.261347 
L 243.81 194.598496 
L 245.484 164.300234 
L 247.158 144.996931 
L 248.832 157.09873 
L 250.506 132.892328 
L 252.18 127.371383 
L 253.854 143.657237 
L 257.202 194.878363 
L 258.876 212.342451 
L 260.55 218.890963 
L 262.224 214.875475 
L 263.898 220.799508 
L 265.572 222.39235 
L 267.246 224.854218 
L 268.92 211.924354 
L 272.268 143.818706 
L 273.942 113.237681 
L 275.616 105.68333 
L 277.29 129.538316 
L 278.964 177.470449 
L 280.638 184.60525 
L 282.312 185.699823 
L 283.986 181.954881 
L 285.66 171.443545 
L 289.008 153.886685 
L 290.682 132.997118 
L 292.356 178.566465 
L 294.03 142.751923 
L 295.704 153.876455 
L 297.378 179.318302 
L 299.052 183.75618 
L 300.726 201.349653 
L 302.4 214.686429 
L 304.074 221.307682 
L 305.748 223.662696 
L 307.422 227.949766 
L 309.096 213.942067 
L 312.444 141.800679 
L 314.118 118.77867 
L 315.792 126.93755 
L 317.466 179.06164 
L 319.14 213.661831 
L 320.814 237.806793 
L 322.488 215.086069 
L 324.162 201.11707 
L 325.836 169.390255 
L 327.51 153.302818 
L 329.184 145.510073 
L 330.858 129.896429 
L 332.532 131.363283 
L 334.206 145.255443 
L 335.88 156.67621 
L 337.554 175.260347 
L 340.902 193.910248 
L 342.576 206.209498 
L 344.25 213.533994 
L 347.598 222.459224 
L 349.272 208.234967 
L 350.946 171.429979 
L 352.62 138.024274 
L 354.294 121.524665 
L 355.968 126.589942 
L 357.642 133.830112 
L 359.316 164.215774 
L 360.99 172.213747 
L 362.664 202.758754 
L 364.338 207.34565 
L 366.012 202.403108 
L 367.686 179.360931 
L 369.36 200.780783 
L 371.034 177.618164 
L 372.708 147.748847 
L 374.382 167.228102 
L 376.056 183.768554 
L 377.73 203.13197 
L 379.404 171.706374 
L 381.078 191.103169 
L 382.752 207.018926 
L 384.426 212.261556 
L 386.1 215.874368 
L 387.774 217.995053 
L 389.448 203.021768 
L 392.796 130.338082 
L 394.47 104.995016 
L 396.144 128.078339 
L 397.818 138.047458 
L 399.492 176.770905 
L 401.166 192.427411 
L 402.84 194.21091 
L 406.188 165.995876 
L 407.862 165.590662 
L 409.536 158.454482 
L 411.21 136.482497 
L 412.884 126.464965 
L 414.558 148.226836 
L 416.232 160.349704 
L 417.906 175.579955 
L 419.58 179.204163 
L 422.928 207.043456 
L 424.602 212.513689 
L 426.276 216.910519 
L 427.95 224.113023 
L 429.624 213.301052 
L 432.972 141.90403 
L 434.646 124.625732 
L 436.32 142.861194 
L 437.994 166.577091 
L 439.668 212.972397 
L 441.342 192.814379 
L 443.016 182.338939 
L 444.69 196.383148 
L 446.364 191.361481 
L 448.038 174.826303 
L 449.712 160.221895 
L 451.386 134.492481 
L 453.06 145.870788 
L 454.734 161.308263 
L 456.408 174.740078 
L 458.082 179.239225 
L 459.756 177.376969 
L 461.43 187.911733 
L 463.104 200.506382 
L 466.452 214.355511 
L 468.126 227.677391 
L 469.8 224.987572 
L 471.474 204.818241 
L 473.148 178.741122 
L 474.822 150.406741 
L 476.496 131.345382 
L 478.17 126.196029 
L 479.844 149.497231 
L 481.518 167.675107 
L 483.192 168.490466 
L 484.866 161.895992 
L 486.54 171.805948 
L 488.214 177.223942 
L 489.888 152.785699 
L 491.562 117.89698 
L 493.236 107.822161 
L 494.91 131.422255 
L 496.584 153.106375 
L 498.258 173.329323 
L 499.932 187.665365 
L 501.606 203.415049 
L 503.28 213.688423 
L 504.954 220.665887 
L 506.628 223.510845 
L 508.302 226.861288 
L 509.976 213.576278 
L 511.65 180.224461 
L 513.324 163.74003 
L 514.998 161.429291 
L 516.672 179.446158 
L 518.346 193.302954 
L 520.02 222.078593 
L 521.694 217.511616 
L 523.368 201.786881 
L 525.042 177.59985 
L 526.716 174.181842 
L 528.39 207.516721 
L 530.064 190.253045 
L 531.738 149.842069 
L 533.412 135.202106 
L 535.086 158.242342 
L 536.76 156.99872 
L 538.434 167.491075 
L 540.108 195.761511 
L 541.782 191.02591 
L 543.456 203.746639 
L 545.13 214.198986 
L 546.804 214.976733 
L 548.478 216.951501 
L 550.152 206.975426 
L 551.826 169.82583 
L 553.5 136.816831 
L 555.174 145.957702 
L 556.848 165.52382 
L 558.522 174.033747 
L 560.196 208.311661 
L 561.87 202.631607 
L 563.544 192.899619 
L 565.218 177.36046 
L 566.892 185.827977 
L 568.566 182.888679 
L 571.914 141.809642 
L 573.588 157.772418 
L 575.262 124.811091 
L 576.936 113.139328 
L 578.61 138.801898 
L 580.284 167.199072 
L 581.958 187.452357 
L 583.632 199.372072 
L 585.306 205.486218 
L 586.98 208.906439 
L 588.654 213.111535 
L 590.328 204.211478 
L 593.676 143.636752 
L 595.35 119.604568 
L 597.024 102.306694 
L 598.698 94.099432 
L 600.372 113.568866 
L 602.046 115.401591 
L 603.72 112.759487 
L 605.394 114.297895 
L 607.068 103.703215 
L 610.416 117.490253 
L 612.09 87.791028 
L 613.764 78.773617 
L 615.438 98.148587 
L 618.786 143.986427 
L 620.46 170.307853 
L 622.134 190.602816 
L 623.808 202.329793 
L 625.482 210.519059 
L 628.83 221.079007 
L 630.504 211.529793 
L 633.852 150.604253 
L 635.526 124.118644 
L 637.2 103.458642 
L 638.874 94.951406 
L 640.548 114.585875 
L 642.222 116.204244 
L 643.896 114.876712 
L 645.57 112.383604 
L 647.244 108.510485 
L 648.918 117.396772 
L 650.592 124.47078 
L 652.266 95.971279 
L 653.94 87.0941 
L 655.614 108.454088 
L 657.288 131.82392 
L 658.962 151.974486 
L 660.636 176.594797 
L 662.31 197.046746 
L 663.984 212.179078 
L 665.658 219.244779 
L 667.332 224.291779 
L 669.006 235.054404 
L 670.68 234.991867 
L 672.354 219.059546 
L 675.702 174.55378 
L 677.376 159.787305 
L 679.05 154.567254 
L 680.724 167.423148 
L 682.398 171.005188 
L 684.072 177.207338 
L 685.746 181.787619 
L 687.42 181.744138 
L 689.094 198.586521 
L 690.768 217.421785 
L 692.442 197.764732 
L 694.116 194.16843 
L 695.79 213.494642 
L 697.464 238.178037 
L 699.138 259.619199 
L 700.812 283.138644 
L 702.486 304.970485 
L 704.16 319.413046 
L 705.834 329.079773 
L 707.508 337.31143 
L 710.856 367.963748 
L 712.53 369.36 
L 714.204 361.988947 
L 715.878 353.899355 
L 717.552 350.312018 
L 719.226 338.1573 
L 720.9 314.577255 
L 722.574 293.137985 
L 724.248 277.786547 
L 725.922 259.387134 
L 727.596 231.334643 
L 729.27 211.393008 
L 730.944 193.894614 
L 732.618 152.239218 
L 734.292 135.501514 
L 735.966 146.858277 
L 737.64 162.442906 
L 739.314 180.888788 
L 740.988 205.247251 
L 742.662 223.228329 
L 744.336 234.829689 
L 746.01 242.642055 
L 747.684 246.964302 
L 749.358 255.03489 
L 751.032 250.211591 
L 752.706 228.853003 
L 754.38 205.593512 
L 756.054 175.770942 
L 757.728 153.751157 
L 759.402 143.048104 
L 761.076 153.309725 
L 762.75 154.988781 
L 764.424 160.258156 
L 766.098 160.673554 
L 767.772 152.095577 
L 769.446 155.773931 
L 771.12 154.235728 
L 772.794 115.035411 
L 774.468 101.842006 
L 776.142 112.357984 
L 777.816 132.759494 
L 781.164 188.192734 
L 782.838 205.734018 
L 784.512 216.873076 
L 786.186 223.699679 
L 787.86 226.699779 
L 789.534 231.295043 
L 791.208 225.014478 
L 792.882 196.012785 
L 794.556 162.387346 
L 796.23 136.829228 
L 797.904 118.364384 
L 799.578 108.870356 
L 801.252 129.932664 
L 802.926 130.959643 
L 804.6 131.208029 
L 806.274 127.863931 
L 807.948 118.797959 
L 809.622 123.001158 
L 811.296 128.352733 
L 812.97 92.527673 
L 814.644 87.231328 
L 816.318 103.309732 
L 817.992 128.664965 
L 819.666 163.487457 
L 821.34 191.334746 
L 823.014 207.331839 
L 824.688 217.001697 
L 826.362 223.797005 
L 828.036 226.88598 
L 829.71 231.417708 
L 831.384 221.220297 
L 833.058 189.410352 
L 834.732 155.342755 
L 836.406 129.435038 
L 838.08 107.641665 
L 839.754 100.185159 
L 841.428 124.071678 
L 843.102 127.005032 
L 844.776 125.648832 
L 846.45 121.489322 
L 848.124 111.32886 
L 849.798 112.429965 
L 851.472 112.672554 
L 853.146 82.114106 
L 854.82 83.987453 
L 856.494 101.489363 
L 858.168 125.142692 
L 859.842 159.282904 
L 861.516 187.461177 
L 863.19 205.327763 
L 864.864 215.699459 
L 866.538 224.694 
L 868.212 227.807913 
L 869.886 231.941928 
L 871.56 220.187505 
L 874.908 154.169868 
L 876.582 126.674225 
L 878.256 106.009423 
L 879.93 99.888637 
L 881.604 122.790585 
L 883.278 127.025533 
L 884.952 129.696047 
L 886.626 124.957079 
L 888.3 112.62217 
L 889.974 105.635577 
L 891.648 107.673704 
L 893.322 78.261109 
L 894.996 79.996601 
L 896.67 101.617297 
L 898.344 127.887947 
L 900.018 160.851628 
L 901.692 188.115307 
L 903.366 207.402996 
L 905.04 218.75011 
L 906.714 224.298836 
L 910.062 231.477842 
L 911.736 222.124909 
L 915.084 151.680575 
L 916.758 124.980103 
L 918.432 108.81822 
L 920.106 115.453781 
L 921.78 164.624142 
L 923.454 162.259057 
L 925.128 165.302738 
L 926.802 164.475851 
L 928.476 169.751416 
L 930.15 166.578105 
L 931.824 154.385186 
L 933.498 151.613964 
L 935.172 179.129109 
L 936.846 187.537175 
L 938.52 207.819112 
L 941.868 183.879946 
L 943.542 201.688803 
L 945.216 213.87774 
L 946.89 221.573589 
L 950.238 230.261377 
L 951.912 218.211551 
L 955.26 147.472268 
L 956.934 121.204017 
L 958.608 103.140235 
L 960.282 111.090741 
L 961.956 173.222188 
L 963.63 212.408435 
L 965.304 236.839635 
L 966.978 247.579187 
L 968.652 233.689209 
L 970.326 198.728404 
L 970.326 198.728404 
" clip-path="url(#pe68fe35013)" style="fill: none; stroke: #1f77b4; stroke-width: 1.5; stroke-linecap: square"/>
   </g>
   <g id="line2d_16">
    <path d="M 135 132.784727 
L 136.674 165.848687 
L 138.348 196.430606 
L 140.022 211.444664 
L 141.696 220.561716 
L 143.37 224.575099 
L 145.044 231.146405 
L 146.718 232.322021 
L 148.392 217.316934 
L 150.066 179.047229 
L 153.414 125.483622 
L 155.088 111.895193 
L 156.762 103.723888 
L 158.436 126.086848 
L 160.11 139.535283 
L 161.784 128.719552 
L 163.458 129.544108 
L 165.132 121.623174 
L 166.806 120.396914 
L 168.48 132.314749 
L 170.154 108.282438 
L 171.828 88.641747 
L 173.502 111.849932 
L 175.176 136.76249 
L 178.524 193.301752 
L 180.198 209.96296 
L 181.872 219.673813 
L 183.546 226.217178 
L 185.22 231.432683 
L 186.894 235.429177 
L 188.568 229.63597 
L 190.242 207.988121 
L 193.59 175.155587 
L 195.264 157.315436 
L 196.938 144.108713 
L 198.612 154.38088 
L 200.286 168.857068 
L 201.96 169.791045 
L 203.634 167.685063 
L 205.308 164.790936 
L 206.982 158.837903 
L 208.656 160.948047 
L 210.33 146.675965 
L 212.004 112.533251 
L 213.678 124.598351 
L 215.352 144.911021 
L 217.026 167.275704 
L 218.7 200.70869 
L 220.374 218.364638 
L 222.048 227.451261 
L 223.722 231.120855 
L 225.396 233.020578 
L 227.07 232.698272 
L 228.744 212.84972 
L 230.418 176.900819 
L 232.092 146.554822 
L 233.766 123.22425 
L 235.44 108.234593 
L 237.114 108.438795 
L 238.788 132.408955 
L 240.462 148.604634 
L 242.136 153.814255 
L 243.81 183.599463 
L 245.484 174.485426 
L 247.158 145.304018 
L 248.832 123.225542 
L 250.506 152.602635 
L 252.18 113.800035 
L 253.854 126.203015 
L 255.528 146.570755 
L 257.202 182.432865 
L 258.876 209.116444 
L 260.55 221.190204 
L 262.224 229.414401 
L 263.898 218.750171 
L 265.572 222.35173 
L 267.246 209.508196 
L 268.92 210.548723 
L 270.594 188.895683 
L 272.268 151.210114 
L 273.942 120.200464 
L 275.616 98.716698 
L 277.29 106.919724 
L 280.638 179.282147 
L 282.312 178.240663 
L 283.986 169.958836 
L 285.66 158.12095 
L 287.334 157.891917 
L 289.008 144.443243 
L 290.682 139.894789 
L 292.356 128.426073 
L 294.03 191.132903 
L 295.704 153.259208 
L 297.378 172.538528 
L 299.052 188.946542 
L 300.726 190.615031 
L 302.4 207.129309 
L 304.074 221.931032 
L 305.748 218.924373 
L 307.422 201.375023 
L 309.096 215.673324 
L 314.118 115.674113 
L 315.792 101.953585 
L 317.466 133.413024 
L 319.14 197.677009 
L 320.814 214.369555 
L 322.488 235.98164 
L 324.162 188.78033 
L 325.836 188.04486 
L 327.51 137.947317 
L 329.184 133.439052 
L 330.858 132.365033 
L 332.532 136.64551 
L 334.206 129.920407 
L 335.88 142.105885 
L 339.228 185.793766 
L 342.576 205.942616 
L 344.25 214.022872 
L 345.924 217.217608 
L 347.598 208.243277 
L 349.272 215.348698 
L 350.946 182.357893 
L 352.62 141.637246 
L 354.294 114.197673 
L 355.968 110.728452 
L 357.642 144.010248 
L 359.316 144.268036 
L 360.99 179.429173 
L 362.664 185.809938 
L 364.338 208.651345 
L 366.012 193.202618 
L 367.686 193.979425 
L 369.36 147.647118 
L 371.034 184.915145 
L 372.708 147.302827 
L 374.382 128.274548 
L 376.056 161.838294 
L 377.73 187.324893 
L 379.404 215.245879 
L 381.078 169.184421 
L 382.752 200.044844 
L 384.426 191.416813 
L 386.1 199.741796 
L 387.774 207.303368 
L 389.448 208.703591 
L 391.122 180.461758 
L 392.796 142.139615 
L 394.47 111.722043 
L 396.144 95.817069 
L 397.818 138.727664 
L 399.492 161.052971 
L 401.166 189.204377 
L 402.84 193.613221 
L 404.514 189.021563 
L 406.188 157.877851 
L 407.862 153.495705 
L 409.536 155.958464 
L 411.21 146.660464 
L 412.884 128.886387 
L 414.558 130.015666 
L 416.232 163.402625 
L 419.58 191.740674 
L 421.254 187.140643 
L 422.928 204.686357 
L 424.602 210.060229 
L 426.276 214.49931 
L 427.95 209.055394 
L 429.624 215.716528 
L 431.298 187.485077 
L 432.972 146.493198 
L 434.646 114.238867 
L 436.32 108.93882 
L 437.994 146.267706 
L 439.668 201.020398 
L 441.342 224.9064 
L 443.016 173.362893 
L 444.69 166.188576 
L 446.364 178.999719 
L 448.038 181.785 
L 449.712 156.284957 
L 451.386 142.275734 
L 453.06 120.482221 
L 454.734 148.73391 
L 456.408 167.856778 
L 458.082 190.35667 
L 459.756 167.56636 
L 461.43 171.521062 
L 463.104 188.324465 
L 464.778 203.330676 
L 466.452 205.213654 
L 468.126 209.452314 
L 469.8 227.754835 
L 471.474 205.56158 
L 473.148 178.208559 
L 474.822 148.549948 
L 476.496 125.393482 
L 478.17 120.451553 
L 479.844 138.223477 
L 481.518 179.338986 
L 483.192 164.460664 
L 484.866 159.807477 
L 486.54 146.66142 
L 488.214 166.354788 
L 489.888 168.061984 
L 491.562 142.775376 
L 493.236 128.544728 
L 494.91 125.545437 
L 496.584 154.223232 
L 498.258 184.890792 
L 499.932 195.656717 
L 501.606 198.42841 
L 503.28 213.383045 
L 504.954 209.509919 
L 506.628 225.182942 
L 508.302 214.832932 
L 509.976 212.640686 
L 511.65 175.240033 
L 513.324 146.366458 
L 514.998 143.239613 
L 516.672 152.510438 
L 518.346 169.701527 
L 520.02 194.602459 
L 521.694 217.407743 
L 523.368 199.207466 
L 525.042 189.653257 
L 526.716 159.206212 
L 528.39 166.652143 
L 530.064 180.443195 
L 531.738 175.899381 
L 533.412 141.409218 
L 535.086 130.639513 
L 536.76 171.40968 
L 538.434 153.414273 
L 540.108 200.26627 
L 541.782 189.251074 
L 543.456 184.130061 
L 545.13 194.457728 
L 546.804 213.069806 
L 548.478 199.060295 
L 550.152 206.889989 
L 551.826 192.812348 
L 553.5 146.958201 
L 555.174 122.537009 
L 556.848 144.511278 
L 558.522 182.866243 
L 560.196 191.858564 
L 561.87 218.15393 
L 563.544 181.651322 
L 565.218 183.201826 
L 566.892 154.858705 
L 568.566 194.515286 
L 570.24 162.598642 
L 571.914 155.624556 
L 573.588 129.223596 
L 575.262 160.659256 
L 576.936 130.683195 
L 578.61 132.330633 
L 580.284 154.433174 
L 581.958 185.481723 
L 583.632 204.625594 
L 585.306 214.712841 
L 586.98 216.510224 
L 588.654 198.326931 
L 590.328 197.577205 
L 592.002 181.680842 
L 593.676 140.788863 
L 595.35 116.360159 
L 597.024 110.187376 
L 598.698 114.298721 
L 600.372 121.608295 
L 603.72 142.481514 
L 605.394 134.981087 
L 607.068 139.295581 
L 608.742 132.899459 
L 610.416 120.310698 
L 612.09 115.413264 
L 613.764 109.201392 
L 615.438 104.661932 
L 617.112 118.699192 
L 618.786 153.649573 
L 620.46 176.492512 
L 622.134 192.54748 
L 623.808 203.795344 
L 625.482 210.151995 
L 627.156 217.825811 
L 628.83 222.705351 
L 630.504 210.056545 
L 632.178 171.796265 
L 633.852 140.73987 
L 635.526 116.405659 
L 637.2 103.144488 
L 638.874 95.761808 
L 640.548 109.269905 
L 642.222 120.779433 
L 643.896 112.678124 
L 645.57 113.016482 
L 647.244 106.786573 
L 648.918 112.672 
L 650.592 114.708511 
L 652.266 105.804272 
L 653.94 83.529203 
L 655.614 104.498925 
L 657.288 129.445357 
L 658.962 160.612608 
L 660.636 182.850358 
L 662.31 197.309944 
L 663.984 209.268446 
L 665.658 217.14498 
L 667.332 225.898699 
L 669.006 230.047698 
L 670.68 227.695604 
L 674.028 185.568226 
L 675.702 167.225945 
L 677.376 157.214915 
L 679.05 150.50761 
L 680.724 156.383373 
L 682.398 167.547223 
L 684.072 167.423305 
L 685.746 169.030361 
L 687.42 167.495742 
L 689.094 171.076106 
L 690.768 177.144492 
L 692.442 187.979074 
L 694.116 174.011284 
L 695.79 182.574677 
L 697.464 218.781987 
L 699.138 244.209761 
L 700.812 262.458482 
L 702.486 284.202283 
L 704.16 303.941367 
L 705.834 322.25628 
L 707.508 336.841267 
L 709.182 349.586408 
L 710.856 355.370692 
L 712.53 346.10049 
L 714.204 341.512539 
L 715.878 341.095692 
L 717.552 338.8673 
L 719.226 338.712498 
L 720.9 328.790483 
L 722.574 293.11145 
L 724.248 275.138913 
L 725.922 265.635132 
L 727.596 248.591453 
L 729.27 228.298447 
L 730.944 202.780701 
L 732.618 160.608732 
L 734.292 142.530124 
L 735.966 147.141542 
L 737.64 164.830695 
L 739.314 181.325595 
L 740.988 194.529256 
L 742.662 211.466816 
L 747.684 237.813854 
L 749.358 233.421134 
L 751.032 235.306671 
L 752.706 213.720685 
L 754.38 211.043486 
L 756.054 187.517946 
L 757.728 158.650209 
L 759.402 135.804399 
L 761.076 128.942509 
L 762.75 144.500274 
L 764.424 147.815053 
L 767.772 163.28043 
L 769.446 147.73453 
L 771.12 159.715376 
L 772.794 155.624843 
L 774.468 130.979881 
L 776.142 135.76421 
L 777.816 145.007045 
L 779.49 167.304219 
L 781.164 197.154879 
L 782.838 214.977423 
L 784.512 224.351496 
L 786.186 228.458464 
L 787.86 234.530055 
L 789.534 233.260328 
L 791.208 229.606187 
L 792.882 188.209303 
L 794.556 156.35859 
L 796.23 130.309911 
L 797.904 117.046157 
L 799.578 111.439616 
L 801.252 131.596312 
L 802.926 149.773576 
L 804.6 129.928014 
L 806.274 129.470954 
L 807.948 121.160085 
L 809.622 124.261763 
L 811.296 126.232057 
L 812.97 124.588973 
L 814.644 90.187467 
L 816.318 109.657926 
L 817.992 130.698219 
L 819.666 162.764377 
L 821.34 198.430037 
L 823.014 213.14186 
L 824.688 221.410672 
L 826.362 224.40879 
L 828.036 231.617101 
L 829.71 230.701161 
L 831.384 219.027814 
L 833.058 177.261137 
L 834.732 149.553778 
L 836.406 125.12627 
L 838.08 110.227326 
L 839.754 100.027883 
L 841.428 122.892782 
L 843.102 134.453551 
L 844.776 121.928328 
L 846.45 121.769436 
L 848.124 111.070015 
L 849.798 115.779611 
L 851.472 119.443991 
L 854.82 73.97064 
L 856.494 101.310887 
L 858.168 123.284296 
L 859.842 160.200234 
L 861.516 191.292943 
L 863.19 206.875157 
L 864.864 217.212441 
L 866.538 222.652674 
L 868.212 232.957878 
L 869.886 230.386893 
L 871.56 222.972181 
L 873.234 176.48433 
L 874.908 146.603911 
L 876.582 123.243053 
L 878.256 107.302674 
L 879.93 98.797747 
L 881.604 121.586621 
L 883.278 131.444836 
L 884.952 122.592461 
L 886.626 125.902742 
L 888.3 113.070786 
L 889.974 114.001318 
L 891.648 110.576497 
L 893.322 96.559045 
L 894.996 66.96 
L 896.67 96.074043 
L 898.344 121.95493 
L 900.018 161.570986 
L 901.692 192.134006 
L 903.366 206.766263 
L 905.04 218.850214 
L 906.714 223.97027 
L 908.388 232.552226 
L 910.062 230.503467 
L 911.736 220.712953 
L 913.41 180.318655 
L 915.084 148.693434 
L 916.758 120.967606 
L 918.432 105.252814 
L 920.106 100.622784 
L 921.78 131.840129 
L 923.454 152.00649 
L 925.128 145.397985 
L 926.802 153.709044 
L 928.476 133.386279 
L 930.15 159.181381 
L 931.824 153.31112 
L 933.498 114.620381 
L 935.172 119.835408 
L 936.846 177.669684 
L 938.52 191.954971 
L 940.194 225.185645 
L 941.868 176.833836 
L 943.542 168.776114 
L 945.216 196.047178 
L 946.89 204.739321 
L 948.564 214.765901 
L 950.238 224.112345 
L 951.912 217.749546 
L 953.586 196.667628 
L 956.934 121.956796 
L 958.608 105.045264 
L 960.282 100.775696 
L 961.956 138.600158 
L 963.63 163.944945 
L 966.978 219.744528 
L 968.652 232.345609 
L 970.326 221.073846 
L 970.326 221.073846 
" clip-path="url(#pe68fe35013)" style="fill: none; stroke: #ff7f0e; stroke-width: 1.5; stroke-linecap: square"/>
   </g>
   <g id="patch_3">
    <path d="M 135 384.48 
L 135 51.84 
" style="fill: none; stroke: #000000; stroke-width: 0.8; stroke-linejoin: miter; stroke-linecap: square"/>
   </g>
   <g id="patch_4">
    <path d="M 972 384.48 
L 972 51.84 
" style="fill: none; stroke: #000000; stroke-width: 0.8; stroke-linejoin: miter; stroke-linecap: square"/>
   </g>
   <g id="patch_5">
    <path d="M 135 384.48 
L 972 384.48 
" style="fill: none; stroke: #000000; stroke-width: 0.8; stroke-linejoin: miter; stroke-linecap: square"/>
   </g>
   <g id="patch_6">
    <path d="M 135 51.84 
L 972 51.84 
" style="fill: none; stroke: #000000; stroke-width: 0.8; stroke-linejoin: miter; stroke-linecap: square"/>
   </g>
  </g>
 </g>
 <defs>
  <clipPath id="pe68fe35013">
   <rect x="135" y="51.84" width="837" height="332.64"/>
  </clipPath>
 </defs>
</svg>
