<?xml version="1.0" encoding="utf-8" standalone="no"?>
<!DOCTYPE svg PUBLIC "-//W3C//DTD SVG 1.1//EN"
  "http://www.w3.org/Graphics/SVG/1.1/DTD/svg11.dtd">
<svg xmlns:xlink="http://www.w3.org/1999/xlink" width="1080pt" height="432pt" viewBox="0 0 1080 432" xmlns="http://www.w3.org/2000/svg" version="1.1">
 <metadata>
  <rdf:RDF xmlns:dc="http://purl.org/dc/elements/1.1/" xmlns:cc="http://creativecommons.org/ns#" xmlns:rdf="http://www.w3.org/1999/02/22-rdf-syntax-ns#">
   <cc:Work>
    <dc:type rdf:resource="http://purl.org/dc/dcmitype/StillImage"/>
    <dc:date>2024-02-16T10:05:52.035229</dc:date>
    <dc:format>image/svg+xml</dc:format>
    <dc:creator>
     <cc:Agent>
      <dc:title>Matplotlib v3.7.1, https://matplotlib.org/</dc:title>
     </cc:Agent>
    </dc:creator>
   </cc:Work>
  </rdf:RDF>
 </metadata>
 <defs>
  <style type="text/css">*{stroke-linejoin: round; stroke-linecap: butt}</style>
 </defs>
 <g id="figure_1">
  <g id="patch_1">
   <path d="M 0 432 
L 1080 432 
L 1080 0 
L 0 0 
z
" style="fill: #ffffff"/>
  </g>
  <g id="axes_1">
   <g id="patch_2">
    <path d="M 135 384.48 
L 972 384.48 
L 972 51.84 
L 135 51.84 
z
" style="fill: #ffffff"/>
   </g>
   <g id="matplotlib.axis_1">
    <g id="xtick_1">
     <g id="line2d_1">
      <defs>
       <path id="m87600267d5" d="M 0 0 
L 0 3.5 
" style="stroke: #000000; stroke-width: 0.8"/>
      </defs>
      <g>
       <use xlink:href="#m87600267d5" x="135" y="384.48" style="stroke: #000000; stroke-width: 0.8"/>
      </g>
     </g>
     <g id="text_1">
      <!-- 0 -->
      <g transform="translate(131.81875 399.078438) scale(0.1 -0.1)">
       <defs>
        <path id="DejaVuSans-30" d="M 2034 4250 
Q 1547 4250 1301 3770 
Q 1056 3291 1056 2328 
Q 1056 1369 1301 889 
Q 1547 409 2034 409 
Q 2525 409 2770 889 
Q 3016 1369 3016 2328 
Q 3016 3291 2770 3770 
Q 2525 4250 2034 4250 
z
M 2034 4750 
Q 2819 4750 3233 4129 
Q 3647 3509 3647 2328 
Q 3647 1150 3233 529 
Q 2819 -91 2034 -91 
Q 1250 -91 836 529 
Q 422 1150 422 2328 
Q 422 3509 836 4129 
Q 1250 4750 2034 4750 
z
" transform="scale(0.015625)"/>
       </defs>
       <use xlink:href="#DejaVuSans-30"/>
      </g>
     </g>
    </g>
    <g id="xtick_2">
     <g id="line2d_2">
      <g>
       <use xlink:href="#m87600267d5" x="302.4" y="384.48" style="stroke: #000000; stroke-width: 0.8"/>
      </g>
     </g>
     <g id="text_2">
      <!-- 100 -->
      <g transform="translate(292.85625 399.078438) scale(0.1 -0.1)">
       <defs>
        <path id="DejaVuSans-31" d="M 794 531 
L 1825 531 
L 1825 4091 
L 703 3866 
L 703 4441 
L 1819 4666 
L 2450 4666 
L 2450 531 
L 3481 531 
L 3481 0 
L 794 0 
L 794 531 
z
" transform="scale(0.015625)"/>
       </defs>
       <use xlink:href="#DejaVuSans-31"/>
       <use xlink:href="#DejaVuSans-30" x="63.623047"/>
       <use xlink:href="#DejaVuSans-30" x="127.246094"/>
      </g>
     </g>
    </g>
    <g id="xtick_3">
     <g id="line2d_3">
      <g>
       <use xlink:href="#m87600267d5" x="469.8" y="384.48" style="stroke: #000000; stroke-width: 0.8"/>
      </g>
     </g>
     <g id="text_3">
      <!-- 200 -->
      <g transform="translate(460.25625 399.078438) scale(0.1 -0.1)">
       <defs>
        <path id="DejaVuSans-32" d="M 1228 531 
L 3431 531 
L 3431 0 
L 469 0 
L 469 531 
Q 828 903 1448 1529 
Q 2069 2156 2228 2338 
Q 2531 2678 2651 2914 
Q 2772 3150 2772 3378 
Q 2772 3750 2511 3984 
Q 2250 4219 1831 4219 
Q 1534 4219 1204 4116 
Q 875 4013 500 3803 
L 500 4441 
Q 881 4594 1212 4672 
Q 1544 4750 1819 4750 
Q 2544 4750 2975 4387 
Q 3406 4025 3406 3419 
Q 3406 3131 3298 2873 
Q 3191 2616 2906 2266 
Q 2828 2175 2409 1742 
Q 1991 1309 1228 531 
z
" transform="scale(0.015625)"/>
       </defs>
       <use xlink:href="#DejaVuSans-32"/>
       <use xlink:href="#DejaVuSans-30" x="63.623047"/>
       <use xlink:href="#DejaVuSans-30" x="127.246094"/>
      </g>
     </g>
    </g>
    <g id="xtick_4">
     <g id="line2d_4">
      <g>
       <use xlink:href="#m87600267d5" x="637.2" y="384.48" style="stroke: #000000; stroke-width: 0.8"/>
      </g>
     </g>
     <g id="text_4">
      <!-- 300 -->
      <g transform="translate(627.65625 399.078438) scale(0.1 -0.1)">
       <defs>
        <path id="DejaVuSans-33" d="M 2597 2516 
Q 3050 2419 3304 2112 
Q 3559 1806 3559 1356 
Q 3559 666 3084 287 
Q 2609 -91 1734 -91 
Q 1441 -91 1130 -33 
Q 819 25 488 141 
L 488 750 
Q 750 597 1062 519 
Q 1375 441 1716 441 
Q 2309 441 2620 675 
Q 2931 909 2931 1356 
Q 2931 1769 2642 2001 
Q 2353 2234 1838 2234 
L 1294 2234 
L 1294 2753 
L 1863 2753 
Q 2328 2753 2575 2939 
Q 2822 3125 2822 3475 
Q 2822 3834 2567 4026 
Q 2313 4219 1838 4219 
Q 1578 4219 1281 4162 
Q 984 4106 628 3988 
L 628 4550 
Q 988 4650 1302 4700 
Q 1616 4750 1894 4750 
Q 2613 4750 3031 4423 
Q 3450 4097 3450 3541 
Q 3450 3153 3228 2886 
Q 3006 2619 2597 2516 
z
" transform="scale(0.015625)"/>
       </defs>
       <use xlink:href="#DejaVuSans-33"/>
       <use xlink:href="#DejaVuSans-30" x="63.623047"/>
       <use xlink:href="#DejaVuSans-30" x="127.246094"/>
      </g>
     </g>
    </g>
    <g id="xtick_5">
     <g id="line2d_5">
      <g>
       <use xlink:href="#m87600267d5" x="804.6" y="384.48" style="stroke: #000000; stroke-width: 0.8"/>
      </g>
     </g>
     <g id="text_5">
      <!-- 400 -->
      <g transform="translate(795.05625 399.078438) scale(0.1 -0.1)">
       <defs>
        <path id="DejaVuSans-34" d="M 2419 4116 
L 825 1625 
L 2419 1625 
L 2419 4116 
z
M 2253 4666 
L 3047 4666 
L 3047 1625 
L 3713 1625 
L 3713 1100 
L 3047 1100 
L 3047 0 
L 2419 0 
L 2419 1100 
L 313 1100 
L 313 1709 
L 2253 4666 
z
" transform="scale(0.015625)"/>
       </defs>
       <use xlink:href="#DejaVuSans-34"/>
       <use xlink:href="#DejaVuSans-30" x="63.623047"/>
       <use xlink:href="#DejaVuSans-30" x="127.246094"/>
      </g>
     </g>
    </g>
    <g id="xtick_6">
     <g id="line2d_6">
      <g>
       <use xlink:href="#m87600267d5" x="972" y="384.48" style="stroke: #000000; stroke-width: 0.8"/>
      </g>
     </g>
     <g id="text_6">
      <!-- 500 -->
      <g transform="translate(962.45625 399.078438) scale(0.1 -0.1)">
       <defs>
        <path id="DejaVuSans-35" d="M 691 4666 
L 3169 4666 
L 3169 4134 
L 1269 4134 
L 1269 2991 
Q 1406 3038 1543 3061 
Q 1681 3084 1819 3084 
Q 2600 3084 3056 2656 
Q 3513 2228 3513 1497 
Q 3513 744 3044 326 
Q 2575 -91 1722 -91 
Q 1428 -91 1123 -41 
Q 819 9 494 109 
L 494 744 
Q 775 591 1075 516 
Q 1375 441 1709 441 
Q 2250 441 2565 725 
Q 2881 1009 2881 1497 
Q 2881 1984 2565 2268 
Q 2250 2553 1709 2553 
Q 1456 2553 1204 2497 
Q 953 2441 691 2322 
L 691 4666 
z
" transform="scale(0.015625)"/>
       </defs>
       <use xlink:href="#DejaVuSans-35"/>
       <use xlink:href="#DejaVuSans-30" x="63.623047"/>
       <use xlink:href="#DejaVuSans-30" x="127.246094"/>
      </g>
     </g>
    </g>
   </g>
   <g id="matplotlib.axis_2">
    <g id="ytick_1">
     <g id="line2d_7">
      <defs>
       <path id="m9f9acc98fe" d="M 0 0 
L -3.5 0 
" style="stroke: #000000; stroke-width: 0.8"/>
      </defs>
      <g>
       <use xlink:href="#m9f9acc98fe" x="135" y="349.523106" style="stroke: #000000; stroke-width: 0.8"/>
      </g>
     </g>
     <g id="text_7">
      <!-- 350 -->
      <g transform="translate(108.9125 353.322324) scale(0.1 -0.1)">
       <use xlink:href="#DejaVuSans-33"/>
       <use xlink:href="#DejaVuSans-35" x="63.623047"/>
       <use xlink:href="#DejaVuSans-30" x="127.246094"/>
      </g>
     </g>
    </g>
    <g id="ytick_2">
     <g id="line2d_8">
      <g>
       <use xlink:href="#m9f9acc98fe" x="135" y="309.249015" style="stroke: #000000; stroke-width: 0.8"/>
      </g>
     </g>
     <g id="text_8">
      <!-- 400 -->
      <g transform="translate(108.9125 313.048234) scale(0.1 -0.1)">
       <use xlink:href="#DejaVuSans-34"/>
       <use xlink:href="#DejaVuSans-30" x="63.623047"/>
       <use xlink:href="#DejaVuSans-30" x="127.246094"/>
      </g>
     </g>
    </g>
    <g id="ytick_3">
     <g id="line2d_9">
      <g>
       <use xlink:href="#m9f9acc98fe" x="135" y="268.974925" style="stroke: #000000; stroke-width: 0.8"/>
      </g>
     </g>
     <g id="text_9">
      <!-- 450 -->
      <g transform="translate(108.9125 272.774144) scale(0.1 -0.1)">
       <use xlink:href="#DejaVuSans-34"/>
       <use xlink:href="#DejaVuSans-35" x="63.623047"/>
       <use xlink:href="#DejaVuSans-30" x="127.246094"/>
      </g>
     </g>
    </g>
    <g id="ytick_4">
     <g id="line2d_10">
      <g>
       <use xlink:href="#m9f9acc98fe" x="135" y="228.700835" style="stroke: #000000; stroke-width: 0.8"/>
      </g>
     </g>
     <g id="text_10">
      <!-- 500 -->
      <g transform="translate(108.9125 232.500054) scale(0.1 -0.1)">
       <use xlink:href="#DejaVuSans-35"/>
       <use xlink:href="#DejaVuSans-30" x="63.623047"/>
       <use xlink:href="#DejaVuSans-30" x="127.246094"/>
      </g>
     </g>
    </g>
    <g id="ytick_5">
     <g id="line2d_11">
      <g>
       <use xlink:href="#m9f9acc98fe" x="135" y="188.426745" style="stroke: #000000; stroke-width: 0.8"/>
      </g>
     </g>
     <g id="text_11">
      <!-- 550 -->
      <g transform="translate(108.9125 192.225963) scale(0.1 -0.1)">
       <use xlink:href="#DejaVuSans-35"/>
       <use xlink:href="#DejaVuSans-35" x="63.623047"/>
       <use xlink:href="#DejaVuSans-30" x="127.246094"/>
      </g>
     </g>
    </g>
    <g id="ytick_6">
     <g id="line2d_12">
      <g>
       <use xlink:href="#m9f9acc98fe" x="135" y="148.152654" style="stroke: #000000; stroke-width: 0.8"/>
      </g>
     </g>
     <g id="text_12">
      <!-- 600 -->
      <g transform="translate(108.9125 151.951873) scale(0.1 -0.1)">
       <defs>
        <path id="DejaVuSans-36" d="M 2113 2584 
Q 1688 2584 1439 2293 
Q 1191 2003 1191 1497 
Q 1191 994 1439 701 
Q 1688 409 2113 409 
Q 2538 409 2786 701 
Q 3034 994 3034 1497 
Q 3034 2003 2786 2293 
Q 2538 2584 2113 2584 
z
M 3366 4563 
L 3366 3988 
Q 3128 4100 2886 4159 
Q 2644 4219 2406 4219 
Q 1781 4219 1451 3797 
Q 1122 3375 1075 2522 
Q 1259 2794 1537 2939 
Q 1816 3084 2150 3084 
Q 2853 3084 3261 2657 
Q 3669 2231 3669 1497 
Q 3669 778 3244 343 
Q 2819 -91 2113 -91 
Q 1303 -91 875 529 
Q 447 1150 447 2328 
Q 447 3434 972 4092 
Q 1497 4750 2381 4750 
Q 2619 4750 2861 4703 
Q 3103 4656 3366 4563 
z
" transform="scale(0.015625)"/>
       </defs>
       <use xlink:href="#DejaVuSans-36"/>
       <use xlink:href="#DejaVuSans-30" x="63.623047"/>
       <use xlink:href="#DejaVuSans-30" x="127.246094"/>
      </g>
     </g>
    </g>
    <g id="ytick_7">
     <g id="line2d_13">
      <g>
       <use xlink:href="#m9f9acc98fe" x="135" y="107.878564" style="stroke: #000000; stroke-width: 0.8"/>
      </g>
     </g>
     <g id="text_13">
      <!-- 650 -->
      <g transform="translate(108.9125 111.677783) scale(0.1 -0.1)">
       <use xlink:href="#DejaVuSans-36"/>
       <use xlink:href="#DejaVuSans-35" x="63.623047"/>
       <use xlink:href="#DejaVuSans-30" x="127.246094"/>
      </g>
     </g>
    </g>
    <g id="ytick_8">
     <g id="line2d_14">
      <g>
       <use xlink:href="#m9f9acc98fe" x="135" y="67.604474" style="stroke: #000000; stroke-width: 0.8"/>
      </g>
     </g>
     <g id="text_14">
      <!-- 700 -->
      <g transform="translate(108.9125 71.403693) scale(0.1 -0.1)">
       <defs>
        <path id="DejaVuSans-37" d="M 525 4666 
L 3525 4666 
L 3525 4397 
L 1831 0 
L 1172 0 
L 2766 4134 
L 525 4134 
L 525 4666 
z
" transform="scale(0.015625)"/>
       </defs>
       <use xlink:href="#DejaVuSans-37"/>
       <use xlink:href="#DejaVuSans-30" x="63.623047"/>
       <use xlink:href="#DejaVuSans-30" x="127.246094"/>
      </g>
     </g>
    </g>
   </g>
   <g id="line2d_15">
    <path d="M 135 127.746274 
L 136.674 159.768445 
L 138.348 186.374314 
L 140.022 202.849581 
L 141.696 213.001587 
L 143.37 220.469852 
L 145.044 224.340868 
L 146.718 229.30624 
L 148.392 216.770325 
L 150.066 184.111137 
L 151.74 148.962404 
L 153.414 123.803925 
L 155.088 105.356097 
L 156.762 98.73021 
L 158.436 125.040252 
L 160.11 128.370996 
L 161.784 127.340169 
L 163.458 128.168136 
L 165.132 115.432039 
L 166.806 121.653942 
L 168.48 124.589006 
L 170.154 102.187482 
L 171.828 93.062641 
L 173.502 109.597779 
L 175.176 129.970405 
L 178.524 184.149979 
L 180.198 202.333962 
L 181.872 214.324905 
L 183.546 221.8624 
L 185.22 226.36686 
L 186.894 237.438594 
L 188.568 234.928951 
L 190.242 218.331599 
L 191.916 196.827584 
L 193.59 169.619874 
L 195.264 149.683357 
L 196.938 142.891362 
L 198.612 156.138208 
L 200.286 159.717321 
L 201.96 164.405442 
L 203.634 169.642901 
L 205.308 158.706725 
L 206.982 155.888593 
L 208.656 154.33718 
L 210.33 126.021832 
L 212.004 109.165027 
L 213.678 118.765074 
L 215.352 136.349114 
L 217.026 168.387735 
L 218.7 196.817118 
L 220.374 210.997948 
L 222.048 218.556172 
L 223.722 223.780055 
L 225.396 226.606602 
L 227.07 230.795541 
L 228.744 213.911912 
L 230.418 176.669621 
L 232.092 143.210899 
L 233.766 117.648052 
L 235.44 98.427359 
L 237.114 92.502118 
L 238.788 132.739042 
L 240.462 151.715101 
L 242.136 188.410349 
L 243.81 189.784333 
L 245.484 158.651443 
L 247.158 138.816391 
L 248.832 151.251558 
L 250.506 126.378342 
L 252.18 120.705311 
L 253.854 137.439792 
L 257.202 190.071909 
L 258.876 208.017081 
L 260.55 214.745985 
L 262.224 210.619882 
L 263.898 216.707104 
L 265.572 218.343825 
L 267.246 220.873511 
L 268.92 207.587466 
L 272.268 137.605709 
L 273.942 106.182267 
L 275.616 98.419816 
L 277.29 122.931937 
L 278.964 172.184458 
L 280.638 179.515802 
L 282.312 180.640527 
L 283.986 176.792423 
L 285.66 165.99153 
L 289.008 147.951031 
L 290.682 126.486019 
L 292.356 173.310666 
L 294.03 136.50954 
L 295.704 147.94052 
L 297.378 174.083214 
L 299.052 178.643343 
L 300.726 196.721463 
L 302.4 210.425629 
L 304.074 217.229277 
L 305.748 219.649165 
L 307.422 224.054331 
L 309.096 209.660762 
L 312.444 135.532092 
L 314.118 111.875894 
L 315.792 120.259527 
L 317.466 173.819482 
L 319.14 209.372806 
L 320.814 234.18289 
L 322.488 210.836277 
L 324.162 196.482474 
L 325.836 163.881679 
L 327.51 147.35108 
L 329.184 139.343669 
L 330.858 123.299914 
L 332.532 124.807176 
L 334.206 139.082024 
L 335.88 150.817399 
L 337.554 169.913474 
L 340.902 189.077125 
L 342.576 201.715183 
L 344.25 209.241447 
L 347.598 218.412541 
L 349.272 203.796447 
L 350.946 165.977591 
L 352.62 131.651657 
L 354.294 114.697533 
L 355.968 119.902343 
L 357.642 127.341959 
L 359.316 158.564656 
L 360.99 166.782949 
L 362.664 198.169381 
L 364.338 202.882633 
L 366.012 197.803938 
L 367.686 174.127017 
L 369.36 196.136923 
L 371.034 172.336243 
L 372.708 141.644113 
L 374.382 161.659965 
L 376.056 178.656058 
L 377.73 198.552878 
L 379.404 166.261599 
L 381.078 186.192719 
L 382.752 202.546908 
L 384.426 207.933958 
L 386.1 211.646291 
L 387.774 213.825395 
L 389.448 198.439641 
L 392.796 123.753733 
L 394.47 97.712541 
L 396.144 121.431741 
L 397.818 131.67548 
L 399.492 171.465644 
L 401.166 187.55344 
L 402.84 189.386069 
L 406.188 160.393795 
L 407.862 159.977418 
L 409.536 152.644657 
L 411.21 130.067409 
L 412.884 119.773923 
L 414.558 142.13527 
L 416.232 154.592087 
L 417.906 170.241886 
L 419.58 173.965931 
L 422.928 202.572114 
L 424.602 208.193036 
L 426.276 212.710986 
L 427.95 220.111898 
L 429.624 209.002089 
L 432.972 135.63829 
L 434.646 117.884026 
L 436.32 136.62182 
L 437.994 160.99102 
L 439.668 208.66438 
L 441.342 187.951068 
L 443.016 177.187061 
L 444.69 191.618146 
L 446.364 186.458147 
L 448.038 169.467474 
L 449.712 154.460758 
L 451.386 128.022574 
L 453.06 139.71432 
L 454.734 155.577052 
L 456.408 169.378874 
L 458.082 174.001959 
L 459.756 172.088403 
L 461.43 182.913369 
L 463.104 195.854963 
L 466.452 210.085595 
L 468.126 223.774453 
L 469.8 221.010538 
L 471.474 200.285601 
L 473.148 173.490134 
L 474.822 144.375225 
L 476.496 124.788782 
L 478.17 119.49758 
L 479.844 143.440661 
L 481.518 162.119284 
L 483.192 162.957103 
L 484.866 156.18097 
L 486.54 166.363917 
L 488.214 171.93116 
L 489.888 146.819716 
L 491.562 110.969916 
L 493.236 100.617565 
L 494.91 124.867772 
L 496.584 147.149226 
L 498.258 167.929257 
L 499.932 182.660214 
L 501.606 198.843755 
L 503.28 209.40013 
L 504.954 216.569803 
L 506.628 219.493131 
L 508.302 222.935869 
L 509.976 209.284897 
L 511.65 175.014335 
L 513.324 158.075807 
L 514.998 155.701413 
L 516.672 174.214592 
L 518.346 188.453102 
L 520.02 218.021424 
L 521.694 213.328642 
L 523.368 197.170736 
L 525.042 172.317423 
L 526.716 168.805259 
L 528.39 203.058416 
L 530.064 185.319177 
L 531.738 143.794998 
L 533.412 128.751747 
L 535.086 152.426674 
L 536.76 151.148793 
L 538.434 161.930181 
L 540.108 190.979385 
L 541.782 186.113332 
L 543.456 199.184479 
L 545.13 209.924758 
L 546.804 210.72393 
L 548.478 212.753097 
L 550.152 202.50221 
L 551.826 164.329253 
L 553.5 130.410953 
L 555.174 139.803628 
L 556.848 159.908735 
L 558.522 168.653085 
L 560.196 203.875254 
L 561.87 198.038731 
L 563.544 188.038656 
L 565.218 172.07144 
L 566.892 180.772212 
L 568.566 177.751944 
L 571.914 135.541301 
L 573.588 151.943804 
L 575.262 118.07449 
L 576.936 106.081205 
L 578.61 132.450702 
L 580.284 161.630135 
L 581.958 182.441338 
L 583.632 194.689406 
L 585.306 200.971979 
L 586.98 204.486417 
L 588.654 208.807351 
L 590.328 199.662124 
L 593.676 137.418743 
L 595.35 112.724542 
L 597.024 94.950163 
L 598.698 86.516816 
L 600.372 106.522575 
L 602.046 108.405786 
L 603.72 105.690901 
L 605.394 107.271687 
L 607.068 96.385155 
L 610.416 110.551985 
L 612.09 80.034634 
L 613.764 70.76882 
L 615.438 90.677513 
L 618.786 137.77805 
L 620.46 164.824554 
L 622.134 185.678583 
L 623.808 197.728604 
L 625.482 206.14346 
L 628.83 216.994303 
L 630.504 207.182036 
L 633.852 144.578177 
L 635.526 117.362968 
L 637.2 96.133844 
L 638.874 87.392259 
L 640.548 107.5676 
L 642.222 109.23055 
L 643.896 107.866449 
L 645.57 105.304663 
L 647.244 101.324851 
L 648.918 110.455929 
L 650.592 117.724804 
L 652.266 88.440227 
L 653.94 79.318507 
L 655.614 101.2669 
L 657.288 125.280502 
L 658.962 145.986156 
L 660.636 171.284685 
L 662.31 192.300025 
L 663.984 207.849207 
L 665.658 215.109547 
L 667.332 220.295577 
L 669.006 231.354682 
L 670.68 231.290422 
L 672.354 214.919212 
L 675.702 169.187444 
L 677.376 154.014195 
L 679.05 148.650348 
L 680.724 161.860383 
L 682.398 165.541098 
L 684.072 171.914099 
L 685.746 176.620553 
L 687.42 176.575875 
L 689.094 193.882216 
L 690.768 213.236336 
L 692.442 193.037789 
L 694.116 189.34242 
L 695.79 209.201011 
L 697.464 234.564361 
L 699.138 256.596164 
L 700.812 280.7635 
L 702.486 303.196744 
L 704.16 318.037155 
L 705.834 327.970172 
L 707.508 336.428586 
L 710.856 367.925285 
L 712.53 369.36 
L 714.204 361.785896 
L 715.878 353.47346 
L 717.552 349.787302 
L 719.226 337.297758 
L 720.9 313.068153 
L 722.574 291.038294 
L 724.248 275.263968 
L 725.922 256.357706 
L 727.596 227.532452 
L 729.27 207.041483 
L 730.944 189.06106 
L 732.618 146.258181 
L 734.292 129.059403 
L 735.966 140.729011 
L 737.64 156.74295 
L 739.314 175.696963 
L 740.988 200.726429 
L 742.662 219.202833 
L 744.336 231.123776 
L 746.01 239.151349 
L 747.684 243.592661 
L 749.358 251.885571 
L 751.032 246.929404 
L 752.706 224.98245 
L 754.38 201.082228 
L 756.054 170.438135 
L 757.728 147.81177 
L 759.402 136.813879 
L 761.076 147.358177 
L 762.75 149.083486 
L 764.424 154.498017 
L 766.098 154.924858 
L 767.772 146.110583 
L 769.446 149.890266 
L 771.12 148.30969 
L 772.794 108.029519 
L 774.468 94.472674 
L 776.142 105.278337 
L 777.816 126.241848 
L 781.164 183.202111 
L 782.838 201.226605 
L 784.512 212.672511 
L 786.186 219.687167 
L 787.86 222.76991 
L 789.534 227.491761 
L 791.208 221.038185 
L 792.882 191.237581 
L 794.556 156.68586 
L 796.23 130.423691 
L 797.904 111.450195 
L 799.578 101.694635 
L 801.252 123.337148 
L 802.926 124.392417 
L 804.6 124.647645 
L 806.274 121.211427 
L 807.948 111.895715 
L 809.622 116.214699 
L 811.296 121.713694 
L 812.97 84.901759 
L 814.644 79.459516 
L 816.318 95.980832 
L 817.992 122.034527 
L 819.666 157.816276 
L 821.34 186.430675 
L 823.014 202.868441 
L 824.688 212.804676 
L 826.362 219.787174 
L 828.036 222.961241 
L 829.71 227.617805 
L 831.384 217.139486 
L 833.058 184.45327 
L 834.732 149.447211 
L 836.406 122.825814 
L 838.08 100.432098 
L 839.754 92.770186 
L 841.428 117.314709 
L 843.102 120.328868 
L 844.776 118.935309 
L 846.45 114.661216 
L 848.124 104.220863 
L 849.798 105.352301 
L 851.472 105.601573 
L 853.146 74.20133 
L 854.82 76.126281 
L 856.494 94.110317 
L 858.168 118.415226 
L 859.842 153.4959 
L 861.516 182.450402 
L 863.19 200.809159 
L 864.864 211.466565 
L 866.538 220.708879 
L 868.212 223.908571 
L 869.886 228.156466 
L 871.56 216.078243 
L 874.908 148.242015 
L 876.582 119.988948 
L 878.256 98.754892 
L 879.93 92.465497 
L 881.604 115.998326 
L 883.278 120.349934 
L 884.952 123.094012 
L 886.626 118.224499 
L 888.3 105.5498 
L 889.974 98.370747 
L 891.648 100.465019 
L 893.322 70.242193 
L 894.996 72.025494 
L 896.67 94.241776 
L 898.344 121.236105 
L 900.018 155.107838 
L 901.692 183.122551 
L 903.366 202.941559 
L 905.04 214.601252 
L 906.714 220.302829 
L 910.062 227.679596 
L 911.736 218.069016 
L 915.084 145.684149 
L 916.758 118.248158 
L 918.432 101.641063 
L 920.106 108.459414 
L 921.78 158.984274 
L 923.454 156.554037 
L 925.128 159.681563 
L 926.802 158.831897 
L 928.476 164.252788 
L 930.15 160.992063 
L 931.824 148.463264 
L 933.498 145.615703 
L 935.172 173.88881 
L 936.846 182.528493 
L 938.52 203.369137 
L 941.868 178.770518 
L 943.542 197.069956 
L 945.216 209.594663 
L 946.89 217.50251 
L 950.238 226.42962 
L 951.912 214.047857 
L 955.26 141.359916 
L 956.934 114.368052 
L 958.608 95.806667 
L 960.282 103.976185 
L 961.956 167.81917 
L 963.63 208.084883 
L 965.304 233.18909 
L 966.978 244.224485 
L 968.652 229.951879 
L 970.326 194.028007 
L 970.326 194.028007 
" clip-path="url(#p98f38fa501)" style="fill: none; stroke: #1f77b4; stroke-width: 1.5; stroke-linecap: square"/>
   </g>
   <g id="line2d_16">
    <path d="M 135 126.07673 
L 136.674 154.880571 
L 138.348 186.743364 
L 140.022 203.001128 
L 141.696 212.218939 
L 143.37 217.53918 
L 145.044 225.571776 
L 146.718 215.559791 
L 148.392 203.755529 
L 150.066 174.173542 
L 151.74 140.375114 
L 153.414 115.947246 
L 155.088 101.557764 
L 156.762 97.657736 
L 158.436 121.79284 
L 160.11 122.934053 
L 161.784 122.8051 
L 165.132 114.111166 
L 166.806 113.512856 
L 168.48 121.125898 
L 170.154 102.283602 
L 171.828 84.7716 
L 173.502 102.337042 
L 175.176 130.477727 
L 176.85 153.076939 
L 178.524 183.251141 
L 180.198 200.675142 
L 181.872 211.4755 
L 183.546 218.189799 
L 185.22 225.662112 
L 186.894 224.660791 
L 188.568 216.264341 
L 190.242 200.960285 
L 191.916 180.226208 
L 195.264 142.084551 
L 196.938 131.772378 
L 198.612 148.096363 
L 200.286 157.263586 
L 201.96 155.146295 
L 203.634 156.593006 
L 205.308 156.653378 
L 206.982 149.821679 
L 208.656 151.503142 
L 210.33 132.350482 
L 212.004 105.741609 
L 213.678 115.075886 
L 215.352 138.711743 
L 217.026 156.594825 
L 218.7 194.944638 
L 220.374 210.509109 
L 222.048 216.751396 
L 223.722 222.555963 
L 225.396 231.198374 
L 227.07 216.034702 
L 228.744 191.329852 
L 230.418 170.431424 
L 232.092 134.933982 
L 233.766 111.328459 
L 235.44 97.406121 
L 237.114 93.669018 
L 238.788 118.389305 
L 240.462 127.705835 
L 242.136 138.892613 
L 243.81 174.054175 
L 245.484 167.347939 
L 247.158 145.318228 
L 248.832 130.487019 
L 250.506 127.332838 
L 252.18 90.153736 
L 253.854 111.590152 
L 255.528 148.496597 
L 257.202 182.638672 
L 258.876 213.169746 
L 260.55 222.619236 
L 262.224 225.666562 
L 263.898 223.059463 
L 265.572 224.581049 
L 267.246 183.675611 
L 268.92 187.073639 
L 270.594 168.462703 
L 272.268 140.850911 
L 273.942 117.537561 
L 275.616 101.338646 
L 277.29 93.996589 
L 278.964 128.174012 
L 280.638 146.761596 
L 282.312 157.576851 
L 283.986 161.764923 
L 285.66 151.758788 
L 287.334 148.78882 
L 289.008 134.31527 
L 290.682 110.984123 
L 292.356 103.31479 
L 294.03 177.987044 
L 295.704 149.086893 
L 297.378 173.077312 
L 299.052 189.999755 
L 300.726 195.101467 
L 302.4 213.828034 
L 304.074 216.438328 
L 305.748 218.368653 
L 307.422 213.255436 
L 309.096 208.850605 
L 310.77 171.479523 
L 312.444 143.626195 
L 315.792 101.246761 
L 317.466 109.287469 
L 319.14 147.131987 
L 320.814 174.040655 
L 322.488 203.180375 
L 324.162 180.644288 
L 325.836 177.750473 
L 327.51 149.513134 
L 329.184 125.881554 
L 332.532 96.453937 
L 334.206 115.929941 
L 339.228 189.372438 
L 340.902 192.712061 
L 342.576 205.587922 
L 344.25 214.407269 
L 345.924 210.30474 
L 347.598 195.124131 
L 349.272 194.023919 
L 350.946 172.604415 
L 352.62 146.954756 
L 354.294 116.357214 
L 355.968 94.583641 
L 357.642 128.601235 
L 359.316 128.387083 
L 360.99 143.860701 
L 362.664 148.10477 
L 364.338 188.547193 
L 366.012 189.703451 
L 367.686 186.980574 
L 369.36 150.627161 
L 371.034 188.835238 
L 372.708 148.890193 
L 374.382 129.139764 
L 376.056 167.818672 
L 377.73 185.773728 
L 379.404 207.580142 
L 381.078 177.836114 
L 382.752 197.4629 
L 384.426 201.173652 
L 386.1 210.679015 
L 387.774 210.122739 
L 389.448 197.873457 
L 392.796 142.793772 
L 394.47 120.423855 
L 396.144 106.63814 
L 397.818 119.950762 
L 399.492 117.849253 
L 401.166 156.813599 
L 402.84 156.63391 
L 404.514 168.196389 
L 406.188 151.0623 
L 407.862 146.191407 
L 409.536 143.892755 
L 411.21 124.34876 
L 412.884 116.597128 
L 414.558 114.265636 
L 416.232 149.837165 
L 417.906 160.285912 
L 419.58 184.09084 
L 421.254 178.964742 
L 422.928 197.803646 
L 424.602 208.431001 
L 426.276 210.598192 
L 427.95 201.583669 
L 429.624 200.208096 
L 431.298 176.806598 
L 432.972 147.387191 
L 434.646 126.406022 
L 436.32 101.827667 
L 437.994 134.428442 
L 439.668 144.191517 
L 441.342 179.685812 
L 443.016 161.821706 
L 444.69 157.08016 
L 446.364 168.492938 
L 448.038 168.101406 
L 449.712 138.886664 
L 451.386 124.051522 
L 453.06 115.879352 
L 454.734 142.121521 
L 456.408 159.782093 
L 458.082 180.907653 
L 459.756 174.387203 
L 461.43 163.601298 
L 463.104 178.776498 
L 464.778 191.091265 
L 466.452 194.756345 
L 468.126 192.112817 
L 469.8 215.39662 
L 471.474 208.737334 
L 473.148 191.361611 
L 474.822 166.042718 
L 476.496 124.455099 
L 478.17 101.018547 
L 479.844 108.513845 
L 481.518 127.212241 
L 483.192 143.658593 
L 484.866 146.348875 
L 486.54 137.370584 
L 488.214 156.775646 
L 489.888 155.99976 
L 491.562 122.208707 
L 493.236 120.319679 
L 494.91 114.041601 
L 496.584 142.17324 
L 498.258 165.443523 
L 499.932 186.786431 
L 501.606 191.170417 
L 503.28 206.271628 
L 504.954 217.284369 
L 506.628 222.572703 
L 508.302 200.245951 
L 509.976 198.358398 
L 511.65 171.261044 
L 513.324 136.556204 
L 514.998 129.172654 
L 516.672 134.864958 
L 518.346 176.577057 
L 520.02 179.324761 
L 521.694 204.258218 
L 523.368 199.722123 
L 526.716 159.056009 
L 528.39 157.083552 
L 530.064 195.408488 
L 531.738 156.164603 
L 533.412 150.390197 
L 535.086 139.478288 
L 536.76 164.522607 
L 538.434 159.014171 
L 540.108 175.426404 
L 541.782 196.013435 
L 543.456 180.920287 
L 545.13 199.563081 
L 546.804 202.884858 
L 548.478 202.404587 
L 550.152 188.215689 
L 551.826 178.024702 
L 553.5 155.744802 
L 555.174 125.22769 
L 556.848 129.321174 
L 558.522 158.545847 
L 560.196 157.315452 
L 561.87 187.520823 
L 563.544 173.945082 
L 565.218 169.585137 
L 566.892 156.183481 
L 568.566 169.133676 
L 570.24 151.682881 
L 571.914 124.847171 
L 573.588 128.359552 
L 575.262 157.694349 
L 576.936 123.591752 
L 578.61 113.62657 
L 580.284 132.336126 
L 581.958 161.958182 
L 583.632 180.752888 
L 585.306 186.210293 
L 586.98 194.679602 
L 588.654 197.826409 
L 590.328 185.430278 
L 592.002 163.334934 
L 593.676 149.856142 
L 597.024 103.156683 
L 598.698 83.493664 
L 600.372 104.967886 
L 602.046 110.691359 
L 603.72 100.985412 
L 605.394 97.964855 
L 607.068 94.536985 
L 608.742 95.118236 
L 610.416 107.440426 
L 612.09 102.901725 
L 613.764 81.418556 
L 615.438 90.438339 
L 620.46 162.299371 
L 622.134 182.693144 
L 623.808 195.914373 
L 627.156 211.305692 
L 628.83 211.001572 
L 630.504 190.935124 
L 632.178 166.78478 
L 633.852 131.234341 
L 635.526 107.650498 
L 637.2 91.920841 
L 638.874 87.528792 
L 640.548 104.114864 
L 642.222 105.157212 
L 643.896 104.694787 
L 645.57 101.54041 
L 647.244 96.233443 
L 648.918 102.286552 
L 650.592 112.740117 
L 652.266 102.614467 
L 653.94 80.989464 
L 655.614 94.174754 
L 657.288 124.28883 
L 658.962 145.0938 
L 660.636 169.576632 
L 662.31 188.155268 
L 663.984 201.975249 
L 665.658 212.988581 
L 667.332 218.985743 
L 669.006 220.38865 
L 670.68 217.537754 
L 672.354 199.573848 
L 674.028 175.555702 
L 675.702 153.935172 
L 677.376 140.079646 
L 679.05 134.841704 
L 680.724 149.408368 
L 682.398 158.99603 
L 684.072 158.968893 
L 685.746 163.38218 
L 687.42 163.304355 
L 689.094 168.729017 
L 690.768 192.487437 
L 692.442 204.604324 
L 694.116 176.55754 
L 695.79 187.894067 
L 697.464 221.639841 
L 700.812 273.718217 
L 704.16 300.280631 
L 705.834 313.86999 
L 707.508 330.211084 
L 709.182 338.358476 
L 710.856 354.29646 
L 712.53 367.897938 
L 714.204 364.066049 
L 715.878 349.944725 
L 717.552 340.324443 
L 719.226 342.955828 
L 720.9 324.889615 
L 722.574 291.67615 
L 724.248 272.041695 
L 725.922 259.448053 
L 727.596 239.125074 
L 729.27 202.832254 
L 730.944 188.53151 
L 734.292 128.58806 
L 735.966 138.97029 
L 737.64 150.080029 
L 739.314 165.32745 
L 740.988 184.156472 
L 742.662 217.338006 
L 744.336 228.598945 
L 746.01 236.721927 
L 747.684 242.543136 
L 749.358 239.813795 
L 751.032 245.308686 
L 752.706 217.930121 
L 754.38 187.801592 
L 756.054 168.97139 
L 757.728 139.245552 
L 759.402 124.233424 
L 761.076 134.440487 
L 762.75 156.764486 
L 764.424 146.187965 
L 766.098 147.690722 
L 767.772 142.537782 
L 769.446 141.56908 
L 771.12 151.097206 
L 772.794 133.930719 
L 774.468 112.698968 
L 776.142 117.10021 
L 777.816 137.931678 
L 779.49 153.229491 
L 781.164 188.358802 
L 782.838 206.306091 
L 784.512 214.911089 
L 786.186 220.23391 
L 787.86 227.856515 
L 789.534 220.189394 
L 791.208 199.172139 
L 792.882 184.254256 
L 794.556 146.706779 
L 796.23 119.889604 
L 797.904 105.396142 
L 799.578 99.039208 
L 801.252 123.637965 
L 802.926 128.211768 
L 804.6 121.245216 
L 806.274 119.443403 
L 807.948 108.636653 
L 809.622 112.325184 
L 811.296 119.876772 
L 812.97 110.001557 
L 814.644 86.588113 
L 816.318 100.770128 
L 817.992 126.100869 
L 819.666 149.273908 
L 821.34 185.984046 
L 823.014 203.493001 
L 824.688 211.623677 
L 826.362 216.672441 
L 828.036 224.949081 
L 829.71 214.210569 
L 831.384 198.071681 
L 833.058 175.780277 
L 834.732 140.352253 
L 836.406 115.216 
L 838.08 99.995324 
L 839.754 92.519987 
L 841.428 119.415528 
L 843.102 118.573518 
L 844.776 116.757153 
L 846.45 112.384523 
L 848.124 102.466733 
L 849.798 105.713881 
L 851.472 110.012668 
L 853.146 88.135951 
L 854.82 73.425339 
L 856.494 92.765997 
L 859.842 147.174562 
L 861.516 181.452572 
L 863.19 199.634318 
L 864.864 210.290974 
L 866.538 215.368695 
L 868.212 224.785296 
L 869.886 216.845543 
L 871.56 205.709796 
L 873.234 172.831154 
L 874.908 136.933331 
L 876.582 113.558627 
L 878.256 97.448155 
L 879.93 92.467825 
L 881.604 120.041664 
L 883.278 116.479727 
L 884.952 116.660105 
L 886.626 115.460781 
L 888.3 104.495531 
L 889.974 106.266666 
L 891.648 104.025486 
L 893.322 82.873772 
L 894.996 66.96 
L 896.67 88.541544 
L 898.344 116.892153 
L 901.692 182.389023 
L 903.366 199.517507 
L 905.04 212.143032 
L 908.388 223.972366 
L 910.062 217.674229 
L 911.736 205.14236 
L 913.41 174.846628 
L 915.084 138.597341 
L 916.758 112.631811 
L 918.432 96.497545 
L 920.106 95.404756 
L 921.78 130.611695 
L 923.454 140.904793 
L 925.128 143.594485 
L 926.802 148.50992 
L 928.476 131.601537 
L 930.15 147.875278 
L 931.824 140.957004 
L 933.498 108.071872 
L 935.172 119.044005 
L 936.846 170.620749 
L 938.52 180.128178 
L 940.194 221.129778 
L 941.868 202.436297 
L 943.542 187.173686 
L 945.216 195.092962 
L 946.89 196.82988 
L 948.564 209.728159 
L 950.238 202.738353 
L 951.912 206.2938 
L 955.26 158.977791 
L 956.934 140.063914 
L 958.608 119.426983 
L 960.282 90.496696 
L 961.956 99.800345 
L 963.63 141.384228 
L 965.304 174.281798 
L 966.978 203.45077 
L 968.652 212.34863 
L 970.326 204.19057 
L 970.326 204.19057 
" clip-path="url(#p98f38fa501)" style="fill: none; stroke: #ff7f0e; stroke-width: 1.5; stroke-linecap: square"/>
   </g>
   <g id="patch_3">
    <path d="M 135 384.48 
L 135 51.84 
" style="fill: none; stroke: #000000; stroke-width: 0.8; stroke-linejoin: miter; stroke-linecap: square"/>
   </g>
   <g id="patch_4">
    <path d="M 972 384.48 
L 972 51.84 
" style="fill: none; stroke: #000000; stroke-width: 0.8; stroke-linejoin: miter; stroke-linecap: square"/>
   </g>
   <g id="patch_5">
    <path d="M 135 384.48 
L 972 384.48 
" style="fill: none; stroke: #000000; stroke-width: 0.8; stroke-linejoin: miter; stroke-linecap: square"/>
   </g>
   <g id="patch_6">
    <path d="M 135 51.84 
L 972 51.84 
" style="fill: none; stroke: #000000; stroke-width: 0.8; stroke-linejoin: miter; stroke-linecap: square"/>
   </g>
  </g>
 </g>
 <defs>
  <clipPath id="p98f38fa501">
   <rect x="135" y="51.84" width="837" height="332.64"/>
  </clipPath>
 </defs>
</svg>
