<?xml version="1.0" encoding="utf-8" standalone="no"?>
<!DOCTYPE svg PUBLIC "-//W3C//DTD SVG 1.1//EN"
  "http://www.w3.org/Graphics/SVG/1.1/DTD/svg11.dtd">
<svg xmlns:xlink="http://www.w3.org/1999/xlink" width="1080pt" height="432pt" viewBox="0 0 1080 432" xmlns="http://www.w3.org/2000/svg" version="1.1">
 <metadata>
  <rdf:RDF xmlns:dc="http://purl.org/dc/elements/1.1/" xmlns:cc="http://creativecommons.org/ns#" xmlns:rdf="http://www.w3.org/1999/02/22-rdf-syntax-ns#">
   <cc:Work>
    <dc:type rdf:resource="http://purl.org/dc/dcmitype/StillImage"/>
    <dc:date>2024-02-23T09:22:52.070177</dc:date>
    <dc:format>image/svg+xml</dc:format>
    <dc:creator>
     <cc:Agent>
      <dc:title>Matplotlib v3.7.1, https://matplotlib.org/</dc:title>
     </cc:Agent>
    </dc:creator>
   </cc:Work>
  </rdf:RDF>
 </metadata>
 <defs>
  <style type="text/css">*{stroke-linejoin: round; stroke-linecap: butt}</style>
 </defs>
 <g id="figure_1">
  <g id="patch_1">
   <path d="M 0 432 
L 1080 432 
L 1080 0 
L 0 0 
z
" style="fill: #ffffff"/>
  </g>
  <g id="axes_1">
   <g id="patch_2">
    <path d="M 135 384.48 
L 972 384.48 
L 972 51.84 
L 135 51.84 
z
" style="fill: #ffffff"/>
   </g>
   <g id="matplotlib.axis_1">
    <g id="xtick_1">
     <g id="line2d_1">
      <defs>
       <path id="mfc05d53ca6" d="M 0 0 
L 0 3.5 
" style="stroke: #000000; stroke-width: 0.8"/>
      </defs>
      <g>
       <use xlink:href="#mfc05d53ca6" x="135" y="384.48" style="stroke: #000000; stroke-width: 0.8"/>
      </g>
     </g>
     <g id="text_1">
      <!-- 0 -->
      <g transform="translate(131.81875 399.078438) scale(0.1 -0.1)">
       <defs>
        <path id="DejaVuSans-30" d="M 2034 4250 
Q 1547 4250 1301 3770 
Q 1056 3291 1056 2328 
Q 1056 1369 1301 889 
Q 1547 409 2034 409 
Q 2525 409 2770 889 
Q 3016 1369 3016 2328 
Q 3016 3291 2770 3770 
Q 2525 4250 2034 4250 
z
M 2034 4750 
Q 2819 4750 3233 4129 
Q 3647 3509 3647 2328 
Q 3647 1150 3233 529 
Q 2819 -91 2034 -91 
Q 1250 -91 836 529 
Q 422 1150 422 2328 
Q 422 3509 836 4129 
Q 1250 4750 2034 4750 
z
" transform="scale(0.015625)"/>
       </defs>
       <use xlink:href="#DejaVuSans-30"/>
      </g>
     </g>
    </g>
    <g id="xtick_2">
     <g id="line2d_2">
      <g>
       <use xlink:href="#mfc05d53ca6" x="302.4" y="384.48" style="stroke: #000000; stroke-width: 0.8"/>
      </g>
     </g>
     <g id="text_2">
      <!-- 100 -->
      <g transform="translate(292.85625 399.078438) scale(0.1 -0.1)">
       <defs>
        <path id="DejaVuSans-31" d="M 794 531 
L 1825 531 
L 1825 4091 
L 703 3866 
L 703 4441 
L 1819 4666 
L 2450 4666 
L 2450 531 
L 3481 531 
L 3481 0 
L 794 0 
L 794 531 
z
" transform="scale(0.015625)"/>
       </defs>
       <use xlink:href="#DejaVuSans-31"/>
       <use xlink:href="#DejaVuSans-30" x="63.623047"/>
       <use xlink:href="#DejaVuSans-30" x="127.246094"/>
      </g>
     </g>
    </g>
    <g id="xtick_3">
     <g id="line2d_3">
      <g>
       <use xlink:href="#mfc05d53ca6" x="469.8" y="384.48" style="stroke: #000000; stroke-width: 0.8"/>
      </g>
     </g>
     <g id="text_3">
      <!-- 200 -->
      <g transform="translate(460.25625 399.078438) scale(0.1 -0.1)">
       <defs>
        <path id="DejaVuSans-32" d="M 1228 531 
L 3431 531 
L 3431 0 
L 469 0 
L 469 531 
Q 828 903 1448 1529 
Q 2069 2156 2228 2338 
Q 2531 2678 2651 2914 
Q 2772 3150 2772 3378 
Q 2772 3750 2511 3984 
Q 2250 4219 1831 4219 
Q 1534 4219 1204 4116 
Q 875 4013 500 3803 
L 500 4441 
Q 881 4594 1212 4672 
Q 1544 4750 1819 4750 
Q 2544 4750 2975 4387 
Q 3406 4025 3406 3419 
Q 3406 3131 3298 2873 
Q 3191 2616 2906 2266 
Q 2828 2175 2409 1742 
Q 1991 1309 1228 531 
z
" transform="scale(0.015625)"/>
       </defs>
       <use xlink:href="#DejaVuSans-32"/>
       <use xlink:href="#DejaVuSans-30" x="63.623047"/>
       <use xlink:href="#DejaVuSans-30" x="127.246094"/>
      </g>
     </g>
    </g>
    <g id="xtick_4">
     <g id="line2d_4">
      <g>
       <use xlink:href="#mfc05d53ca6" x="637.2" y="384.48" style="stroke: #000000; stroke-width: 0.8"/>
      </g>
     </g>
     <g id="text_4">
      <!-- 300 -->
      <g transform="translate(627.65625 399.078438) scale(0.1 -0.1)">
       <defs>
        <path id="DejaVuSans-33" d="M 2597 2516 
Q 3050 2419 3304 2112 
Q 3559 1806 3559 1356 
Q 3559 666 3084 287 
Q 2609 -91 1734 -91 
Q 1441 -91 1130 -33 
Q 819 25 488 141 
L 488 750 
Q 750 597 1062 519 
Q 1375 441 1716 441 
Q 2309 441 2620 675 
Q 2931 909 2931 1356 
Q 2931 1769 2642 2001 
Q 2353 2234 1838 2234 
L 1294 2234 
L 1294 2753 
L 1863 2753 
Q 2328 2753 2575 2939 
Q 2822 3125 2822 3475 
Q 2822 3834 2567 4026 
Q 2313 4219 1838 4219 
Q 1578 4219 1281 4162 
Q 984 4106 628 3988 
L 628 4550 
Q 988 4650 1302 4700 
Q 1616 4750 1894 4750 
Q 2613 4750 3031 4423 
Q 3450 4097 3450 3541 
Q 3450 3153 3228 2886 
Q 3006 2619 2597 2516 
z
" transform="scale(0.015625)"/>
       </defs>
       <use xlink:href="#DejaVuSans-33"/>
       <use xlink:href="#DejaVuSans-30" x="63.623047"/>
       <use xlink:href="#DejaVuSans-30" x="127.246094"/>
      </g>
     </g>
    </g>
    <g id="xtick_5">
     <g id="line2d_5">
      <g>
       <use xlink:href="#mfc05d53ca6" x="804.6" y="384.48" style="stroke: #000000; stroke-width: 0.8"/>
      </g>
     </g>
     <g id="text_5">
      <!-- 400 -->
      <g transform="translate(795.05625 399.078438) scale(0.1 -0.1)">
       <defs>
        <path id="DejaVuSans-34" d="M 2419 4116 
L 825 1625 
L 2419 1625 
L 2419 4116 
z
M 2253 4666 
L 3047 4666 
L 3047 1625 
L 3713 1625 
L 3713 1100 
L 3047 1100 
L 3047 0 
L 2419 0 
L 2419 1100 
L 313 1100 
L 313 1709 
L 2253 4666 
z
" transform="scale(0.015625)"/>
       </defs>
       <use xlink:href="#DejaVuSans-34"/>
       <use xlink:href="#DejaVuSans-30" x="63.623047"/>
       <use xlink:href="#DejaVuSans-30" x="127.246094"/>
      </g>
     </g>
    </g>
    <g id="xtick_6">
     <g id="line2d_6">
      <g>
       <use xlink:href="#mfc05d53ca6" x="972" y="384.48" style="stroke: #000000; stroke-width: 0.8"/>
      </g>
     </g>
     <g id="text_6">
      <!-- 500 -->
      <g transform="translate(962.45625 399.078438) scale(0.1 -0.1)">
       <defs>
        <path id="DejaVuSans-35" d="M 691 4666 
L 3169 4666 
L 3169 4134 
L 1269 4134 
L 1269 2991 
Q 1406 3038 1543 3061 
Q 1681 3084 1819 3084 
Q 2600 3084 3056 2656 
Q 3513 2228 3513 1497 
Q 3513 744 3044 326 
Q 2575 -91 1722 -91 
Q 1428 -91 1123 -41 
Q 819 9 494 109 
L 494 744 
Q 775 591 1075 516 
Q 1375 441 1709 441 
Q 2250 441 2565 725 
Q 2881 1009 2881 1497 
Q 2881 1984 2565 2268 
Q 2250 2553 1709 2553 
Q 1456 2553 1204 2497 
Q 953 2441 691 2322 
L 691 4666 
z
" transform="scale(0.015625)"/>
       </defs>
       <use xlink:href="#DejaVuSans-35"/>
       <use xlink:href="#DejaVuSans-30" x="63.623047"/>
       <use xlink:href="#DejaVuSans-30" x="127.246094"/>
      </g>
     </g>
    </g>
   </g>
   <g id="matplotlib.axis_2">
    <g id="ytick_1">
     <g id="line2d_7">
      <defs>
       <path id="m17f106f0fc" d="M 0 0 
L -3.5 0 
" style="stroke: #000000; stroke-width: 0.8"/>
      </defs>
      <g>
       <use xlink:href="#m17f106f0fc" x="135" y="349.803089" style="stroke: #000000; stroke-width: 0.8"/>
      </g>
     </g>
     <g id="text_7">
      <!-- 350 -->
      <g transform="translate(108.9125 353.602308) scale(0.1 -0.1)">
       <use xlink:href="#DejaVuSans-33"/>
       <use xlink:href="#DejaVuSans-35" x="63.623047"/>
       <use xlink:href="#DejaVuSans-30" x="127.246094"/>
      </g>
     </g>
    </g>
    <g id="ytick_2">
     <g id="line2d_8">
      <g>
       <use xlink:href="#m17f106f0fc" x="135" y="310.09744" style="stroke: #000000; stroke-width: 0.8"/>
      </g>
     </g>
     <g id="text_8">
      <!-- 400 -->
      <g transform="translate(108.9125 313.896658) scale(0.1 -0.1)">
       <use xlink:href="#DejaVuSans-34"/>
       <use xlink:href="#DejaVuSans-30" x="63.623047"/>
       <use xlink:href="#DejaVuSans-30" x="127.246094"/>
      </g>
     </g>
    </g>
    <g id="ytick_3">
     <g id="line2d_9">
      <g>
       <use xlink:href="#m17f106f0fc" x="135" y="270.39179" style="stroke: #000000; stroke-width: 0.8"/>
      </g>
     </g>
     <g id="text_9">
      <!-- 450 -->
      <g transform="translate(108.9125 274.191009) scale(0.1 -0.1)">
       <use xlink:href="#DejaVuSans-34"/>
       <use xlink:href="#DejaVuSans-35" x="63.623047"/>
       <use xlink:href="#DejaVuSans-30" x="127.246094"/>
      </g>
     </g>
    </g>
    <g id="ytick_4">
     <g id="line2d_10">
      <g>
       <use xlink:href="#m17f106f0fc" x="135" y="230.68614" style="stroke: #000000; stroke-width: 0.8"/>
      </g>
     </g>
     <g id="text_10">
      <!-- 500 -->
      <g transform="translate(108.9125 234.485359) scale(0.1 -0.1)">
       <use xlink:href="#DejaVuSans-35"/>
       <use xlink:href="#DejaVuSans-30" x="63.623047"/>
       <use xlink:href="#DejaVuSans-30" x="127.246094"/>
      </g>
     </g>
    </g>
    <g id="ytick_5">
     <g id="line2d_11">
      <g>
       <use xlink:href="#m17f106f0fc" x="135" y="190.98049" style="stroke: #000000; stroke-width: 0.8"/>
      </g>
     </g>
     <g id="text_11">
      <!-- 550 -->
      <g transform="translate(108.9125 194.779709) scale(0.1 -0.1)">
       <use xlink:href="#DejaVuSans-35"/>
       <use xlink:href="#DejaVuSans-35" x="63.623047"/>
       <use xlink:href="#DejaVuSans-30" x="127.246094"/>
      </g>
     </g>
    </g>
    <g id="ytick_6">
     <g id="line2d_12">
      <g>
       <use xlink:href="#m17f106f0fc" x="135" y="151.274841" style="stroke: #000000; stroke-width: 0.8"/>
      </g>
     </g>
     <g id="text_12">
      <!-- 600 -->
      <g transform="translate(108.9125 155.074059) scale(0.1 -0.1)">
       <defs>
        <path id="DejaVuSans-36" d="M 2113 2584 
Q 1688 2584 1439 2293 
Q 1191 2003 1191 1497 
Q 1191 994 1439 701 
Q 1688 409 2113 409 
Q 2538 409 2786 701 
Q 3034 994 3034 1497 
Q 3034 2003 2786 2293 
Q 2538 2584 2113 2584 
z
M 3366 4563 
L 3366 3988 
Q 3128 4100 2886 4159 
Q 2644 4219 2406 4219 
Q 1781 4219 1451 3797 
Q 1122 3375 1075 2522 
Q 1259 2794 1537 2939 
Q 1816 3084 2150 3084 
Q 2853 3084 3261 2657 
Q 3669 2231 3669 1497 
Q 3669 778 3244 343 
Q 2819 -91 2113 -91 
Q 1303 -91 875 529 
Q 447 1150 447 2328 
Q 447 3434 972 4092 
Q 1497 4750 2381 4750 
Q 2619 4750 2861 4703 
Q 3103 4656 3366 4563 
z
" transform="scale(0.015625)"/>
       </defs>
       <use xlink:href="#DejaVuSans-36"/>
       <use xlink:href="#DejaVuSans-30" x="63.623047"/>
       <use xlink:href="#DejaVuSans-30" x="127.246094"/>
      </g>
     </g>
    </g>
    <g id="ytick_7">
     <g id="line2d_13">
      <g>
       <use xlink:href="#m17f106f0fc" x="135" y="111.569191" style="stroke: #000000; stroke-width: 0.8"/>
      </g>
     </g>
     <g id="text_13">
      <!-- 650 -->
      <g transform="translate(108.9125 115.36841) scale(0.1 -0.1)">
       <use xlink:href="#DejaVuSans-36"/>
       <use xlink:href="#DejaVuSans-35" x="63.623047"/>
       <use xlink:href="#DejaVuSans-30" x="127.246094"/>
      </g>
     </g>
    </g>
    <g id="ytick_8">
     <g id="line2d_14">
      <g>
       <use xlink:href="#m17f106f0fc" x="135" y="71.863541" style="stroke: #000000; stroke-width: 0.8"/>
      </g>
     </g>
     <g id="text_14">
      <!-- 700 -->
      <g transform="translate(108.9125 75.66276) scale(0.1 -0.1)">
       <defs>
        <path id="DejaVuSans-37" d="M 525 4666 
L 3525 4666 
L 3525 4397 
L 1831 0 
L 1172 0 
L 2766 4134 
L 525 4134 
L 525 4666 
z
" transform="scale(0.015625)"/>
       </defs>
       <use xlink:href="#DejaVuSans-37"/>
       <use xlink:href="#DejaVuSans-30" x="63.623047"/>
       <use xlink:href="#DejaVuSans-30" x="127.246094"/>
      </g>
     </g>
    </g>
   </g>
   <g id="line2d_15">
    <path d="M 135 131.156482 
L 136.674 162.726683 
L 138.348 188.957029 
L 140.022 205.199759 
L 141.696 215.208476 
L 143.37 222.571332 
L 145.044 226.387711 
L 146.718 231.283 
L 148.392 218.924021 
L 150.066 186.725795 
L 151.74 152.073161 
L 153.414 127.269776 
L 155.088 109.082327 
L 156.762 102.549959 
L 158.436 128.488654 
L 160.11 131.772386 
L 161.784 130.756109 
L 163.458 131.57239 
L 165.132 119.016054 
L 166.806 125.150139 
L 168.48 128.043776 
L 170.154 105.958434 
L 171.828 96.962384 
L 173.502 113.26414 
L 175.176 133.349221 
L 178.524 186.764088 
L 180.198 204.691417 
L 181.872 216.513116 
L 183.546 223.944225 
L 185.22 228.385108 
L 186.894 239.300572 
L 188.568 236.82635 
L 190.242 220.463259 
L 191.916 199.262758 
L 193.59 172.439065 
L 195.264 152.783939 
L 196.938 146.087807 
L 198.612 159.147684 
L 200.286 162.67628 
L 201.96 167.298232 
L 203.634 172.461767 
L 205.308 161.679948 
L 206.982 158.901592 
L 208.656 157.372076 
L 210.33 129.456379 
L 212.004 112.837497 
L 213.678 122.302046 
L 215.352 139.637898 
L 217.026 171.224317 
L 218.7 199.25244 
L 220.374 213.233117 
L 222.048 220.684662 
L 223.722 225.834813 
L 225.396 228.621466 
L 227.07 232.751281 
L 228.744 216.105952 
L 230.418 179.38931 
L 232.092 146.402834 
L 233.766 121.200789 
L 235.44 102.251383 
L 237.114 96.409772 
L 238.788 136.07878 
L 240.462 154.787005 
L 242.136 190.964326 
L 243.81 192.318917 
L 245.484 161.625446 
L 247.158 142.070352 
L 248.832 154.330005 
L 250.506 129.807857 
L 252.18 124.214897 
L 253.854 140.713182 
L 257.202 192.602434 
L 258.876 210.294323 
L 260.55 216.928253 
L 262.224 212.860387 
L 263.898 218.861693 
L 265.572 220.475312 
L 267.246 222.969293 
L 268.92 209.870772 
L 272.268 140.876758 
L 273.942 109.896836 
L 275.616 102.243947 
L 277.29 126.410095 
L 278.964 174.967452 
L 280.638 182.195319 
L 282.312 183.30417 
L 283.986 179.510379 
L 285.66 168.861933 
L 289.008 151.076063 
L 290.682 129.914014 
L 292.356 176.077765 
L 294.03 139.79606 
L 295.704 151.0657 
L 297.378 176.839408 
L 299.052 181.335174 
L 300.726 199.158135 
L 302.4 212.668876 
L 304.074 219.376496 
L 305.748 221.762229 
L 307.422 226.105218 
L 309.096 211.914804 
L 312.444 138.832408 
L 314.118 115.510101 
L 315.792 123.775405 
L 317.466 176.579399 
L 319.14 211.630913 
L 320.814 236.09082 
L 322.488 213.073728 
L 324.162 198.922518 
L 325.836 166.781861 
L 327.51 150.48458 
L 329.184 142.590187 
L 330.858 126.77288 
L 332.532 128.258868 
L 334.206 142.332236 
L 335.88 153.901974 
L 337.554 172.728522 
L 340.902 191.621691 
L 342.576 204.081372 
L 344.25 211.501408 
L 347.598 220.543059 
L 349.272 206.133261 
L 350.946 168.84819 
L 352.62 135.006743 
L 354.294 118.291915 
L 355.968 123.423263 
L 357.642 130.757874 
L 359.316 161.539884 
L 360.99 169.642182 
L 362.664 200.585617 
L 364.338 205.232344 
L 366.012 200.225332 
L 367.686 176.882594 
L 369.36 198.581845 
L 371.034 175.117095 
L 372.708 144.858163 
L 374.382 164.591505 
L 376.056 181.34771 
L 377.73 200.963701 
L 379.404 169.128191 
L 381.078 188.777997 
L 382.752 204.901358 
L 384.426 210.212373 
L 386.1 213.872309 
L 387.774 216.020657 
L 389.448 200.852061 
L 392.796 127.220293 
L 394.47 101.546654 
L 396.144 124.931074 
L 397.818 135.03023 
L 399.492 174.258784 
L 401.166 190.119512 
L 402.84 191.926275 
L 406.188 163.343206 
L 407.862 162.932706 
L 409.536 155.703442 
L 411.21 133.444856 
L 412.884 123.296656 
L 414.558 145.342388 
L 416.232 157.623385 
L 417.906 173.052298 
L 419.58 176.723781 
L 422.928 204.926208 
L 424.602 210.467795 
L 426.276 214.921977 
L 427.95 222.21843 
L 429.624 211.265428 
L 432.972 138.937107 
L 434.646 121.433432 
L 436.32 139.906756 
L 437.994 163.932002 
L 439.668 210.932486 
L 441.342 190.511528 
L 443.016 179.899447 
L 444.69 194.126847 
L 446.364 189.039678 
L 448.038 172.288817 
L 449.712 157.49391 
L 451.386 131.428882 
L 453.06 142.955607 
L 454.734 158.594448 
L 456.408 172.201467 
L 458.082 176.7593 
L 459.756 174.872753 
L 461.43 185.544932 
L 463.104 198.303865 
L 466.452 212.333641 
L 468.126 225.829291 
L 469.8 223.104386 
L 471.474 202.671967 
L 473.148 176.2547 
L 474.822 147.550727 
L 476.496 128.240732 
L 478.17 123.024212 
L 479.844 146.629353 
L 481.518 165.044341 
L 483.192 165.870335 
L 484.866 159.189843 
L 486.54 169.229064 
L 488.214 174.71773 
L 489.888 149.960715 
L 491.562 114.61691 
L 493.236 104.410676 
L 494.91 128.318608 
L 496.584 150.285575 
L 498.258 170.77231 
L 499.932 185.29535 
L 501.606 201.250472 
L 503.28 211.657852 
L 504.954 218.726329 
L 506.628 221.608396 
L 508.302 225.002542 
L 509.976 211.544244 
L 511.65 177.757388 
L 513.324 161.057935 
L 514.998 158.717054 
L 516.672 176.968932 
L 518.346 191.006475 
L 520.02 220.157462 
L 521.694 215.530915 
L 523.368 199.601067 
L 525.042 175.098541 
L 526.716 171.635949 
L 528.39 205.405646 
L 530.064 187.916784 
L 531.738 146.978689 
L 533.412 132.147764 
L 535.086 155.488535 
L 536.76 154.228691 
L 538.434 164.857908 
L 540.108 193.497102 
L 541.782 188.69973 
L 543.456 201.586387 
L 545.13 212.175074 
L 546.804 212.962967 
L 548.478 214.963493 
L 550.152 204.85729 
L 551.826 167.223118 
L 553.5 133.783551 
L 555.174 143.043655 
L 556.848 162.864992 
L 558.522 171.485922 
L 560.196 206.210955 
L 561.87 200.456811 
L 563.544 190.59788 
L 565.218 174.856029 
L 566.892 183.433996 
L 568.566 180.456357 
L 571.914 138.841487 
L 573.588 155.012481 
L 575.262 121.621208 
L 576.936 109.7972 
L 578.61 135.794511 
L 580.284 164.562096 
L 581.958 185.079564 
L 583.632 197.154759 
L 585.306 203.348657 
L 586.98 206.813491 
L 588.654 211.073439 
L 590.328 202.05729 
L 593.676 140.692431 
L 595.35 116.346772 
L 597.024 98.823265 
L 598.698 90.508949 
L 600.372 110.232341 
L 602.046 112.088971 
L 603.72 109.412405 
L 605.394 110.970879 
L 607.068 100.238003 
L 610.416 114.204878 
L 612.09 84.118258 
L 613.764 74.983224 
L 615.438 94.610921 
L 618.786 141.046667 
L 620.46 167.711428 
L 622.134 188.271117 
L 623.808 200.151061 
L 625.482 208.447147 
L 628.83 219.144838 
L 630.504 209.471064 
L 633.852 147.750815 
L 635.526 120.919729 
L 637.2 99.99024 
L 638.874 91.372035 
L 640.548 111.262616 
L 642.222 112.902094 
L 643.896 111.557247 
L 645.57 109.031619 
L 647.244 105.107979 
L 648.918 114.110178 
L 650.592 121.276458 
L 652.266 92.405212 
L 653.94 83.412239 
L 655.614 105.050845 
L 657.288 128.725513 
L 658.962 149.138921 
L 660.636 174.080379 
L 662.31 194.799102 
L 663.984 210.128819 
L 665.658 217.286684 
L 667.332 222.399517 
L 669.006 233.30253 
L 670.68 233.239177 
L 672.354 217.099035 
L 675.702 172.012739 
L 677.376 157.05365 
L 679.05 151.76551 
L 680.724 164.789094 
L 682.398 168.417859 
L 684.072 174.70091 
L 685.746 179.340935 
L 687.42 179.296887 
L 689.094 196.358961 
L 690.768 215.439912 
L 692.442 195.526453 
L 694.116 191.883241 
L 695.79 211.461543 
L 697.464 236.466906 
L 699.138 258.187746 
L 700.812 282.013977 
L 702.486 304.130592 
L 704.16 318.76154 
L 705.834 328.55436 
L 707.508 336.89339 
L 710.856 367.945535 
L 712.53 369.36 
L 714.204 361.892799 
L 715.878 353.697687 
L 717.552 350.063557 
L 719.226 337.750294 
L 720.9 313.862672 
L 722.574 292.14375 
L 724.248 276.592068 
L 725.922 257.952654 
L 727.596 229.534248 
L 729.27 209.332495 
L 730.944 191.605853 
L 732.618 149.407107 
L 734.292 132.451077 
L 735.966 143.955977 
L 737.64 159.743891 
L 739.314 178.43038 
L 740.988 203.106574 
L 742.662 221.322196 
L 744.336 233.074883 
L 746.01 240.989153 
L 747.684 245.367779 
L 749.358 253.54364 
L 751.032 248.657426 
L 752.706 227.020237 
L 754.38 203.457351 
L 756.054 173.245777 
L 757.728 150.938767 
L 759.402 140.096104 
L 761.076 150.491577 
L 762.75 152.192534 
L 764.424 157.530643 
L 766.098 157.951459 
L 767.772 149.261592 
L 769.446 152.987927 
L 771.12 151.429659 
L 772.794 111.718015 
L 774.468 98.352516 
L 776.142 109.005664 
L 777.816 129.67329 
L 781.164 185.829599 
L 782.838 203.59969 
L 784.512 214.884045 
L 786.186 221.799694 
L 787.86 224.838927 
L 789.534 229.494131 
L 791.208 223.131643 
L 792.882 193.751653 
L 794.556 159.687606 
L 796.23 133.796109 
L 797.904 115.090411 
L 799.578 105.472544 
L 801.252 126.809588 
L 802.926 127.849962 
L 804.6 128.101588 
L 806.274 124.71387 
L 807.948 115.529642 
L 809.622 119.787667 
L 811.296 125.209047 
L 812.97 88.916687 
L 814.644 83.551257 
L 816.318 99.839387 
L 817.992 125.525352 
L 819.666 160.802067 
L 821.34 189.012594 
L 823.014 205.218353 
L 824.688 215.014344 
L 826.362 221.89829 
L 828.036 225.027557 
L 829.71 229.618396 
L 831.384 219.287971 
L 833.058 187.063098 
L 834.732 152.551126 
L 836.406 126.30547 
L 838.08 104.227826 
L 839.754 96.674057 
L 841.428 120.872151 
L 843.102 123.843768 
L 844.776 122.469878 
L 846.45 118.256111 
L 848.124 107.963116 
L 849.798 109.078584 
L 851.472 109.324337 
L 853.146 78.367287 
L 854.82 80.265069 
L 856.494 97.995273 
L 858.168 121.957135 
L 859.842 156.54267 
L 861.516 185.088499 
L 863.19 203.188135 
L 864.864 213.69512 
L 866.538 222.806985 
L 868.212 225.961516 
L 869.886 230.149455 
L 871.56 218.241707 
L 874.908 151.36294 
L 876.582 123.508646 
L 878.256 102.574293 
L 879.93 96.373668 
L 881.604 119.574348 
L 883.278 123.864536 
L 884.952 126.569884 
L 886.626 121.769101 
L 888.3 109.273296 
L 889.974 102.19557 
L 891.648 104.260283 
L 893.322 74.464031 
L 894.996 76.222161 
L 896.67 98.124876 
L 898.344 124.738199 
L 900.018 158.131856 
L 901.692 185.751162 
L 903.366 205.290438 
L 905.04 216.785563 
L 906.714 222.406666 
L 910.062 229.679315 
L 911.736 220.204382 
L 915.084 148.841177 
L 916.758 121.792425 
L 918.432 105.419728 
L 920.106 112.141842 
L 921.78 161.953579 
L 923.454 159.557644 
L 925.128 162.641027 
L 926.802 161.803354 
L 928.476 167.147732 
L 930.15 163.93303 
L 931.824 151.581066 
L 933.498 148.773697 
L 935.172 176.647748 
L 936.846 185.165488 
L 938.52 205.711981 
L 941.868 181.460554 
L 943.542 199.501709 
L 945.216 211.849639 
L 946.89 219.645871 
L 950.238 228.446982 
L 951.912 216.239979 
L 955.26 144.577977 
L 956.934 117.967085 
L 958.608 99.66768 
L 960.282 107.721891 
L 961.956 170.663777 
L 963.63 210.361167 
L 965.304 235.111047 
L 966.978 245.990685 
L 968.652 231.919527 
L 970.326 196.502695 
L 970.326 196.502695 
" clip-path="url(#p19697692e9)" style="fill: none; stroke: #1f77b4; stroke-width: 1.5; stroke-linecap: square"/>
   </g>
   <g id="line2d_16">
    <path d="M 135 131.649189 
L 136.674 159.714036 
L 138.348 196.419806 
L 140.022 212.290336 
L 141.696 219.402553 
L 143.37 224.40909 
L 145.044 233.153445 
L 146.718 226.824727 
L 148.392 217.668193 
L 151.74 152.11403 
L 153.414 127.346128 
L 155.088 114.161594 
L 156.762 108.86342 
L 158.436 128.905127 
L 160.11 133.5845 
L 161.784 132.218407 
L 163.458 127.717351 
L 165.132 121.767562 
L 166.806 124.468874 
L 168.48 128.223074 
L 170.154 101.901602 
L 171.828 84.907807 
L 173.502 106.404064 
L 175.176 135.619609 
L 176.85 158.334759 
L 178.524 193.800697 
L 180.198 210.485891 
L 181.872 218.579455 
L 183.546 224.833604 
L 185.22 233.290103 
L 186.894 233.450947 
L 188.568 229.176046 
L 190.242 212.778175 
L 193.59 176.747091 
L 195.264 156.332658 
L 196.938 148.041438 
L 198.612 159.084959 
L 200.286 165.546967 
L 201.96 167.485622 
L 203.634 168.596527 
L 205.308 168.009909 
L 206.982 162.420922 
L 208.656 160.086858 
L 212.004 110.149394 
L 213.678 123.934699 
L 215.352 145.312353 
L 217.026 161.285589 
L 218.7 205.792074 
L 220.374 222.349384 
L 222.048 225.644584 
L 223.722 228.531362 
L 225.396 238.511212 
L 227.07 223.477544 
L 228.744 214.800439 
L 230.418 179.654347 
L 232.092 147.342081 
L 233.766 123.953408 
L 235.44 109.040282 
L 237.114 104.793542 
L 238.788 128.955244 
L 240.462 137.584583 
L 242.136 150.538212 
L 243.81 180.554655 
L 245.484 168.913319 
L 247.158 152.173986 
L 248.832 148.934233 
L 250.506 152.228125 
L 252.18 117.477248 
L 253.854 125.164741 
L 258.876 222.046623 
L 260.55 228.575954 
L 262.224 232.075499 
L 263.898 225.798327 
L 265.572 234.5904 
L 267.246 217.030489 
L 268.92 214.622122 
L 272.268 146.404258 
L 273.942 124.503432 
L 275.616 104.835613 
L 277.29 108.666975 
L 278.964 132.499914 
L 280.638 160.059716 
L 282.312 171.119474 
L 283.986 178.404821 
L 285.66 161.644452 
L 287.334 166.61076 
L 289.008 154.339087 
L 290.682 127.619104 
L 292.356 109.95135 
L 294.03 190.991493 
L 295.704 191.182121 
L 297.378 195.946314 
L 299.052 203.527611 
L 300.726 207.571946 
L 302.4 225.579442 
L 304.074 225.787567 
L 305.748 237.147299 
L 307.422 231.266215 
L 309.096 226.507135 
L 310.77 175.691343 
L 314.118 112.005749 
L 315.792 99.58804 
L 317.466 120.017062 
L 319.14 165.377617 
L 320.814 191.728267 
L 322.488 225.865796 
L 324.162 210.334038 
L 325.836 215.05713 
L 327.51 189.989739 
L 329.184 169.691098 
L 330.858 147.84131 
L 332.532 133.512766 
L 334.206 142.422061 
L 335.88 155.442286 
L 337.554 176.448184 
L 339.228 189.849616 
L 340.902 193.435096 
L 342.576 205.253683 
L 344.25 221.304881 
L 345.924 221.10056 
L 347.598 224.555345 
L 349.272 224.812326 
L 352.62 145.444964 
L 354.294 118.705254 
L 355.968 107.351823 
L 357.642 137.365891 
L 359.316 126.186269 
L 360.99 158.184312 
L 362.664 161.608343 
L 364.338 196.514465 
L 366.012 198.338153 
L 367.686 192.298842 
L 369.36 159.735653 
L 371.034 186.483215 
L 372.708 157.007974 
L 374.382 147.617723 
L 376.056 178.105963 
L 377.73 190.492022 
L 379.404 219.501235 
L 381.078 188.896186 
L 382.752 214.94347 
L 384.426 211.429239 
L 386.1 215.155521 
L 387.774 208.162538 
L 389.448 203.381284 
L 391.122 191.856855 
L 392.796 145.554697 
L 394.47 115.778416 
L 396.144 96.471738 
L 397.818 134.553052 
L 399.492 125.529178 
L 401.166 181.304856 
L 402.84 181.338638 
L 404.514 190.088373 
L 406.188 172.785832 
L 407.862 170.034742 
L 409.536 169.470953 
L 411.21 144.545479 
L 412.884 132.642024 
L 414.558 142.192173 
L 416.232 171.783352 
L 417.906 182.793575 
L 419.58 194.906464 
L 421.254 184.47428 
L 422.928 206.743275 
L 424.602 219.814344 
L 426.276 212.376029 
L 427.95 207.080375 
L 429.624 225.344053 
L 431.298 194.417656 
L 432.972 151.45844 
L 434.646 121.949465 
L 436.32 110.708869 
L 437.994 141.938827 
L 439.668 154.222423 
L 441.342 201.987321 
L 443.016 186.199236 
L 444.69 191.273678 
L 446.364 199.710256 
L 448.038 188.783108 
L 449.712 162.177318 
L 451.386 131.59219 
L 453.06 117.743148 
L 454.734 152.462326 
L 456.408 174.052274 
L 458.082 189.207065 
L 459.756 179.212505 
L 461.43 178.267848 
L 463.104 199.869816 
L 464.778 208.458537 
L 466.452 209.412501 
L 468.126 213.504528 
L 469.8 247.391522 
L 471.474 229.058945 
L 473.148 184.315835 
L 476.496 130.031543 
L 478.17 131.117632 
L 479.844 128.03899 
L 481.518 149.136881 
L 483.192 157.733891 
L 484.866 155.138532 
L 486.54 148.326919 
L 488.214 169.717223 
L 489.888 167.4056 
L 491.562 138.876034 
L 493.236 140.841638 
L 494.91 141.241506 
L 496.584 164.512594 
L 498.258 181.319735 
L 499.932 202.606074 
L 501.606 204.460927 
L 503.28 214.977883 
L 504.954 223.915556 
L 506.628 226.86641 
L 508.302 219.022751 
L 509.976 213.94288 
L 511.65 183.66771 
L 513.324 145.229423 
L 514.998 138.821071 
L 516.672 149.310981 
L 518.346 182.269288 
L 520.02 192.355066 
L 521.694 216.364043 
L 523.368 208.043257 
L 525.042 192.732541 
L 526.716 179.232135 
L 528.39 184.719532 
L 530.064 216.197843 
L 531.738 177.75437 
L 533.412 169.372852 
L 535.086 159.877909 
L 536.76 179.293061 
L 540.108 194.481586 
L 541.782 209.176651 
L 543.456 195.440203 
L 545.13 217.295759 
L 546.804 222.720679 
L 548.478 199.045604 
L 550.152 202.353939 
L 551.826 179.827429 
L 553.5 141.572693 
L 555.174 115.990807 
L 556.848 134.316379 
L 558.522 161.443694 
L 560.196 169.080004 
L 561.87 210.788821 
L 563.544 190.218561 
L 565.218 187.550013 
L 566.892 174.103311 
L 568.566 190.921455 
L 570.24 170.775346 
L 571.914 146.141897 
L 573.588 141.488552 
L 575.262 167.673148 
L 576.936 162.832762 
L 578.61 150.539036 
L 580.284 161.342443 
L 581.958 186.077434 
L 583.632 203.514573 
L 585.306 202.955049 
L 586.98 216.624078 
L 588.654 214.438668 
L 590.328 199.481726 
L 592.002 170.981096 
L 593.676 133.458869 
L 595.35 112.789345 
L 597.024 98.020656 
L 598.698 93.742217 
L 600.372 116.247255 
L 602.046 115.154526 
L 603.72 112.246543 
L 605.394 108.251355 
L 607.068 105.236014 
L 608.742 106.373577 
L 610.416 116.476416 
L 612.09 111.679554 
L 613.764 91.76784 
L 615.438 98.139065 
L 618.786 143.450908 
L 620.46 175.877221 
L 622.134 195.073391 
L 623.808 204.768752 
L 625.482 210.909751 
L 627.156 219.941138 
L 628.83 219.606218 
L 630.504 206.951981 
L 633.852 142.568727 
L 635.526 120.026223 
L 637.2 105.16806 
L 638.874 98.644643 
L 640.548 117.923888 
L 642.222 114.664845 
L 643.896 111.792971 
L 645.57 107.856819 
L 647.244 101.677579 
L 648.918 111.2492 
L 650.592 119.20996 
L 652.266 97.844665 
L 653.94 82.656624 
L 655.614 101.06062 
L 657.288 128.476663 
L 658.962 148.705509 
L 660.636 180.913761 
L 662.31 199.106093 
L 663.984 210.038039 
L 665.658 219.947148 
L 667.332 227.205861 
L 669.006 232.007158 
L 670.68 226.234692 
L 672.354 208.520917 
L 675.702 167.474814 
L 677.376 153.757607 
L 679.05 151.109853 
L 680.724 161.744928 
L 682.398 168.811486 
L 684.072 169.233407 
L 685.746 172.482078 
L 687.42 171.975967 
L 689.094 177.50999 
L 690.768 191.155851 
L 692.442 188.98343 
L 694.116 163.059935 
L 695.79 185.582034 
L 697.464 216.460835 
L 699.138 229.328238 
L 700.812 270.453757 
L 702.486 298.948765 
L 704.16 315.632893 
L 705.834 323.197929 
L 707.508 334.453744 
L 709.182 339.328834 
L 710.856 344.833606 
L 712.53 351.642263 
L 714.204 352.810894 
L 715.878 347.403568 
L 717.552 342.394438 
L 719.226 343.150406 
L 720.9 323.556962 
L 722.574 292.747496 
L 724.248 277.388117 
L 725.922 268.256908 
L 727.596 246.854221 
L 729.27 215.559121 
L 730.944 191.588871 
L 732.618 159.458218 
L 734.292 134.039913 
L 735.966 144.105383 
L 737.64 160.351498 
L 739.314 171.351543 
L 740.988 188.832256 
L 742.662 211.589623 
L 744.336 231.21399 
L 746.01 244.781888 
L 747.684 248.904669 
L 749.358 248.980305 
L 751.032 255.850298 
L 752.706 227.613121 
L 754.38 189.621667 
L 756.054 165.519388 
L 757.728 143.099752 
L 759.402 136.608421 
L 761.076 153.163767 
L 762.75 161.642319 
L 764.424 155.967058 
L 766.098 158.90674 
L 767.772 154.695915 
L 769.446 152.408914 
L 771.12 160.103774 
L 772.794 139.814003 
L 774.468 123.537158 
L 776.142 124.938052 
L 777.816 144.945056 
L 779.49 158.129978 
L 781.164 199.149036 
L 782.838 216.140262 
L 784.512 221.804546 
L 786.186 225.448237 
L 787.86 232.242619 
L 789.534 228.852008 
L 791.208 214.675971 
L 792.882 187.53048 
L 794.556 156.388882 
L 796.23 132.036019 
L 797.904 116.882536 
L 799.578 111.911478 
L 801.252 136.332003 
L 802.926 136.438925 
L 804.6 132.414512 
L 806.274 127.50118 
L 807.948 117.504391 
L 809.622 121.117013 
L 811.296 128.911137 
L 812.97 109.898568 
L 814.644 87.991441 
L 816.318 104.482275 
L 817.992 129.290891 
L 819.666 151.123279 
L 821.34 193.270109 
L 823.014 212.618712 
L 824.688 219.453154 
L 826.362 222.182045 
L 828.036 231.919308 
L 829.71 223.380897 
L 831.384 219.295921 
L 833.058 183.720687 
L 834.732 151.898828 
L 836.406 126.421585 
L 838.08 111.758413 
L 839.754 103.744192 
L 841.428 129.454909 
L 843.102 128.194284 
L 844.776 125.760132 
L 846.45 119.999807 
L 848.124 109.632765 
L 849.798 115.78622 
L 851.472 118.309555 
L 853.146 87.966092 
L 854.82 71.73505 
L 858.168 126.966326 
L 859.842 153.857598 
L 861.516 190.457948 
L 863.19 208.12987 
L 864.864 216.927105 
L 866.538 220.38012 
L 868.212 232.205662 
L 869.886 228.252158 
L 871.56 222.744041 
L 873.234 182.802396 
L 874.908 148.50068 
L 876.582 124.433153 
L 878.256 108.221305 
L 879.93 101.983853 
L 881.604 127.765529 
L 883.278 126.006062 
L 884.952 124.661538 
L 886.626 123.62382 
L 888.3 112.130314 
L 889.974 116.044607 
L 891.648 111.14916 
L 893.322 84.596637 
L 894.996 66.96 
L 900.018 155.601312 
L 901.692 191.874546 
L 903.366 209.030615 
L 905.04 219.810369 
L 906.714 224.482617 
L 908.388 232.582337 
L 910.062 229.930996 
L 911.736 217.915723 
L 915.084 150.350007 
L 916.758 124.722754 
L 918.432 108.970002 
L 920.106 106.319437 
L 921.78 136.722759 
L 923.454 152.04627 
L 925.128 151.608258 
L 926.802 158.539104 
L 928.476 140.478801 
L 930.15 161.221368 
L 931.824 147.356428 
L 933.498 110.348019 
L 935.172 112.878091 
L 936.846 167.507288 
L 938.52 187.439941 
L 940.194 224.309971 
L 943.542 208.243336 
L 945.216 222.620494 
L 946.89 223.484208 
L 948.564 235.266491 
L 951.912 224.412022 
L 953.586 200.542127 
L 955.26 163.287399 
L 956.934 136.334863 
L 958.608 115.737654 
L 960.282 106.665844 
L 961.956 120.8927 
L 963.63 172.587255 
L 965.304 198.458743 
L 966.978 227.982308 
L 968.652 237.801725 
L 970.326 229.700987 
L 970.326 229.700987 
" clip-path="url(#p19697692e9)" style="fill: none; stroke: #ff7f0e; stroke-width: 1.5; stroke-linecap: square"/>
   </g>
   <g id="patch_3">
    <path d="M 135 384.48 
L 135 51.84 
" style="fill: none; stroke: #000000; stroke-width: 0.8; stroke-linejoin: miter; stroke-linecap: square"/>
   </g>
   <g id="patch_4">
    <path d="M 972 384.48 
L 972 51.84 
" style="fill: none; stroke: #000000; stroke-width: 0.8; stroke-linejoin: miter; stroke-linecap: square"/>
   </g>
   <g id="patch_5">
    <path d="M 135 384.48 
L 972 384.48 
" style="fill: none; stroke: #000000; stroke-width: 0.8; stroke-linejoin: miter; stroke-linecap: square"/>
   </g>
   <g id="patch_6">
    <path d="M 135 51.84 
L 972 51.84 
" style="fill: none; stroke: #000000; stroke-width: 0.8; stroke-linejoin: miter; stroke-linecap: square"/>
   </g>
  </g>
 </g>
 <defs>
  <clipPath id="p19697692e9">
   <rect x="135" y="51.84" width="837" height="332.64"/>
  </clipPath>
 </defs>
</svg>
