<?xml version="1.0" encoding="utf-8" standalone="no"?>
<!DOCTYPE svg PUBLIC "-//W3C//DTD SVG 1.1//EN"
  "http://www.w3.org/Graphics/SVG/1.1/DTD/svg11.dtd">
<svg xmlns:xlink="http://www.w3.org/1999/xlink" width="1080pt" height="432pt" viewBox="0 0 1080 432" xmlns="http://www.w3.org/2000/svg" version="1.1">
 <metadata>
  <rdf:RDF xmlns:dc="http://purl.org/dc/elements/1.1/" xmlns:cc="http://creativecommons.org/ns#" xmlns:rdf="http://www.w3.org/1999/02/22-rdf-syntax-ns#">
   <cc:Work>
    <dc:type rdf:resource="http://purl.org/dc/dcmitype/StillImage"/>
    <dc:date>2024-02-21T10:29:46.076428</dc:date>
    <dc:format>image/svg+xml</dc:format>
    <dc:creator>
     <cc:Agent>
      <dc:title>Matplotlib v3.7.1, https://matplotlib.org/</dc:title>
     </cc:Agent>
    </dc:creator>
   </cc:Work>
  </rdf:RDF>
 </metadata>
 <defs>
  <style type="text/css">*{stroke-linejoin: round; stroke-linecap: butt}</style>
 </defs>
 <g id="figure_1">
  <g id="patch_1">
   <path d="M 0 432 
L 1080 432 
L 1080 0 
L 0 0 
z
" style="fill: #ffffff"/>
  </g>
  <g id="axes_1">
   <g id="patch_2">
    <path d="M 135 384.48 
L 972 384.48 
L 972 51.84 
L 135 51.84 
z
" style="fill: #ffffff"/>
   </g>
   <g id="matplotlib.axis_1">
    <g id="xtick_1">
     <g id="line2d_1">
      <defs>
       <path id="m270a651578" d="M 0 0 
L 0 3.5 
" style="stroke: #000000; stroke-width: 0.8"/>
      </defs>
      <g>
       <use xlink:href="#m270a651578" x="135" y="384.48" style="stroke: #000000; stroke-width: 0.8"/>
      </g>
     </g>
     <g id="text_1">
      <!-- 0 -->
      <g transform="translate(131.81875 399.078438) scale(0.1 -0.1)">
       <defs>
        <path id="DejaVuSans-30" d="M 2034 4250 
Q 1547 4250 1301 3770 
Q 1056 3291 1056 2328 
Q 1056 1369 1301 889 
Q 1547 409 2034 409 
Q 2525 409 2770 889 
Q 3016 1369 3016 2328 
Q 3016 3291 2770 3770 
Q 2525 4250 2034 4250 
z
M 2034 4750 
Q 2819 4750 3233 4129 
Q 3647 3509 3647 2328 
Q 3647 1150 3233 529 
Q 2819 -91 2034 -91 
Q 1250 -91 836 529 
Q 422 1150 422 2328 
Q 422 3509 836 4129 
Q 1250 4750 2034 4750 
z
" transform="scale(0.015625)"/>
       </defs>
       <use xlink:href="#DejaVuSans-30"/>
      </g>
     </g>
    </g>
    <g id="xtick_2">
     <g id="line2d_2">
      <g>
       <use xlink:href="#m270a651578" x="302.4" y="384.48" style="stroke: #000000; stroke-width: 0.8"/>
      </g>
     </g>
     <g id="text_2">
      <!-- 100 -->
      <g transform="translate(292.85625 399.078438) scale(0.1 -0.1)">
       <defs>
        <path id="DejaVuSans-31" d="M 794 531 
L 1825 531 
L 1825 4091 
L 703 3866 
L 703 4441 
L 1819 4666 
L 2450 4666 
L 2450 531 
L 3481 531 
L 3481 0 
L 794 0 
L 794 531 
z
" transform="scale(0.015625)"/>
       </defs>
       <use xlink:href="#DejaVuSans-31"/>
       <use xlink:href="#DejaVuSans-30" x="63.623047"/>
       <use xlink:href="#DejaVuSans-30" x="127.246094"/>
      </g>
     </g>
    </g>
    <g id="xtick_3">
     <g id="line2d_3">
      <g>
       <use xlink:href="#m270a651578" x="469.8" y="384.48" style="stroke: #000000; stroke-width: 0.8"/>
      </g>
     </g>
     <g id="text_3">
      <!-- 200 -->
      <g transform="translate(460.25625 399.078438) scale(0.1 -0.1)">
       <defs>
        <path id="DejaVuSans-32" d="M 1228 531 
L 3431 531 
L 3431 0 
L 469 0 
L 469 531 
Q 828 903 1448 1529 
Q 2069 2156 2228 2338 
Q 2531 2678 2651 2914 
Q 2772 3150 2772 3378 
Q 2772 3750 2511 3984 
Q 2250 4219 1831 4219 
Q 1534 4219 1204 4116 
Q 875 4013 500 3803 
L 500 4441 
Q 881 4594 1212 4672 
Q 1544 4750 1819 4750 
Q 2544 4750 2975 4387 
Q 3406 4025 3406 3419 
Q 3406 3131 3298 2873 
Q 3191 2616 2906 2266 
Q 2828 2175 2409 1742 
Q 1991 1309 1228 531 
z
" transform="scale(0.015625)"/>
       </defs>
       <use xlink:href="#DejaVuSans-32"/>
       <use xlink:href="#DejaVuSans-30" x="63.623047"/>
       <use xlink:href="#DejaVuSans-30" x="127.246094"/>
      </g>
     </g>
    </g>
    <g id="xtick_4">
     <g id="line2d_4">
      <g>
       <use xlink:href="#m270a651578" x="637.2" y="384.48" style="stroke: #000000; stroke-width: 0.8"/>
      </g>
     </g>
     <g id="text_4">
      <!-- 300 -->
      <g transform="translate(627.65625 399.078438) scale(0.1 -0.1)">
       <defs>
        <path id="DejaVuSans-33" d="M 2597 2516 
Q 3050 2419 3304 2112 
Q 3559 1806 3559 1356 
Q 3559 666 3084 287 
Q 2609 -91 1734 -91 
Q 1441 -91 1130 -33 
Q 819 25 488 141 
L 488 750 
Q 750 597 1062 519 
Q 1375 441 1716 441 
Q 2309 441 2620 675 
Q 2931 909 2931 1356 
Q 2931 1769 2642 2001 
Q 2353 2234 1838 2234 
L 1294 2234 
L 1294 2753 
L 1863 2753 
Q 2328 2753 2575 2939 
Q 2822 3125 2822 3475 
Q 2822 3834 2567 4026 
Q 2313 4219 1838 4219 
Q 1578 4219 1281 4162 
Q 984 4106 628 3988 
L 628 4550 
Q 988 4650 1302 4700 
Q 1616 4750 1894 4750 
Q 2613 4750 3031 4423 
Q 3450 4097 3450 3541 
Q 3450 3153 3228 2886 
Q 3006 2619 2597 2516 
z
" transform="scale(0.015625)"/>
       </defs>
       <use xlink:href="#DejaVuSans-33"/>
       <use xlink:href="#DejaVuSans-30" x="63.623047"/>
       <use xlink:href="#DejaVuSans-30" x="127.246094"/>
      </g>
     </g>
    </g>
    <g id="xtick_5">
     <g id="line2d_5">
      <g>
       <use xlink:href="#m270a651578" x="804.6" y="384.48" style="stroke: #000000; stroke-width: 0.8"/>
      </g>
     </g>
     <g id="text_5">
      <!-- 400 -->
      <g transform="translate(795.05625 399.078438) scale(0.1 -0.1)">
       <defs>
        <path id="DejaVuSans-34" d="M 2419 4116 
L 825 1625 
L 2419 1625 
L 2419 4116 
z
M 2253 4666 
L 3047 4666 
L 3047 1625 
L 3713 1625 
L 3713 1100 
L 3047 1100 
L 3047 0 
L 2419 0 
L 2419 1100 
L 313 1100 
L 313 1709 
L 2253 4666 
z
" transform="scale(0.015625)"/>
       </defs>
       <use xlink:href="#DejaVuSans-34"/>
       <use xlink:href="#DejaVuSans-30" x="63.623047"/>
       <use xlink:href="#DejaVuSans-30" x="127.246094"/>
      </g>
     </g>
    </g>
    <g id="xtick_6">
     <g id="line2d_6">
      <g>
       <use xlink:href="#m270a651578" x="972" y="384.48" style="stroke: #000000; stroke-width: 0.8"/>
      </g>
     </g>
     <g id="text_6">
      <!-- 500 -->
      <g transform="translate(962.45625 399.078438) scale(0.1 -0.1)">
       <defs>
        <path id="DejaVuSans-35" d="M 691 4666 
L 3169 4666 
L 3169 4134 
L 1269 4134 
L 1269 2991 
Q 1406 3038 1543 3061 
Q 1681 3084 1819 3084 
Q 2600 3084 3056 2656 
Q 3513 2228 3513 1497 
Q 3513 744 3044 326 
Q 2575 -91 1722 -91 
Q 1428 -91 1123 -41 
Q 819 9 494 109 
L 494 744 
Q 775 591 1075 516 
Q 1375 441 1709 441 
Q 2250 441 2565 725 
Q 2881 1009 2881 1497 
Q 2881 1984 2565 2268 
Q 2250 2553 1709 2553 
Q 1456 2553 1204 2497 
Q 953 2441 691 2322 
L 691 4666 
z
" transform="scale(0.015625)"/>
       </defs>
       <use xlink:href="#DejaVuSans-35"/>
       <use xlink:href="#DejaVuSans-30" x="63.623047"/>
       <use xlink:href="#DejaVuSans-30" x="127.246094"/>
      </g>
     </g>
    </g>
   </g>
   <g id="matplotlib.axis_2">
    <g id="ytick_1">
     <g id="line2d_7">
      <defs>
       <path id="mb75094ea1a" d="M 0 0 
L -3.5 0 
" style="stroke: #000000; stroke-width: 0.8"/>
      </defs>
      <g>
       <use xlink:href="#mb75094ea1a" x="135" y="349.705381" style="stroke: #000000; stroke-width: 0.8"/>
      </g>
     </g>
     <g id="text_7">
      <!-- 350 -->
      <g transform="translate(108.9125 353.5046) scale(0.1 -0.1)">
       <use xlink:href="#DejaVuSans-33"/>
       <use xlink:href="#DejaVuSans-35" x="63.623047"/>
       <use xlink:href="#DejaVuSans-30" x="127.246094"/>
      </g>
     </g>
    </g>
    <g id="ytick_2">
     <g id="line2d_8">
      <g>
       <use xlink:href="#mb75094ea1a" x="135" y="309.801358" style="stroke: #000000; stroke-width: 0.8"/>
      </g>
     </g>
     <g id="text_8">
      <!-- 400 -->
      <g transform="translate(108.9125 313.600577) scale(0.1 -0.1)">
       <use xlink:href="#DejaVuSans-34"/>
       <use xlink:href="#DejaVuSans-30" x="63.623047"/>
       <use xlink:href="#DejaVuSans-30" x="127.246094"/>
      </g>
     </g>
    </g>
    <g id="ytick_3">
     <g id="line2d_9">
      <g>
       <use xlink:href="#mb75094ea1a" x="135" y="269.897335" style="stroke: #000000; stroke-width: 0.8"/>
      </g>
     </g>
     <g id="text_9">
      <!-- 450 -->
      <g transform="translate(108.9125 273.696554) scale(0.1 -0.1)">
       <use xlink:href="#DejaVuSans-34"/>
       <use xlink:href="#DejaVuSans-35" x="63.623047"/>
       <use xlink:href="#DejaVuSans-30" x="127.246094"/>
      </g>
     </g>
    </g>
    <g id="ytick_4">
     <g id="line2d_10">
      <g>
       <use xlink:href="#mb75094ea1a" x="135" y="229.993312" style="stroke: #000000; stroke-width: 0.8"/>
      </g>
     </g>
     <g id="text_10">
      <!-- 500 -->
      <g transform="translate(108.9125 233.792531) scale(0.1 -0.1)">
       <use xlink:href="#DejaVuSans-35"/>
       <use xlink:href="#DejaVuSans-30" x="63.623047"/>
       <use xlink:href="#DejaVuSans-30" x="127.246094"/>
      </g>
     </g>
    </g>
    <g id="ytick_5">
     <g id="line2d_11">
      <g>
       <use xlink:href="#mb75094ea1a" x="135" y="190.089289" style="stroke: #000000; stroke-width: 0.8"/>
      </g>
     </g>
     <g id="text_11">
      <!-- 550 -->
      <g transform="translate(108.9125 193.888508) scale(0.1 -0.1)">
       <use xlink:href="#DejaVuSans-35"/>
       <use xlink:href="#DejaVuSans-35" x="63.623047"/>
       <use xlink:href="#DejaVuSans-30" x="127.246094"/>
      </g>
     </g>
    </g>
    <g id="ytick_6">
     <g id="line2d_12">
      <g>
       <use xlink:href="#mb75094ea1a" x="135" y="150.185266" style="stroke: #000000; stroke-width: 0.8"/>
      </g>
     </g>
     <g id="text_12">
      <!-- 600 -->
      <g transform="translate(108.9125 153.984485) scale(0.1 -0.1)">
       <defs>
        <path id="DejaVuSans-36" d="M 2113 2584 
Q 1688 2584 1439 2293 
Q 1191 2003 1191 1497 
Q 1191 994 1439 701 
Q 1688 409 2113 409 
Q 2538 409 2786 701 
Q 3034 994 3034 1497 
Q 3034 2003 2786 2293 
Q 2538 2584 2113 2584 
z
M 3366 4563 
L 3366 3988 
Q 3128 4100 2886 4159 
Q 2644 4219 2406 4219 
Q 1781 4219 1451 3797 
Q 1122 3375 1075 2522 
Q 1259 2794 1537 2939 
Q 1816 3084 2150 3084 
Q 2853 3084 3261 2657 
Q 3669 2231 3669 1497 
Q 3669 778 3244 343 
Q 2819 -91 2113 -91 
Q 1303 -91 875 529 
Q 447 1150 447 2328 
Q 447 3434 972 4092 
Q 1497 4750 2381 4750 
Q 2619 4750 2861 4703 
Q 3103 4656 3366 4563 
z
" transform="scale(0.015625)"/>
       </defs>
       <use xlink:href="#DejaVuSans-36"/>
       <use xlink:href="#DejaVuSans-30" x="63.623047"/>
       <use xlink:href="#DejaVuSans-30" x="127.246094"/>
      </g>
     </g>
    </g>
    <g id="ytick_7">
     <g id="line2d_13">
      <g>
       <use xlink:href="#mb75094ea1a" x="135" y="110.281243" style="stroke: #000000; stroke-width: 0.8"/>
      </g>
     </g>
     <g id="text_13">
      <!-- 650 -->
      <g transform="translate(108.9125 114.080462) scale(0.1 -0.1)">
       <use xlink:href="#DejaVuSans-36"/>
       <use xlink:href="#DejaVuSans-35" x="63.623047"/>
       <use xlink:href="#DejaVuSans-30" x="127.246094"/>
      </g>
     </g>
    </g>
    <g id="ytick_8">
     <g id="line2d_14">
      <g>
       <use xlink:href="#mb75094ea1a" x="135" y="70.37722" style="stroke: #000000; stroke-width: 0.8"/>
      </g>
     </g>
     <g id="text_14">
      <!-- 700 -->
      <g transform="translate(108.9125 74.176439) scale(0.1 -0.1)">
       <defs>
        <path id="DejaVuSans-37" d="M 525 4666 
L 3525 4666 
L 3525 4397 
L 1831 0 
L 1172 0 
L 2766 4134 
L 525 4134 
L 525 4666 
z
" transform="scale(0.015625)"/>
       </defs>
       <use xlink:href="#DejaVuSans-37"/>
       <use xlink:href="#DejaVuSans-30" x="63.623047"/>
       <use xlink:href="#DejaVuSans-30" x="127.246094"/>
      </g>
     </g>
    </g>
   </g>
   <g id="line2d_15">
    <path d="M 135 129.966394 
L 136.674 161.694323 
L 138.348 188.055718 
L 140.022 204.379598 
L 141.696 214.43832 
L 143.37 221.837962 
L 145.044 225.673408 
L 146.718 230.593154 
L 148.392 218.172429 
L 150.066 185.813337 
L 151.74 150.987575 
L 153.414 126.06027 
L 155.088 107.781955 
L 156.762 101.21695 
L 158.436 127.285237 
L 160.11 130.585376 
L 161.784 129.564021 
L 163.458 130.38438 
L 165.132 117.765311 
L 166.806 123.930043 
L 168.48 126.838138 
L 170.154 104.642455 
L 171.828 95.60146 
L 173.502 111.984661 
L 175.176 132.170088 
L 178.524 185.851821 
L 180.198 203.868717 
L 181.872 215.749479 
L 183.546 223.217714 
L 185.22 227.680784 
L 186.894 238.650783 
L 188.568 236.1642 
L 190.242 219.719357 
L 191.916 198.412936 
L 193.59 171.455229 
L 195.264 151.701904 
L 196.938 144.972318 
L 198.612 158.097443 
L 200.286 161.643668 
L 201.96 166.288712 
L 203.634 171.478045 
L 205.308 160.642358 
L 206.982 157.850121 
L 208.656 156.312964 
L 210.33 128.257797 
L 212.004 111.555886 
L 213.678 121.067721 
L 215.352 138.490185 
L 217.026 170.234412 
L 218.7 198.402566 
L 220.374 212.453092 
L 222.048 219.941866 
L 223.722 225.117748 
L 225.396 227.918323 
L 227.07 232.068771 
L 228.744 215.340281 
L 230.418 178.440198 
L 232.092 145.288919 
L 233.766 119.960962 
L 235.44 100.916882 
L 237.114 95.046087 
L 238.788 134.913285 
L 240.462 153.714978 
L 242.136 190.073044 
L 243.81 191.434403 
L 245.484 160.587584 
L 247.158 140.934791 
L 248.832 153.255695 
L 250.506 128.611032 
L 252.18 122.990129 
L 253.854 139.570841 
L 257.202 191.719337 
L 258.876 209.499616 
L 260.55 216.16669 
L 262.224 212.0785 
L 263.898 218.109789 
L 265.572 219.73147 
L 267.246 222.237911 
L 268.92 209.073948 
L 272.268 139.735234 
L 273.942 108.600533 
L 275.616 100.909409 
L 277.29 125.196295 
L 278.964 173.996248 
L 280.638 181.260227 
L 282.312 182.374617 
L 283.986 178.561872 
L 285.66 167.860226 
L 289.008 149.985496 
L 290.682 128.717719 
L 292.356 175.112108 
L 294.03 138.649137 
L 295.704 149.975081 
L 297.378 175.877557 
L 299.052 180.395784 
L 300.726 198.30779 
L 302.4 211.886032 
L 304.074 218.627164 
L 305.748 221.024816 
L 307.422 225.389504 
L 309.096 211.128193 
L 312.444 137.68067 
L 314.118 114.241843 
L 315.792 122.548441 
L 317.466 175.616249 
L 319.14 210.842883 
L 320.814 235.424994 
L 322.488 212.292907 
L 324.162 198.070997 
L 325.836 165.769761 
L 327.51 149.391057 
L 329.184 141.457224 
L 330.858 125.560891 
L 332.532 127.054303 
L 334.206 141.197983 
L 335.88 152.825526 
L 337.554 171.746132 
L 340.902 190.733694 
L 342.576 203.255624 
L 344.25 210.712731 
L 347.598 219.799555 
L 349.272 205.317764 
L 350.946 167.846414 
L 352.62 133.835892 
L 354.294 117.037555 
L 355.968 122.194539 
L 357.642 129.565795 
L 359.316 160.501595 
L 360.99 168.644373 
L 362.664 199.742404 
L 364.338 204.412347 
L 366.012 199.380319 
L 367.686 175.920958 
L 369.36 197.728621 
L 371.034 174.146639 
L 372.708 143.73653 
L 374.382 163.568462 
L 376.056 180.408383 
L 377.73 200.122377 
L 379.404 168.127813 
L 381.078 187.875792 
L 382.752 204.079707 
L 384.426 209.417256 
L 386.1 213.095478 
L 387.774 215.254559 
L 389.448 200.01018 
L 392.796 126.01054 
L 394.47 100.208633 
L 396.144 123.709884 
L 397.818 133.859496 
L 399.492 173.28404 
L 401.166 189.22401 
L 402.84 191.039799 
L 406.188 162.313927 
L 407.862 161.901376 
L 409.536 154.635993 
L 411.21 132.266201 
L 412.884 122.0673 
L 414.558 144.223174 
L 416.232 156.565529 
L 417.906 172.071526 
L 419.58 175.761352 
L 422.928 204.104681 
L 424.602 209.673954 
L 426.276 214.15039 
L 427.95 221.483297 
L 429.624 210.475572 
L 432.972 137.785892 
L 434.646 120.194767 
L 436.32 138.760385 
L 437.994 162.905664 
L 439.668 210.140967 
L 441.342 189.617984 
L 443.016 178.952884 
L 444.69 193.251365 
L 446.364 188.138781 
L 448.038 171.30423 
L 449.712 156.435406 
L 451.386 130.240156 
L 453.06 141.824469 
L 454.734 157.541443 
L 456.408 171.216444 
L 458.082 175.797049 
L 459.756 173.901076 
L 461.43 184.626575 
L 463.104 197.449252 
L 466.452 211.549122 
L 468.126 225.112198 
L 469.8 222.373679 
L 471.474 201.839178 
L 473.148 175.289927 
L 474.822 146.442547 
L 476.496 127.036077 
L 478.17 121.793495 
L 479.844 145.51657 
L 481.518 164.02356 
L 483.192 164.853681 
L 484.866 158.139812 
L 486.54 168.229191 
L 488.214 173.745278 
L 489.888 148.864576 
L 491.562 113.344189 
L 493.236 103.086964 
L 494.91 127.114342 
L 496.584 149.191058 
L 498.258 169.780147 
L 499.932 184.375746 
L 501.606 200.410581 
L 503.28 210.869957 
L 504.954 217.973749 
L 506.628 220.870215 
L 508.302 224.281319 
L 509.976 210.755782 
L 511.65 176.800123 
L 513.324 160.017238 
L 514.998 157.664662 
L 516.672 176.007728 
L 518.346 190.115404 
L 520.02 219.412032 
L 521.694 214.76237 
L 523.368 198.752935 
L 525.042 174.127992 
L 526.716 170.6481 
L 528.39 204.586514 
L 530.064 187.010277 
L 531.738 145.867651 
L 533.412 130.962629 
L 535.086 154.420013 
L 536.76 153.153874 
L 538.434 163.836196 
L 540.108 192.618474 
L 541.782 187.797134 
L 543.456 200.748174 
L 545.13 211.389763 
L 546.804 212.181592 
L 548.478 214.192113 
L 550.152 204.035419 
L 551.826 166.213222 
L 553.5 132.606589 
L 555.174 141.912957 
L 556.848 161.833323 
L 558.522 170.497325 
L 560.196 205.395847 
L 561.87 199.612954 
L 563.544 189.704767 
L 565.218 173.884269 
L 566.892 182.505092 
L 568.566 179.512576 
L 571.914 137.689795 
L 573.588 153.94158 
L 575.262 120.383481 
L 576.936 108.500399 
L 578.61 134.627595 
L 580.284 163.538906 
L 581.958 184.158881 
L 583.632 196.294405 
L 585.306 202.519249 
L 586.98 206.001394 
L 588.654 210.282624 
L 590.328 201.22143 
L 593.676 139.549985 
L 595.35 115.082693 
L 597.024 97.471638 
L 598.698 89.115782 
L 600.372 108.937714 
L 602.046 110.803621 
L 603.72 108.113682 
L 605.394 109.679942 
L 607.068 98.893444 
L 610.416 112.930099 
L 612.09 82.693163 
L 613.764 73.51249 
L 615.438 93.238248 
L 618.786 139.905992 
L 620.46 166.703972 
L 622.134 187.36638 
L 623.808 199.305676 
L 625.482 207.643211 
L 628.83 218.394348 
L 630.504 208.672244 
L 633.852 146.643634 
L 635.526 119.678498 
L 637.2 98.644443 
L 638.874 89.983181 
L 640.548 109.973136 
L 642.222 111.620806 
L 643.896 110.269239 
L 645.57 107.730993 
L 647.244 103.78775 
L 648.918 112.834925 
L 650.592 120.037009 
L 652.266 91.02152 
L 653.94 81.983617 
L 655.614 103.730332 
L 657.288 127.52328 
L 658.962 148.038676 
L 660.636 173.104743 
L 662.31 193.926979 
L 663.984 209.333285 
L 665.658 216.526911 
L 667.332 221.665288 
L 669.006 232.622774 
L 670.68 232.559104 
L 672.354 216.338325 
L 675.702 171.026773 
L 677.376 155.992947 
L 679.05 150.678387 
L 680.724 163.767039 
L 682.398 167.413933 
L 684.072 173.728374 
L 685.746 178.391581 
L 687.42 178.347313 
L 689.094 195.494632 
L 690.768 214.670912 
L 692.442 194.657964 
L 694.116 190.99655 
L 695.79 210.672667 
L 697.464 235.80296 
L 699.138 257.632319 
L 700.812 281.577588 
L 702.486 303.8047 
L 704.16 318.508746 
L 705.834 328.350491 
L 707.508 336.731184 
L 710.856 367.938469 
L 712.53 369.36 
L 714.204 361.855492 
L 715.878 353.619437 
L 717.552 349.96715 
L 719.226 337.592369 
L 720.9 313.585402 
L 722.574 291.75797 
L 724.248 276.12859 
L 725.922 257.396052 
L 727.596 228.835665 
L 729.27 208.532982 
L 730.944 190.717776 
L 732.618 148.308201 
L 734.292 131.267457 
L 735.966 142.829837 
L 737.64 158.696628 
L 739.314 177.476478 
L 740.988 202.275956 
L 742.662 220.582585 
L 744.336 232.393989 
L 746.01 240.3478 
L 747.684 244.748302 
L 749.358 252.96501 
L 751.032 248.054385 
L 752.706 226.309094 
L 754.38 202.628485 
L 756.054 172.265971 
L 757.728 149.847514 
L 759.402 138.95068 
L 761.076 149.398089 
L 762.75 151.107545 
L 764.424 156.472323 
L 766.098 156.895242 
L 767.772 148.161959 
L 769.446 151.906911 
L 771.12 150.340858 
L 772.794 110.430811 
L 774.468 96.998536 
L 776.142 107.704909 
L 777.816 128.475792 
L 781.164 184.912663 
L 782.838 202.771536 
L 784.512 214.112269 
L 786.186 221.062469 
L 787.86 224.116885 
L 789.534 228.795348 
L 791.208 222.401072 
L 792.882 192.874297 
L 794.556 158.640063 
L 796.23 132.61921 
L 797.904 113.820056 
L 799.578 104.154137 
L 801.252 125.597782 
L 802.926 126.643355 
L 804.6 126.896238 
L 806.274 123.491595 
L 807.948 114.261481 
L 809.622 118.54078 
L 811.296 123.989246 
L 812.97 87.515566 
L 814.644 82.123329 
L 816.318 98.492836 
L 817.992 124.307131 
L 819.666 159.760091 
L 821.34 188.111561 
L 823.014 204.398285 
L 824.688 214.243218 
L 826.362 221.161557 
L 828.036 224.306458 
L 829.71 228.920234 
L 831.384 218.538197 
L 833.058 186.152326 
L 834.732 151.467928 
L 836.406 125.091147 
L 838.08 102.9032 
L 839.754 95.311692 
L 841.428 119.630682 
L 843.102 122.617145 
L 844.776 121.236391 
L 846.45 117.001572 
L 848.124 106.657152 
L 849.798 107.778193 
L 851.472 108.025174 
L 853.146 76.913459 
L 854.82 78.820723 
L 856.494 96.639509 
L 858.168 120.721087 
L 859.842 155.479414 
L 861.516 184.167861 
L 863.19 202.357925 
L 864.864 212.917403 
L 866.538 222.074792 
L 868.212 225.245083 
L 869.886 229.453946 
L 871.56 217.486706 
L 874.908 150.273806 
L 876.582 122.280349 
L 878.256 101.241406 
L 879.93 95.009802 
L 881.604 118.326395 
L 883.278 122.638017 
L 884.952 125.356881 
L 886.626 120.532113 
L 888.3 107.973878 
L 889.974 100.860791 
L 891.648 102.935819 
L 893.322 72.990702 
L 894.996 74.757617 
L 896.67 96.76976 
L 898.344 123.516045 
L 900.018 157.07654 
L 901.692 184.833835 
L 903.366 204.470731 
L 905.04 216.023287 
L 906.714 221.672474 
L 910.062 228.981457 
L 911.736 219.459187 
L 915.084 147.739443 
L 916.758 120.555554 
L 918.432 104.101057 
L 920.106 110.856756 
L 921.78 160.917357 
L 923.454 158.509451 
L 925.128 161.608239 
L 926.802 160.766381 
L 928.476 166.137461 
L 930.15 162.906697 
L 931.824 150.493022 
L 933.498 147.671627 
L 935.172 175.684939 
L 936.846 184.245235 
L 938.52 204.89438 
L 941.868 180.521791 
L 943.542 198.653081 
L 945.216 211.062702 
L 946.89 218.897885 
L 950.238 227.742967 
L 951.912 215.474977 
L 955.26 143.454944 
L 956.934 116.711101 
L 958.608 98.320271 
L 960.282 106.414722 
L 961.956 169.671072 
L 963.63 209.566794 
L 965.304 234.440326 
L 966.978 245.37432 
L 968.652 231.232861 
L 970.326 195.639083 
L 970.326 195.639083 
" clip-path="url(#p58ec693a32)" style="fill: none; stroke: #1f77b4; stroke-width: 1.5; stroke-linecap: square"/>
   </g>
   <g id="line2d_16">
    <path d="M 135 130.56936 
L 138.348 193.773105 
L 140.022 211.048351 
L 141.696 221.228042 
L 145.044 230.599009 
L 146.718 230.012724 
L 148.392 217.110626 
L 151.74 150.630144 
L 153.414 125.546334 
L 155.088 109.590863 
L 156.762 108.571537 
L 158.436 125.381886 
L 160.11 133.808932 
L 161.784 129.490705 
L 165.132 120.135374 
L 166.806 118.763089 
L 168.48 125.826228 
L 170.154 98.047728 
L 171.828 89.009798 
L 173.502 108.74451 
L 175.176 133.391674 
L 176.85 160.200338 
L 178.524 190.560519 
L 180.198 207.477399 
L 181.872 218.377647 
L 185.22 232.082842 
L 186.894 234.762213 
L 188.568 227.588379 
L 190.242 211.027406 
L 191.916 189.775298 
L 193.59 172.066817 
L 195.264 149.228242 
L 196.938 139.88845 
L 198.612 152.796028 
L 200.286 164.390358 
L 201.96 161.212844 
L 203.634 163.175507 
L 205.308 164.381444 
L 206.982 159.133081 
L 208.656 159.210434 
L 210.33 133.473654 
L 212.004 112.641241 
L 213.678 122.363901 
L 215.352 140.728471 
L 217.026 161.328776 
L 218.7 200.997331 
L 220.374 218.559485 
L 225.396 235.651286 
L 227.07 230.138276 
L 228.744 211.613009 
L 230.418 179.520812 
L 232.092 144.915373 
L 233.766 122.828116 
L 235.44 107.458492 
L 237.114 101.896576 
L 238.788 126.514416 
L 240.462 136.095376 
L 242.136 146.586013 
L 243.81 173.550163 
L 245.484 163.18369 
L 247.158 150.491025 
L 248.832 135.729557 
L 250.506 139.413323 
L 252.18 97.288421 
L 253.854 123.542901 
L 255.528 162.465301 
L 258.876 216.608464 
L 260.55 229.372077 
L 262.224 232.645259 
L 263.898 218.600743 
L 265.572 219.92573 
L 267.246 210.743713 
L 268.92 207.651395 
L 270.594 177.917101 
L 272.268 152.325529 
L 273.942 130.491861 
L 275.616 103.530878 
L 277.29 105.150517 
L 278.964 135.692049 
L 280.638 157.137149 
L 282.312 161.173924 
L 283.986 161.134907 
L 285.66 157.881307 
L 287.334 163.578687 
L 289.008 136.925606 
L 290.682 127.489902 
L 292.356 122.193315 
L 294.03 197.805983 
L 295.704 159.534946 
L 297.378 182.128261 
L 299.052 189.084626 
L 300.726 198.833736 
L 302.4 213.771148 
L 304.074 216.199438 
L 307.422 223.584459 
L 309.096 224.123592 
L 310.77 174.169572 
L 312.444 155.70266 
L 314.118 124.635878 
L 315.792 99.574086 
L 317.466 121.280861 
L 319.14 167.644738 
L 320.814 195.152064 
L 322.488 217.14789 
L 324.162 185.087988 
L 325.836 195.023613 
L 329.184 128.21438 
L 330.858 126.119029 
L 332.532 99.189659 
L 334.206 129.970849 
L 335.88 153.748132 
L 337.554 174.03927 
L 339.228 198.329577 
L 340.902 202.763493 
L 345.924 217.267719 
L 347.598 213.897407 
L 349.272 204.900053 
L 350.946 177.992408 
L 352.62 158.873987 
L 354.294 119.049168 
L 355.968 104.457458 
L 357.642 128.325295 
L 359.316 142.227697 
L 360.99 163.011984 
L 362.664 158.826299 
L 364.338 193.219894 
L 366.012 190.069659 
L 367.686 197.31483 
L 369.36 164.34077 
L 371.034 206.71137 
L 372.708 159.846404 
L 374.382 144.456516 
L 376.056 180.274809 
L 377.73 192.116006 
L 379.404 225.965792 
L 381.078 174.324619 
L 382.752 206.411701 
L 384.426 210.744785 
L 386.1 219.333064 
L 387.774 210.80655 
L 389.448 205.430418 
L 391.122 185.08565 
L 392.796 155.51522 
L 394.47 121.712343 
L 396.144 96.461358 
L 397.818 131.005372 
L 399.492 128.010184 
L 401.166 169.391659 
L 402.84 172.248996 
L 404.514 177.283858 
L 406.188 172.366876 
L 407.862 159.860531 
L 409.536 145.165747 
L 411.21 132.975682 
L 412.884 127.598186 
L 414.558 127.625903 
L 416.232 164.169795 
L 417.906 176.878973 
L 419.58 200.950227 
L 421.254 193.813389 
L 422.928 205.554729 
L 424.602 214.087769 
L 426.276 219.530538 
L 427.95 210.370392 
L 429.624 212.197833 
L 432.972 162.304408 
L 434.646 132.674648 
L 436.32 105.757748 
L 437.994 143.723952 
L 439.668 165.39697 
L 441.342 202.37059 
L 443.016 173.096372 
L 444.69 169.849786 
L 446.364 183.561679 
L 448.038 179.947666 
L 449.712 148.820288 
L 451.386 140.934908 
L 453.06 126.256686 
L 456.408 174.458135 
L 458.082 193.765311 
L 459.756 192.464339 
L 461.43 184.452505 
L 463.104 197.452098 
L 464.778 207.492694 
L 466.452 204.860305 
L 468.126 203.506968 
L 469.8 221.465776 
L 473.148 194.612102 
L 474.822 161.176068 
L 476.496 123.007811 
L 478.17 109.895112 
L 479.844 119.368615 
L 481.518 147.916261 
L 483.192 158.371485 
L 484.866 153.446319 
L 486.54 144.970173 
L 488.214 168.868601 
L 489.888 168.557679 
L 491.562 129.300489 
L 493.236 126.117471 
L 494.91 114.841077 
L 496.584 145.671416 
L 498.258 173.507297 
L 499.932 196.855778 
L 501.606 200.198032 
L 503.28 214.161761 
L 504.954 224.826638 
L 506.628 226.918384 
L 508.302 212.327891 
L 509.976 212.111614 
L 511.65 185.235534 
L 513.324 152.194886 
L 514.998 141.376814 
L 516.672 143.763895 
L 518.346 186.028256 
L 520.02 193.280929 
L 521.694 219.705946 
L 525.042 194.70212 
L 526.716 170.578453 
L 528.39 163.939782 
L 530.064 205.687076 
L 531.738 149.385481 
L 533.412 160.228883 
L 535.086 143.105663 
L 536.76 172.94639 
L 538.434 164.554904 
L 540.108 186.629301 
L 541.782 203.69548 
L 543.456 185.565112 
L 545.13 206.326749 
L 546.804 215.291271 
L 548.478 196.487718 
L 550.152 195.312858 
L 551.826 183.602547 
L 553.5 154.075373 
L 555.174 122.005242 
L 556.848 145.098916 
L 558.522 176.719103 
L 560.196 183.801483 
L 561.87 210.56582 
L 563.544 190.450871 
L 565.218 187.802797 
L 566.892 169.256243 
L 568.566 177.402323 
L 570.24 153.670438 
L 571.914 133.172085 
L 573.588 135.799895 
L 575.262 164.578431 
L 576.936 128.686438 
L 578.61 127.800483 
L 580.284 155.567731 
L 583.632 193.91349 
L 585.306 196.131056 
L 586.98 202.808063 
L 588.654 212.098024 
L 590.328 188.091701 
L 592.002 167.01773 
L 593.676 151.469385 
L 595.35 123.543486 
L 597.024 106.459868 
L 598.698 95.507548 
L 600.372 113.62983 
L 602.046 128.830769 
L 603.72 116.40124 
L 605.394 109.888438 
L 607.068 105.181059 
L 608.742 103.25191 
L 610.416 117.150707 
L 612.09 103.363945 
L 613.764 79.608971 
L 615.438 91.84765 
L 617.112 117.05577 
L 618.786 147.218038 
L 620.46 171.472056 
L 622.134 188.659476 
L 623.808 202.636844 
L 627.156 220.469223 
L 628.83 218.314907 
L 630.504 206.308774 
L 632.178 178.369821 
L 633.852 142.555327 
L 635.526 118.781015 
L 637.2 100.22579 
L 638.874 94.380669 
L 640.548 111.398916 
L 642.222 117.738405 
L 645.57 108.78265 
L 647.244 102.271553 
L 648.918 108.067525 
L 650.592 118.810874 
L 652.266 98.86388 
L 653.94 83.459037 
L 655.614 99.000271 
L 657.288 125.468153 
L 658.962 153.955885 
L 660.636 177.773306 
L 662.31 194.206535 
L 663.984 208.864493 
L 665.658 220.380203 
L 667.332 227.792819 
L 669.006 227.819878 
L 670.68 225.481435 
L 672.354 211.479541 
L 674.028 186.693891 
L 675.702 165.519283 
L 677.376 147.999362 
L 679.05 143.545085 
L 682.398 168.387434 
L 684.072 165.516653 
L 685.746 169.003725 
L 687.42 171.283398 
L 689.094 178.837154 
L 690.768 200.587574 
L 692.442 203.432635 
L 694.116 170.638173 
L 695.79 195.084599 
L 697.464 226.013432 
L 699.138 250.382894 
L 700.812 272.794469 
L 704.16 310.325464 
L 705.834 322.468888 
L 707.508 336.418345 
L 709.182 342.291329 
L 710.856 348.967459 
L 712.53 361.765339 
L 714.204 358.903278 
L 715.878 348.731698 
L 717.552 340.966537 
L 719.226 342.84583 
L 720.9 326.429382 
L 722.574 295.126936 
L 724.248 277.728695 
L 725.922 270.144884 
L 727.596 254.504232 
L 729.27 213.874854 
L 730.944 190.939442 
L 732.618 160.418271 
L 734.292 132.37605 
L 735.966 139.095143 
L 737.64 154.323019 
L 739.314 167.749564 
L 740.988 190.388813 
L 742.662 221.120415 
L 746.01 236.275858 
L 747.684 245.633478 
L 751.032 251.388849 
L 752.706 231.545195 
L 754.38 199.504875 
L 756.054 178.420529 
L 757.728 155.550389 
L 759.402 140.072626 
L 761.076 146.938924 
L 762.75 169.118488 
L 764.424 157.133106 
L 766.098 159.451115 
L 767.772 154.297836 
L 769.446 149.877121 
L 771.12 157.113963 
L 772.794 131.043854 
L 774.468 119.164224 
L 776.142 122.961341 
L 777.816 137.727437 
L 779.49 158.336998 
L 781.164 193.585275 
L 782.838 211.622313 
L 784.512 220.713484 
L 786.186 228.405798 
L 787.86 233.991995 
L 789.534 228.087642 
L 791.208 215.198428 
L 792.882 195.304967 
L 794.556 156.955262 
L 796.23 133.091322 
L 797.904 116.17264 
L 799.578 108.987918 
L 801.252 129.578385 
L 802.926 137.68652 
L 804.6 131.164462 
L 806.274 125.710734 
L 807.948 116.159878 
L 809.622 118.062041 
L 811.296 125.284123 
L 812.97 107.209773 
L 814.644 87.59606 
L 816.318 105.985326 
L 817.992 128.791313 
L 819.666 157.376466 
L 821.34 192.404181 
L 823.014 209.019637 
L 824.688 218.311692 
L 826.362 224.092953 
L 828.036 231.319834 
L 829.71 227.833103 
L 831.384 210.197078 
L 833.058 186.450093 
L 834.732 151.320378 
L 836.406 127.892011 
L 838.08 110.22016 
L 839.754 104.131435 
L 841.428 125.095612 
L 843.102 128.997701 
L 844.776 125.257478 
L 846.45 117.97894 
L 848.124 109.01734 
L 849.798 111.155849 
L 851.472 112.960834 
L 853.146 85.533735 
L 854.82 76.402426 
L 856.494 99.810432 
L 858.168 125.474242 
L 859.842 155.160945 
L 861.516 187.594265 
L 863.19 206.62788 
L 864.864 218.789741 
L 866.538 223.9693 
L 868.212 229.86396 
L 869.886 231.1435 
L 871.56 217.722046 
L 874.908 146.393507 
L 876.582 123.45566 
L 878.256 107.080982 
L 879.93 104.474458 
L 881.604 124.272689 
L 883.278 128.189391 
L 884.952 125.440486 
L 886.626 121.870313 
L 888.3 111.602772 
L 889.974 111.942287 
L 891.648 102.64731 
L 893.322 86.024693 
L 894.996 66.96 
L 896.67 92.183415 
L 900.018 158.328814 
L 901.692 189.43213 
L 903.366 207.221569 
L 905.04 220.479062 
L 906.714 226.168186 
L 908.388 228.853987 
L 910.062 230.098284 
L 911.736 218.403658 
L 913.41 185.8301 
L 915.084 149.104516 
L 916.758 123.09856 
L 918.432 106.508336 
L 920.106 107.050001 
L 921.78 134.633219 
L 923.454 151.187982 
L 925.128 148.813517 
L 926.802 146.835657 
L 928.476 135.139813 
L 930.15 160.250462 
L 931.824 146.449233 
L 933.498 117.254705 
L 935.172 130.584851 
L 936.846 180.719345 
L 938.52 184.177824 
L 940.194 226.236455 
L 941.868 202.216079 
L 943.542 185.757277 
L 945.216 205.533929 
L 946.89 211.156149 
L 948.564 221.756483 
L 950.238 221.535554 
L 951.912 226.684303 
L 953.586 202.738261 
L 955.26 164.475846 
L 956.934 131.829805 
L 958.608 104.27937 
L 960.282 92.867365 
L 961.956 112.554341 
L 963.63 155.807194 
L 965.304 190.061475 
L 966.978 206.40264 
L 968.652 210.316372 
L 970.326 216.862054 
L 970.326 216.862054 
" clip-path="url(#p58ec693a32)" style="fill: none; stroke: #ff7f0e; stroke-width: 1.5; stroke-linecap: square"/>
   </g>
   <g id="patch_3">
    <path d="M 135 384.48 
L 135 51.84 
" style="fill: none; stroke: #000000; stroke-width: 0.8; stroke-linejoin: miter; stroke-linecap: square"/>
   </g>
   <g id="patch_4">
    <path d="M 972 384.48 
L 972 51.84 
" style="fill: none; stroke: #000000; stroke-width: 0.8; stroke-linejoin: miter; stroke-linecap: square"/>
   </g>
   <g id="patch_5">
    <path d="M 135 384.48 
L 972 384.48 
" style="fill: none; stroke: #000000; stroke-width: 0.8; stroke-linejoin: miter; stroke-linecap: square"/>
   </g>
   <g id="patch_6">
    <path d="M 135 51.84 
L 972 51.84 
" style="fill: none; stroke: #000000; stroke-width: 0.8; stroke-linejoin: miter; stroke-linecap: square"/>
   </g>
  </g>
 </g>
 <defs>
  <clipPath id="p58ec693a32">
   <rect x="135" y="51.84" width="837" height="332.64"/>
  </clipPath>
 </defs>
</svg>
